<svg height='100px' width='100px'  fill="#FFF668" xmlns="http://www.w3.org/2000/svg" xmlns:xlink="http://www.w3.org/1999/xlink" version="1.1" x="0px" y="0px" viewBox="0 0 219.23 242.744" style="enable-background:new 0 0 219.23 242.744;" xml:space="preserve"><g><path d="M8.212,52.655c2.659-0.071,5.353-0.102,8.058-0.102c17.908-0.002,36.258,1.405,50.071,2.818   c6.909,0.706,12.688,1.413,16.727,1.942c0.009,0.001,0.017,0.002,0.026,0.003l2.651,38.215c-0.88-0.486-1.792-0.954-2.774-1.381   c-2.328-0.985-5.033-1.883-8.586-1.912c-2.476-0.015-5.449,0.557-8.157,2.063c-2.027,1.107-3.805,2.688-5.116,4.39   c-1.988,2.575-3.012,5.273-3.62,7.817c-0.602,2.565-0.805,5.077-0.811,7.739c0.025,6.487,1.237,14.063,3.713,24.181   c2.491,10.089,6.312,22.624,11.825,38.36c1.803,5.146,6.634,8.369,11.795,8.369c1.372,0.001,2.766-0.227,4.134-0.707   c6.517-2.281,9.947-9.414,7.665-15.929c-5.335-15.214-8.931-27.099-11.146-36.083c-0.66-2.649-1.193-5.053-1.615-7.206   c0.528,0.53,1.04,1.057,1.526,1.572c1.703,1.777,3.182,3.428,4.214,4.611c0.515,0.592,0.918,1.067,1.186,1.384   c0.134,0.16,0.233,0.279,0.296,0.352c0.06,0.074,0.068,0.085,0.068,0.085c4.372,5.342,12.247,6.13,17.591,1.759   c1.15-0.942,2.076-2.052,2.798-3.259c1.569,4.402,3.942,13.615,3.957,29.253c0,15.371-2.336,36.94-10.137,66.008   c-1.791,6.668,2.162,13.523,8.83,15.313c1.086,0.292,2.177,0.431,3.25,0.431c5.517,0,10.565-3.681,12.065-9.262   c8.278-30.845,10.991-54.584,10.991-72.49c0.03-24.201-5.029-37.759-7.744-43.232l4.194-60.445   c12.1-1.582,39.919-4.768,66.82-4.763c2.706,0,5.398,0.031,8.063,0.101c4.416,0.116,8.09-3.37,8.206-7.788   c0.113-4.416-3.372-8.09-7.788-8.207c-2.822-0.074-5.653-0.105-8.481-0.107c-32.353,0.011-65.002,4.325-73.403,5.511   c-0.206-0.016-0.412-0.031-0.622-0.031h-4.548c-4.109,3.115-9.227,4.968-14.77,4.968s-10.66-1.853-14.771-4.968h-4.547   c-0.211,0-0.419,0.015-0.626,0.032c-8.405-1.187-41.051-5.5-73.402-5.511c-2.828,0-5.661,0.033-8.478,0.106   c-4.417,0.116-7.903,3.79-7.789,8.207C0.119,49.283,3.795,52.769,8.212,52.655z"></path><circle cx="109.615" cy="22.5" r="22.5"></circle></g></svg>