<svg height='100px' width='100px'  fill="#1A1A1A" xmlns="http://www.w3.org/2000/svg" xmlns:xlink="http://www.w3.org/1999/xlink" version="1.1" preserveAspectRatio="none" x="0px" y="0px" viewBox="0 0 90 90"><defs><g id="a"><path fill="#1A1A1A" stroke="none" d=" M 71.85 46.55 Q 63.9 39.6 50.9 33.55 37.9 27.5 27.45 25.85 17.7 24.35 15.5 27.55 15.4 27.7 15.25 28 15.15 28.25 15 28.6 L 14.95 28.8 Q 14.678125 30.340625 15.85 32.45 17.4 35.1 21.5 38.7 29.45 45.65 42.45 51.7 55.45 57.75 65.9 59.4 71.25 60.2 74.3 59.7 76.5609375 59.238671875 77.6 58.05 L 77.7 57.9 77.75 57.85 Q 77.95 57.55 78.05 57.3 78.2 57 78.25 56.8 79.25 53.05 71.85 46.55 M 46.85 39.2 Q 47.75 38.55 49.05 38.55 49.9 38.45 51 38.75 52.2 39.05 53.2 39.55 54.25 40.05 55.15 40.65 56.4 41.45 57.15 42.2 57.85 42.9 58.3 43.8 58.65 44.7 58.8 45.45 58.6 46.05 58.6 46.75 L 62.15 48.35 61.6 49.7 58.05 48.05 Q 57.75 48.55 57.4 48.95 56.95 49.45 56.5 49.85 55.85 50.15 55.15 50.55 54.35 50.85 53.5 51.2 L 50.85 48.25 Q 51.55 47.85 52.25 47.65 52.75 47.35 53.1 47.1 53.35 46.75 53.55 46.55 53.7 46.35 53.95 46.15 L 49.05 44 Q 48.3 44.75 47.45 45.35 46.6 45.9 45.55 46.15 44.8 46.15 44.1 46.05 43.45 45.95 42.75 45.9 42.15 45.65 41.7 45.5 41.1 45.25 41.05 45.2 37.05 43.45 35.7 41.05 35.1 40.05 35.15 39.2 35.15 38.45 35.25 37.8 L 31.25 36 31.85 34.65 36.05 36.45 Q 36.3 35.9 36.7 35.6 37.15 35.3 37.75 35 38.25 34.55 38.85 34.45 39.6 34.25 40.45 34.05 L 43.2 37.1 Q 42.45 37.2 42.15 37.45 41.7 37.5 41.55 37.85 41.35 37.95 41.1 38.05 40.8 38.3 40.55 38.6 L 45.1 40.65 Q 45.9 39.75 46.85 39.2 M 40.5 41.6 Q 40.9 42 41.55 42.25 41.95 42.45 42.35 42.55 42.7 42.45 43.05 42.45 43.25 42.25 43.55 42.15 43.75 41.85 43.85 41.7 L 39.85 39.9 Q 39.85 40.05 39.9 40.25 39.9 40.45 39.95 40.65 40 41.15 40.5 41.6 M 50.45 42.5 Q 50.2 42.6 50.1 42.9 L 54.35 44.85 Q 54.35 44.65 54.4 44.4 54.4 44.1 54.3 43.8 54.05 43.4 53.7 42.95 53.2 42.65 52.55 42.35 52 42.05 51.7 42.05 51.3 42 50.95 42.15 50.65 42.25 50.45 42.5 M 13.7 29.65 L 10.5 36.6 Q 9.45 40.35 17.05 46.85 25.25 54 38.5 60.15 51.75 66.35 62.35 67.95 72.25 69.6 74.5 66.45 L 77.7 59.55 77.55 59.7 Q 76.5 60.95 74.2 61.4 71.05 61.9 65.6 61.1 54.95 59.4 41.7 53.25 28.45 47.05 20.35 39.95 16.15 36.3 14.55 33.6 13.4 31.45 13.65 29.9 L 13.7 29.65 M 9.3 41.65 L 8.75 42.1 6 45.85 4.25 49.25 3.55 51.45 3.1 53.85 3 55.15 2.95 55.4 3.05 61.15 3.15 61.55 Q 3.3 63.05 3.9 64.75 L 5.8 68.85 6.05 69.1 6.05 69.2 6.1 69.3 6.15 69.35 6.5 69.95 7.25 70.9 7.45 71.1 7.6 71.35 8.75 72.6 8.85 72.75 10.25 74 Q 10.35 74.15 10.45 74 10.65 73.9 10.45 73.8 L 7.75 69.9 7.15 68.8 7.05 68.5 6.75 67.95 6.2 66.35 6.1 66.25 6.1 66.1 5.9 65.7 5.6 64.3 Q 5.3 63.2 5.2 61.35 L 5.15 59.8 5.2 59.7 5.15 59.6 5.2 59.35 5.65 55.5 6.8 51.6 6.85 51.25 9.35 42.45 9.45 41.8 Q 9.5 41.65 9.4 41.6 L 9.3 41.65 M 81.35 20 L 81.25 19.85 79.8 18.55 Q 79.7 18.4 79.65 18.6 79.4 18.6 79.6 18.7 L 82.35 22.65 82.45 22.95 82.65 23.15 83.9 26.2 84 26.35 84 26.45 84.5 28.25 Q 84.7 29.3 84.85 31.2 L 84.9 33.15 84.75 34.7 84.8 34.95 83.3 41 83.25 41.35 80.75 50.15 80.65 50.75 Q 80.55 50.9 80.65 50.95 L 80.8 50.9 81.15 50.65 81.45 50.25 81.9 49.8 84.1 46.7 85.8 43.3 85.9 42.95 86.1 42.6 86.55 41.1 87 38.65 87.1 37.4 87.15 37.2 87.05 31.4 86.95 30.95 Q 86.75 29.5 86.15 27.8 L 85.6 26.3 84.3 23.75 84.05 23.45 84 23.3 83.95 23.25 83.95 23.15 83.6 22.6 82.8 21.65 82.6 21.45 82.45 21.2 81.35 20 Z"></path></g></defs><g transform="matrix( 1, 0, 0, 1, 0,0) "><use xlink:href="#a"></use></g></svg>