<svg height='100px' width='100px'  fill="#1A1A1A" xmlns="http://www.w3.org/2000/svg" xmlns:xlink="http://www.w3.org/1999/xlink" version="1.1" x="0px" y="0px" viewBox="0 0 99 99" enable-background="new 0 0 99 99" xml:space="preserve"><g><path d="M6.743,78.215c0,5.075,4.111,9.187,9.187,9.187h66.224c5.069,0,9.186-4.111,9.186-9.187v-6.657H6.743V78.215z"></path><path d="M8.984,59.561c0,3.45,2.793,6.25,6.244,6.25h67.627c3.449,0,6.244-2.8,6.244-6.25c0-3.449-2.795-6.249-6.244-6.249h-5.72   l-18.824,7.329c-1.329,0.518-3.346,0.243-4.492-0.605l-8.342-6.244c-0.221-0.171-0.354-0.324-0.468-0.479h-29.78   C11.777,53.312,8.984,56.111,8.984,59.561z"></path><path d="M86.228,42.235H11.844c-1.62,0-2.937,1.316-2.937,2.932c0,1.631,1.317,2.943,2.937,2.943h74.384   c1.619,0,2.942-1.312,2.942-2.943C89.17,43.552,87.847,42.235,86.228,42.235z"></path><path d="M49.041,9.37C23.495,8.999,6.666,21.559,6.666,36.592h84.75C91.416,21.559,75.25,9.75,49.041,9.37z"></path></g></svg>