<svg xmlns="http://www.w3.org/2000/svg" xmlns:xlink="http://www.w3.org/1999/xlink" version="1.1" x="0px" y="0px" viewBox="206 206 100 100" enable-background="new 206 206 100 100" xml:space="preserve"><g><path fill="#000000" d="M299.232,268.222c-1.4,0-2.556,1.059-2.71,2.418H265.67c-0.143-1.257-1.143-2.257-2.4-2.399v-11.17h2.249   c1.506,0,2.729-1.223,2.729-2.728s-1.223-2.729-2.729-2.729h-6.123v-3.685c6.376-1.533,11.13-7.28,11.13-14.12   c0-8.01-6.516-14.525-14.525-14.525c-8.009,0-14.525,6.516-14.525,14.525c0,6.84,4.753,12.587,11.13,14.12v3.685h-6.124   c-1.504,0-2.729,1.225-2.729,2.729s1.225,2.728,2.729,2.728h2.249v11.17c-1.257,0.143-2.257,1.143-2.4,2.399h-30.852   c-0.154-1.359-1.31-2.418-2.71-2.418c-1.504,0-2.728,1.223-2.728,2.729v19.036c0,1.506,1.224,2.729,2.728,2.729   c1.4,0,2.556-1.06,2.71-2.419h30.852c0.154,1.359,1.31,2.419,2.709,2.419c1.4,0,2.556-1.06,2.71-2.419h8.5   c0.155,1.359,1.311,2.419,2.71,2.419s2.556-1.06,2.71-2.419h30.852c0.154,1.359,1.31,2.419,2.71,2.419   c1.504,0,2.729-1.224,2.729-2.729V270.95C301.96,269.444,300.736,268.222,299.232,268.222z M265.689,271.259h30.813v18.419h-30.813   V271.259z M242.094,233.809c0-7.668,6.238-13.906,13.906-13.906c7.668,0,13.906,6.238,13.906,13.906   c0,7.667-6.238,13.906-13.906,13.906C248.333,247.715,242.094,241.477,242.094,233.809z M253.225,248.064   c0.899,0.175,1.826,0.27,2.775,0.27s1.877-0.094,2.775-0.27v3.549h-5.551V248.064z M244.372,254.343   c0-1.163,0.946-2.109,2.109-2.109h6.431c0.001,0,0.001,0,0.002,0c0.001,0,0.001,0,0.002,0h6.166c0.001,0,0.002,0,0.002,0   c0.002,0,0.002,0,0.003,0h6.431c1.164,0,2.109,0.946,2.109,2.109s-0.945,2.109-2.109,2.109h-2.551c-0.002,0-0.005,0-0.008,0   s-0.005,0-0.008,0h-13.904c-0.002,0-0.005,0-0.008,0s-0.005,0-0.008,0h-2.551C245.319,256.452,244.372,255.506,244.372,254.343z    M262.651,257.07v11.169c-1.359,0.155-2.419,1.311-2.419,2.711v18.728h-8.462V270.95c0-1.4-1.06-2.556-2.419-2.71v-11.17H262.651z    M215.498,271.259h30.814v18.419h-30.814V271.259z M214.879,289.986c0,1.164-0.946,2.109-2.109,2.109s-2.108-0.945-2.108-2.109   V270.95c0-1.164,0.945-2.109,2.108-2.109s2.109,0.945,2.109,2.109V289.986z M251.15,289.986c0,1.164-0.947,2.109-2.11,2.109   s-2.109-0.945-2.109-2.109V270.95c0-1.164,0.946-2.109,2.109-2.109s2.11,0.945,2.11,2.109V289.986z M265.07,289.986   c0,1.164-0.946,2.109-2.109,2.109s-2.109-0.945-2.109-2.109V270.95c0-1.164,0.946-2.109,2.109-2.109s2.109,0.945,2.109,2.109   V289.986z M301.341,289.986c0,1.164-0.946,2.109-2.109,2.109s-2.11-0.945-2.11-2.109V270.95c0-1.164,0.947-2.109,2.11-2.109   s2.109,0.945,2.109,2.109V289.986z"></path><path fill="#000000" d="M268.284,233.809c0-6.773-5.511-12.285-12.284-12.285c-6.774,0-12.285,5.511-12.285,12.285   c0,6.774,5.511,12.285,12.285,12.285C262.774,246.093,268.284,240.583,268.284,233.809z M244.335,233.809   c0-6.432,5.233-11.665,11.666-11.665c6.432,0,11.665,5.233,11.665,11.665c0,6.433-5.232,11.666-11.665,11.666   C249.568,245.474,244.335,240.241,244.335,233.809z"></path><path fill="#000000" d="M256.001,225.476c0.171,0,0.31-0.139,0.31-0.31v-1.676c0-0.171-0.139-0.31-0.31-0.31   c-0.171,0-0.31,0.139-0.31,0.31v1.676C255.691,225.337,255.829,225.476,256.001,225.476z"></path><path fill="#000000" d="M260.167,226.592c0.048,0.028,0.103,0.042,0.155,0.042c0.106,0,0.21-0.055,0.267-0.155l0.841-1.452   c0.085-0.148,0.034-0.337-0.113-0.423c-0.148-0.086-0.339-0.035-0.424,0.113l-0.839,1.452   C259.968,226.317,260.019,226.506,260.167,226.592z"></path><path fill="#000000" d="M263.487,229.797c0.053,0,0.105-0.013,0.153-0.042l1.452-0.838c0.148-0.085,0.199-0.275,0.114-0.423   c-0.086-0.148-0.275-0.199-0.424-0.113l-1.451,0.838c-0.148,0.086-0.199,0.275-0.113,0.423   C263.275,229.741,263.379,229.797,263.487,229.797z"></path><path fill="#000000" d="M264.334,233.809c0,0.171,0.139,0.31,0.309,0.31h1.678c0.17,0,0.31-0.139,0.31-0.31   c0-0.171-0.14-0.31-0.31-0.31h-1.678C264.473,233.499,264.334,233.638,264.334,233.809z"></path><path fill="#000000" d="M263.331,238.398l1.451,0.838c0.05,0.028,0.103,0.042,0.155,0.042c0.106,0,0.211-0.056,0.269-0.155   c0.085-0.148,0.034-0.337-0.114-0.423l-1.452-0.838c-0.146-0.085-0.337-0.035-0.422,0.113   C263.132,238.124,263.183,238.313,263.331,238.398z"></path><path fill="#000000" d="M260.589,241.139c-0.085-0.148-0.273-0.199-0.422-0.114c-0.148,0.086-0.199,0.275-0.113,0.423l0.839,1.453   c0.058,0.099,0.162,0.155,0.269,0.155c0.053,0,0.105-0.013,0.153-0.042c0.148-0.085,0.199-0.274,0.114-0.423L260.589,241.139z"></path><path fill="#000000" d="M256.31,244.128v-1.676c0-0.171-0.139-0.31-0.31-0.31c-0.171,0-0.31,0.138-0.31,0.31v1.676   c0,0.171,0.138,0.31,0.31,0.31C256.172,244.438,256.31,244.3,256.31,244.128z"></path><path fill="#000000" d="M251.834,241.025c-0.148-0.085-0.337-0.035-0.423,0.114l-0.838,1.452c-0.085,0.148-0.035,0.337,0.113,0.423   c0.049,0.028,0.102,0.042,0.154,0.042c0.107,0,0.211-0.056,0.269-0.155l0.838-1.453   C252.032,241.301,251.982,241.111,251.834,241.025z"></path><path fill="#000000" d="M248.36,237.862l-1.452,0.838c-0.148,0.085-0.199,0.275-0.113,0.423c0.057,0.099,0.161,0.155,0.269,0.155   c0.052,0,0.105-0.013,0.154-0.042l1.452-0.838c0.148-0.085,0.199-0.274,0.113-0.423   C248.698,237.828,248.509,237.777,248.36,237.862z"></path><path fill="#000000" d="M247.667,233.809c0-0.171-0.139-0.31-0.31-0.31h-1.676c-0.171,0-0.31,0.139-0.31,0.31   c0,0.171,0.138,0.31,0.31,0.31h1.676C247.529,234.119,247.667,233.98,247.667,233.809z"></path><path fill="#000000" d="M248.67,229.219l-1.452-0.838c-0.148-0.086-0.337-0.035-0.423,0.113c-0.085,0.147-0.035,0.337,0.113,0.423   l1.452,0.838c0.049,0.028,0.102,0.042,0.155,0.042c0.107,0,0.211-0.056,0.268-0.155   C248.869,229.494,248.818,229.305,248.67,229.219z"></path><path fill="#000000" d="M251.109,224.717c-0.085-0.148-0.274-0.199-0.423-0.113c-0.148,0.085-0.199,0.274-0.113,0.423l0.838,1.452   c0.057,0.1,0.162,0.155,0.269,0.155c0.053,0,0.105-0.013,0.154-0.042c0.148-0.085,0.199-0.275,0.113-0.423L251.109,224.717z"></path><path fill="#000000" d="M257.479,233.809c0-0.158-0.026-0.311-0.072-0.454l3.91-2.258c0.147-0.085,0.198-0.274,0.113-0.423   c-0.087-0.148-0.275-0.199-0.424-0.113l-3.911,2.257c-0.271-0.299-0.66-0.488-1.094-0.488c-0.815,0-1.478,0.663-1.478,1.478   s0.663,1.478,1.478,1.478S257.479,234.624,257.479,233.809z M255.142,233.809c0-0.474,0.385-0.858,0.859-0.858   s0.859,0.385,0.859,0.858c0,0.473-0.385,0.858-0.859,0.858S255.142,234.282,255.142,233.809z"></path></g></svg>