<svg xmlns="http://www.w3.org/2000/svg" xmlns:xlink="http://www.w3.org/1999/xlink" version="1.1" x="0px" y="0px" viewBox="0 0 512 512" style="enable-background:new 0 0 512 512;" xml:space="preserve"><g><g><rect x="165" y="310" width="12" height="39"></rect></g><g><path d="M326.5,83.6c-0.8-6-5.8-10.5-11.9-10.6h-23.2c-4.4,0-8.4-3.4-8.4-7.8V57c0-14.9-12.1-27-27-27s-27,12.1-27,27v8.2    c0,4.4-3.9,7.8-8.4,7.8h-23.2c-6.1,0.1-11.1,4.6-11.9,10.6l-4.6,36.4h150.2L326.5,83.6z"></path></g><g><rect x="335" y="248" width="12" height="101"></rect></g><g><rect x="278" y="284" width="12" height="65"></rect></g><g><path d="M171,252c-4.2,0-7.6,3.4-7.6,7.6c0,4.2,3.4,7.6,7.6,7.6s7.6-3.4,7.6-7.6C178.7,255.4,175.2,252,171,252z"></path></g><g><circle cx="341" cy="198.3" r="7.6"></circle></g><g><circle cx="227.7" cy="269.9" r="7.6"></circle></g><g><circle cx="284.3" cy="233.9" r="7.6"></circle></g><g><path d="M392.3,102h-47.4l3.2,25.2c0.3,2.2-0.4,4.5-1.9,6.1c-1.5,1.7-3.7,2.7-6,2.7H171.8c-2.3,0-4.5-0.9-6-2.6    c-1.5-1.7-2.2-4-1.9-6.2l3.2-25.2h-47.4c-17.4-0.1-31.6,13.9-31.7,31.3c0,0.1,0,0.3,0,0.4v316.7c-0.1,17.4,13.9,31.6,31.3,31.6    c0.1,0,0.3,0,0.4,0h272.6c17.4,0.1,31.6-13.9,31.7-31.3c0-0.1,0-0.3,0-0.4V133.7c0.1-17.4-13.9-31.6-31.3-31.7    C392.5,102,392.4,102,392.3,102z M149,357v-55c0-4.4,3.6-8,8-8h28c4.4,0,8,3.6,8,8v55c0,4.4-3.6,8-8,8h-28    C152.6,365,149,361.4,149,357z M349.7,433H162.3c-4.4,0-8-3.6-8-8s3.6-8,8-8h187.5c4.4,0,8,3.6,8,8S354.2,433,349.7,433z M206,357    v-45c0-4.4,3.6-8,8-8h28c4.4,0,8,3.6,8,8v45c0,4.4-3.6,8-8,8h-28C209.6,365,206,361.4,206,357z M262,358v-82c0-4.4,3.6-8,8-8h28    c4.4,0,8,3.6,8,8v82c0,4.4-3.6,8-8,8h-28C265.6,366,262,362.4,262,358z M363,357c0,4.4-3.6,8-8,8h-28c-4.4,0-8-3.6-8-8V240    c0-4.4,3.6-8,8-8h28c4.4,0,8,3.6,8,8V357z M341,221.9c-5.6,0-11-2-15.3-5.6l-18.2,12.9c2.6,12.8-5.7,25.2-18.5,27.8    c-6.4,1.3-13.1-0.1-18.4-4l-19.3,16.3c0,0.2,0,0.4,0,0.6c0,13-10.6,23.6-23.6,23.6c-10.9,0-20.3-7.4-22.9-18l-12.7-5.2    c-6,11.6-20.2,16.1-31.8,10.2c-11.6-6-16.1-20.2-10.2-31.8c6-11.6,20.2-16.1,31.8-10.2c6.1,3.1,10.5,8.7,12.1,15.3l12.7,5.2    c6-11.6,20.2-16.2,31.8-10.2c2.4,1.2,4.6,2.9,6.5,4.9l16.6-14c-3.3-12.6,4.3-25.5,16.9-28.8c7.3-1.9,15-0.2,20.8,4.5l18.5-13.1    c-2.2-12.8,6.4-25.1,19.2-27.3c12.8-2.2,25.1,6.4,27.3,19.2c2.2,12.8-6.4,25.1-19.2,27.3C343.7,221.8,342.3,221.9,341,221.9    L341,221.9z"></path></g><g><rect x="222" y="320" width="12" height="29"></rect></g></g></svg>