<svg xmlns="http://www.w3.org/2000/svg" xmlns:xlink="http://www.w3.org/1999/xlink" version="1.1" x="0px" y="0px" viewBox="0 0 52 52" enable-background="new 0 0 52 52" xml:space="preserve"><g><path d="M42.002594,25.9951782c0-8.8222656-7.1777344-16-16-16s-16,7.1777344-16,16s7.1777344,16,16,16   S42.002594,34.8174438,42.002594,25.9951782z M34.9999695,29.000061c-1.2999878,0-2.4099731-0.8400879-2.8200073-2h-2.3099976   c-0.3599854,1.3999023-1.460022,2.5100098-2.8699951,2.869873v2.3000488c1.1699829,0.4100342,2,1.5200195,2,2.8300781   c0,1.6499023-1.3400269,3-3,3c-1.6500244,0-3-1.3500977-3-3c0-1.3100586,0.8400269-2.4100342,2-2.8300781v-2.3000488   c-1.4000244-0.3598633-2.5100098-1.4699707-2.8699951-2.869873h-2.3099976c-0.4000244,1.1599121-1.5100098,2-2.8200073,2   c-1.6500244,0-3-1.3500977-3-3c0-1.6600342,1.3499756-3,3-3c1.3099976,0,2.4199829,0.8299561,2.8200073,2h2.3099976   c0.3599854-1.4000244,1.4699707-2.5100098,2.8699951-2.8701172v-2.3099365c-1.1599731-0.4100342-2-1.5200195-2-2.8199463   c0-1.6600342,1.3499756-3,3-3c1.6599731,0,3,1.3399658,3,3c0,1.2999268-0.8300171,2.4099121-2,2.8199463v2.3099365   c1.4099731,0.3601074,2.5100098,1.4700928,2.8699951,2.8701172h2.3099976c0.4100342-1.1700439,1.5200195-2,2.8200073-2   c1.6599731,0,3,1.3399658,3,3C37.9999695,27.6499634,36.6599426,29.000061,34.9999695,29.000061z"></path><path d="M14.8812561,47.2573853c3.0494385,1.6020508,6.4813843,2.5675049,10.1213379,2.7172852V43.944519   c-2.5470581-0.1409912-4.9516602-0.8063965-7.1101074-1.9018555L14.8812561,47.2573853z"></path><path d="M37.1199646,4.7390747c-3.0476074-1.5994873-6.4778442-2.5633545-10.1173706-2.713623v6.0203857   c2.5471191,0.1409912,4.9519043,0.8065186,7.1104126,1.9019775L37.1199646,4.7390747z"></path><path d="M37.1234436,47.2572632l-3.010437-5.2147217c-2.1585083,1.095459-4.5632935,1.7609863-7.1104126,1.9019775v6.0301514   C30.6434631,49.8241577,34.0750427,48.8588257,37.1234436,47.2572632z"></path><path d="M35.8473206,10.944519c2.0724487,1.3602295,3.8460083,3.1339111,5.2061768,5.2062988l5.2025757-3.00354   c-1.8955078-2.9779053-4.4274292-5.5096436-7.4056396-7.4047852L35.8473206,10.944519z"></path><path d="M42.0501404,34.1050415l5.2113647,3.0095215c1.6000977-3.0490723,2.5639038-6.4802246,2.7132568-10.1193848h-6.0228271   C43.8109436,29.5420532,43.1455383,31.9465942,42.0501404,34.1050415z"></path><path d="M42.0500793,17.8851929c1.0953979,2.1584473,1.7608643,4.5631104,1.9018555,7.1099854h6.022583   c-0.1506348-3.6396484-1.1149292-7.0699463-2.7148438-10.1174316L42.0500793,17.8851929z"></path><path d="M16.1584778,41.0462036c-2.0727539-1.3603516-3.8464355-3.1340332-5.2067871-5.206665l-5.2071533,3.0061035   c1.8961182,2.9785156,4.428772,5.5113525,7.4069824,7.407959L16.1584778,41.0462036z"></path><path d="M14.8847351,4.7389526l3.0077515,5.2087402c2.1584473-1.095459,4.5630493-1.7608643,7.1101074-1.9018555V2.0253296   C21.3639832,2.1749878,17.9333191,3.138855,14.8847351,4.7389526z"></path><path d="M41.0533752,35.8396606c-1.3601685,2.0725098-3.133606,3.8459473-5.2060547,5.2061768l3.0062256,5.2073975   c2.9779053-1.8966064,5.5095215-4.4295654,7.404541-7.407959L41.0533752,35.8396606z"></path><path d="M2.025238,26.9951782c0.1495361,3.6394043,1.1141968,7.0710449,2.7155762,10.1201172l5.2142944-3.0101318   c-1.0953979-2.1584473-1.7608643-4.5631104-1.9018555-7.1099854H2.025238z"></path><path d="M10.9516907,16.1508179c1.3603516-2.0726318,3.1340332-3.8463135,5.2067871-5.206665l-3.0039063-5.2021484   c-2.9782104,1.8950195-5.5110474,4.4265137-7.4075317,7.4041748L10.9516907,16.1508179z"></path><path d="M4.7429504,14.8762817C3.1416321,17.9241333,2.1763,21.3550415,2.0254822,24.9951782h6.027771   c0.1409912-2.546875,0.8064575-4.9515381,1.9018555-7.1099854L4.7429504,14.8762817z"></path></g></svg>