<svg xmlns="http://www.w3.org/2000/svg" xmlns:xlink="http://www.w3.org/1999/xlink" version="1.1" x="0px" y="0px" viewBox="0 0 100 100" enable-background="new 0 0 100 100" xml:space="preserve"><path d="M93.447,24.112L75.889,6.553c-2.068-2.068-3.283-2.068-5.353-0.001L69.979,7.11c-2.052,2.055-2.063,3.268-0.04,5.308  l-2.902,2.901c-2.519,2.519-3.368,4.572-3.365,8.134l0.009,7.963L27.534,67.561c-4.717,4.717-6.244,8.981-6.715,10.836  c-0.136,0.535,0.248,0.918,0.783,0.783c1.856-0.471,6.123-1.998,10.839-6.715l36.147-36.146l7.955,0.008  c3.573,0,5.624-0.851,8.137-3.365l2.903-2.903c2.042,2.025,3.252,2.014,5.308-0.039l0.559-0.557  C95.518,27.394,95.518,26.181,93.447,24.112z M76.576,31.597c-0.028,0-8.166-0.008-8.166-0.008l-0.01-8.141  c0-2.304,0.351-3.155,1.979-4.783l2.901-2.901l10.955,10.953l-2.901,2.901C79.711,31.242,78.861,31.597,76.576,31.597z"></path><path d="M37.899,70.484l-3.719,3.719c-6.849,6.847-13.033,7.589-13.293,7.617l-1.848,0.203c-0.856,0.093-1.156-0.207-1.063-1.063  l0.201-1.849c0.029-0.26,0.772-6.443,7.618-13.291l3.721-3.719l-7.056-7.056c-0.72-0.72-1.286-0.72-2.006,0l-7.76,7.761  c-14.115,14.111-4.49,28.988-4.49,28.988s14.876,9.623,28.987-4.49l7.762-7.76c0.721-0.72,0.72-1.287,0-2.007L37.899,70.484z"></path></svg>