<svg xmlns="http://www.w3.org/2000/svg" data-name="Layer 1" viewBox="0 0 100 100" x="0px" y="0px"><title>03</title><g data-name="Group"><path data-name="Compound Path" d="M89.3,41.6,79.1,37.9l4.6-9.7a3,3,0,0,0-.6-3.4l-7.9-7.9a3,3,0,0,0-3.4-.6l-9.7,4.6L58.4,10.7a3,3,0,0,0-2.8-2H44.4a3,3,0,0,0-2.8,2L37.9,20.9l-9.7-4.6a3,3,0,0,0-3.4.6l-7.9,7.9a3,3,0,0,0-.6,3.4l4.6,9.7L10.7,41.6a3,3,0,0,0-2,2.8V55.6a3,3,0,0,0,2,2.8l10.1,3.6-4.6,9.7a3,3,0,0,0,.6,3.4l7.9,7.9a3,3,0,0,0,3.4.6l9.7-4.6,3.6,10.1a3,3,0,0,0,2.8,2H55.6a3,3,0,0,0,2.8-2l3.6-10.1,9.7,4.6a3,3,0,0,0,3.4-.6l7.9-7.9a3,3,0,0,0,.6-3.4l-4.6-9.7,10.1-3.6a3,3,0,0,0,2-2.8V44.4A3,3,0,0,0,89.3,41.6ZM50,64.8A14.8,14.8,0,1,1,64.8,50,14.9,14.9,0,0,1,50,64.8Z"></path></g></svg>