<svg height='100px' width='100px'  fill="#666666" xmlns="http://www.w3.org/2000/svg" xmlns:xlink="http://www.w3.org/1999/xlink" version="1.2" baseProfile="tiny" x="0px" y="0px" viewBox="0 0 32 32" xml:space="preserve"><path d="M15.027,3.007c0,0,0.004,0.021,0.011,0.051C14.899,3.134,15.027,3.007,15.027,3.007z M9.103,4.683  C9.073,4.572,8.99,4.462,8.825,4.358C8.825,4.358,8.931,4.544,9.103,4.683z M15.528,2.723c0.027-0.021,0.052-0.039,0.082-0.061  C15.61,2.662,15.447,2.625,15.528,2.723z M18.115,26.741l-0.003,0.001C18.103,27.039,18.115,26.741,18.115,26.741z M2.266,20.049  c0,0,0.9-0.172,1.286,0.146c0,0-0.888-1.644-1.551-1.67c0,0,0.888,0,1.034,0.251c0,0-0.543-0.98-0.901-1.101  c0,0,0.49,0.067,0.65,0.227c0.159,0.159,0.052,0.026,0.052,0.026s0.054-1.126-0.371-1.219c0,0,0.279,0.066,0.49,0.358  c0,0-0.132-1.352-0.754-1.776c0,0,0.849,0.384,1.034,0.676c0,0,0.132-1.14-0.121-1.365c0,0,0.398,0.052,0.413,0.211  c0,0,0.278-0.609-0.014-0.874c0,0,0.238,0.159,0.332,0.346c0,0,0.318-0.346,0.08-0.637c0,0,0.371-0.027,0.423,0.106  c0,0,0.689-1.512,0.782-1.63c0.093-0.121,0.648-0.16,0.371-0.597c-0.278-0.438,1.605-0.729,0.253-1.153s-0.292-0.106-0.292-0.106  s0.16-1.247-0.98-1.299c0,0,0.503-0.955,1.219-0.291c0,0,1.14-1.617-0.08-1.75c0,0,1.326-0.372,1.406,0.292  c0,0,1.405-1.855-0.159-1.988c0,0,1.325-0.371,1.536,0.371c0,0,0.824-0.464,0.702-0.922C9.275,4.822,9.514,4.916,9.78,4.73  c0.529-0.372,2.941-1.035,2.332-1.326c-0.61-0.292-0.954-0.397-0.954-0.397s1.297-0.689,1.802-0.053  c0.504,0.636,0.16,0.08,0.16,0.08S14.285,3.112,13.834,2c0,0,0.822,0.264,1.086,1.007c0.221,0.62,0.147,0.205,0.117,0.051  c0.071-0.04,0.218-0.137,0.49-0.335c0.052,0.064,0.208,0.186,0.585,0.417c0.955,0.583,2.678,2.147,2.678,2.465  s0.291-1.087,0.291-1.087s0.821,1.299,0.557,2.173c0,0,0.449-0.636,0.688-0.901c0,0,0.027,1.325,0.027,2.439  c0,1.112-0.822,2.597-0.822,2.597s0.673-0.573,0.9-1.08c0.229-0.506,0.2-0.974,0.2-0.974l0.218,0.308l0.109-0.577l0.15,0.586  l0.148-0.238l-0.02,0.298l0.029,0.069l0.407-0.477l-0.04-0.507l0.1,0.109c0,0,0.149-0.695,0.159-0.656s0.09,0.617,0.09,0.617  l0.169-0.199l-0.04,0.735c0,0,0.692,1.481,0.705,2.011c0,0,1.86,0.188,3.366,1.909c1.299,1.484,0.901,1.855,1.378,2.809  c0.478,0.954,0.372,1.696-0.636,1.908c0,0-0.769,0.477-1.271,0.477c0,0-1.564-0.026-1.564,0.238c0,0.266,0.504,0.055,1.007,0.027  c0.504-0.027,1.671-0.345,2.147-0.131c0.478,0.211,1.405,1.364,1.405,1.364l-0.345,0.052l0.291,0.371l-0.345,0.039  c0,0,0.173,0.267,0.186,0.359c0.014,0.093-0.357,0.119-1.021,0.45c-0.662,0.331-1.829-0.265-2.12-0.197  c-0.292,0.064-0.569-0.135-1.404,0.887c-0.836,1.021-2.942,1.55-2.902,2.066l-0.278-0.198c0,0-0.187,0.557-0.053,0.822  c0,0-0.465-0.16-0.478-0.438c0,0-0.04,0.37,0.053,0.543c0,0-0.543-0.345-0.543-0.597c0,0-0.053,0.279-0.026,0.491  c0,0-0.597-0.252-0.583-0.465c0,0,0.065,0.704,0.026,1.272c0,0-0.159,0.014-0.159-0.119c0,0-0.04,0.425,0.026,0.676  c0,0-0.45,0.306-0.438,0.823c0,0-0.41,0-0.423,0.396c-0.001,0.023-0.001,0.035-0.003,0.054c-0.02,0.012-0.961,0.583-0.541,0.621  c0.425,0.041,0.98-0.185,1.723-0.343c0.742-0.16,1.498-0.014,1.816,0.316c0.316,0.332,0.608,0.901,0.608,0.901l-0.649,0.04  c0,0,0.252,0.266,0.292,0.346c0.039,0.078-1.273,0.131-1.273,0.131l0.16,0.292l-0.398,0.119c0,0,0.199,0.172,0.199,0.478  l-0.529,0.04c0,0-0.292,0.291-0.689,0.291c-0.398,0-2.106-0.158-2.81-0.477c-0.702-0.317-3.485-0.292-4.081,0.026  c0,0,0.781-0.531,0-0.371c-0.782,0.158-1.286,0.266-1.286,0.266s0.49-0.544-0.054-0.372c-0.542,0.172-1.431,0.159-1.431,0.159  s0.385-0.385-0.067-0.358c-0.451,0.027-1.828,0.133-1.855,0.266c0,0-0.118-0.463-0.529-0.358c-0.411,0.107-0.702,0.107-0.702,0.107  s0.173-0.743-0.24-0.743c-0.41,0-0.635,0-0.635,0s0.266-0.609,0.186-0.622c-0.08-0.014-0.518-0.146-0.518-0.146l0.186-0.41  l-0.503-0.054c0,0,0.172-0.437,0.265-0.464c0.093-0.026-0.199-0.518-0.529-0.438c-0.332,0.08,0.118-0.318,0.118-0.318  s-0.437-0.065-0.807-0.065c-0.372,0,0.079-0.291,0.265-0.332c0.185-0.039,0.052-0.702-0.332-0.596c0,0-0.146-0.517,0.278-0.503  c0,0-1.101-0.412-1.272-0.372c0,0,0.53-0.437,1.26-0.424c0,0-0.571-1.59-1.048-1.59c0,0,0.729-0.08,0.995,0.146  C3.684,21.931,3.035,20.221,2.266,20.049z M24.786,14.894c0.577-0.1,0.338,0.08,0.775,0.059c0.438-0.019-0.298-0.595-0.396-0.794  c-0.1-0.199-0.041-1.372-0.656-1.391c-0.616-0.02-1.511,0.854-1.511,0.854C23.137,14.993,24.21,14.993,24.786,14.894z M8.612,25.456  c-1.909-6.255,0.531-9.33,3.076-10.602c2.543-1.272,4.035-0.06,4.035-0.06s0.099-0.198,0.119-0.655  c0.019-0.457,1.629,0.08,1.629,0.08l-0.456-0.379c0,0,1.052-0.02,0.694-0.059c-0.357-0.039-0.518-0.438,0.02-0.417  c0.537,0.02,0.537-0.278,0.318-0.477s0.557-0.159,0.299-0.279c-0.259-0.118,0.179-0.715,0.179-0.715  c0.212-1.106-0.636,0.259-0.636,0.047c0-0.212-0.214-0.159-0.214-0.159c-0.104,0.583-0.688,1.219-0.846,0.688  c-0.024-0.077-0.038-0.138-0.05-0.19c0.031-0.088,0.05-0.17,0.05-0.233c0,0-0.115-0.074-0.05,0.233  c-0.171,0.508-0.737,1.31-0.692,1.04c0.053-0.318-0.213-0.531-0.213-0.531c0,0.477-0.848,1.22-0.848,1.22  c-3.816-0.106-6.944,1.961-7.421,5.671C7.129,23.389,8.612,25.456,8.612,25.456z M24.728,13.688  c-0.306-0.238-1.259,0.013-1.259,0.013s-0.199,0.689,0.238,0.835c0.438,0.146,1.112,0.317,1.285-0.106  C24.992,14.431,25.032,13.926,24.728,13.688z"></path></svg>