<svg xmlns="http://www.w3.org/2000/svg" xmlns:xlink="http://www.w3.org/1999/xlink" version="1.1" x="0px" y="0px" viewBox="0 0 66 66" style="enable-background:new 0 0 66 66;" xml:space="preserve"><g><path d="M28,51c-1.8,0.7-3.7,1.2-5.6,1.3l3.9,10.8c0.5,1.4,2.1,2.3,3.7,1.7c1.5-0.5,2.2-2.2,1.7-3.7L28,51z"></path><path d="M14.3,55.5l-3.5,5c-0.9,1.3-0.6,3.1,0.7,4c1.3,0.9,3.1,0.6,4-0.7l3.9-5.6c0.7-1,0.4-1.7,1.1-5.8c-1.9-0.1-3.8-0.4-5.6-1.1   L14.3,55.5z"></path><path d="M16.3,16.7c0,2.6,2.2,4.8,4.8,4.8c2.6,0,4.8-2.1,4.8-4.8c0-2.6-2.1-4.8-4.8-4.8C18.5,11.9,16.3,14,16.3,16.7z"></path><circle cx="51.6" cy="16.7" r="4.8"></circle><path d="M35.7,30.4L31,32c-0.7,0.3-1.5,0-2-0.5c-0.1-0.1-1.8-2.1-1.7-2v4l3,15.3c-5.6,3.3-12.3,3.6-18.4,0l3-15.3v-5.3   c-0.1,0-1.2,0.6-1.1,0.5c-1,0.5-2.4,0-2.7-1.2l-2.9-9.9c-0.2-0.8,0.1-1.6,0.7-2.1l-1.7-5.1c0,0,0,0,0,0c-1.8,0.4-4-0.8-4.8-3.2   C1.8,4.9,2.8,2.4,5,1.7C7.1,1,9.4,2.4,10.2,4.8c0.7,2.1,0,4.5-2,5.4l1.7,5.1c0.9-0.1,1.7,0.5,2,1.4c0,0.1,2.4,8.2,2.2,7.7   c0.8-0.2,6-4.3,13.1-0.4v0c0.6,0.3,0.6,0.5,3.7,4l3.5-1.2c1-0.3,2.1,0.2,2.4,1.2C37.3,29,36.7,30.1,35.7,30.4z"></path><path d="M17,7.8l5.1-0.7l-2.5-5.4l-3.8,3.5c-0.5,0.4-0.6,1.1-0.3,1.7C15.7,7.6,16.4,7.9,17,7.8z"></path><path d="M63.6,35.1l-2,8.1c-0.3,1-1.3,1.6-2.3,1.4c-1-0.3-1.6-1.3-1.4-2.3l1.9-7.4l-1.3-2.7l-1.1,14.6l0.6,7.3L61,61   c0.6,1.4,0,3.1-1.5,3.8c-1.4,0.6-3.1,0-3.8-1.5L52.6,56c-0.1-0.3-0.2-0.6-0.2-0.9l-0.6-7.3h-0.3l-3.5,15.1   c-0.3,1.4-1.8,2.5-3.4,2.1C43,64.6,42,63,42.4,61.5l3.4-14.8l-1.5-19.4L41,26.7c-0.7-0.1-1.3-0.6-1.5-1.3l-3.1-10.4   c-0.2-0.6,0-1.2,0.3-1.6L35.6,10c-1.8,0.4-4-0.8-4.8-3.2c-0.7-2.3,0.2-4.9,2.4-5.6c2.1-0.7,4.5,0.7,5.3,3.1c0.8,2.3-0.2,4.6-2,5.4   l1,3.1c0.1,0,0.1-0.1,0.2-0.1c1-0.3,2.1,0.3,2.4,1.3l2.7,9.2l3.7,0.7c4-2.1,8.2-1.4,12.5,1.6v0c1,0.5,0.7,0.9,4.5,8.3   C63.7,34.2,63.7,34.7,63.6,35.1z"></path></g></svg>