<svg height='100px' width='100px'  fill="#1A1A1A" xmlns="http://www.w3.org/2000/svg" xmlns:xlink="http://www.w3.org/1999/xlink" xml:space="preserve" version="1.1" style="shape-rendering:geometricPrecision;text-rendering:geometricPrecision;image-rendering:optimizeQuality;" viewBox="0 0 846.66 846.66" x="0px" y="0px" fill-rule="evenodd" clip-rule="evenodd"><defs><style type="text/css">
   
    .fil0 {fill:#1A1A1A;fill-rule:nonzero}
   
  </style></defs><g><path class="fil0" d="M423.33 81.88c119.37,0 216.14,96.77 216.14,216.14 0,70.76 -56.05,153.1 -108.01,197.75l0 26.47 -216.26 0 0 -26.47c-51.96,-44.65 -108.01,-126.99 -108.01,-197.75 0,-119.37 96.77,-216.14 216.14,-216.14zm-33.43 79.57l-47.22 152.37 60.3 0 -42.12 149.67 143.11 -214.31 -81.36 1.45 58.36 -89.18 -91.07 0zm38.4 494.47c34.01,-0.95 69.03,-0.07 103.16,-0.07 0,30.96 -8.68,53.53 -43.45,54.52 -0.47,16.45 -8.42,29.82 -20.11,39.2 -25.26,20.27 -63.88,20.27 -89.14,0 -11.68,-9.38 -19.64,-22.75 -20.11,-39.2 -16.38,-0.46 -27.15,-5.9 -33.92,-14.89 -8.47,-11.27 -9.53,-26.05 -9.53,-39.63l60.64 0 0 -30.4 -60.64 0c0,-7.07 0,-14.14 0,-21.21l101.12 0 0 -30.4 -101.12 0 0 -21.21 216.26 0c0,7.07 0,14.14 0,21.21l-61.35 0 0 30.4 61.35 0c0,7.07 0,14.14 0,21.21l-103.16 0 0 30.47z"></path></g></svg>