<svg height='100px' width='100px'  fill="#1A1A1A" xmlns="http://www.w3.org/2000/svg" viewBox="0 0 64 64" x="0px" y="0px"><g><path d="M59.9307,16.7972l-2.8285,2.8284a1,1,0,0,1-1.1013.212l-4.95-2.1214a1.0063,1.0063,0,0,1-.3128-.2119l-4.2426-4.2426a1.0073,1.0073,0,0,1-.2124-.3132l-2.1213-4.95a1.0006,1.0006,0,0,1,.2123-1.101l2.8285-2.8284a1,1,0,0,1,1.4141,0L59.9307,15.3829A1,1,0,0,1,59.9307,16.7972ZM6.1906,52.1525a.9989.9989,0,0,0-.2417.3908l-2.1213,6.364a1,1,0,0,0,1.265,1.2651l6.3639-2.1214a1,1,0,0,0,.3909-.2416L50.0312,19.6256l-5.6569-5.6568Z"></path></g></svg>