<svg xmlns="http://www.w3.org/2000/svg" xmlns:xlink="http://www.w3.org/1999/xlink" version="1.1" x="0px" y="0px" viewBox="0 0 100 100" style="enable-background:new 0 0 100 100;" xml:space="preserve"><path d="M71.1,28.9c1.9-2.5,3-5.5,3-8.9c0-8.2-6.6-14.8-14.8-14.8S44.6,11.8,44.6,20c0,3.4,1.2,6.5,3.1,9c-1.3-0.5-2.7-0.2-3.8,0.8  l-5.6,5.6l-8.3-4c-1.3-0.6-2.9-0.4-4,0.7L12.4,45.7c0,0,0,0,0,0c-0.2,0.2-0.3,0.4-0.5,0.6c0,0.1-0.1,0.1-0.1,0.2  c-0.1,0.1-0.1,0.2-0.2,0.4c0,0,0,0.1,0,0.1c0,0.1-0.1,0.2-0.1,0.3c0,0.2-0.1,0.3-0.1,0.5c0,0.1,0,0.2,0,0.3c0,0.2,0,0.3,0,0.5  c0,0.1,0,0.1,0,0.2l2.8,19.5L9.5,81.9c-0.6,1.8,0.4,3.8,2.2,4.4c0.4,0.1,0.7,0.2,1.1,0.2c0.2,0,0.4,0,0.6-0.1l-8.6,8.6h90v-90  L71.1,28.9z M29.1,38.8l8.3,4c1.3,0.6,2.9,0.4,4-0.7l7.4-7.4c1-1,1.2-2.4,0.8-3.6c2.6,2.3,6,3.6,9.7,3.6c3.3,0,6.4-1.1,8.9-3  L32.9,67.1c0,0,0,0,0,0l0.5-13c0.1-1.5-0.8-2.8-2.2-3.4l-10-3.9L29.1,38.8z M21.2,68l-2-14.4l7,2.8l-0.4,10.5  c-0.1,1.9,1.4,3.6,3.4,3.6c0,0,0.1,0,0.1,0c0.1,0,0.1,0,0.1,0L16.4,83.6l4.7-14C21.3,69.1,21.3,68.5,21.2,68z"></path><ellipse transform="matrix(0.3827 -0.9239 0.9239 0.3827 -3.987 45.784)" cx="32.3" cy="25.9" rx="5" ry="5"></ellipse></svg>