<svg xmlns="http://www.w3.org/2000/svg" xmlns:xlink="http://www.w3.org/1999/xlink" version="1.1" x="0px" y="0px" viewBox="0 0 841.9 1190.6" enable-background="new 0 0 841.9 1190.6" xml:space="preserve"><g><g><path d="M155.3,552.4c-5.9,10.1-9.4,22.2-10.1,35.4c6.5-8.6,10.3-19.3,10.3-30.9C155.5,555.4,155.5,553.9,155.3,552.4z"></path><path fill="#000000" d="M160.2,545.2c-1.8,2.3-3.4,4.7-4.9,7.2c-5.9,10.1-9.4,22.2-10.1,35.4c-0.1,1.7-0.1,3.4-0.1,5.2v4    c10.1-10.4,16.4-24.5,16.4-40.1C161.4,552.9,161,549,160.2,545.2z M87.8,611.9c5.1,1.5,10.6,2.3,16.2,2.3c5.6,0,11-0.8,16.2-2.3    L87.8,611.9z"></path><path d="M147.4,542.8c-9,13.7-14,30.8-14.1,49.1c-4.3,3.6-9.3,6.4-14.8,8.2c-4.5,1.5-9.4,2.3-14.4,2.3c-5.1,0-9.9-0.8-14.5-2.3    c-18.1-6-31.1-23.1-31.1-43.2c0-25.2,20.4-45.6,45.6-45.6C124.3,511.3,141.4,524.5,147.4,542.8z"></path></g><g><path d="M163.8,795.4l-0.1,248.8c0,14.1-11.4,25.5-25.5,25.5c-14.1,0-25.5-11.4-25.5-25.5l0.1-214.3h-11.4l0,214.3    c0,14.1-11.4,25.5-25.6,25.5c-14.1,0-25.5-11.4-25.5-25.5l0-369.4H38.8v136.1c0,13.6-9,20.4-18,20.4s-18-6.8-18-20.4V671.1    c0-32.8,20.2-59.1,52.5-59.1l32.5,0l32.4,0h13v147.5c0,7.5,1.8,18.1,10.1,26.5C148.8,791.5,156,794.8,163.8,795.4z"></path><path d="M189.6,785.9l0,45.3c-7.7-1.5-14.6-8.2-14.6-20.2v-16.5C180.5,792.9,185.5,790.1,189.6,785.9    C189.5,785.9,189.5,785.9,189.6,785.9z"></path><path d="M157.5,606.1c11.4,0,21.6,2.8,30.3,8.2v145.2c0,11.7-5.6,19.2-12.8,22.4c-2.7,1.2-5.7,1.8-8.6,1.8c-0.9,0-1.8-0.1-2.7-0.2    c-9.7-1.2-18.7-9.3-18.7-24.1V606.1H157.5z"></path><path fill="#000000" d="M157.5,600.2H145V612h12.4c12.2,0,22.3,3.5,30.3,9.4v-14C178.9,602.6,168.7,600.2,157.5,600.2z     M163.8,674.8l0,108.7c0.9,0.1,1.8,0.2,2.7,0.2c2.9,0,5.9-0.6,8.6-1.8V674.8H163.8z"></path></g></g><g><g><path d="M319.7,457.1c0,27.4-20.3,50-46.7,53.7c-2.5,0.4-5,0.5-7.6,0.5c-2.6,0-5.1-0.2-7.6-0.5c-26.3-3.7-46.6-26.3-46.6-53.7    c0-29.9,24.3-54.2,54.2-54.2C295.4,402.9,319.7,427.2,319.7,457.1z"></path><path fill="#000000" d="M257,522.6c2.8,0.4,5.6,0.5,8.4,0.5c2.8,0,5.6-0.2,8.4-0.5L257,522.6z"></path></g><g><path d="M336.5,760.9l-0.1,276.1c0,16.8-13.6,30.4-30.4,30.4c-16.8,0-30.4-13.6-30.4-30.4l0.1-255h-13.5l0,255    c0,16.8-13.6,30.4-30.4,30.4c-16.8,0-30.4-13.6-30.4-30.4l0-195.1v-12.8l0-192.7l0-10.2v-28.8h-13.6v10    c-8.9-4.8-19.1-7.2-30.3-7.2H145V597c10.1-10.4,16.4-24.5,16.4-40.1c0-4-0.4-7.9-1.2-11.7c10.8-13.9,27.1-22.6,47.3-22.6l49.5,0    c2.8,0.4,5.6,0.5,8.4,0.5c2.8,0,5.6-0.2,8.4-0.5h0l30.5,0c-0.2,2.9-0.3,5.9-0.3,8.9v190c0,8.2,1.9,19.9,11,29.1    C320.9,756.5,328.4,760.1,336.5,760.9z"></path><path d="M161.4,556.9c0,15.6-6.3,29.7-16.4,40.1v-4c0-1.7,0-3.5,0.1-5.2c0.7-13.1,4.2-25.3,10.1-35.4c1.5-2.5,3.1-5,4.9-7.2    C161,549,161.4,552.9,161.4,556.9z"></path><path d="M157.5,600.2c11.2,0,21.4,2.5,30.3,7.2v152c0,11.7-5.6,19.2-12.8,22.4c-2.7,1.2-5.7,1.8-8.6,1.8c-0.9,0-1.8-0.1-2.7-0.2    c-9.7-1.2-18.7-9.3-18.7-24.1V600.2H157.5z"></path><path d="M257,522.6c2.8,0.4,5.6,0.5,8.4,0.5c2.8,0,5.6-0.2,8.4-0.5L257,522.6z M381.1,541.1c-0.3-0.4-0.6-0.7-0.9-1.1v10l0,231.8    l0,6.4c3.6-1.3,6.8-3.4,9.6-6.1c3.9-3.9,8.5-11,8.5-22.7V594C398.2,573.8,392.1,555.1,381.1,541.1z M329,516.7l-12.1,0    c-0.3,1.9-0.5,3.9-0.7,5.9c-0.2,2.9-0.4,5.9-0.4,8.9v190c0,16.6,9.8,25.7,20.7,27.4c1.2,0.2,2.5,0.3,3.8,0.3c0.7,0,1.4,0,2.2-0.1    l0-145.9h1.5V749c2-0.3,4-0.9,5.9-1.7c8.3-3.6,14.8-12.2,14.8-25.7V536.7h12.6C364.9,523.6,348.4,516.7,329,516.7z M365.4,750.7    c-4.4,4.4-9.7,7.5-15.5,9.1c0.2,14.6,8.9,22.6,18.5,23.8v-36.3C367.4,748.6,366.4,749.7,365.4,750.7z"></path><path fill="#000000" d="M257.8,510.8c2.5,0.4,5,0.5,7.6,0.5c2.6,0,5.1-0.2,7.6-0.5L257.8,510.8z M385.7,537.5    c-13.8-17.4-33.4-26.6-56.7-26.6l-11.1,0c-0.4,1.9-0.8,3.9-1,5.9c-0.3,1.9-0.5,3.9-0.7,5.9l12.8,0c16.4,0,29.6,5.4,39.7,14h11.5    V550c8.1,12.6,12.1,28.2,12.1,43.9v165.5c0,11.5-5.3,19-12.1,22.4l0,6.4v6.2c5.2-1.5,9.9-4.3,13.8-8.2    c4.7-4.7,10.2-13.2,10.2-26.9V593.9C404.1,572.5,397.6,552.4,385.7,537.5z M336.6,597.4l0,151.6c1.2,0.2,2.5,0.3,3.8,0.3    c0.7,0,1.4,0,2.2-0.1c0.5,0,1-0.1,1.6-0.2c2-0.3,4-0.9,5.9-1.7V597.4H336.6z"></path></g></g><g><g><path d="M515.2,376.5c0,34.2-27.7,61.9-61.9,61.9c-34.2,0-61.9-27.7-61.9-61.9c0-34.2,27.7-61.9,61.9-61.9    C487.5,314.6,515.2,342.3,515.2,376.5z"></path></g><g><path d="M576.4,694.4l0,55c-0.8,0.1-1.6,0.1-2.4,0.1c-12.1,0-24.2-9.3-24.2-27.9v-8.2c7.7-1.4,14.8-5.1,20.4-10.8    C572.2,700.6,574.4,697.8,576.4,694.4z"></path><path d="M534.4,713.3l-0.1,325.3c0,19.1-15.5,34.7-34.7,34.7c-19.2,0-34.7-15.5-34.7-34.7l0.1-291.1h-15.5l0,291.1    c0,19.1-15.5,34.7-34.7,34.7c-19.1,0-34.7-15.5-34.7-34.7l0-244.1v-6.2l0-6.4l0-231.8v-13.4h-15.5v184.9    c0,13.5-6.5,22.1-14.8,25.7c-1.9,0.8-3.9,1.4-5.9,1.7c-0.5,0.1-1,0.1-1.6,0.2c-0.7,0.1-1.4,0.1-2.2,0.1c-1.3,0-2.5-0.1-3.8-0.3    c-10.8-1.7-20.7-10.8-20.7-27.4v-190c0-3,0.1-6,0.4-8.9c0.2-2,0.4-4,0.7-5.9c0.3-2,0.6-4,1-5.9c7.2-34.4,32.4-59.6,69.2-59.6    l115.6,0c0,0.5,0,1.1,0,1.6v217.6c0,9.1,2.1,22,12.2,32.1C520.3,708.1,527,711.7,534.4,713.3z"></path><path d="M570.4,459.2v211.3c0,17.5-9.5,27.7-20.7,30.8c-1.9,0.5-3.9,0.8-5.9,0.9V542.6h-3.4l0,159.6c-2-0.1-4-0.5-5.9-1.1    c-10.8-3.3-19.9-13.5-19.9-30.5V452.9c0-0.5,0-1.1,0-1.6c0-2,0.1-4,0.2-5.9h11.1C542.9,445.4,558,450.1,570.4,459.2z"></path><path d="M604,532.7v188.9c0,13-5.1,21-9.4,25.3c-1.9,1.9-4.1,3.6-6.4,4.9v-7.1l0-255.2v-11.6C598.4,492.9,604,512.2,604,532.7z"></path><path fill="#000000" d="M525.9,439.5h-10.6c-0.2,1.9-0.4,3.9-0.5,5.9c-0.1,1.9-0.2,3.9-0.2,5.9h11.3c18.3,0,33.2,5.9,44.6,15.4v-8    h8.9C565,446.1,546.7,439.5,525.9,439.5z M589.3,469.3c-0.4-0.4-0.7-0.9-1.1-1.3v21.5c6.6,13,9.9,28.1,9.9,43.3v188.9    c0,10.9-4.1,18.5-9.9,23.1v13.7c3.9-1.7,7.5-4.2,10.6-7.3c5.1-5.1,11.2-14.4,11.2-29.5V532.7C609.9,508.6,602.6,486.1,589.3,469.3    z M534.5,536.7l0,164.4c1.9,0.6,3.9,1,5.9,1.1c0.7,0.1,1.4,0.1,2.2,0.1c0.4,0,0.9,0,1.3,0c2-0.1,4-0.4,5.9-0.9V536.7H534.5z"></path></g></g><g><g><path d="M742.8,275.3c0,39.2-31.7,70.9-70.9,70.9c-39.1,0-70.9-31.7-70.9-70.9c0-39.1,31.7-70.9,70.9-70.9    C711.1,204.5,742.8,236.2,742.8,275.3z"></path></g><g><path d="M837.8,149.3v216.3c0,44.2-24.4,87.5-72.9,92.7v60.9l-0.2,514.3c0,21.9-17.8,39.7-39.7,39.7c-21.9,0-39.7-17.8-39.7-39.7    l0.1-333.4h-17.7l0,333.4c0,21.9-17.8,39.7-39.8,39.7c-21.9,0-39.7-17.8-39.7-39.7l0-275.2v-13.7l0-255.2v-30.7h-17.8v211.8    c0,17.5-9.5,27.7-20.7,30.8c-1.9,0.5-3.9,0.8-5.9,0.9c-0.4,0-0.9,0-1.3,0c-0.7,0-1.4,0-2.2-0.1c-2-0.1-4-0.5-5.9-1.1    c-10.8-3.3-19.9-13.5-19.9-30.5V452.9c0-0.5,0-1.1,0-1.6c0-2,0.1-4,0.2-5.9c0.1-2,0.3-4,0.5-5.9c5-44.6,35.2-78.6,80.9-78.6    l186.1,0V149.3c0-21.3,13.9-31.9,27.8-31.9C824,117.3,837.8,128,837.8,149.3z"></path></g></g></svg>