<svg xmlns="http://www.w3.org/2000/svg" xmlns:xlink="http://www.w3.org/1999/xlink" viewBox="0 0 100 100" version="1.1" x="0px" y="0px"><title>i14 copy 2</title><desc>Created with Sketch.</desc><g stroke="none" stroke-width="1" fill="none" fill-rule="evenodd"><path d="M67.2270088,25.56003 C64.3762877,25.56003 62.0668665,23.2487357 62.0668665,20.3998876 C62.0668665,17.5491665 64.3762877,15.2378723 67.2270088,15.2378723 C70.0777299,15.2378723 72.3871512,17.5491665 72.3871512,20.3998876 C72.3871512,23.2487357 70.0777299,25.56003 67.2270088,25.56003 M61.3588687,60.1695074 C60.7445214,61.5873759 59.7780483,62.8760067 58.4781794,63.8949241 C57.1764375,64.9157146 55.6930137,65.5450459 54.1702566,65.8016482 C49.8585878,66.5283761 45.6780296,63.864956 44.0391459,59.8117625 L34.8220641,37.0247237 C34.0185428,35.0412062 36.31298,33.2431167 38.0473872,34.4980333 L57.9668477,48.8996067 C61.5105825,51.4600112 63.0951489,56.1575201 61.3588687,60.1695074 M36.7943435,87.264469 C33.9436224,87.264469 31.6342012,84.9531748 31.6342012,82.1043267 C31.6342012,79.2536055 33.9436224,76.9423113 36.7943435,76.9423113 C39.6450646,76.9423113 41.9544859,79.2536055 41.9544859,82.1043267 C41.9544859,84.9531748 39.6450646,87.264469 36.7943435,87.264469 M26.4740588,20.8344259 C26.4740588,17.9837048 28.7834801,15.6742836 31.6342012,15.6742836 C34.4830493,15.6742836 36.7943435,17.9837048 36.7943435,20.8344259 C36.7943435,23.685147 34.4830493,25.9945683 31.6342012,25.9945683 C28.7834801,25.9945683 26.4740588,23.685147 26.4740588,20.8344259 M22.6025473,76.9423113 C19.7518262,76.9423113 17.4424049,74.6328901 17.4424049,71.7821689 C17.4424049,68.9314478 19.7518262,66.6220266 22.6025473,66.6220266 C25.4532684,66.6220266 27.7626896,68.9314478 27.7626896,71.7821689 C27.7626896,74.6328901 25.4532684,76.9423113 22.6025473,76.9423113 M10.3081101,53.7226072 C10.3081101,50.8737591 12.6194044,48.5624649 15.4682525,48.5624649 C18.3189736,48.5624649 20.6302678,50.8737591 20.6302678,53.7226072 C20.6302678,56.5733283 18.3189736,58.8827496 15.4682525,58.8827496 C12.6194044,58.8827496 10.3081101,56.5733283 10.3081101,53.7226072 M19.1880502,29.7405881 C22.0368983,29.7405881 24.3481925,32.0518824 24.3481925,34.9026035 C24.3481925,37.7514516 22.0368983,40.0627458 19.1880502,40.0627458 C16.3373291,40.0627458 14.0260348,37.7514516 14.0260348,34.9026035 C14.0260348,32.0518824 16.3373291,29.7405881 19.1880502,29.7405881 M49.9990635,10.5122682 C52.8497846,10.5122682 55.1610789,12.8235625 55.1610789,15.6742836 C55.1610789,18.5231317 52.8497846,20.8344259 49.9990635,20.8344259 C47.1502154,20.8344259 44.8389211,18.5231317 44.8389211,15.6742836 C44.8389211,12.8235625 47.1502154,10.5122682 49.9990635,10.5122682 M49.9990635,5 C25.185428,5 5,25.187301 5,50.0009365 C5,74.816445 25.185428,95.001873 49.9990635,95.001873 C74.812699,95.001873 95,74.816445 95,50.0009365 C95,25.187301 74.812699,5 49.9990635,5" fill="#000000"></path></g></svg>