<svg height='100px' width='100px'  fill="#1A1A1A" xmlns="http://www.w3.org/2000/svg" xmlns:xlink="http://www.w3.org/1999/xlink" xml:space="preserve" style="shape-rendering:geometricPrecision;text-rendering:geometricPrecision;image-rendering:optimizeQuality;" viewBox="0 0 0.14111 0.291228" x="0px" y="0px" fill-rule="evenodd" clip-rule="evenodd"><defs><style type="text/css">
   
    .fil0 {fill:#1A1A1A}
   
  </style></defs><g><polygon class="fil0" points="0.129642,0.0542071 0.105147,0.0663013 0.0393375,0.0753916 0.00468491,0.0691044 0.0348612,0.0542071 -0,0.0542071 -0,0 0.14111,0 0.14111,0.0542071 "></polygon><polygon class="fil0" points="0.0985012,0.0726751 0.13115,0.078297 0.103143,0.0924581 0.042487,0.101001 0.00984225,0.0953792 0.0378454,0.0812182 "></polygon><polygon class="fil0" points="0.125914,0.104918 0.100678,0.117855 0.0452586,0.125737 0.0150783,0.120682 0.0403099,0.107753 0.0957296,0.0998712 "></polygon><polygon class="fil0" points="0.097765,0.14237 0.0466011,0.149516 0.0193341,0.144709 0.0432232,0.13276 0.0943832,0.125615 0.121658,0.130422 "></polygon><polygon class="fil0" points="0.0486876,0.172212 0.0234521,0.167834 0.0452625,0.15685 0.0923006,0.150244 0.117536,0.154626 0.0957257,0.165613 "></polygon><polygon class="fil0" points="0.0269874,0.188963 0.0473333,0.178798 0.090836,0.172731 0.113997,0.176822 0.0936588,0.186983 0.0501561,0.193054 "></polygon><polygon class="fil0" points="0.0491837,0.199774 0.0890133,0.194199 0.110336,0.19792 0.0918045,0.207227 0.051971,0.212801 0.0306527,0.209085 "></polygon><polygon class="fil0" points="0.0874464,0.214045 0.106509,0.217458 0.0895566,0.22588 0.0535418,0.230879 0.0344794,0.227462 0.0514316,0.219045 "></polygon><polygon class="fil0" points="0.102911,0.235682 0.0876511,0.243261 0.0552386,0.247761 0.0380816,0.244682 0.0533371,0.237111 0.0857535,0.232612 "></polygon><polygon class="fil0" points="0.0849622,0.260099 0.0571205,0.263902 0.0426366,0.26119 0.0560221,0.254678 0.0838717,0.250875 0.0983476,0.253583 "></polygon><polygon class="fil0" points="0.0577622,0.270181 0.0841748,0.266878 0.0701437,0.291228 "></polygon></g></svg>