<svg xmlns="http://www.w3.org/2000/svg" xmlns:xlink="http://www.w3.org/1999/xlink" version="1.1" x="0px" y="0px" viewBox="0 0 314.352 515.434" style="enable-background:new 0 0 314.352 515.434;" xml:space="preserve"><g><path d="M223.423,155.089c-53.997,6.93-89.934,95.92-84.701,136.031c5.232,40.111,29.648,104.639-47.088,123.824   c-76.735,19.184-87.199,100.49-87.199,100.49h309.917v-381C259.629,134.434,266.806,149.522,223.423,155.089z"></path><ellipse transform="matrix(0.9127 -0.4085 0.4085 0.9127 -46.018 29.3091)" cx="45.604" cy="122.383" rx="22.495" ry="22.495"></ellipse><path d="M23.357,236.434c1.62,0,3.256-0.49,4.672-1.51c3.585-2.581,4.396-7.583,1.813-11.168   C19.116,208.874,15.985,197.967,16,190.449c0.013-4.559,1.082-8.048,2.675-11.028c0.865-1.617,1.926-3.08,3.082-4.395   c6.362,23.119,19.617,43.521,33.484,63.541c0.479,0.693,1.023,1.303,1.605,1.843c2.096,2.802,5.341,4.72,9.105,4.992l0.002,0.002   c1.292,0.128,11.202,1.619,20.916,9.111c4.89,3.759,9.846,8.977,14.083,16.639c4.222,7.669,7.745,17.858,9.31,31.682   c0.721,6.385,6.132,11.1,12.408,11.1c0.468,0,0.94-0.025,1.415-0.079c6.86-0.774,11.795-6.963,11.021-13.823   c-1.996-17.756-6.918-31.96-13.47-43.07c-7.889-13.432-18.056-22.092-27.312-27.483c1.889-1.461,3.385-3.472,4.2-5.906   l-0.002-0.002l-0.001-0.001c0.167-0.516,2.072-5.583,4.921-9.764c1.454-2.183,3.146-4.057,4.465-5.024   c1.381-0.998,1.968-1.079,2.481-1.096c0.507,0.025,1.808,0.067,4.758,2.238c2.885,2.146,7.01,6.457,11.756,13.708   c3.792,5.769,11.542,7.374,17.312,3.581c5.77-3.79,7.374-11.539,3.582-17.311c-5.842-8.864-11.519-15.344-17.627-19.961   c-6.044-4.59-12.93-7.28-19.781-7.255c-7.255-0.017-13.48,2.944-17.928,6.437c-3.609,2.848-6.413,6.026-8.669,9.157   c-8.983-14.299-8.577-25.481-5.997-39.794c4.218-1.597,9.528-3.85,15.379-6.897c12.908-6.748,28.553-17.39,40.408-33.726   c-1.801,1.531-4.099,2.396-6.486,2.396c-2.486,0-4.868-0.916-6.707-2.584c-1.539-1.394-2.543-3.161-2.999-5.041   c-9.429,11.334-21.34,19.422-31.614,24.768c-6.14,3.201-11.654,5.428-15.584,6.835c-1.415,0.506-2.615,0.903-3.573,1.206   c-12.237,1.868-24.476,3.734-36.714,5.604c-0.764,0.109-1.64,0.455-2.552,0.975c-2.381,0.956-7.506,3.306-12.879,7.806   c-3.505,2.954-7.117,6.878-9.882,11.997C1.826,176.93-0.013,183.243,0,190.449c0.015,12.018,4.895,26.056,16.86,42.662   C18.423,235.281,20.871,236.434,23.357,236.434z"></path><path d="M152.4,49.006l-0.002-0.002c0,0-0.009,0.04-0.063,0.235c-0.773,2.939-9.23,31.5-31.168,55.654   c-1.445,1.597-2.12,3.616-2.059,5.611c0.064,2.098,0.942,4.168,2.622,5.689c1.53,1.385,3.452,2.068,5.366,2.068   c2.183,0,4.355-0.887,5.935-2.631c1.487-1.648,2.91-3.311,4.285-4.977c16.96-20.56,25.458-41.945,28.805-51.91   c0.691,0.075,1.362,0.152,2.019,0.232c13.09,1.596,19.626,4.666,31.183,21.91c-0.158,0.085-0.314,0.163-0.474,0.25   c-4.92,2.719-10.145,6.191-14.666,11.225c-4.469,4.937-8.349,12.108-8.322,20.614c-0.018,7.094,2.678,14.184,7.311,20.597   c4.661,6.47,11.256,12.629,20.271,19.051c2.196,1.56,4.726,2.31,7.23,2.31c3.911,0.001,7.762-1.829,10.199-5.26   c3.998-5.628,2.679-13.433-2.949-17.43c-7.494-5.31-12.063-9.903-14.436-13.243c-2.4-3.395-2.611-5.169-2.628-6.025   c0.025-0.969,0.271-1.975,1.987-3.978c2.474-2.913,8.102-6.311,13.031-8.372c1.676-0.728,3.255-1.331,4.6-1.808   c3.665,6.999,9.776,13.759,18.501,19.109c10.371,6.403,24.252,11.15,43.087,13.878c0.604,0.087,1.205,0.129,1.799,0.13   c6.112,0,11.457-4.487,12.356-10.716c0.987-6.833-3.753-13.172-10.586-14.156c-22.015-3.157-33.357-9.25-38.714-14.326   c-2.721-2.563-4.131-4.882-5.015-7.083c-0.872-2.196-1.191-4.354-1.193-6.438c-0.006-2.368,0.447-4.6,0.898-6.122   c0.223-0.759,0.438-1.338,0.567-1.663c0.065-0.162,0.111-0.262,0.122-0.288c2.435-5.105,1.092-11.051-2.93-14.664   c-12.926-16.067-23.781-27.816-38.98-37.874c2.191-0.297,4.521-0.469,6.971-0.462c10.609,0.037,23.607,3.099,38.489,14.332   c1.445,1.095,3.144,1.625,4.827,1.625c2.418,0,4.808-1.091,6.38-3.166c2.671-3.522,1.98-8.539-1.541-11.208   C238.135,6.5,221.228,2.106,207.362,2.143c-14.602,0.042-25.63,4.596-31.529,7.737c-3.385,1.387-6.468,3.738-7.405,5.768   c-4.388,9.286-8.923,17.41-13.077,26.579c-0.664,1.466-1.316,2.964-1.958,4.493C152.955,47.408,152.614,48.173,152.4,49.006z"></path><ellipse transform="matrix(0.6524 -0.7578 0.7578 0.6524 30.3843 111.2423)" cx="136.471" cy="22.495" rx="22.495" ry="22.495"></ellipse></g></svg>