<svg xmlns="http://www.w3.org/2000/svg" xmlns:xlink="http://www.w3.org/1999/xlink" version="1.1" x="0px" y="0px" viewBox="0 0 100 100" enable-background="new 0 0 100 100" xml:space="preserve"><g><path d="M92.917,9.111H61.109l-1.228,3.549l-0.339-3.549H32.012l-2.403,3.464l-1.442-3.464H6.75v41.943l3.211,5.36H6.75v34.333   h13.434l3.502-3.502l0.765,4.336h19.352l0.304-0.812c0.355-0.947,0.946-2.077,1.744-2.077c1.085,0,2.579,1.594,3.131,2.363   l0.374,0.525h43.562v-46.25l-3.741-1.987l3.741-3.323V9.111z M45.851,86.193c-1.113,0-2.617,0.525-3.742,2.889h-15.56l-1.235-6.998   l-6.165,6.164H9.25V71.5h4.25V69H9.25V58.915h5.122L9.25,50.363v-9.674c4.239,1.478,16.155,6.831,21.235,21.551   c0.947,2.743,2.395,5.452,4.305,8.053l2.015-1.48c-1.76-2.397-3.091-4.883-3.956-7.389C27.017,44.526,13.079,39.213,9.25,38.048   v-9.453c2.148-0.551,8.204-1.512,14.365,2.956l1.468-2.024c-6.462-4.684-12.872-4.128-15.833-3.497V19.75h4.25v-2.5H9.25v-5.639   H26.5l2.558,6.145l4.263-6.145h10.748v3.554h2.5v-3.554H57.27l1.216,12.728l4.405-12.728h5.697c1.072,0.82,4.836,3.929,7.024,8.723   c-4.555,1.165-7.937,5.292-7.937,10.204c0,4.127,2.389,7.697,5.851,9.428c-2.392,6.611-3.864,14.251-4.329,21.129   c-12.236-1.697-20.523-3.563-24.118-5.452c-5.018-2.638-6.598-6.103-8.599-10.49c-0.423-0.926-0.86-1.885-1.346-2.873l-2.243,1.103   c0.475,0.966,0.901,1.902,1.314,2.808c2.112,4.631,3.936,8.63,9.71,11.666c3.916,2.058,12.373,3.986,25.158,5.748   c-0.233,7.216,0.723,13.273,2.981,15.879c2.817,3.25,6.082,7.237,7.996,9.599H66.714c-1.391-0.498-10.396-3.842-18.889-9.842   l-1.442,2.041c4.966,3.509,10.004,6.099,13.753,7.801h-9.524C49.804,88.106,47.953,86.193,45.851,86.193z M70.176,30.538   c0-4.436,3.608-8.044,8.044-8.044s8.044,3.608,8.044,8.044s-3.608,8.044-8.044,8.044S70.176,34.974,70.176,30.538z M90.417,38.898   l-5.593,4.966l5.593,2.97v7.791h-5.25v2.5h5.25v6.347c-0.825-0.072-1.995-0.178-3.438-0.315l-0.238,2.488   c1.588,0.152,2.84,0.264,3.677,0.336v23.102h-7.15c-1.279-1.59-5.671-7.023-9.322-11.235c-1.626-1.876-2.534-7.178-2.37-13.908   c1.337,0.175,2.701,0.348,4.124,0.519l0.299-2.482c-1.49-0.179-2.918-0.36-4.315-0.544c0.391-6.389,1.701-13.752,4.199-20.619   c0.753,0.172,1.534,0.271,2.339,0.271c5.813,0,10.544-4.73,10.544-10.544s-4.73-10.544-10.544-10.544   c-0.013,0-0.025,0.002-0.038,0.002c-1.546-3.726-3.938-6.574-5.794-8.385h9.029v3.554h2.5v-3.554h6.5V38.898z"></path><polygon points="31.997,36.5 33.688,34.575 31.811,32.925 30.333,34.607 28.856,32.925 26.979,34.575 28.67,36.5 26.979,38.425    28.857,40.075 30.333,38.394 31.81,40.075 33.688,38.425  "></polygon><polygon points="82.697,59.64 81.221,61.32 79.744,59.64 77.865,61.29 79.557,63.216 77.866,65.14 79.745,66.79 81.221,65.11    82.696,66.79 84.575,65.14 82.885,63.216 84.576,61.29  "></polygon><polygon points="42.477,71.774 41,73.456 39.523,71.774 37.645,73.425 39.336,75.351 37.646,77.274 39.524,78.925 41,77.244    42.476,78.925 44.354,77.274 42.664,75.351 44.355,73.425  "></polygon><polygon points="79.47,36 79.47,31.832 83.637,31.832 83.637,29.332 79.47,29.332 79.47,25.165 76.97,25.165 76.97,29.332    72.803,29.332 72.803,31.832 76.97,31.832 76.97,36  "></polygon><polygon points="44.196,27.04 47.786,31.339 49.705,29.737 44.047,22.96 39.129,29.809 41.16,31.267  "></polygon><polygon points="60.854,44.771 64.443,49.07 66.363,47.468 60.705,40.691 55.787,47.54 57.818,48.998  "></polygon><polygon points="19.034,76.134 21.064,77.593 24.1,73.364 27.69,77.664 29.609,76.063 23.951,69.286  "></polygon></g></svg>