<svg height='100px' width='100px'  fill="#1A1A1A" xmlns="http://www.w3.org/2000/svg" xmlns:xlink="http://www.w3.org/1999/xlink" version="1.1" x="0px" y="0px" viewBox="0 0 242.297 262.582" style="enable-background:new 0 0 242.297 262.582;" xml:space="preserve"><g><path d="M82.863,200.771c5.198,0.584,10.905,2.569,16.448,4.527v-36.231l36.305,0.063l4.275,14.252l5.65,18.839   c0.617,2.059,1.72,3.838,3.142,5.256c0.572,0.569,1.198,1.075,1.863,1.521c2.034,1.365,4.451,2.138,6.963,2.138   c1.189,0,2.396-0.171,3.593-0.529c3.518-1.057,6.215-3.53,7.682-6.604c0.288-0.602,0.532-1.224,0.721-1.867   c0.658-2.241,0.704-4.69-0.017-7.095l-3.497-11.659l-9.095-30.325c-0.691-2.307-2.009-4.297-3.732-5.808   c-0.252,1.913-0.546,3.858-0.884,5.837c-0.825,4.818-4.968,8.316-9.849,8.316c-0.544,0-1.111-0.05-1.681-0.143   c-2.649-0.455-4.949-1.902-6.493-4.084c-1.54-2.179-2.142-4.831-1.69-7.468c0.326-1.906,0.6-3.764,0.832-5.581l-4.59-0.009v-38.382   c3.015,3.343,6.506,9.335,7.288,21.163c0.098,1.488,0.161,3.054,0.167,4.733c0,3.687-0.263,7.845-0.849,12.497   c-0.238,1.893-0.525,3.857-0.878,5.919c-0.747,4.355,2.181,8.489,6.536,9.236c0.456,0.077,0.91,0.115,1.357,0.115   c3.827,0,7.21-2.752,7.879-6.651c0.403-2.361,0.732-4.631,1.006-6.834c0.643-5.168,0.947-9.92,0.947-14.282   c0.006-1.635-0.047-3.2-0.126-4.733c-0.854-16.465-6.458-27.19-12.895-33.386c-6.996-6.784-14.036-7.957-15.059-8.109   c-0.416-0.06-0.828-0.075-1.235-0.07c-0.599-0.148-1.221-0.236-1.865-0.236H93.266l-5.395,5.19l-13.151,12.649l-1.906,1.833   L53,137.664c4.08-1.414,7.669-3.77,10.799-6.387c4.198-3.555,7.809-7.778,10.919-12.039v21.299   c-0.081,0.571-0.137,1.149-0.137,1.742v58.671c1.744-0.223,3.439-0.35,5.028-0.35C80.749,200.6,81.842,200.656,82.863,200.771z"></path><path d="M75.67,253.542h-0.022h-0.111c-0.159,0-0.329-0.016-0.496-0.028c1.444,5.226,6.222,9.068,11.905,9.068   c6.828,0,12.365-5.535,12.365-12.363v-3.271c-0.283,0.104-0.56,0.204-0.845,0.308C90.157,250.283,81.563,253.416,75.67,253.542z"></path><path d="M202.008,246.312c0,0-23.213-0.315-18.529-9.173c4.691-8.861,31.629,4.865,31.629,4.865s9.181,0.757,13.313,1.885   c4.129,1.134,11.605,0.162,5.89-7.439c-5.715-7.598-24.708-23.936-24.708-23.936l1.436-4.637c0,0,8.708,4.941,13.541,7.186   c4.834,2.24,11.122-4.438,11.122-4.438s-6.043,3.151-9.013,1.35c-2.974-1.805-5.614-3.341-3.009-4.516   c2.61-1.172,3.357-4.248,3.455-5.797c-1.951,2.084-8.011,3.378-8.011,3.378l-4.578-2.091l0.771-2.971l4.77-5.881l8.577-4.779   l-12.044,1.984l-5.947,4.134c0,0-1.226-1.948,0.238-7.771c1.471-5.821,8.379-10.402,8.379-10.402s-8.682,0.41-13.189,8.689   c-4.505,8.275,0.862,19.282,0.862,19.282l-1.583,4.028l-7.258-1.65l2.555,13.938c0,0-17.211-12.666-29.968-16.962   c-1.671,3.692-4.855,6.679-9.031,7.934c-1.358,0.406-2.76,0.61-4.167,0.61c-3.473,0-6.748-1.277-9.306-3.425   c-10.219,2.842-23.735,3.36-33.44,2.09c-4.794-0.628-10.111-2.492-15.453-4.38c-5.733-2.026-11.496-4.08-16.672-4.662   c-2.387-0.269-5.148-0.186-8.057,0.199c-9.276,1.226-20.084,5.609-25.318,12.176c-4.8,6.022,24.75-4,24.75-4   s-1.863,8.7-5.33,15.547c-3.468,6.846-18.37-5.941-23.615-6.373c-5.246-0.432-12.74,3.975-12.74,3.975s-7.645,16.009-12.405,19.314   c-4.758,3.308-11.421,4.081-11.421,4.081l-3.573,8.161l19.092-4.247c0,0,11.368-13.063,15.119-16.98   c3.605-3.766,26.887,15.485,35.503,16.848c0.349,0.055,0.683,0.091,0.981,0.085c5.913-0.128,15.074-3.592,23.685-6.723   c2.564-0.932,5.081-1.836,7.447-2.611c10.309-3.381,27.916,7.306,35.373,9.762c7.456,2.457,38.123,5.234,44.178,5.465   c0,0,18.668-3.832,27.436-2.413l13.547-0.235l7.482,6.617l7.524-2.228c0,0-10.672-10.553-16.579-10.779   C219.809,248.171,207.918,246.539,202.008,246.312z M211.43,221.689c1.533,0,2.777,1.243,2.777,2.775   c0,1.533-1.244,2.776-2.777,2.776c-1.532,0-2.775-1.243-2.775-2.776C208.655,222.933,209.898,221.689,211.43,221.689z"></path><path d="M24.948,115.872c-3.457,2.753-4.03,7.786-1.276,11.242c0.476,0.597,0.96,1.166,1.448,1.722l10.375-12.443   C32.65,113.63,28.132,113.337,24.948,115.872z"></path><path d="M131.178,37.006l-2.798-2.91l27.778-26.719l-6.318-6.568l-3.941,3.789L141.476,0l-3.703,1.784l5.31,5.521l-20.123,19.355   c2.534,4.264,4.187,9.07,4.662,13.766L131.178,37.006z"></path><path d="M86.848,88.496l3.534-3.398l5.19-4.992c-6.891-1.762-12.405-6.26-15.636-12.061L57.492,89.631l-2.979-3.098   c0,0-3.283,4.852-7.421,2.803c0.442,5.719,5.546,9.616,5.546,9.616l-15.812,18.967L26.49,130.318L0,162.094l25.446,17.439   l24.74-41.074l21.048-34.945l3.485-3.351L86.848,88.496z"></path><path d="M101.746,30.899c1.905,0,3.819,0.22,5.689,0.655c1.943,0.452,3.777,1.128,5.49,1.983c0.628,0.313,1.239,0.651,1.833,1.013   c3.849,2.347,6.946,5.675,9.03,9.563c0.331,0.618,0.64,1.248,0.918,1.892c0.03,0.069,0.057,0.14,0.086,0.209   c0.153-0.225,0.294-0.452,0.413-0.689c0.364-0.725,0.561-1.503,0.561-2.334c0-0.317-0.012-0.637-0.024-0.956   c-0.187-4.747-1.744-9.727-4.288-14.125c-0.342-0.591-0.699-1.173-1.076-1.74c-4.401-6.636-11.102-11.552-18.611-11.552   c-13.255,0-24,15.313-24,28.373c0,1.093,0.343,2.093,0.959,3.002C82.562,37.014,91.51,30.899,101.746,30.899z"></path><path d="M96.665,77.807c0.356,0.083,0.712,0.155,1.068,0.221c0.854,0.156,1.707,0.259,2.556,0.315   c10.804,0.726,20.851-6.454,23.386-17.343c0.864-3.711,0.751-7.42-0.164-10.861c-0.179-0.673-0.389-1.334-0.628-1.983   c-0.036-0.098-0.068-0.197-0.105-0.295c-0.255-0.664-0.54-1.315-0.856-1.951c-1.966-3.961-5.087-7.321-9.03-9.563   c-0.611-0.348-1.24-0.669-1.889-0.96c-1.307-0.587-2.687-1.061-4.134-1.397c-11.191-2.606-22.372,3.64-26.218,14.166   c-0.236,0.646-0.444,1.309-0.624,1.986c-0.058,0.218-0.119,0.435-0.17,0.655c-1.093,4.692-0.624,9.381,1.058,13.53   c0.266,0.655,0.562,1.297,0.887,1.924C84.725,71.884,89.998,76.255,96.665,77.807z"></path></g></svg>