<svg xmlns="http://www.w3.org/2000/svg" xmlns:xlink="http://www.w3.org/1999/xlink" version="1.1" x="0px" y="0px" viewBox="0 0 50 50" enable-background="new 0 0 50 50" xml:space="preserve"><g><path d="M48.4,19.8c-0.3-1.2-1.5-2.6-2.4-3.4c0.6-0.1,2.1-0.6,2.6-1.8c0.5-1.1,0.5-2.3,0.3-3.4c-0.3-1.5-1.2-3-2.5-4   c-0.7-0.6-3.1-1.5-7,0.6C38,8,37.4,7.8,36.8,8.7c-0.4-0.3-0.7-0.6-1.1-0.9c-1.8-1.8-4.6-2.2-7.5-1.4c-2.2,0.6-4.4,1.9-6.3,3.8   l0.6,1.1l0,0l0,0l-1.8,3l-3.3,1.8l-0.4-0.4h0L1,33.5l1,3.9l8.9,6.7l14.5-14.7c0.1,0.1,6.3,5,6.2,4.9v0c3.3,2.2,8.8,1,12.9-3.1   C48,27.6,49.4,23.1,48.4,19.8L48.4,19.8z M30.7,23.7l-4.3,0.7L18.5,17l3.2-1.8l1.9-3.1l9.6,7.6l0.9,1.3L30.7,23.7z M45.4,13.5   c0,0,0.1-0.7,0.5-1.3c0.7-0.9,2-0.7,2.4,0.4c0.3,0.3-0.2,1.6-0.5,2c-0.5,0.6-1.5,0.7-2.1,0.1C45.6,14.4,45.4,14,45.4,13.5z"></path></g></svg>