<svg xmlns="http://www.w3.org/2000/svg" xmlns:xlink="http://www.w3.org/1999/xlink" version="1.1" x="0px" y="0px" viewBox="0 0 100 100" style="enable-background:new 0 0 100 100;" xml:space="preserve"><style type="text/css">
	.st0{fill-rule:evenodd;clip-rule:evenodd;}
</style><path class="st0" d="M50,95.4C25,95.4,4.6,75,4.6,50S25,4.6,50,4.6S95.4,25,95.4,50S75,95.4,50,95.4z M72.5,33.4  c-1.5-1.5-3.8-1.5-5.3,0L43.3,58.3L32.7,47.2c-1.5-1.5-3.8-1.5-5.3,0c-1.5,1.5-1.5,4,0,5.5l13.3,13.8c1.5,1.5,3.8,1.5,5.3,0  l26.5-27.6C74,37.4,74,34.9,72.5,33.4z"></path></svg>