<svg xmlns="http://www.w3.org/2000/svg" xmlns:xlink="http://www.w3.org/1999/xlink" version="1.1" x="0px" y="0px" viewBox="0 0 100 100" style="enable-background:new 0 0 100 100;" xml:space="preserve"><path d="M75.3,41.5c-0.3-0.8-1.2-1.1-2-0.8c-0.8,0.3-1.1,1.2-0.8,2l0,0.1l-14.1,8.2l-5.3-9.4l1-1.8c0.3,0.1,0.5,0.2,0.8,0.2  c0.8,0.2,1.6,0.3,2.4,0.3c2.2,0,4.3-0.6,6.2-1.8c2.6-1.7,4.3-4.2,4.9-7.2c0.1-0.4,0.1-0.8,0.2-1.2c0,0,0,0,0,0  c0.6-5.8-3.3-11.1-8.9-12.3c-1.4-0.3-2.7-0.3-4-0.1c0-0.1,0-0.2,0-0.3c0.1-1.5-0.5-2.9-1.6-3.8c-0.6-0.7-2.8-2.2-9.3-1.7  c-0.5,0-0.7,0-0.8,0c-0.3-0.7-1-1-1.7-0.9c-0.8,0.2-1.3,1-1.1,1.8c0.3,1.5,1.7,6.6,5.4,8.7c0.6,0.3,1.1,0.5,1.7,0.7  c-1,1.3-1.7,2.8-2.1,4.5c-1,4.8,1.2,9.6,5.2,12.1l-1.1,1.8l-18.6-3.1c-0.4-0.1-0.9,0.1-1.2,0.4l-10.8,9.7c-0.4,0.3-0.6,0.9-0.5,1.4  s0.4,0.9,0.9,1.1l1.1,0.5c0.8,0.3,1.6,0,2-0.8c0.2-0.4,0.2-0.9,0-1.2l8.9-7.9l16.7,2.8l-11,18.5L26.7,73.5l-10.8-5.8  c-0.3-0.2-0.6-0.2-0.9-0.2l-3.9,0.6c-0.8,0.1-1.4,0.9-1.2,1.7c0.1,0.8,0.9,1.4,1.7,1.2l3.3-0.5l11.4,6.1c0.2,0.1,0.5,0.2,0.7,0.2  c0.4,0,0.8-0.2,1.1-0.5l11.1-11.9l11.3,8.2l-4.5,12.4c-0.1,0.3-0.1,0.7,0,1l1.3,3.5c0.2,0.6,0.8,1,1.4,1c0.2,0,0.4,0,0.5-0.1  c0.8-0.3,1.2-1.2,0.9-1.9l-1.1-2.9l4.7-13c0.2-0.6,0-1.3-0.5-1.7L41,62.1l10.4-17.6l5.2,9.2c0.2,0.3,0.5,0.6,0.9,0.7  c0.1,0,0.3,0.1,0.4,0.1c0.3,0,0.5-0.1,0.8-0.2l16.5-9.6c0.6-0.4,0.9-1.2,0.6-1.9L75.3,41.5z M59.2,20.7c3.7,0.8,6.3,3.8,6.6,7.4  l-7.4-1.2l-8.7-1.4C51.3,21.9,55.2,19.8,59.2,20.7z M45.1,14.8c0,0,0.1,0,0.1,0c5.2-0.4,6.7,0.6,6.8,0.7c0,0,0.1,0.1,0.1,0.1  c0,0,0.1,0.1,0.1,0.1c0.4,0.4,0.7,0.9,0.6,1.5c0,0.7-0.5,1.4-1.2,1.6c-1.4,0.5-2.5,0.5-3.5-0.1C46.7,17.9,45.7,16.2,45.1,14.8z   M49.1,28.5l16.5,2.6c-0.5,2-1.8,3.7-3.5,4.8c-1.9,1.2-4.1,1.6-6.3,1.2C51.6,36.2,48.9,32.5,49.1,28.5z"></path><path d="M97.6,77.3c-0.2-5.3-4.7-9.4-9.9-9.2c-2.5,0.1-4.9,1.2-6.6,3.1c-1.7,1.9-2.6,4.3-2.5,6.8c0.2,5.1,4.4,9.2,9.5,9.2  c0.1,0,0.3,0,0.4,0h0c2.5-0.1,4.9-1.2,6.6-3.1C96.8,82.3,97.7,79.8,97.6,77.3z M92.8,82.1c-1.2,1.3-2.8,2-4.5,2.1h0  c-1.7,0.1-3.4-0.5-4.7-1.7c-1.3-1.2-2-2.8-2.1-4.5c-0.1-1.7,0.5-3.4,1.7-4.7s2.8-2,4.5-2.1c0.1,0,0.2,0,0.3,0c3.5,0,6.4,2.8,6.5,6.3  C94.6,79.2,94,80.8,92.8,82.1z"></path></svg>