<svg height='100px' width='100px'  fill="#1A1A1A" xmlns="http://www.w3.org/2000/svg" xmlns:xlink="http://www.w3.org/1999/xlink" version="1.1" x="0px" y="0px" viewBox="0 0 100 100" style="enable-background:new 0 0 100 100;" xml:space="preserve"><g><path d="M54.2646484,68.6230469H34.8183594c-0.5527344,0-1,0.4477539-1,1s0.4472656,1,1,1h19.4462891c0.5527344,0,1-0.4477539,1-1   S54.8173828,68.6230469,54.2646484,68.6230469z"></path><path d="M54.2646484,75.4702148H27.421875c-0.5527344,0-1,0.4477539-1,1s0.4472656,1,1,1h26.8427734c0.5527344,0,1-0.4477539,1-1   S54.8173828,75.4702148,54.2646484,75.4702148z"></path><path d="M54.2646484,82.3178711h-0.7480469c-0.5527344,0-1,0.4477539-1,1s0.4472656,1,1,1h0.7480469c0.5527344,0,1-0.4477539,1-1   S54.8173828,82.3178711,54.2646484,82.3178711z"></path><path d="M48.7802734,82.3178711H27.421875c-0.5527344,0-1,0.4477539-1,1s0.4472656,1,1,1h21.3583984c0.5527344,0,1-0.4477539,1-1   S49.3330078,82.3178711,48.7802734,82.3178711z"></path><path d="M52.9697266,17.6445313H72.34375c0.5527344,0,1-0.4477539,1-1s-0.4472656-1-1-1H52.9697266c-0.5527344,0-1,0.4477539-1,1   S52.4169922,17.6445313,52.9697266,17.6445313z"></path><path d="M45.6015625,24.4663086H72.34375c0.5527344,0,1-0.4477539,1-1s-0.4472656-1-1-1H45.6015625c-0.5527344,0-1,0.4477539-1,1   S45.0488281,24.4663086,45.6015625,24.4663086z"></path><path d="M72.34375,29.2880859h-0.7451172c-0.5527344,0-1,0.4477539-1,1s0.4472656,1,1,1H72.34375c0.5527344,0,1-0.4477539,1-1   S72.8964844,29.2880859,72.34375,29.2880859z"></path><path d="M45.6015625,31.2880859h21.2783203c0.5527344,0,1-0.4477539,1-1s-0.4472656-1-1-1H45.6015625c-0.5527344,0-1,0.4477539-1,1   S45.0488281,31.2880859,45.6015625,31.2880859z"></path><path d="M23.3193359,37.8852539c0.9378662,0,1.8529053-0.0974731,2.7409668-0.2716675   c0.5220337,0.1670532,1.0495605,0.2716675,1.5754395,0.2716675h49.4589844c2.9316406,0,5.3164063-2.3994141,5.3164063-5.3491211   V15.9067383l8.0009766-5.0117188c0.3779297-0.2368164,0.5527344-0.6953125,0.4296875-1.1240234   c-0.1230469-0.4282227-0.5146484-0.7236328-0.9609375-0.7236328H27.6357422c-0.5258789,0-1.0534058,0.1046143-1.5754395,0.2716675   c-0.8880615-0.1741943-1.8031006-0.2716675-2.7409668-0.2716675C15.4238281,9.0473633,9,15.515625,9,23.4663086   S15.4238281,37.8852539,23.3193359,37.8852539z M86.4003906,11.0473633l-5.5205078,3.4580078   c-0.2919922,0.1831055-0.46875,0.503418-0.46875,0.8476563v17.1831055c0,1.8466797-1.4873047,3.3491211-3.3164063,3.3491211   H30.5810547c0.1560669-0.0931396,0.3059082-0.1951294,0.4579468-0.2939453   c0.1845703-0.1196289,0.3657227-0.2427979,0.5443726-0.3705444c0.210083-0.1506958,0.4174805-0.3046875,0.6187134-0.4661865   c0.1651611-0.1320801,0.3254395-0.2687378,0.4845581-0.4078979c0.1201782-0.1054688,0.2369385-0.2142334,0.3535156-0.3235474   c0.3271484-0.3056641,0.6390381-0.6258545,0.9367676-0.9608154c0.0496216-0.0560303,0.1016235-0.1098022,0.1503296-0.1665039   c0.1766968-0.2050781,0.3456421-0.4159546,0.5108032-0.6309204c0.0455933-0.0593872,0.0892944-0.1200562,0.1339111-0.1801147   c0.3289795-0.4421387,0.6343994-0.9015503,0.9121094-1.3807373c0.0090332-0.015625,0.0189209-0.0305786,0.0278931-0.0462036   c0.1379395-0.2400513,0.267334-0.4844971,0.3916626-0.7329712c0.0413818-0.0824585,0.079895-0.1664429,0.119751-0.2498169   c0.1860962-0.3904419,0.3543701-0.7895508,0.5055542-1.1984253c0.0543213-0.1459961,0.1102295-0.2910767,0.1598511-0.4390259   c0.0670166-0.2011108,0.1286621-0.4038086,0.1870117-0.6087036c0.0680542-0.2369995,0.1278076-0.4769287,0.1838379-0.7182617   c0.0401001-0.1748657,0.0817871-0.3485718,0.1155396-0.5258179c0.0675049-0.3499146,0.1196899-0.7042236,0.1612549-1.0614014   c0.0140991-0.1236572,0.0264893-0.2474365,0.0375366-0.3720093c0.038208-0.4248657,0.0646973-0.852417,0.0646973-1.2850952   s-0.0264893-0.8602295-0.0646973-1.2850952c-0.0110474-0.1245728-0.0234375-0.2483521-0.0375366-0.3720093   c-0.0415649-0.3571777-0.09375-0.7114868-0.1612549-1.0614014c-0.0337524-0.177124-0.0753174-0.350769-0.1154175-0.5255127   c-0.0560303-0.2415161-0.1159058-0.4815674-0.184021-0.718811c-0.0582886-0.2047729-0.1199951-0.4074097-0.1869507-0.6083984   c-0.0496826-0.1479492-0.1055298-0.2930908-0.1598511-0.4390869c-0.1511841-0.4088745-0.319458-0.8079834-0.5055542-1.1984253   c-0.039856-0.083374-0.0783691-0.1673584-0.119751-0.2498169c-0.1243286-0.2484741-0.2537231-0.4929199-0.3916626-0.7329712   c-0.0089722-0.015625-0.0188599-0.0305786-0.0278931-0.0462036c-0.27771-0.479187-0.5831299-0.9385986-0.9121094-1.3807373   c-0.0446167-0.0600586-0.0883179-0.1207275-0.1339111-0.1801147c-0.1651611-0.2149658-0.3341064-0.4258423-0.5108032-0.6309204   c-0.0488892-0.0569458-0.1011353-0.1110229-0.1509399-0.1671753c-0.2974243-0.3344727-0.6088867-0.6544189-0.9356689-0.9597168   c-0.1167603-0.1094971-0.2336426-0.2183838-0.3540039-0.3239746c-0.1591187-0.1391602-0.319397-0.2758179-0.4845581-0.4078979   c-0.2012329-0.161499-0.4086304-0.3154907-0.6187134-0.4661865c-0.1786499-0.1277466-0.3598022-0.2509155-0.5443726-0.3705444   c-0.1520386-0.0988159-0.3018799-0.2008057-0.4579468-0.2939453H86.4003906z M23.3193359,11.0473633   c1.1713867,0,2.3009644,0.1760864,3.3751831,0.4854126c0.2445068,0.0702515,0.4838257,0.1506348,0.7214355,0.2354736   c0.1943359,0.069397,0.3901978,0.1355591,0.579895,0.2143555c0.1737061,0.0722046,0.3412476,0.1552734,0.5106812,0.2351074   c0.1677856,0.0789795,0.3362427,0.1567993,0.4998779,0.243103c0.1781616,0.0941772,0.3512573,0.1959839,0.5239868,0.2984619   c0.1411743,0.0835571,0.2817383,0.1680298,0.4192505,0.257019c0.1837769,0.1192627,0.3638916,0.2435303,0.5406494,0.3721313   c0.1106567,0.0802612,0.2192383,0.1629028,0.3270874,0.2467041c0.1914673,0.149292,0.3804932,0.3015137,0.5626221,0.4614868   c0.0725098,0.0634766,0.1420288,0.130127,0.2130127,0.1952515c0.2057495,0.1893921,0.4093018,0.3812256,0.6018066,0.5839233   c0.0096436,0.0101318,0.0184326,0.0209351,0.0280151,0.0310669c0.9202881,0.9754028,1.6815186,2.0985718,2.2513428,3.322937   c0.0177612,0.038208,0.0371094,0.0753784,0.0545044,0.1138306c0.1156616,0.255249,0.2189331,0.5167236,0.3175049,0.7802734   c0.0354004,0.0950928,0.0709229,0.1899414,0.1040649,0.2860718c0.0807495,0.2329712,0.1535645,0.4691772,0.2205811,0.7077026   c0.039917,0.1434937,0.0760498,0.2884521,0.1109619,0.43396c0.050415,0.2078247,0.0986328,0.4163818,0.1384277,0.6277466   c0.038147,0.2055054,0.0666504,0.4140625,0.0946045,0.6229858c0.0223999,0.1645508,0.0493164,0.3278198,0.0650635,0.4940186   c0.0359497,0.3855591,0.0587769,0.7750244,0.0587769,1.1699219s-0.0228271,0.7843628-0.0587769,1.1699219   c-0.0157471,0.1661987-0.0426636,0.3294678-0.0650635,0.4940186c-0.0279541,0.2089233-0.0564575,0.4174805-0.0946045,0.6229858   c-0.0397949,0.2113647-0.0880127,0.4199219-0.1384277,0.6277466c-0.0349121,0.1455078-0.0710449,0.2904663-0.1109619,0.43396   c-0.0670166,0.2384644-0.1398926,0.4746094-0.2205811,0.7075806c-0.0331421,0.0963135-0.0687256,0.1912842-0.104187,0.286499   c-0.0985107,0.2633057-0.2016602,0.5245972-0.3172607,0.7796631c-0.0174561,0.0386963-0.0370483,0.0762329-0.0549316,0.1147461   c-0.5697632,1.2241211-1.3308716,2.3471069-2.2510376,3.3223267c-0.0095825,0.0101318-0.0183716,0.0209351-0.0280151,0.0310669   c-0.1925049,0.2026978-0.3960571,0.3945313-0.6018066,0.5839233c-0.0709839,0.0651245-0.1405029,0.1317749-0.2130127,0.1952515   c-0.1821289,0.1599731-0.3711548,0.3121948-0.5626221,0.4614868c-0.1078491,0.0838013-0.2164307,0.1664429-0.3270874,0.2467041   c-0.1767578,0.1286011-0.3568726,0.2528687-0.5406494,0.3721313c-0.1375122,0.0889893-0.2780762,0.1734619-0.4192505,0.257019   c-0.1726685,0.102478-0.3457642,0.2042236-0.5238647,0.2983398c-0.1641846,0.0866089-0.3330688,0.1646729-0.5014648,0.2438965   c-0.1687622,0.0795288-0.3356323,0.1622314-0.508606,0.2341309c-0.1906128,0.0792236-0.3872681,0.145752-0.5825195,0.2153931   c-0.2369995,0.0844727-0.4755859,0.1646729-0.7194214,0.2347412c-1.0742188,0.3093262-2.2037964,0.4854126-3.3751831,0.4854126   C16.5263672,35.8852539,11,30.3139648,11,23.4663086S16.5263672,11.0473633,23.3193359,11.0473633z"></path><path d="M76.6308594,62.0136719c-0.9069214,0-1.7911987,0.0949097-2.6519165,0.2574463   c-0.0465088-0.0213623-0.0876465-0.0512695-0.1381226-0.0655518c-0.5263672-0.1484375-0.9833984-0.2177734-1.4384766-0.2177734   H10.2207031c-0.4462891,0-0.8378906,0.2954102-0.9609375,0.7236328c-0.1230469,0.4287109,0.0517578,0.887207,0.4296875,1.1240234   l7.7363281,4.8461914v16.8793945c0,2.9584961,2.3925781,5.3652344,5.3330078,5.3652344h49.6435547   c0.4852905,0,0.9769287-0.0908813,1.4865723-0.2449341c0.8884888,0.1737061,1.803772,0.2713013,2.7419434,0.2713013   C84.5537109,90.9526367,91,84.4619141,91,76.4833984S84.5537109,62.0136719,76.6308594,62.0136719z M22.7587891,88.9262695   c-1.8378906,0-3.3330078-1.5097656-3.3330078-3.3652344V68.1279297c0-0.3442383-0.1767578-0.6645508-0.46875-0.8476563   l-5.2568359-3.2924805h55.2382813c-4.1914063,2.581543-6.8632813,7.199707-6.8632813,12.4018555   c0,5.2392578,2.8134766,9.9682617,7.1083984,12.5366211H22.7587891z M76.6308594,88.9526367   c-6.8212891,0-12.3701172-5.59375-12.3701172-12.4692383c0-6.8759766,5.5488281-12.4697266,12.3701172-12.4697266   C83.4511719,64.0136719,89,69.6074219,89,76.4833984C89,83.3588867,83.4511719,88.9526367,76.6308594,88.9526367z"></path><path d="M85.3867188,79.9926758L81.390625,76.453125l3.9863281-3.8623047   c0.3964844-0.3842773,0.40625-1.0175781,0.0214844-1.4140625l-3.0371094-3.1352539   c-0.1845703-0.1904297-0.4365234-0.2998047-0.7021484-0.3041992c-0.2783203,0.0166016-0.5214844,0.0976563-0.7119141,0.2817383   l-4.3330078,4.2006836l-4.5175781-4.0014648c-0.4121094-0.3652344-1.0458984-0.3295898-1.4111328,0.0854492l-2.8955078,3.2666016   c-0.1757813,0.1982422-0.2666016,0.4584961-0.25,0.7231445c0.015625,0.2651367,0.1367188,0.5126953,0.3349609,0.6884766   l4.1552734,3.6806641l-3.8320313,3.7128906c-0.3964844,0.3842773-0.40625,1.0175781-0.0224609,1.4140625l3.0380859,3.1352539   c0.1845703,0.1904297,0.4365234,0.2998047,0.7021484,0.3041992c0.0048828,0,0.0107422,0,0.015625,0   c0.2597656,0,0.5097656-0.1010742,0.6962891-0.2817383l4.1796875-4.0522461l4.3574219,3.8598633   c0.4121094,0.3642578,1.0439453,0.328125,1.4111328-0.0849609l2.8955078-3.2651367   c0.1757813-0.1987305,0.265625-0.4589844,0.25-0.7236328C85.7060547,80.4160156,85.5849609,80.168457,85.3867188,79.9926758z    M81.7431641,82.5952148l-4.3027344-3.8115234c-0.390625-0.3457031-0.9833984-0.3339844-1.359375,0.0302734l-4.1269531,4.0009766   l-1.6455078-1.6987305l3.8886719-3.7685547c0.1992188-0.1938477,0.3095703-0.4624023,0.3037109-0.7407227   c-0.0068359-0.2783203-0.1289063-0.5415039-0.3369141-0.7260742l-4.2138672-3.7329102l1.5683594-1.7695313l4.4628906,3.953125   c0.390625,0.347168,0.984375,0.3334961,1.359375-0.0302734l4.2802734-4.1499023l1.6455078,1.6987305l-4.0429688,3.9174805   c-0.1992188,0.1938477-0.3095703,0.4624023-0.3037109,0.7407227c0.0068359,0.2783203,0.1289063,0.5415039,0.3369141,0.7260742   l4.0546875,3.5917969L81.7431641,82.5952148z"></path><path d="M20.6826172,31.4140625c0.0185547,0.0009766,0.0371094,0.0014648,0.0556641,0.0014648   c0.2666016,0,0.5234375-0.1069336,0.7119141-0.2983398l10.6757813-10.8349609   c0.3876953-0.3930664,0.3837891-1.0263672-0.0097656-1.4140625l-3.0107422-2.9677734   c-0.1875-0.184082-0.4394531-0.2875977-0.7021484-0.2875977c-0.0019531,0-0.0048828,0-0.0078125,0   c-0.2646484,0.0019531-0.5185547,0.109375-0.7041016,0.2983398l-6.5097656,6.6079102l-1.8359375-2.3364258   c-0.3408203-0.4345703-0.96875-0.5097656-1.4033203-0.1689453L14.6171875,22.625   c-0.2089844,0.1640625-0.34375,0.4038086-0.3759766,0.6674805c-0.03125,0.2631836,0.0429688,0.5283203,0.2070313,0.7368164   l5.5039063,7.0039063C20.1298828,31.2592773,20.3955078,31.3979492,20.6826172,31.4140625z M18.390625,22.2041016   l1.9199219,2.4433594c0.1777344,0.2260742,0.4433594,0.3647461,0.7304688,0.3808594   c0.2880859,0.0175781,0.5654297-0.0922852,0.7675781-0.296875l6.6054688-6.7041016L30,19.5908203l-9.1767578,9.3139648   l-4.1845703-5.324707L18.390625,22.2041016z"></path></g></svg>