<svg height='100px' width='100px'  fill="#1A1A1A" xmlns="http://www.w3.org/2000/svg" xmlns:xlink="http://www.w3.org/1999/xlink" version="1.1" x="0px" y="0px" viewBox="0 0 100 100" style="enable-background:new 0 0 100 100;" xml:space="preserve"><path d="M32.229,53.8c-0.553,0-1,0.447-1,1s0.447,1,1,1h0.626v9.777h-0.626c-0.553,0-1,0.447-1,1s0.447,1,1,1h35.793  c0.553,0,1-0.447,1-1s-0.447-1-1-1h-0.742V55.8h0.742c0.553,0,1-0.447,1-1s-0.447-1-1-1h-0.742v-9.468h0.742c0.553,0,1-0.447,1-1  s-0.447-1-1-1h-8.254l-5.854-9.435c-0.183-0.294-0.504-0.473-0.85-0.473H33.854c-0.553,0-1,0.447-1,1v8.907h-0.626  c-0.553,0-1,0.447-1,1s0.447,1,1,1h0.626V53.8H32.229z M42.033,65.577H38.87v-4.444c0-0.872,0.709-1.582,1.581-1.582  s1.582,0.71,1.582,1.582V65.577z M51.334,65.577H48.17v-4.444c0-0.872,0.71-1.582,1.582-1.582s1.582,0.71,1.582,1.582V65.577z   M60.634,65.577H57.47v-4.444c0-0.872,0.71-1.582,1.582-1.582s1.582,0.71,1.582,1.582V65.577z M65.279,65.577h-2.646v-4.444  c0-1.976-1.606-3.582-3.582-3.582s-3.582,1.606-3.582,3.582v4.444h-2.136v-4.444c0-1.976-1.606-3.582-3.582-3.582  s-3.582,1.606-3.582,3.582v4.444h-2.137v-4.444c0-1.976-1.606-3.582-3.582-3.582c-1.975,0-3.581,1.606-3.581,3.582v4.444h-2.016  V55.8h30.425V65.577z M42.033,53.8H38.87v-4.391c0-0.872,0.709-1.582,1.581-1.582s1.582,0.71,1.582,1.582V53.8z M51.334,53.8H48.17  v-4.391c0-0.872,0.71-1.582,1.582-1.582s1.582,0.71,1.582,1.582V53.8z M60.634,53.8H57.47v-4.391c0-0.872,0.71-1.582,1.582-1.582  s1.582,0.71,1.582,1.582V53.8z M34.854,34.425h17.652l4.907,7.907H53.27v-2.375c0-1.939-1.578-3.518-3.518-3.518  s-3.518,1.578-3.518,3.518v2.375h-2.329v-2.375c0-1.939-1.578-3.518-3.518-3.518s-3.518,1.578-3.518,3.518v2.375h-2.016V34.425z   M51.27,42.332h-3.035v-2.375c0-0.837,0.681-1.518,1.518-1.518s1.518,0.681,1.518,1.518V42.332z M41.905,42.332H38.87v-2.375  c0-0.837,0.681-1.518,1.518-1.518s1.518,0.681,1.518,1.518V42.332z M34.854,44.332h30.425V53.8h-2.646v-4.391  c0-1.976-1.606-3.582-3.582-3.582s-3.582,1.606-3.582,3.582V53.8h-2.136v-4.391c0-1.976-1.606-3.582-3.582-3.582  s-3.582,1.606-3.582,3.582V53.8h-2.137v-4.391c0-1.976-1.606-3.582-3.582-3.582c-1.975,0-3.581,1.606-3.581,3.582V53.8h-2.016  V44.332z"></path><path d="M79.645,29.908h4.805c0.553,0,1-0.447,1-1v-5.688h1.497c1.78,0,3.229-1.449,3.229-3.229s-1.449-3.229-3.229-3.229h-1.497  v-5.688c0-0.553-0.447-1-1-1h-4.805c-0.553,0-1,0.447-1,1v0.867H21.605v-0.867c0-0.553-0.447-1-1-1h-4.805c-0.553,0-1,0.447-1,1  v5.688h-1.497c-1.78,0-3.229,1.448-3.229,3.229s1.449,3.229,3.229,3.229h1.497v5.688c0,0.553,0.447,1,1,1h4.805c0.553,0,1-0.447,1-1  v-0.867h1.582v43.918h-1.582v-0.867c0-0.553-0.447-1-1-1h-4.805c-0.553,0-1,0.447-1,1v5.688h-1.497c-1.78,0-3.229,1.449-3.229,3.229  s1.449,3.229,3.229,3.229h1.497v5.688c0,0.553,0.447,1,1,1h4.805c0.553,0,1-0.447,1-1v-0.867h57.039v0.867c0,0.553,0.447,1,1,1  h4.805c0.553,0,1-0.447,1-1v-5.688h1.497c1.78,0,3.229-1.448,3.229-3.229s-1.449-3.229-3.229-3.229h-1.497v-5.688  c0-0.553-0.447-1-1-1h-4.805c-0.553,0-1,0.447-1,1v0.867h-1.582V28.041h1.582v0.867C78.645,29.461,79.092,29.908,79.645,29.908z   M86.946,18.763c0.678,0,1.229,0.551,1.229,1.229s-0.552,1.229-1.229,1.229h-1.497v-2.458H86.946z M80.645,12.075h2.805v15.833  h-2.805V12.075z M13.304,21.221c-0.678,0-1.229-0.552-1.229-1.229s0.552-1.229,1.229-1.229h1.497v2.458H13.304z M19.605,27.908  h-2.805V12.075h2.805V27.908z M13.304,81.237c-0.678,0-1.229-0.551-1.229-1.229s0.552-1.229,1.229-1.229h1.497v2.458H13.304z   M19.605,87.925h-2.805V72.092h2.805V87.925z M86.946,78.779c0.678,0,1.229,0.552,1.229,1.229s-0.552,1.229-1.229,1.229h-1.497  v-2.458H86.946z M80.645,72.092h2.805v15.833h-2.805V72.092z M78.645,86.058H21.605V73.959h57.039V86.058z M75.062,71.959H25.188  V28.041h49.875V71.959z M21.605,26.041V13.942h57.039v12.099H21.605z"></path></svg>