<svg height='100px' width='100px'  fill="#1A1A1A" xmlns="http://www.w3.org/2000/svg" xmlns:xlink="http://www.w3.org/1999/xlink" xmlns:serif="http://www.serif.com/" viewBox="0 0 101 101" version="1.1" xml:space="preserve" style="" x="0px" y="0px" fill-rule="evenodd" clip-rule="evenodd" stroke-linejoin="round" stroke-miterlimit="1.41421"><rect serif:id="Page 47" x="0.5" y="0.5" width="100" height="100" style="" fill="none"></rect><path d="M51.228,48.086c-0.144,0.477 -0.014,0.995 0.339,1.347c0.352,0.353 0.87,0.483 1.347,0.339c6.62,-1.996 25.075,-7.562 32.717,-9.866c2.006,-0.605 3.379,-2.453 3.379,-4.549c0,-4.871 0,-13.651 0,-18.951c0,-1.171 -0.465,-2.295 -1.293,-3.123c-0.828,-0.828 -1.952,-1.293 -3.123,-1.293c-5.3,0 -14.08,0 -18.951,0c-2.096,0 -3.944,1.373 -4.549,3.379c-2.304,7.642 -7.87,26.097 -9.866,32.717Z"></path><path d="M51.228,52.914c-0.144,-0.477 -0.014,-0.995 0.339,-1.347c0.352,-0.353 0.87,-0.483 1.347,-0.339c6.62,1.996 25.075,7.562 32.717,9.866c2.006,0.605 3.379,2.453 3.379,4.549c0,4.871 0,13.651 0,18.951c0,1.171 -0.465,2.295 -1.293,3.123c-0.828,0.828 -1.952,1.293 -3.123,1.293c-5.3,0 -14.08,0 -18.951,0c-2.096,0 -3.944,-1.373 -4.549,-3.379c-2.304,-7.642 -7.87,-26.097 -9.866,-32.717Z"></path><path d="M49.772,48.086c0.144,0.477 0.014,0.995 -0.339,1.347c-0.352,0.353 -0.87,0.483 -1.347,0.339c-6.62,-1.996 -25.075,-7.562 -32.717,-9.866c-2.006,-0.605 -3.379,-2.453 -3.379,-4.549c0,-4.871 0,-13.651 0,-18.951c0,-1.171 0.465,-2.295 1.293,-3.123c0.828,-0.828 1.952,-1.293 3.123,-1.293c5.3,0 14.08,0 18.951,0c2.096,0 3.944,1.373 4.549,3.379c2.304,7.642 7.87,26.097 9.866,32.717Z"></path><path d="M49.772,52.914c0.144,-0.477 0.014,-0.995 -0.339,-1.347c-0.352,-0.353 -0.87,-0.483 -1.347,-0.339c-6.62,1.996 -25.075,7.562 -32.717,9.866c-2.006,0.605 -3.379,2.453 -3.379,4.549c0,4.871 0,13.651 0,18.951c0,1.171 0.465,2.295 1.293,3.123c0.828,0.828 1.952,1.293 3.123,1.293c5.3,0 14.08,0 18.951,0c2.096,0 3.944,-1.373 4.549,-3.379c2.304,-7.642 7.87,-26.097 9.866,-32.717Z"></path></svg>