<svg height='100px' width='100px'  fill="#1A1A1A" xmlns:x="http://ns.adobe.com/Extensibility/1.0/" xmlns:i="http://ns.adobe.com/AdobeIllustrator/10.0/" xmlns:graph="http://ns.adobe.com/Graphs/1.0/" xmlns="http://www.w3.org/2000/svg" xmlns:xlink="http://www.w3.org/1999/xlink" version="1.1" x="0px" y="0px" viewBox="0 0 100 100" style="enable-background:new 0 0 100 100;" xml:space="preserve"><g><g i:extraneous="self"><g><path d="M5273.1,2400.1v-2c0-2.8-5-4-9.7-4s-9.7,1.3-9.7,4v2c0,1.8,0.7,3.6,2,4.9l5,4.9c0.3,0.3,0.4,0.6,0.4,1v6.4     c0,0.4,0.2,0.7,0.6,0.8l2.9,0.9c0.5,0.1,1-0.2,1-0.8v-7.2c0-0.4,0.2-0.7,0.4-1l5.1-5C5272.4,2403.7,5273.1,2401.9,5273.1,2400.1z      M5263.4,2400c-4.8,0-7.4-1.3-7.5-1.8v0c0.1-0.5,2.7-1.8,7.5-1.8c4.8,0,7.3,1.3,7.5,1.8C5270.7,2398.7,5268.2,2400,5263.4,2400z"></path><path d="M5268.4,2410.3c-0.6,0-1,0.4-1,1c0,0.6,0.4,1,1,1h4.3c0.6,0,1-0.4,1-1c0-0.6-0.4-1-1-1H5268.4z"></path><path d="M5272.7,2413.7h-4.3c-0.6,0-1,0.4-1,1c0,0.6,0.4,1,1,1h4.3c0.6,0,1-0.4,1-1C5273.7,2414.1,5273.3,2413.7,5272.7,2413.7z"></path><path d="M5272.7,2417h-4.3c-0.6,0-1,0.4-1,1c0,0.6,0.4,1,1,1h4.3c0.6,0,1-0.4,1-1C5273.7,2417.5,5273.3,2417,5272.7,2417z"></path></g><g><g><path d="M50.1,28.2C38,28.2,28.2,38,28.2,50S38,71.9,50.1,71.9S71.9,62.1,71.9,50S62.1,28.2,50.1,28.2z M54,39.3      c-1.3,0.2-2.6,0.3-3.9,0.3c-1.3,0-2.6-0.1-3.9-0.3c1.1-4.7,2.8-7.4,3.9-7.4C51.2,31.9,52.9,34.6,54,39.3z M55.7,32.9      c2.4,0.8,4.6,2.1,6.4,3.7c-1.3,0.8-2.8,1.4-4.5,1.9C57.2,36.4,56.5,34.5,55.7,32.9z M45.1,48.1c0.1-1.8,0.2-3.5,0.4-5.1      c1.5,0.2,3,0.3,4.6,0.3c1.6,0,3.1-0.1,4.6-0.3c0.2,1.5,0.4,3.2,0.4,5.1H45.1z M55.1,51.9c-0.1,1.8-0.2,3.5-0.4,5      c-1.5-0.2-3-0.3-4.6-0.3c-1.5,0-3.1,0.1-4.6,0.3c-0.2-1.5-0.4-3.2-0.4-5H55.1z M42.5,38.5c-1.6-0.5-3.1-1.1-4.5-1.9      c1.8-1.7,4-2.9,6.4-3.7C43.6,34.5,43,36.4,42.5,38.5z M41.8,42.3c-0.3,1.9-0.4,3.9-0.5,5.9h-9.2c0.3-3.2,1.5-6.2,3.3-8.7      C37.3,40.7,39.5,41.6,41.8,42.3z M41.3,51.9c0.1,2,0.2,4,0.5,5.9c-2.3,0.7-4.5,1.6-6.4,2.8c-1.8-2.5-3-5.4-3.3-8.7H41.3z       M42.5,61.5c0.5,2.1,1.1,4.1,1.9,5.7c-2.4-0.8-4.6-2.1-6.4-3.7C39.4,62.6,40.8,62,42.5,61.5z M46.2,60.7      c1.3-0.2,2.6-0.3,3.9-0.3c1.3,0,2.6,0.1,3.9,0.3c-1.1,4.7-2.8,7.4-3.9,7.4S47.3,65.4,46.2,60.7z M57.7,61.5      c1.6,0.5,3.1,1.1,4.5,1.9c-1.8,1.7-4,2.9-6.4,3.7C56.5,65.6,57.2,63.6,57.7,61.5z M58.3,57.8c0.3-1.9,0.4-3.9,0.5-5.9H68      c-0.3,3.2-1.5,6.2-3.3,8.7C62.8,59.4,60.7,58.4,58.3,57.8z M58.8,48.1c-0.1-2-0.2-4-0.5-5.9c2.3-0.7,4.5-1.6,6.4-2.8      c1.8,2.5,3,5.4,3.3,8.7H58.8z"></path></g><g><circle cx="50.1" cy="7.4" r="4.9"></circle></g><g><path d="M43.8,22.9c2,0.4,4.1,0.6,6.3,0.6c2.2,0,4.3-0.2,6.3-0.6c0.7-0.1,1.2-0.8,1.1-1.6L57,17.4c-0.2-1.6-1.1-3-2.4-3.8      c-1.3,0.9-2.8,1.5-4.5,1.5c-1.7,0-3.3-0.6-4.5-1.5c-1.3,0.8-2.2,2.2-2.4,3.8l-0.5,3.9C42.5,22,43,22.7,43.8,22.9z"></path></g><g><ellipse transform="matrix(0.7071 -0.7071 0.7071 0.7071 -8.182 19.8834)" cx="19.9" cy="19.8" rx="4.9" ry="4.9"></ellipse></g><g><path d="M22.1,31.8l2.4,3.1c0.5,0.6,1.3,0.7,1.9,0.3c1.7-1.1,3.3-2.5,4.9-4c1.6-1.6,2.9-3.2,4-4.9c0.4-0.6,0.3-1.5-0.3-1.9      L31.9,22c-1.3-1-2.9-1.3-4.4-1c-0.2,1.6-0.9,3.1-2.1,4.3c-1.2,1.2-2.7,1.9-4.3,2.1C20.7,28.9,21.1,30.5,22.1,31.8z"></path></g><g><circle cx="7.4" cy="49.9" r="4.9"></circle></g><g><path d="M21.3,57.4c0.7,0.1,1.4-0.4,1.6-1.1c0.4-2,0.6-4.1,0.6-6.3c0-2.2-0.2-4.3-0.6-6.3c-0.1-0.7-0.8-1.2-1.6-1.1L17.4,43      c-1.6,0.2-3,1.1-3.8,2.4c0.9,1.3,1.5,2.8,1.5,4.5c0,1.7-0.6,3.3-1.5,4.5c0.8,1.3,2.2,2.2,3.8,2.4L21.3,57.4z"></path></g><g><ellipse transform="matrix(0.7071 -0.7071 0.7071 0.7071 -50.8273 37.4713)" cx="19.8" cy="80.1" rx="4.9" ry="4.9"></ellipse></g><g><path d="M31.2,68.7c-1.6-1.6-3.2-2.9-4.9-4c-0.6-0.4-1.5-0.3-1.9,0.3L22,68.1c-1,1.3-1.3,2.9-1,4.4c1.6,0.2,3.1,1,4.3,2.1      c1.2,1.2,1.9,2.7,2.1,4.3c1.5,0.4,3.1,0,4.4-1l3.1-2.4c0.6-0.5,0.7-1.3,0.3-1.9C34.1,71.9,32.8,70.3,31.2,68.7z"></path></g><g><circle cx="49.9" cy="92.6" r="4.9"></circle></g><g><path d="M56.2,77.1c-2-0.4-4.1-0.6-6.3-0.6c-2.2,0-4.3,0.2-6.3,0.6c-0.7,0.1-1.2,0.8-1.1,1.6l0.5,3.9c0.2,1.6,1.1,3,2.4,3.8      c1.3-0.9,2.8-1.5,4.5-1.5c1.7,0,3.3,0.6,4.5,1.5c1.3-0.8,2.2-2.2,2.4-3.8l0.5-3.9C57.5,78,57,77.3,56.2,77.1z"></path></g><g><ellipse transform="matrix(0.7071 -0.7071 0.7071 0.7071 -33.2393 80.1166)" cx="80.1" cy="80.2" rx="4.9" ry="4.9"></ellipse></g><g><path d="M77.9,68.2l-2.4-3.1c-0.5-0.6-1.3-0.7-1.9-0.3c-1.7,1.1-3.3,2.5-4.9,4c-1.6,1.6-2.9,3.2-4,4.9c-0.4,0.6-0.3,1.5,0.3,1.9      l3.1,2.4c1.3,1,2.9,1.3,4.4,1c0.2-1.6,1-3.1,2.1-4.3c1.2-1.2,2.7-1.9,4.3-2.1C79.3,71.1,78.9,69.5,77.9,68.2z"></path></g><g><circle cx="92.6" cy="50.1" r="4.9"></circle></g><g><path d="M82.6,43.1l-3.9-0.5c-0.7-0.1-1.4,0.4-1.6,1.1c-0.4,2-0.6,4.1-0.6,6.3c0,2.2,0.2,4.3,0.6,6.3c0.1,0.7,0.8,1.2,1.6,1.1      l3.9-0.5c1.6-0.2,3-1.1,3.8-2.4c-0.9-1.3-1.5-2.8-1.5-4.5c0-1.7,0.6-3.3,1.5-4.5C85.6,44.2,84.2,43.3,82.6,43.1z"></path></g><g><ellipse transform="matrix(0.7071 -0.7071 0.7071 0.7071 9.4059 62.5286)" cx="80.2" cy="19.9" rx="4.9" ry="4.9"></ellipse></g><g><path d="M68.8,31.3c1.6,1.6,3.2,2.9,4.9,4c0.6,0.4,1.5,0.3,1.9-0.3l2.4-3.1c1-1.3,1.3-2.9,1-4.4c-1.6-0.2-3.1-1-4.3-2.1      c-1.2-1.2-1.9-2.7-2.1-4.3c-1.5-0.4-3.1,0-4.4,1l-3.1,2.4c-0.6,0.5-0.7,1.3-0.3,1.9C65.9,28.1,67.2,29.7,68.8,31.3z"></path></g></g></g></g></svg>