<svg height='100px' width='100px'  fill="#1A1A1A" xmlns="http://www.w3.org/2000/svg" viewBox="0 0 48 48" x="0px" y="0px"><title>100-Option ui mobile app interface web</title><g data-name="100-Option"><path d="M12.32,22.16H35.68A10.08,10.08,0,0,0,35.68,2H12.32a10.08,10.08,0,0,0,0,20.16ZM12.32,4H35.68a8.08,8.08,0,0,1,0,16.16H12.32A8.08,8.08,0,0,1,12.32,4Z"></path><path d="M35.68,18.27a6.19,6.19,0,1,0-6.19-6.19A6.19,6.19,0,0,0,35.68,18.27Zm0-10.38a4.19,4.19,0,1,1-4.19,4.19A4.19,4.19,0,0,1,35.68,7.89Z"></path><path d="M35.68,25.84H12.32a10.08,10.08,0,0,0,0,20.16H35.68a10.08,10.08,0,0,0,0-20.16Zm0,18.16H12.32a8.08,8.08,0,0,1,0-16.16H35.68a8.08,8.08,0,0,1,0,16.16Z"></path><path d="M13,29.73a6.19,6.19,0,1,0,6.19,6.19A6.2,6.2,0,0,0,13,29.73Zm0,10.38a4.19,4.19,0,1,1,4.19-4.19A4.2,4.2,0,0,1,13,40.11Z"></path></g></svg>