<svg xmlns="http://www.w3.org/2000/svg" viewBox="0 0 23 23" fill="none" x="0px" y="0px"><path d="M15.8496 9.60759C15.0688 10.3886 13.8022 10.3886 13.0215 9.60759C12.2402 8.82646 12.2402 7.56023 13.0215 6.7791C13.8022 5.99809 15.0688 5.99809 15.8496 6.7791C16.6309 7.56023 16.6309 8.82646 15.8496 9.60759Z" transform="translate(0.36377 0.241699)" fill="black"></path><path fill-rule="evenodd" clip-rule="evenodd" d="M7.36523 15.2602L11.3755 19.2746C11.856 19.7559 12.5508 19.9648 13.1904 19.7334C14.2798 19.3394 15.8945 18.5455 16.3652 17.1945C16.4702 16.893 16.5322 16.6066 16.561 16.3373C16.5669 16.2834 16.5713 16.23 16.5742 16.1774C16.5811 16.0649 16.582 15.9556 16.5781 15.8495C16.5742 15.736 16.5645 15.6263 16.5503 15.5206C16.4028 14.4263 16.3623 13.0976 17.1426 12.3165L19.5083 9.94804C20.4624 8.99284 21.2241 7.85832 21.6421 6.57451C22.3208 4.48894 23.1343 1.33598 22.2119 0.41362C21.29 -0.508011 18.1421 0.303024 16.0566 0.981491C14.769 1.40044 13.6318 2.16508 12.6748 3.12309L10.3149 5.48564C9.53418 6.26738 8.2041 6.22746 7.10938 6.07878C6.86865 6.04607 6.60693 6.03728 6.32715 6.06413C6.04736 6.09099 5.74902 6.15337 5.43408 6.26311C4.08203 6.73418 3.28955 8.35136 2.89648 9.44182C2.66602 10.0812 2.875 10.7749 3.35596 11.2552L7.36523 15.2602ZM19.8638 2.07585C18.8657 2.2238 17.6816 2.55595 16.6753 2.88335C15.7412 3.1873 14.8667 3.75871 14.0898 4.53642L11.73 6.89897C10.9106 7.71904 9.89355 8.01628 9.07227 8.11638C8.25293 8.21635 7.44824 8.14311 6.84033 8.06059C6.6582 8.03581 6.4126 8.03996 6.09229 8.15166C5.9707 8.19389 5.73877 8.34282 5.44824 8.76091C5.38135 8.8571 5.31787 8.95879 5.25732 9.06413C5.10059 9.3372 4.96436 9.63457 4.85205 9.92278L8.77881 13.8451L12.7075 17.7784C13.1064 17.6221 13.5225 17.4213 13.8677 17.1812C14.0425 17.0596 14.1704 16.9482 14.2627 16.8508C14.3911 16.7155 14.4517 16.6072 14.4766 16.5363C14.5327 16.3747 14.562 16.2322 14.5737 16.1073C14.5854 15.9842 14.5806 15.8782 14.5684 15.7879C14.4863 15.1814 14.4136 14.3779 14.5132 13.5595C14.6128 12.7392 14.9092 11.7223 15.7275 10.903L18.0933 8.53459C18.8677 7.7592 19.437 6.88701 19.7402 5.95537C20.0679 4.9489 20.4009 3.76347 20.5493 2.76408C20.5942 2.46086 20.6172 2.20683 20.6235 2.00188C20.4194 2.00822 20.166 2.03105 19.8638 2.07585Z" transform="translate(0.36377 0.241699)" fill="black"></path><path d="M6.65723 15.9716C6.2666 15.581 5.63379 15.581 5.24316 15.9716L0.293457 20.9213C-0.097168 21.3118 -0.097168 21.945 0.293457 22.3355C0.684082 22.726 1.31689 22.726 1.70752 22.3355L6.65723 17.3858C7.04785 16.9953 7.04785 16.3621 6.65723 15.9716Z" transform="translate(0.36377 0.241699)" fill="black"></path><path d="M3.12158 13.8503C3.51221 13.4596 4.14502 13.4596 4.53564 13.8503C4.92627 14.2408 4.92627 14.8739 4.53564 15.2645L1.70752 18.0928C1.31689 18.4834 0.683594 18.4834 0.292969 18.0928C-0.0976562 17.7023 -0.0976562 17.0691 0.292969 16.6786L3.12158 13.8503Z" transform="translate(0.36377 0.241699)" fill="black"></path><path d="M8.77832 18.0929C8.3877 17.7023 7.75488 17.7023 7.36426 18.0929L4.53564 20.9213C4.14502 21.3118 4.14502 21.945 4.53564 22.3355C4.92627 22.7261 5.55957 22.7261 5.9502 22.3355L8.77832 19.5071C8.98145 19.3042 9.0791 19.0358 9.0708 18.7699C9.06348 18.5241 8.96582 18.2806 8.77832 18.0929Z" transform="translate(0.36377 0.241699)" fill="black"></path></svg>