<svg xmlns="http://www.w3.org/2000/svg" xmlns:xlink="http://www.w3.org/1999/xlink" version="1.1" x="0px" y="0px" viewBox="0 0 70 100" enable-background="new 0 0 70 100" xml:space="preserve"><path d="M23,75.5c-0.6-11.7-1.3-28.2-1.8-34.7c-0.8-10.6-3.1-5.4-3.5-11.9c-0.4-6.4-3.8,0-4.4-9C12.7,10.9,7,9.3,7,9.3v79.2  l-0.2-0.2c0,1.6,7.3-0.8,12.4-2.8c-0.4-0.9-0.7-1.9-0.7-3C18.5,79.4,20.3,76.7,23,75.5z"></path><path d="M24,50.8l0.8,24.1c0.3,0,0.5-0.1,0.8-0.1L24,50.8z"></path><path d="M27.1,55l1.2,20.1c0.3,0.1,0.6,0.2,0.8,0.3L27.1,55z"></path><path d="M28.8,43.1l2.8,33.6c0.2-0.3,0.4-0.6,0.6-0.9L28.8,43.1z"></path><path d="M41.7,84.4c1.2,0.5,1.9,1.1,1.9,1.8c-0.1,1.8-5.7,3.1-12.7,2.9c-2.8-0.1-5.4-0.4-7.5-0.9c2.2,1,6.1,1.7,10.6,1.8  c6.9,0.2,12.6-1.1,12.7-2.9C46.7,86.1,44.8,85.1,41.7,84.4z"></path><path d="M63.6,85.3c0,0.1,0,0.1,0,0.2c0,2.6-6.9,4.7-15.3,4.7c-0.5,0-0.9,0-1.4,0c-2,1.9-7.8,3.2-14.5,3.2c-6.1,0-11.4-1.1-13.9-2.7  c0.3,2.5,7,4.5,15.3,4.5c6.8,0,12.5-1.4,14.5-3.2c0.5,0,0.9,0,1.4,0c8.5,0,15.3-2.1,15.3-4.7C65,86.6,64.5,85.9,63.6,85.3z"></path><path d="M47.8,79c0,0.5-0.4,1-1,1c-0.6,0.1-1-0.3-1.1-0.8c0-0.5,0.4-1,1-1C47.3,78.1,47.8,78.5,47.8,79z"></path><path d="M50.4,78.4c-0.2-0.3-0.6-0.3-0.9-0.1c-0.3,0.2-0.3,0.6-0.1,0.9c0.2,0.3,0.6,0.3,0.9,0.1S50.6,78.7,50.4,78.4z"></path><path d="M50.1,76.3c0,0.3-0.2,0.6-0.5,0.6c-0.3,0-0.6-0.2-0.6-0.5c0-0.3,0.2-0.6,0.5-0.6S50.1,76,50.1,76.3z"></path><path d="M40.8,53.5c-0.7-7.1,0.6-6.6-0.5-10.7c-0.9-3.3-5.5-2.9-7.1-5.7c-2.2-3.7-7.6-4.8-7.6-4.8s0.6,1.5,2.7,2.8  c3.1,1.8,5.6,26.3,6.6,38.3c1-0.5,2.2-0.8,3.4-0.8c2.3,0,4.3,1,5.7,2.6c0.5-0.6,0.9-1.3,0.9-1.8C44.5,66.4,41.4,59,40.8,53.5z   M34.6,51.9c0-0.3,0.3-0.6,0.6-0.6c0.3,0,0.6,0.3,0.6,0.6c0,0.3-0.3,0.6-0.6,0.6C34.8,52.5,34.6,52.2,34.6,51.9z M35.9,60.1  c-0.4,0-0.8-0.4-0.8-0.8c0-0.4,0.4-0.8,0.8-0.8c0.4,0,0.8,0.4,0.8,0.8C36.7,59.8,36.4,60.1,35.9,60.1z M37.3,56.2  c-0.3,0-0.6-0.3-0.6-0.6c0-0.3,0.3-0.6,0.6-0.6c0.3,0,0.6,0.3,0.6,0.6C37.9,56,37.7,56.2,37.3,56.2z M38.1,50.6  c0-0.2,0.2-0.4,0.4-0.4c0.2,0,0.4,0.2,0.4,0.4c0,0.2-0.2,0.4-0.4,0.4C38.3,51.1,38.1,50.9,38.1,50.6z M39,57.5  c-0.3,0-0.5-0.2-0.5-0.5c0-0.3,0.2-0.5,0.5-0.5c0.3,0,0.5,0.2,0.5,0.5C39.5,57.3,39.2,57.5,39,57.5z"></path></svg>