<svg height='100px' width='100px'  fill="#1A1A1A" xmlns="http://www.w3.org/2000/svg" data-name="Layer 1" viewBox="0 0 100 100" x="0px" y="0px"><title>UI3</title><path d="M46,73.3A27.09,27.09,0,1,1,72.88,46.23a26.51,26.51,0,0,1-.39,4.57l15.2,15.3a1.92,1.92,0,0,0,.12-.25q1.43-3.91,2.84-7.83A1.27,1.27,0,0,0,90,56.49c-2.26-1.68-4.51-3.37-6.78-5a2,2,0,0,1-.89-2c.1-.78.14-1.58.17-2.37a1.61,1.61,0,0,1,1-1.49c2.43-1.22,4.87-2.44,7.28-3.69A6.72,6.72,0,0,0,91.89,41v-.9c-.29-1.24-.6-2.47-.88-3.72s-.61-2.8-.91-4.2A1.26,1.26,0,0,0,88.75,31c-2.83-.19-5.65-.38-8.47-.54a1.79,1.79,0,0,1-1.68-1.05c-.3-.61-.63-1.21-1-1.8a1.76,1.76,0,0,1,0-1.93c1.42-2.38,2.82-4.78,4.22-7.17a1.34,1.34,0,0,0-.24-2l-5.57-5.73a1.27,1.27,0,0,0-1.92-.27c-2.41,1.34-4.83,2.68-7.23,4.06a1.84,1.84,0,0,1-2.09,0c-.53-.34-1.1-.64-1.66-.95A1.72,1.72,0,0,1,62.26,12c-.08-2.76-.18-5.52-.28-8.28,0-1.31-.22-1.51-1.51-1.82L53.23.16A2.14,2.14,0,0,1,52.84,0h-.9a10.37,10.37,0,0,0-.88,1.21c-1.27,2.33-2.52,4.66-3.74,7a1.61,1.61,0,0,1-1.73,1.09,13.47,13.47,0,0,0-2.1.09,1.71,1.71,0,0,1-1.67-.83q-2.39-3.49-4.8-7c-.59-.87-1-1-1.93-.66L27.67,3.48a1.19,1.19,0,0,0-1,1.48c.19,2.56.34,5.13.61,7.68A2.46,2.46,0,0,1,26,15.48a11.13,11.13,0,0,0-1.62,1.12,1.83,1.83,0,0,1-2,.2l-7.71-3.22c-1-.4-1.34-.31-2,.5L8,19.94c-.65.81-.66,1.15,0,2,1.63,2.16,3.25,4.34,4.9,6.49a1.82,1.82,0,0,1,.28,2c-.47,1-.87,2.05-1.29,3.08a1.67,1.67,0,0,1-1.37,1.1c-2.76.49-5.51,1-8.27,1.51-1,.18-1.33.46-1.46,1.54-.23,2-.45,3.95-.68,5.93a3.88,3.88,0,0,1-.11.49v2.06l4.91,1.76c1.29.47,2.58,1,3.89,1.43A1.71,1.71,0,0,1,10,50.8c.21,1.26.45,2.53.69,3.79a1.89,1.89,0,0,1-.66,1.88C8,58.35,6,60.26,4,62.16a1.3,1.3,0,0,0-.33,1.92c1.08,2.11,2.16,4.23,3.24,6.33.43.85.78,1,1.69.82,2.73-.62,5.47-1.22,8.2-1.86a1.58,1.58,0,0,1,1.62.48l3,3.15a1.67,1.67,0,0,1,.45,1.7c-.72,2.77-1.41,5.55-2.1,8.33a1.19,1.19,0,0,0,.68,1.59l6.27,3.57a1.21,1.21,0,0,0,1.76-.25c2-2,3.92-4,5.86-6a1.81,1.81,0,0,1,1.89-.58c1.32.32,2.65.62,4,.9a1.72,1.72,0,0,1,1.38,1.25c.84,2.58,1.71,5.15,2.53,7.74a2.27,2.27,0,0,0,.93,1.31h3.19l3.34-.39L52.85,92c.95-.09,1.28-.37,1.47-1.3.57-2.72,1.15-5.44,1.69-8.16A1.93,1.93,0,0,1,57.36,81l1.55-.56-7.56-7.62A26.53,26.53,0,0,1,46,73.3Z"></path><path d="M98,88.53c-3.32-3.37-6.67-6.73-10-10.09l-1.15-1.16c-3.55-3.58-7.08-7.18-10.63-10.76-3.87-3.89-7.76-7.76-11.62-11.66A8.62,8.62,0,0,1,62,47.71c0-.36,0-.72.07-1.08a16.86,16.86,0,0,0-.13-3.17c-1.18-8.87-10.59-15-19.1-12.35-1.07.33-1.14.57-.35,1.37l5.85,5.87a4.78,4.78,0,0,1,.06,7.11c-.74.76-1.5,1.52-2.25,2.28-2.32,2.36-5.12,2.35-7.43,0-1.82-1.84-3.65-3.68-5.49-5.5-.68-.67-.89-.6-1.16.3a12.27,12.27,0,0,0-.36,3.31A15,15,0,0,0,39.51,59.3a15.18,15.18,0,0,0,8.1,1.85l.66,0a8.2,8.2,0,0,1,6.32,2.55c2.36,2.38,4.73,4.74,7.09,7.12L78.62,87.87l10,10A6.47,6.47,0,0,0,98,98,6.62,6.62,0,0,0,98,88.53Z"></path></svg>