<svg xmlns="http://www.w3.org/2000/svg" data-name="Layer 1" viewBox="0 0 100 100" x="0px" y="0px"><title>checklist_bordered_ticks_reversed</title><rect x="24.07" y="76.74" width="11.68" height="11.68"></rect><rect x="24.07" y="55.02" width="11.68" height="11.68"></rect><path d="M30.06,22.71l-.23,0a1.33,1.33,0,0,1-1-.45l-3.18-3.6a1.33,1.33,0,0,1,2-1.76l1.81,2a34.92,34.92,0,0,1,4.7-7.39H24.07V23.26H35.75V13.8a36,36,0,0,0-4.68,8.08A1.33,1.33,0,0,1,30.06,22.71Z"></path><path d="M30.06,44.08l-.23,0a1.33,1.33,0,0,1-1-.45l-3.18-3.6a1.33,1.33,0,0,1,2-1.76l1.81,2a35.61,35.61,0,0,1,4.41-7h-9.8V45H35.75v-9.8a36,36,0,0,0-4.68,8.08A1.33,1.33,0,0,1,30.06,44.08Z"></path><path d="M81,0H19a5,5,0,0,0-5,5V95a5,5,0,0,0,5,5H81a5,5,0,0,0,5-5V5A5,5,0,0,0,81,0ZM37.25,89.93H22.57V75.24H37.25Zm0-21.72H22.57V53.52H37.25ZM38.72,32.3a12.38,12.38,0,0,0-1.47,1.23v13H22.57V31.8H35.24a15.26,15.26,0,0,1,1.95-1.68,1.33,1.33,0,0,1,1.53,2.18Zm0-21.37a12.38,12.38,0,0,0-1.47,1.23V24.76H22.57V10.07h13a14.72,14.72,0,0,1,1.6-1.33,1.33,1.33,0,0,1,1.53,2.18Zm19.63,78H42a.75.75,0,1,1,0-1.5H58.35a.75.75,0,0,1,0,1.5Zm18.33-5.59H42a.75.75,0,0,1,0-1.5h34.7a.75.75,0,0,1,0,1.5Zm0-5.59H42a.75.75,0,1,1,0-1.5h34.7a.75.75,0,0,1,0,1.5ZM41.23,66.45A.75.75,0,0,1,42,65.7H58.35a.75.75,0,0,1,0,1.5H42A.75.75,0,0,1,41.23,66.45Zm35.45-4.84H42a.75.75,0,0,1,0-1.5h34.7a.75.75,0,0,1,0,1.5Zm0-5.59H42a.75.75,0,0,1,0-1.5h34.7a.75.75,0,0,1,0,1.5ZM41.23,44.73A.75.75,0,0,1,42,44H58.35a.75.75,0,0,1,0,1.5H42A.75.75,0,0,1,41.23,44.73Zm35.45-4.84H42a.75.75,0,1,1,0-1.5h34.7a.75.75,0,0,1,0,1.5Zm0-5.59H42a.75.75,0,0,1,0-1.5h34.7a.75.75,0,0,1,0,1.5ZM41.23,23a.75.75,0,0,1,.75-.75H58.35a.75.75,0,0,1,0,1.5H42A.75.75,0,0,1,41.23,23Zm35.45-4.84H42a.75.75,0,0,1,0-1.5h34.7a.75.75,0,0,1,0,1.5Zm0-5.59H42a.75.75,0,0,1,0-1.5h34.7a.75.75,0,0,1,0,1.5Z"></path></svg>