<svg height='100px' width='100px'  fill="#1A1A1A" xmlns="http://www.w3.org/2000/svg" xmlns:xlink="http://www.w3.org/1999/xlink" version="1.1" x="0px" y="0px" viewBox="0 0 68 68" style="enable-background:new 0 0 68 68;" xml:space="preserve"><style type="text/css">
	.st0{fill:#1A1A1A;}
	.st1{fill:none;stroke:#1A1A1A;stroke-width:2;stroke-linecap:round;stroke-linejoin:round;stroke-miterlimit:10;}
</style><g><g><g><path class="st0" d="M31.9,27.5h-0.1v-7.3c1.8,0.3,3.4,1,5,2.3l2.3-3.6c-2.3-1.7-4.7-2.7-7.2-2.9v-2h-2.2v1.9     c-2.2,0.1-4.1,0.9-5.5,2.3c-1.4,1.4-2.1,3.3-2.1,5.5c0,2.2,0.6,3.9,1.8,5.1c1.2,1.1,3.1,2.1,5.7,2.8v7.5c-2.1-0.4-4.1-1.5-6-3.4     l-2.5,3.4c2.5,2.5,5.4,3.9,8.5,4.2v2.8h2.2v-2.8c2.4-0.1,4.2-0.9,5.7-2.3c1.4-1.4,2.1-3.3,2.1-5.5c0-2.3-0.6-4-1.9-5.2     C36.5,29.1,34.6,28.2,31.9,27.5z M29.6,26.8c-1.3-0.5-2.2-1-2.6-1.5c-0.5-0.5-0.7-1.2-0.7-2.1s0.3-1.6,0.9-2.2     c0.6-0.6,1.4-0.9,2.4-1V26.8z M34.5,38.1c-0.6,0.6-1.5,1-2.6,1.1v-7c1.4,0.5,2.3,1,2.8,1.5c0.5,0.5,0.8,1.2,0.8,2.2     C35.4,36.8,35.1,37.5,34.5,38.1z"></path></g></g><g><g><path class="st0" d="M62.3,37.1c1.8-2,2.8-4.5,2.8-7.1v-2.7H66c0.6,0,1-0.4,1-1v-3.4c0-0.6-0.4-1-1-1h-6.5C55.5,9.5,43.9,1,31,1     C14.4,1,1,14.4,1,31c0,16.5,13.4,30,30,30c3.5,0,6.9-0.6,10.1-1.8v2.4h-0.9c-0.6,0-1,0.4-1,1V66c0,0.6,0.4,1,1,1H66     c0.6,0,1-0.4,1-1v-3.4c0-0.6-0.4-1-1-1h-0.9v-2.7c0-2.6-1-5.1-2.8-7.1l-6.7-7.3c0,0-0.1,0-0.1-0.1c0,0,0.1,0,0.1-0.1L62.3,37.1z      M63.1,30c0,2.1-0.8,4.1-2.3,5.7L54.1,43c-0.5,0.5-1.5,0.5-2,0l-6.7-7.3c-1.5-1.6-2.3-3.7-2.3-5.7v-2.7h20V30z M65,25.2     c-11.5,0-11,0-23.8,0v-1.4H65V25.2z M3,31C3,15.5,15.5,3,31,3c11.9,0,22.5,7.7,26.4,18.8H40.2c-0.6,0-1,0.4-1,1v3.4     c0,0.6,0.4,1,1,1h0.9V30c0,2.6,1,5.1,2.8,7.1l6.7,7.3c0,0,0.1,0,0.1,0.1c0,0-0.1,0-0.1,0.1l-6.7,7.3c-1.4,1.5-2.3,3.3-2.6,5.2     c-3.3,1.3-6.7,2-10.3,2C15.5,58.9,3,46.4,3,31z M65,65H41.2v-1.4c11.5,0,11,0,23.8,0V65z M60.8,53.1c1.5,1.6,2.3,3.7,2.3,5.8v2.7     h-20v-2.7c0-2.1,0.8-4.1,2.3-5.8l6.7-7.3c0.5-0.5,1.5-0.5,2,0L60.8,53.1z"></path></g></g><g><g><path class="st0" d="M30.7,10.7c1.9,0,3.4-1.5,3.4-3.4S32.6,4,30.7,4c-1.9,0-3.4,1.5-3.4,3.4S28.9,10.7,30.7,10.7z M30.7,6     c0.8,0,1.4,0.6,1.4,1.4s-0.6,1.4-1.4,1.4s-1.4-0.6-1.4-1.4S30,6,30.7,6z"></path></g></g><g><g><path class="st0" d="M30.7,51.1c-1.9,0-3.4,1.5-3.4,3.4c0,1.9,1.5,3.4,3.4,3.4c1.9,0,3.4-1.5,3.4-3.4     C34.1,52.6,32.6,51.1,30.7,51.1z M30.7,55.8c-0.8,0-1.4-0.6-1.4-1.4c0-0.8,0.6-1.4,1.4-1.4s1.4,0.6,1.4,1.4     C32.1,55.2,31.5,55.8,30.7,55.8z"></path></g></g><g><g><path class="st0" d="M7.4,27.6c-1.9,0-3.4,1.5-3.4,3.4c0,1.9,1.5,3.4,3.4,3.4c1.9,0,3.4-1.5,3.4-3.4C10.8,29.1,9.3,27.6,7.4,27.6     z M7.4,32.3c-0.8,0-1.4-0.6-1.4-1.4s0.6-1.4,1.4-1.4s1.4,0.6,1.4,1.4S8.2,32.3,7.4,32.3z"></path></g></g></g></svg>