<svg xmlns="http://www.w3.org/2000/svg" xmlns:xlink="http://www.w3.org/1999/xlink" version="1.1" x="0px" y="0px" viewBox="0 0 50 50" style="enable-background:new 0 0 50 50;" xml:space="preserve"><g><path d="M4.3,12v37h4V12c0-0.4,0.4-0.8,0.8-0.8h1.5v-4H9.1C6.4,7.2,4.3,9.3,4.3,12z"></path><path d="M42.8,1H14.5c-1.6,0-2.9,1.3-2.9,2.9v9.6c0,1.6,1.3,2.9,2.9,2.9h28.3c1.6,0,2.9-1.3,2.9-2.9V3.9C45.7,2.3,44.4,1,42.8,1z    M18.4,12.8c-2.2,0-4-1.8-4-4c0-2.2,1.8-4,4-4s4,1.8,4,4C22.4,11,20.7,12.8,18.4,12.8z M28.7,12.8c-2.2,0-4-1.8-4-4   c0-2.2,1.8-4,4-4c2.2,0,4,1.8,4,4C32.7,11,30.9,12.8,28.7,12.8z M38.9,12.8c-2.2,0-4-1.8-4-4c0-2.2,1.8-4,4-4s4,1.8,4,4   C42.9,11,41.1,12.8,38.9,12.8z"></path><path d="M18.4,5.8c-1.6,0-3,1.3-3,3c0,1.7,1.4,3,3,3c1.7,0,3-1.3,3-3C21.4,7.1,20.1,5.8,18.4,5.8z"></path><path d="M28.7,5.8c-1.6,0-3,1.3-3,3c0,1.7,1.4,3,3,3c1.7,0,3-1.3,3-3C31.7,7.1,30.3,5.8,28.7,5.8z"></path><path d="M38.9,5.8c-1.7,0-3,1.3-3,3c0,1.7,1.3,3,3,3c1.7,0,3-1.3,3-3C41.9,7.1,40.5,5.8,38.9,5.8z"></path></g></svg>