<svg xmlns="http://www.w3.org/2000/svg" xmlns:xlink="http://www.w3.org/1999/xlink" version="1.1" x="0px" y="0px" viewBox="0 0 399.469 318.291" style="enable-background:new 0 0 399.469 318.291;" xml:space="preserve"><g><path d="M385.965,256.929c-2.209-1.256-4.668-2.158-7.317-2.612c-12.244-2.098-23.874,6.127-25.972,18.371   c-0.461,2.686-0.424,5.342,0.042,7.874l26.034,18.084c9.088-1.603,16.617-8.737,18.263-18.357   c1.07-6.239-0.545-12.316-4.003-17.057l-10.228,2.557L385.965,256.929z"></path><path d="M324.535,252.866c-1.313-5.353,1.975-10.776,7.33-12.093c0.783-0.191,1.586-0.289,2.387-0.289   c4.613,0,8.605,3.133,9.707,7.618l3.391,13.811c2.971-1.942,5.117-4.654,5.744-8.006c1.623-8.648-3.736-20.727-18.65-24.891   c-9.258-2.525-17.022-4.043-24.776-4.602l-4.716,10.541l-5.363-10.727c-6.337,0.209-13.055,1.003-20.902,2.389   c-15.887,4.074-16.887,15.185-16.23,24.328c0.182,2.52,0.406,4.648,0.928,6.379l3.674,18.234l8.645,2.646l-7.479,3.142l1.358,6.742   l-16.899,2.377l-3.229,7.989l-2.622-7.166l-6.786,0.954c-6.836,0.961-11.598,7.282-10.637,14.119   c0.879,6.246,6.232,10.76,12.363,10.76c0.578,0,1.166-0.04,1.756-0.123L286.193,311c3.402-0.479,6.477-2.352,8.461-5.155   c1.984-2.801,2.73-6.325,2.053-9.69l-5.205-25.834l17.229,7.67l-9.225,23.175c-2.553,6.414,0.578,13.685,6.992,16.237   c1.516,0.603,3.078,0.889,4.617,0.889c4.969,0,9.67-2.982,11.619-7.88l9.85-24.747L324.535,252.866z"></path><path d="M350,281.111l-7.983-32.531c-1.053-4.291-5.387-6.916-9.678-5.863c-4.291,1.053-6.914,5.384-5.861,9.675l8.703,35.472   c0.465,1.892,1.607,3.552,3.205,4.663l33.833,23.502c1.392,0.966,2.982,1.43,4.558,1.429c2.533,0,5.024-1.199,6.579-3.436   c2.521-3.63,1.621-8.614-2.007-11.136L350,281.111z"></path><polygon points="283.891,92.405 286.158,81.902 244.547,62.057 244.173,73.388 219.922,47.759 208.064,58.979 221.14,72.798  "></polygon><polygon points="49.008,40.094 43.59,42.055 55.064,73.76 61.412,74.368  "></polygon><polygon points="65.653,46.815 60.235,48.776 69.787,75.171 76.135,75.779  "></polygon><polygon points="82.297,50.656 76.879,52.617 85.59,76.685 91.938,77.293  "></polygon><path d="M25.303,132.469l-2.825-0.882l0.882-2.826l6.431-20.579l-6.981-0.669c-1.616-0.154-2.801-1.589-2.646-3.206l0.636-6.635   c0.154-1.616,1.591-2.8,3.207-2.646l9.607,0.921l6.452-20.649L5.932,72.026l-5.554,57.951l12.559,1.203   c1.585,3.56,4.983,6.19,9.14,6.588c3.559,0.341,6.875-1.04,9.159-3.446L25.303,132.469z"></path><path d="M163.225,108.367l13.125,1.258c1.617,0.153,2.802,1.589,2.646,3.206l-0.043,0.45l19.166,5.989l1.077-11.24l3.028-0.555   l-1.217,12.697l30.33,9.477l2.828,0.882l-0.885,2.826l-2.086,6.676l1.131,0.353l36.014-14.415l-18.712-5.847l3.741-11.974   l20.933,6.54c1.55,0.484,2.414,2.133,1.93,3.683l-1.585,5.072l23.529-9.418l4.002-12.809L115.271,42.82l-11.137,35.642   l19.169,1.837c-0.757-0.748-1.089-1.874-0.75-2.96l1.987-6.362c0.484-1.55,2.134-2.412,3.684-1.929l17.704,5.532l-2.392,7.657   l2.093,0.2l2.263-7.244l11.751,3.672l2.318,8.111l-96.92-9.286L163.225,108.367z M206.588,106.676l5.668-1.039l10.465,1.072   l-1.426,4.562L206.588,106.676z M223.259,111.885l1.551-4.962l5.62,0.576l7.285,8.902L223.259,111.885z M247.664,119.51   l-7.094-2.217l0.113-0.418l-9.229-11.279l-6.037-0.619L227,99.911l24.405,7.625L247.664,119.51z M161.929,79.579l10.369,3.239   l-0.659,2.111l2.094,0.201l0.529-1.698l8.074,2.522l18.803,1.802l2.949,0.28l-0.283,2.949l-0.156,1.628l21.388,6.683l-1.708,5.465   l-11.153-1.144l-9.688,1.775l-0.061-0.019l-0.003,0.03l-3.028,0.555l1.462-15.257l-17.196-1.648l-0.219-0.269l-19.424-1.894   L161.929,79.579z"></path><path d="M176.188,162.857l16.588-6.639c0.016-0.06,0.041-0.116,0.058-0.176l-14.929-4.664l3.741-11.973l20.932,6.54   c0.166,0.052,0.319,0.123,0.469,0.2c1.101-0.273,2.225-0.427,3.365-0.427c2.604,0,5.166,0.732,7.383,2.084l13.567-5.431   l3.093-9.898L124.792,99.461l-6.681,5.808l-8.161-3.118l-0.981-7.634L43.548,74.076l-17.362,55.567l12.042,3.762   c0.818,3.811,3.603,7.084,7.587,8.328c3.985,1.245,8.138,0.139,10.979-2.526l4.259,1.332c0.82,3.809,3.603,7.082,7.588,8.327   c3.985,1.244,8.138,0.139,10.98-2.527l12.686,3.964l8.84-5.023l5.762,6.081l9.604-0.96l5.441,5.762l2.592,4.213l32.488,10.151   L176.188,162.857z M74.205,105.836l-3.74,11.973l-5.803-1.813l2.063-4.326l-2.502-5.312l2.279-2.93L74.205,105.836z    M77.535,120.019l-5.105-1.596l3.74-11.973l3.17,0.99v7.886L77.535,120.019z M81.341,115.695v-7.63l19.233,6.01l-3.74,11.973   l-17.385-5.432L81.341,115.695z M98.798,126.662l3.741-11.973l24.404,7.625l-3.74,11.973L98.798,126.662z M125.167,134.9   l3.741-11.973l24.404,7.626l-3.741,11.972L125.167,134.9z M50.831,108.594l1.987-6.36c0.484-1.55,2.133-2.414,3.684-1.929   l7.96,2.487l-2.572,3.307l2.62,5.569l-1.774,3.727l-9.976-3.117C51.211,111.793,50.347,110.145,50.831,108.594z M175.941,150.765   l-24.405-7.625l3.741-11.973l24.404,7.625L175.941,150.765z"></path><path d="M262.964,131.312l-1.293,4.525l-8.642,5.762l-11.236-1.813c-9.789,3.918-19.365,7.752-28.379,11.359   c-3.041-2.435-7.267-3.214-11.142-1.663s-6.396,5.03-6.916,8.892c-22.377,8.957-38.501,15.411-40.833,16.345   c-8.736,3.498-16.923,16.276-0.643,19.854c0,0,59.632,16.794,81.037,10.566l-0.294-10.886l-1.921-6.401l5.441,1.921l5.044,12.164   c1.007-0.403,2.097-0.839,3.247-1.3l1.632-7.345l12.163-8.002l20.807,0.641l0.586,0.621c7.33-2.934,15.072-6.033,22.906-9.169   l9.797-13.858l8.002,0.96l0.258,5.67c33.76-13.514,64.305-25.74,64.305-25.74l-21.635-54.048c0,0-8.05,3.223-20.996,8.404   c-1.008-0.807-2.145-1.429-3.356-1.847c-2.447-0.844-5.194-0.854-7.786,0.183c-2.593,1.038-4.574,2.941-5.763,5.241   c-0.589,1.139-0.983,2.373-1.154,3.652c-1.354,0.542-2.741,1.097-4.144,1.658c-1.007-0.807-2.144-1.429-3.355-1.847   c-2.447-0.843-5.195-0.854-7.787,0.184c-2.592,1.036-4.572,2.939-5.762,5.239c-0.588,1.139-0.982,2.373-1.154,3.652   C291.068,120.063,277.055,125.672,262.964,131.312z M318.441,149.01l-4.47-0.948l-10.042-2.45l-1.416,0.318l-1.4-3.496   l14.781-5.917l4.098,7.541l0.43,4.159L318.441,149.01z M269.324,165.572l-6.174-3.658v-4.285l8.961-3.587l4.661,11.648   l-5.727,2.292L269.324,165.572z M278.683,164.925l-4.661-11.648l10.53-4.215l3.787,6.119l1.186,5.403L278.683,164.925z    M290.217,154.419l-3.781-6.11l3.803-1.522l1.267,3.665l9.728-2.185l2.633,6.578l-12.459,4.987L290.217,154.419z M292.813,148.107   l-0.715-2.066l7.105-2.844l1.276,3.188L292.813,148.107z M321.939,143.455l-4.176-7.686l8.531-3.415l4.662,11.646l-8.604,3.444   L321.939,143.455z M328.207,131.589l4.77-1.909l4.523,3.016l4.059,7.059l-8.691,3.479L328.207,131.589z M162.572,193.468   c-21.652-4.808,57.375-1.548,61.893,8.419C224.465,201.887,209.713,203.935,162.572,193.468z M256.414,173.839   c-1.508,0.603-3.219-0.13-3.823-1.638l-2.476-6.187c-0.604-1.508,0.129-3.219,1.637-3.823l9.4-3.763v4.622l6.787,4.025l1.193,1.671   L256.414,173.839z M305.775,154.079l-2.51-6.27l0.649-0.146l9.612,2.347l1.578,0.334L305.775,154.079z M352.387,125.077   l2.478,6.186c0.603,1.509-0.13,3.219-1.638,3.822l-9.791,3.919l-4.433-7.71l-3.774-2.517l13.337-5.338   C350.072,122.836,351.783,123.568,352.387,125.077z"></path><polygon points="0,165.608 124.969,165.608 100.616,158.012 40.275,158.012 16.749,146.729 14.461,151.499 28.039,158.012    0,158.012  "></polygon><polygon points="344.414,165.608 399.469,165.608 399.469,158.012 368.767,158.012  "></polygon><polygon points="53.784,188.386 53.462,186.134 48.635,185.329 47.349,188.386 50.888,189.834  "></polygon><polygon points="38.338,198.369 37.391,200.622 39.998,201.689 42.132,200.622 41.896,198.962  "></polygon><polygon points="53.75,198.369 52.802,200.622 55.408,201.689 57.543,200.622 57.307,198.962  "></polygon><polygon points="97.611,180.982 94.925,177.189 90.815,177.347 88.445,180.982 93.818,182.563  "></polygon><polygon points="68.214,184.144 65.525,180.35 61.418,180.507 59.046,184.144 64.42,185.724  "></polygon><polygon points="45.312,171.428 41.202,171.585 38.832,175.221 44.205,176.801 47.998,175.221  "></polygon><polygon points="15.912,174.588 11.805,174.745 9.433,178.382 14.807,179.962 18.6,178.382  "></polygon><polygon points="86.188,200.514 84.055,209.286 94.012,209.761 103.496,207.863 103.969,201.699 95.784,200.112  "></polygon><circle cx="89.544" cy="225.382" r="5.042"></circle><polygon points="61.507,234.275 48.741,241.403 54.709,248.863 71.453,244.553 87.368,244.221 87.533,237.259 73.939,238.585  "></polygon><polygon points="118.592,229.463 107.068,235.225 104.188,237.145 117.151,241.946 129.154,240.506 126.754,233.784  "></polygon><polygon points="157.643,218.26 154.762,220.181 167.725,224.982 179.729,223.542 177.328,216.819 169.166,212.498  "></polygon><polygon points="72.66,223.86 67.539,221.301 62.737,222.581 58.895,223.38 57.295,226.422 65.618,226.741  "></polygon><polygon points="374.405,176.604 366.005,173.231 356.267,174.676 357.47,179.679 372.185,182.73  "></polygon><polygon points="331.996,180.717 333.85,182.57 342.703,181.938 340.489,177.512 335.115,178.145 332.219,178.972 330.689,179.409     "></polygon><polygon points="320.224,184.721 317.749,185.012 314.487,185.943 316.818,188.272 323.339,187.807 321.912,184.954    321.708,184.546  "></polygon><polygon points="335.625,189.381 337.361,191.117 342.225,190.77 341.008,188.339 338.057,188.687  "></polygon><polygon points="354.404,192.328 357.092,193.435 359.778,192.013 359.621,189.483 355.512,189.799  "></polygon><polygon points="388.008,172.967 383.206,172.327 383.206,176.487 388.008,176.168  "></polygon><path d="M269.833,192.973c-2.255,0-4.081,0.967-4.081,2.16c0,1.063,1.449,1.941,3.358,2.123c0.235,0.021,0.476,0.038,0.723,0.038   c1.823,0,3.349-0.637,3.872-1.511c0.124-0.206,0.209-0.422,0.209-0.65C273.914,193.939,272.088,192.973,269.833,192.973z"></path><polygon points="395.248,172.05 394.301,174.302 396.908,175.368 399.041,174.302 398.805,172.642  "></polygon><polygon points="379.943,194.894 376.387,194.301 375.439,196.553 378.046,197.619 380.18,196.553  "></polygon><polygon points="202.258,216.059 203.993,217.795 208.856,217.447 207.641,215.017 204.689,215.363  "></polygon><polygon points="221.037,219.006 223.725,220.112 226.41,218.689 226.254,216.16 222.143,216.477  "></polygon><polygon points="244.66,214.94 247.267,216.007 249.401,214.94 249.165,213.28 245.608,212.688  "></polygon><polygon points="17.906,190.291 16.62,193.348 20.159,194.796 23.056,193.348 22.733,191.096  "></polygon><polygon points="115.812,172.935 118.42,174.002 120.553,172.935 120.316,171.274 116.76,170.682  "></polygon><polygon points="145.615,202.955 148.223,204.022 150.357,202.955 150.121,201.295 146.563,200.702  "></polygon><polygon points="34.798,185.312 30.689,185.469 28.318,189.105 33.691,190.686 37.485,189.105  "></polygon><polygon points="221.796,247.814 144.68,256.498 148.864,265.821 228.543,255.218  "></polygon><circle cx="322.534" cy="89.936" r="3.36"></circle><circle cx="302.934" cy="82.665" r="3.359"></circle><circle cx="302.657" cy="11.578" r="3.359"></circle><circle cx="318.621" cy="6.046" r="6.046"></circle><circle cx="338.652" cy="63.165" r="3.359"></circle><circle cx="336.798" cy="48.564" r="3.359"></circle><circle cx="338.012" cy="22.515" r="5.76"></circle><path d="M289.702,17.529c-1.432,0-2.81,0.226-4.104,0.638c-1.899-3.434-5.555-5.76-9.756-5.76c-3.852,0-7.246,1.954-9.247,4.925   c-1.196,1.776-1.896,3.916-1.896,6.219c0,6.154,4.988,11.144,11.143,11.144c2.51,0,4.818-0.84,6.682-2.239   c-1.254,1.859-3.058,3.312-5.174,4.144c2.115,4.72,6.846,8.013,12.353,8.013c7.337,0,13.296-5.84,13.519-13.124   c0.256,1.038,0.405,2.117,0.405,3.233c0,4.769-2.473,8.954-6.2,11.366c3.131,4.457,8.302,7.377,14.162,7.377   c0.45,0,0.893-0.033,1.334-0.067c-2.271,1.095-4.809,1.727-7.498,1.727c-2.205,0-4.307-0.429-6.246-1.181   c-0.944,1.551-1.498,3.366-1.498,5.314c0,0.348,0.018,0.691,0.053,1.03c0.517,5.175,4.883,9.215,10.191,9.215   c4.618,0,8.518-3.055,9.799-7.252c0.035,0.342,0.053,0.688,0.053,1.037c0,3.344-1.609,6.304-4.088,8.174   c0.02,0.029,0.043,0.055,0.063,0.083c-1.775,1.156-2.952,3.155-2.952,5.432c0,3.579,2.901,6.481,6.482,6.481   c3.578,0,6.48-2.902,6.48-6.481c0-0.044-0.006-0.086-0.006-0.13c-1.855-0.054-3.551-0.74-4.874-1.859   c0.596,0.132,1.212,0.207,1.848,0.207c4.698,0,8.507-3.81,8.507-8.508c0-1.716-0.512-3.311-1.387-4.647   c-1.518-2.322-4.138-3.859-7.12-3.859c-0.904,0-1.774,0.144-2.592,0.405c-0.14-2.146-0.933-4.111-2.192-5.695   c7.446-1.935,12.952-8.682,12.952-16.733c0-9.559-7.749-17.308-17.308-17.308c-2.689,0-5.227,0.632-7.497,1.726   c-1.302,0.627-2.519,1.399-3.614,2.318c-0.34-0.448-0.701-0.879-1.093-1.28C296.926,19.097,293.498,17.529,289.702,17.529z"></path><circle cx="182.33" cy="52.052" r="3.359"></circle><circle cx="94.466" cy="52.052" r="3.359"></circle><circle cx="112.35" cy="11.952" r="3.359"></circle><path d="M107.984,20.844c0-5.786-4.691-10.479-10.479-10.479c-4.946,0-9.084,3.435-10.182,8.046   c-0.587-0.13-1.195-0.203-1.82-0.203c-4.638,0-8.398,3.761-8.398,8.398c0,0.82,0.123,1.611,0.343,2.36   c1.021,3.487,4.238,6.037,8.056,6.037c4.637,0,8.397-3.761,8.397-8.397c0-0.147-0.015-0.291-0.022-0.436   c0.219,0.749,0.342,1.538,0.342,2.356c0,3.845-2.588,7.079-6.113,8.075c0.648,3.992,4.104,7.045,8.279,7.045   c4.637,0,8.396-3.761,8.396-8.398c0-2.051-0.738-3.929-1.959-5.387C105.908,28.037,107.984,24.687,107.984,20.844z"></path><circle cx="26.887" cy="61.886" r="3.359"></circle><circle cx="198.294" cy="46.52" r="6.046"></circle><ellipse cx="98.617" cy="191.362" rx="5.333" ry="2.583"></ellipse><polygon points="125.051,182.75 118.106,186.801 111.451,198.086 132.575,200.112 137.784,190.563 134.6,180.724  "></polygon></g></svg>