<svg height='100px' width='100px'  fill="#1A1A1A" xmlns="http://www.w3.org/2000/svg" xmlns:xlink="http://www.w3.org/1999/xlink" version="1.1" x="0px" y="0px" viewBox="0 0 100 100" style="enable-background:new 0 0 100 100;" xml:space="preserve"><path d="M80.7,42.6c-20.5,0-40.9,0-61.4,0C12.2,71.4,34.8,95.3,50,95C65.2,95.3,87.8,71.4,80.7,42.6z M68,78.9  c-2.2,2.7-4.7,5.1-7.2,6.9c6-11.2,8.5-24.7,7-38.1h8.8C78.1,58.7,75.1,69.9,68,78.9z"></path><path d="M56,16.1c1.6-2,4.1-3.2,6.8-3.2V5c-7.2,0-13.3,4.5-15.7,10.9c-16.6,0.8-30.8,3.9-30.8,24.4c22.5,0,45,0,67.4,0  C83.7,21.2,71.6,17.7,56,16.1z"></path></svg>