<svg xmlns="http://www.w3.org/2000/svg" xmlns:xlink="http://www.w3.org/1999/xlink" version="1.1" x="0px" y="0px" viewBox="0 0 100 100" enable-background="new 0 0 100 100" xml:space="preserve"><g><path d="M15.833,18.963c-3.945,0-7.155,3.21-7.155,7.155s3.21,7.155,7.155,7.155s7.155-3.21,7.155-7.155   S19.779,18.963,15.833,18.963z M15.833,31.274c-2.843,0-5.155-2.313-5.155-5.155s2.313-5.155,5.155-5.155s5.155,2.313,5.155,5.155   S18.676,31.274,15.833,31.274z"></path><path d="M34.785,33.274c3.945,0,7.155-3.21,7.155-7.155s-3.21-7.155-7.155-7.155s-7.155,3.21-7.155,7.155   S30.84,33.274,34.785,33.274z M34.785,20.963c2.843,0,5.155,2.313,5.155,5.155s-2.313,5.155-5.155,5.155s-5.155-2.313-5.155-5.155   S31.942,20.963,34.785,20.963z"></path><path d="M34.696,34.485c-4.88,0-8.851,4.531-8.851,10.1v12.49c0,3.87,1.92,7.234,4.728,8.929v19.081   c0,2.322,1.889,4.212,4.211,4.212s4.211-1.89,4.211-4.212V65.894c2.71-1.728,4.549-5.031,4.549-8.818v-12.49   C43.546,39.016,39.576,34.485,34.696,34.485z M36.997,85.085c0,1.22-0.992,2.212-2.211,2.212s-2.211-0.992-2.211-2.212V66.868   c0.681,0.192,1.39,0.306,2.123,0.306c0.797,0,1.565-0.132,2.3-0.358V85.085z M41.546,57.075c0,4.466-3.073,8.099-6.85,8.099   c-3.777,0-6.851-3.633-6.851-8.099v-12.49c0-4.466,3.073-8.1,6.851-8.1c3.777,0,6.85,3.633,6.85,8.1V57.075z"></path><path d="M34.785,37.698c-2.322,0-4.211,1.889-4.211,4.211v15.166c0,2.322,1.889,4.211,4.211,4.211s4.211-1.889,4.211-4.211V41.909   C38.997,39.587,37.107,37.698,34.785,37.698z M36.997,57.075c0,1.219-0.992,2.211-2.211,2.211s-2.211-0.992-2.211-2.211V41.909   c0-1.219,0.992-2.211,2.211-2.211s2.211,0.992,2.211,2.211V57.075z"></path><path d="M53.858,33.274c3.945,0,7.155-3.21,7.155-7.155s-3.21-7.155-7.155-7.155s-7.155,3.21-7.155,7.155   S49.913,33.274,53.858,33.274z M53.858,20.963c2.843,0,5.155,2.313,5.155,5.155s-2.313,5.155-5.155,5.155s-5.155-2.313-5.155-5.155   S51.016,20.963,53.858,20.963z"></path><path d="M53.77,34.485c-4.88,0-8.851,4.531-8.851,10.1v12.49c0,3.87,1.92,7.234,4.729,8.93v19.08c0,2.322,1.889,4.212,4.211,4.212   s4.211-1.89,4.211-4.212v-19.19c2.711-1.729,4.55-5.031,4.55-8.819v-12.49C62.619,39.016,58.649,34.485,53.77,34.485z    M56.069,85.085c0,1.22-0.992,2.212-2.211,2.212s-2.211-0.992-2.211-2.212V66.868c0.682,0.192,1.39,0.306,2.122,0.306   c0.797,0,1.565-0.132,2.3-0.358V85.085z M60.619,57.075c0,4.466-3.072,8.099-6.85,8.099s-6.851-3.633-6.851-8.099v-12.49   c0-4.466,3.073-8.1,6.851-8.1s6.85,3.633,6.85,8.1V57.075z"></path><path d="M53.858,37.698c-2.322,0-4.211,1.889-4.211,4.211v15.166c0,2.322,1.889,4.211,4.211,4.211s4.211-1.889,4.211-4.211V41.909   C58.069,39.587,56.181,37.698,53.858,37.698z M56.069,57.075c0,1.219-0.992,2.211-2.211,2.211s-2.211-0.992-2.211-2.211V41.909   c0-1.219,0.992-2.211,2.211-2.211s2.211,0.992,2.211,2.211V57.075z"></path><path d="M73.341,33.274c3.945,0,7.155-3.21,7.155-7.155s-3.21-7.155-7.155-7.155s-7.155,3.21-7.155,7.155   S69.396,33.274,73.341,33.274z M73.341,20.963c2.843,0,5.155,2.313,5.155,5.155s-2.313,5.155-5.155,5.155s-5.155-2.313-5.155-5.155   S70.498,20.963,73.341,20.963z"></path><path d="M73.252,34.485c-4.88,0-8.851,4.531-8.851,10.1v12.49c0,3.87,1.92,7.234,4.729,8.929v19.081   c0,2.322,1.889,4.212,4.211,4.212s4.211-1.89,4.211-4.212v-19.19c2.711-1.729,4.55-5.031,4.55-8.819v-12.49   C82.102,39.016,78.132,34.485,73.252,34.485z M75.552,85.085c0,1.22-0.992,2.212-2.211,2.212s-2.211-0.992-2.211-2.212V66.868   c0.682,0.192,1.39,0.306,2.122,0.306c0.797,0,1.565-0.132,2.3-0.358V85.085z M80.102,57.075c0,4.466-3.072,8.099-6.85,8.099   s-6.851-3.633-6.851-8.099v-12.49c0-4.466,3.073-8.1,6.851-8.1s6.85,3.633,6.85,8.1V57.075z"></path><path d="M73.341,37.698c-2.322,0-4.211,1.889-4.211,4.211v15.166c0,2.322,1.889,4.211,4.211,4.211s4.211-1.889,4.211-4.211V41.909   C77.552,39.587,75.663,37.698,73.341,37.698z M75.552,57.075c0,1.219-0.992,2.211-2.211,2.211s-2.211-0.992-2.211-2.211V41.909   c0-1.219,0.992-2.211,2.211-2.211s2.211,0.992,2.211,2.211V57.075z"></path><path d="M93,49h-6.5c-0.553,0-1,0.448-1,1v37c0,0.553,0.447,1,1,1s1-0.447,1-1V51H93c0.553,0,1-0.448,1-1S93.553,49,93,49z"></path><path d="M15.744,15.932c0.552,0,1-0.448,1-1v-3.865c0-0.552-0.448-1-1-1s-1,0.448-1,1v3.865   C14.744,15.484,15.192,15.932,15.744,15.932z"></path><path d="M9.57,17.105c0.167,0.368,0.531,0.585,0.91,0.585c0.139,0,0.28-0.029,0.415-0.09c0.502-0.229,0.724-0.822,0.495-1.325   l-1.604-3.517c-0.229-0.502-0.821-0.725-1.325-0.495c-0.502,0.229-0.724,0.822-0.495,1.325L9.57,17.105z"></path><path d="M19.97,17.6c0.135,0.062,0.276,0.09,0.415,0.09c0.379,0,0.743-0.217,0.91-0.585l1.604-3.517   c0.229-0.502,0.008-1.096-0.495-1.325c-0.503-0.23-1.096-0.007-1.325,0.495l-1.604,3.517C19.246,16.777,19.468,17.371,19.97,17.6z"></path><path d="M28.502,35.549c0.47-0.959,0.539-2.044,0.194-3.056c-0.346-1.011-1.064-1.827-2.023-2.297   c-0.554-0.271-1.146-0.409-1.759-0.409c-1.539,0-2.916,0.858-3.594,2.239c-0.665,1.355-1.35,2.438-2.021,3.322   c-1.116-0.558-2.326-0.863-3.555-0.863c-4.88,0-8.851,4.531-8.851,10.1v12.49c0,3.87,1.92,7.234,4.728,8.929v19.081   c0,2.322,1.889,4.212,4.211,4.212s4.211-1.89,4.211-4.212V65.894c2.71-1.728,4.549-5.031,4.549-8.818v-12.49   c0-0.925-0.115-1.834-0.33-2.715C25.726,40.292,27.185,38.235,28.502,35.549z M23.116,32.907c0.339-0.69,1.028-1.12,1.798-1.12   c0.306,0,0.601,0.069,0.878,0.205c0.48,0.235,0.839,0.643,1.012,1.148s0.138,1.048-0.097,1.528   c-4.809,9.802-11.337,10.346-12.067,10.376l-0.088,0.002c-0.085,0-0.169-0.005-0.253-0.016c-0.968-0.124-1.7-0.923-1.74-1.901   c-0.045-1.078,0.793-2.01,1.914-2.083C14.975,40.991,19.49,40.296,23.116,32.907z M18.045,85.085c0,1.22-0.992,2.212-2.211,2.212   s-2.211-0.992-2.211-2.212V66.868c0.682,0.192,1.39,0.306,2.123,0.306c0.797,0,1.565-0.132,2.3-0.358V85.085z M22.594,57.075   c0,4.466-3.073,8.099-6.85,8.099c-3.777,0-6.851-3.633-6.851-8.099v-12.49c0-4.466,3.073-8.1,6.851-8.1   c0.743,0,1.476,0.158,2.175,0.435c-1.971,1.913-3.548,2.125-3.62,2.134c-2.153,0.138-3.831,2.004-3.74,4.159   c0.081,1.955,1.546,3.553,3.483,3.801c0.167,0.021,0.336,0.033,0.508,0.033l0.171-0.004c0.555-0.022,3.996-0.295,7.797-3.502   c0.038,0.346,0.075,0.692,0.075,1.045V57.075z"></path></g></svg>