<svg height='100px' width='100px'  fill="#1A1A1A" xmlns="http://www.w3.org/2000/svg" xmlns:xlink="http://www.w3.org/1999/xlink" version="1.1" x="0px" y="0px" viewBox="0 0 64 64" style="enable-background:new 0 0 64 64;" xml:space="preserve"><g><path d="M55,53.586l-6.566-6.566c-0.345,0.585-0.829,1.069-1.414,1.414L53.586,55l-4.614,4.614l13.303,2.661l-2.66-13.303   L55,53.586z"></path><path d="M61,15V1h-2v14h-2V7h-2v8h-2V5h-2v10h-2v-4h-2v4h-3.414l-4.592,4.593c0.575,0.36,1.133,0.745,1.659,1.169L44.414,17H63v-2   H61z"></path><path d="M21.465,27.79c-0.33,0.154-0.662,0.293-0.994,0.417L19.784,31h-0.363c-0.036,0.127-0.071,0.255-0.103,0.383   C19.831,31.144,20.397,31,21,31c1.122,0,2.134,0.467,2.861,1.214l7.295-4.169C31.065,27.71,31,27.364,31,27   c0-1.54,0.884-2.863,2.162-3.532C32.16,23.167,31.099,23,30,23c-0.415,0-0.827,0.028-1.237,0.073l0.519,0.858l-5.352,5.352   L21.465,27.79z"></path><path d="M30,47c-6.424,0-11.761-4.689-12.802-10.822C17.081,35.803,17,35.413,17,35c0-0.114,0.024-0.222,0.034-0.334   C17.022,34.444,17,34.225,17,34c0-1.019,0.126-2.022,0.357-3h-2.052C15.105,31.982,15,32.988,15,34c0,8.271,6.729,15,15,15   c4.246,0,8.285-1.809,11.129-4.958c0.186-0.749,0.586-1.407,1.127-1.922l-0.955-1.719C39.064,44.336,34.84,47,30,47z"></path><path d="M5.515,19.327c0.182,0.573,0.425,1.154,0.723,1.727l0.259,0.499l-1.255,2.073l3.133,3.134l2.073-1.255l0.498,0.258   c0.574,0.297,1.155,0.541,1.728,0.722l0.534,0.17L13.784,29h4.432l0.577-2.345l0.534-0.17c0.572-0.182,1.153-0.425,1.728-0.722   l0.498-0.258l2.073,1.255l3.133-3.134l-1.255-2.073l0.259-0.499c0.298-0.574,0.541-1.154,0.722-1.725l0.169-0.536L29,18.216v-4.432   l-2.347-0.577l-0.169-0.536c-0.181-0.571-0.424-1.151-0.722-1.725l-0.259-0.499l1.255-2.073L23.625,5.24l-2.072,1.255l-0.498-0.258   c-0.572-0.297-1.153-0.54-1.728-0.722l-0.534-0.17L18.216,3h-4.432l-0.577,2.345l-0.534,0.17c-0.574,0.182-1.155,0.425-1.728,0.722   l-0.498,0.258L8.375,5.24L5.241,8.375l1.255,2.073l-0.259,0.499c-0.298,0.574-0.541,1.154-0.722,1.725l-0.169,0.536L3,13.784v4.432   l2.345,0.577L5.515,19.327z M16,7c4.963,0,9,4.038,9,9s-4.037,9-9,9s-9-4.038-9-9S11.037,7,16,7z"></path><circle cx="16" cy="16" r="3"></circle><path d="M16,23c3.859,0,7-3.14,7-7s-3.141-7-7-7s-7,3.14-7,7S12.141,23,16,23z M16,11c2.757,0,5,2.243,5,5s-2.243,5-5,5   s-5-2.243-5-5S13.243,11,16,11z"></path><path d="M16.707,44.567L3.98,55.884C3.357,56.439,3,57.236,3,58.07C3,59.688,4.312,61,5.925,61c0.837,0,1.635-0.359,2.19-0.985   l11.289-12.743C18.407,46.474,17.503,45.567,16.707,44.567z M9.707,55.707l-1.414-1.414l1.343-1.343l1.414,1.414L9.707,55.707z    M12.465,52.95l-1.414-1.414l1.414-1.414l1.414,1.414L12.465,52.95z M15.293,50.121l-1.414-1.414l1.414-1.414l1.414,1.414   L15.293,50.121z"></path><path d="M23,35c0-1.103-0.897-2-2-2c-0.988,0-1.806,0.722-1.966,1.666c0.023,0.375,0.063,0.745,0.123,1.109   C19.46,36.494,20.172,37,21,37C22.103,37,23,36.103,23,35z"></path><path d="M35,31c-1.122,0-2.134-0.467-2.861-1.214l-7.295,4.169C24.935,34.29,25,34.636,25,35c0,2.206-1.794,4-4,4   c-0.284,0-0.561-0.032-0.828-0.089C21.98,42.515,25.701,45,30,45c4.544,0,8.453-2.77,10.128-6.71l-4.129-7.433   C35.678,30.941,35.347,31,35,31z M30,42.988c-1.998,0-3.996-0.654-5.626-1.963l1.252-1.56c2.535,2.034,6.213,2.034,8.748,0   l1.252,1.56C33.996,42.334,31.998,42.988,30,42.988z M37.796,38.501c-0.393,0.678-0.874,1.304-1.432,1.862L34.95,38.95   c0.435-0.436,0.81-0.923,1.115-1.451L37.796,38.501z"></path><path d="M41,34c0-2.383-0.77-4.584-2.062-6.388c-0.138,0.888-0.575,1.673-1.194,2.268l3.137,5.646C40.951,35.027,41,34.519,41,34z"></path><circle cx="45" cy="45" r="2"></circle><circle cx="35" cy="27" r="2"></circle><path d="M43.57,40.367C44.503,38.384,45,36.214,45,34c0-7.933-6.195-14.431-14-14.949v0.734l-2.794,0.687   c-0.089,0.24-0.195,0.479-0.301,0.719C28.596,21.077,29.294,21,30,21c7.168,0,13,5.832,13,13c0,1.44-0.245,2.822-0.679,4.118   L43.57,40.367z"></path></g></svg>