<svg xmlns="http://www.w3.org/2000/svg" xmlns:xlink="http://www.w3.org/1999/xlink" version="1.1" x="0px" y="0px" viewBox="0 0 66 66" enable-background="new 0 0 66 66" xml:space="preserve"><g><g><path d="M63.981,44.404c-0.414,0-0.75,0.336-0.75,0.75v9.816h-1.558V11.09c0.018-0.065,0.04-0.128,0.04-0.198    c0-0.167-0.054-0.32-0.146-0.444l-3.444-7.875c-0.238-0.547-1.136-0.547-1.374,0l-3.506,8.019    c-0.058,0.132-0.065,0.274-0.043,0.412c0,10.262,0,39.806,0,49.976c0,5.057,8.474,5.055,8.474,0V56.47    c1.914,0,3.058,0.25,3.058-0.75V45.154C64.731,44.74,64.395,44.404,63.981,44.404z M54.7,11.642h5.474V54.97H54.7V11.642z     M57.436,4.745l2.36,5.396h-4.72L57.436,4.745z M60.173,60.979c0,1.247-1.014,2.261-2.261,2.261h-0.952    c-1.247,0-2.261-1.014-2.261-2.261V56.47h5.474V60.979z"></path></g><g><path d="M48.333,1H4.509C2.722,1,1.269,2.454,1.269,4.241v57.519C1.269,63.546,2.722,65,4.509,65h43.824    c1.787,0,3.241-1.454,3.241-3.241V4.241C51.574,2.454,50.12,1,48.333,1z M50.074,61.759c0,0.96-0.781,1.741-1.741,1.741H4.509    c-0.96,0-1.741-0.781-1.741-1.741V4.241c0-0.96,0.781-1.741,1.741-1.741h43.824c0.96,0,1.741,0.781,1.741,1.741V61.759z"></path></g><g><path d="M46.824,5H6.019c-0.414,0-0.75,0.336-0.75,0.75v11.959c0,0.414,0.336,0.75,0.75,0.75h40.806c0.414,0,0.75-0.336,0.75-0.75    V5.75C47.574,5.336,47.238,5,46.824,5z M46.074,16.959H6.769V6.5h39.306V16.959z"></path></g><g><path d="M12.061,30.611H6.019c-0.414,0-0.75,0.336-0.75,0.75v6.115c0,0.414,0.336,0.75,0.75,0.75h6.042    c0.414,0,0.75-0.336,0.75-0.75v-6.115C12.811,30.947,12.475,30.611,12.061,30.611z M11.311,36.726H6.769v-4.615h4.542V36.726z"></path></g><g><path d="M23.648,30.611h-6.042c-0.414,0-0.75,0.336-0.75,0.75v6.115c0,0.414,0.336,0.75,0.75,0.75h6.042    c0.414,0,0.75-0.336,0.75-0.75v-6.115C24.398,30.947,24.062,30.611,23.648,30.611z M22.898,36.726h-4.542v-4.615h4.542V36.726z"></path></g><g><path d="M35.236,30.611h-6.042c-0.414,0-0.75,0.336-0.75,0.75v6.115c0,0.414,0.336,0.75,0.75,0.75h6.042    c0.414,0,0.75-0.336,0.75-0.75v-6.115C35.986,30.947,35.65,30.611,35.236,30.611z M34.486,36.726h-4.542v-4.615h4.542V36.726z"></path></g><g><path d="M46.824,30.611h-6.042c-0.414,0-0.75,0.336-0.75,0.75v6.115c0,0.414,0.336,0.75,0.75,0.75h6.042    c0.414,0,0.75-0.336,0.75-0.75v-6.115C47.574,30.947,47.238,30.611,46.824,30.611z M46.074,36.726h-4.542v-4.615h4.542V36.726z"></path></g><g><path d="M46.824,20.45H20.798c-0.414,0-0.75,0.336-0.75,0.75v6.718c0,0.414,0.336,0.75,0.75,0.75h26.026    c0.414,0,0.75-0.336,0.75-0.75V21.2C47.574,20.786,47.238,20.45,46.824,20.45z M36.808,21.95v5.218h-6.811V21.95H36.808z     M21.548,21.95h6.948v5.218h-6.948V21.95z M46.074,27.169h-7.767V21.95h7.767V27.169z"></path></g><g><path d="M12.061,42.189H6.019c-0.414,0-0.75,0.336-0.75,0.75v6.115c0,0.414,0.336,0.75,0.75,0.75h6.042    c0.414,0,0.75-0.336,0.75-0.75v-6.115C12.811,42.525,12.475,42.189,12.061,42.189z M11.311,48.304H6.769v-4.615h4.542V48.304z"></path></g><g><path d="M23.648,42.189h-6.042c-0.414,0-0.75,0.336-0.75,0.75v6.115c0,0.414,0.336,0.75,0.75,0.75h6.042    c0.414,0,0.75-0.336,0.75-0.75v-6.115C24.398,42.525,24.062,42.189,23.648,42.189z M22.898,48.304h-4.542v-4.615h4.542V48.304z"></path></g><g><path d="M35.236,42.189h-6.042c-0.414,0-0.75,0.336-0.75,0.75v6.115c0,0.414,0.336,0.75,0.75,0.75h6.042    c0.414,0,0.75-0.336,0.75-0.75v-6.115C35.986,42.525,35.65,42.189,35.236,42.189z M34.486,48.304h-4.542v-4.615h4.542V48.304z"></path></g><g><path d="M12.061,53.767H6.019c-0.414,0-0.75,0.336-0.75,0.75v6.115c0,0.414,0.336,0.75,0.75,0.75h6.042    c0.414,0,0.75-0.336,0.75-0.75v-6.115C12.811,54.103,12.475,53.767,12.061,53.767z M11.311,59.882H6.769v-4.615h4.542V59.882z"></path></g><g><path d="M23.648,53.767h-6.042c-0.414,0-0.75,0.336-0.75,0.75v6.115c0,0.414,0.336,0.75,0.75,0.75h6.042    c0.414,0,0.75-0.336,0.75-0.75v-6.115C24.398,54.103,24.062,53.767,23.648,53.767z M22.898,59.882h-4.542v-4.615h4.542V59.882z"></path></g><g><path d="M35.236,53.767h-6.042c-0.414,0-0.75,0.336-0.75,0.75v6.115c0,0.414,0.336,0.75,0.75,0.75h6.042    c0.414,0,0.75-0.336,0.75-0.75v-6.115C35.986,54.103,35.65,53.767,35.236,53.767z M34.486,59.882h-4.542v-4.615h4.542V59.882z"></path></g><g><path d="M46.824,42.189h-6.042c-0.414,0-0.75,0.336-0.75,0.75v17.693c0,0.414,0.336,0.75,0.75,0.75h6.042    c0.414,0,0.75-0.336,0.75-0.75V42.939C47.574,42.525,47.238,42.189,46.824,42.189z M46.074,59.882h-4.542V43.689h4.542V59.882z"></path></g></g></svg>