<svg xmlns="http://www.w3.org/2000/svg" viewBox="0 0 100 100" x="0px" y="0px"><title>Iconos UI</title><g data-name="21 Backlog"><path d="M85.51,47.91a2.5,2.5,0,0,1-.34,3.52L51.59,79a2.5,2.5,0,0,1-3.17,0L14.84,51.43A2.5,2.5,0,0,1,18,47.57L50,73.84,82,47.57A2.5,2.5,0,0,1,85.51,47.91ZM82,63.57,50,89.84,18,63.57a2.5,2.5,0,0,0-3.17,3.86L48.41,95a2.5,2.5,0,0,0,3.17,0L85.16,67.43A2.5,2.5,0,0,0,82,63.57ZM14.84,36.43a2.5,2.5,0,0,1,0-3.86L48.41,5a2.5,2.5,0,0,1,3.17,0L85.16,32.57a2.5,2.5,0,0,1,0,3.86L51.59,64a2.5,2.5,0,0,1-3.17,0Zm5.53-1.93L50,58.84,79.64,34.5,50,10.16Z"></path></g></svg>