<svg xmlns="http://www.w3.org/2000/svg" viewBox="0 0 64 64" x="0px" y="0px"><g data-name="line expand"><path d="M13,58a4,4,0,0,0,4,4H37a4,4,0,0,0,4-4V41h2a5,5,0,0,0,0-10H38V27a7.957,7.957,0,0,0-2-5.274V11a13.077,13.077,0,0,0-2.6-7.8l-.6-.8a1.036,1.036,0,0,0-1.6,0l-.6.8A13.083,13.083,0,0,0,28,11v8H26V11a13.077,13.077,0,0,0-2.6-7.8l-.6-.8a1.036,1.036,0,0,0-1.6,0l-.6.8A13.083,13.083,0,0,0,18,11V23h.082A7.94,7.94,0,0,0,17,27v4H11a5,5,0,0,0,0,10h2V58Zm24,2H17a2,2,0,0,1-2-2V46H39V58A2,2,0,0,1,37,60ZM25,21h5a6.006,6.006,0,0,1,6,6v8H19V27A6.006,6.006,0,0,1,25,21Zm5-10a11.073,11.073,0,0,1,2-6.324A11.073,11.073,0,0,1,34,11v9.082A7.94,7.94,0,0,0,30,19ZM22,4.676A11.073,11.073,0,0,1,24,11v8.069a7.962,7.962,0,0,0-4,1.7V11A11.073,11.073,0,0,1,22,4.676ZM8,36a3,3,0,0,1,3-3h6v2H15v2H40V35H38V33h5a3,3,0,0,1,0,6H11A3,3,0,0,1,8,36Zm31,5v3H15V41Z"></path><path d="M23,29a1,1,0,0,0,1-1V26a1,1,0,0,0-2,0v2A1,1,0,0,0,23,29Z"></path><path d="M31,29a1,1,0,0,0,1-1V26a1,1,0,0,0-2,0v2A1,1,0,0,0,31,29Z"></path><path d="M23.168,33.555a1,1,0,0,0,1.387.277L27,32.2l2.445,1.63a1,1,0,0,0,1.11-1.664L28,30.465V29a1,1,0,0,0-2,0v1.465l-2.555,1.7A1,1,0,0,0,23.168,33.555Z"></path><path d="M46.009,5.585a1,1,0,0,0-.627-.439,1.015,1.015,0,0,0-.754.134L41.257,7.433a1,1,0,0,0-.3,1.38l15.066,23.6a1,1,0,0,0,1.38.3l3.373-2.153a1,1,0,0,0,.3-1.38ZM44.861,7.5l2.153,3.372-1.686,1.076L43.176,8.58ZM57.165,30.5,46.4,13.638l1.686-1.076L58.852,29.42Z"></path><path d="M22,18a1,1,0,0,0,1-1V10a1,1,0,0,0-2,0v7A1,1,0,0,0,22,18Z"></path><path d="M32,9a1,1,0,0,0-1,1v7a1,1,0,0,0,2,0V10A1,1,0,0,0,32,9Z"></path><rect x="6" y="8" width="2" height="2"></rect><rect x="6" y="14" width="2" height="2"></rect><rect x="9" y="11" width="2" height="2"></rect><rect x="3" y="11" width="2" height="2"></rect><rect x="49" y="42" width="2" height="2"></rect><rect x="49" y="46" width="2" height="2"></rect><rect x="51" y="44" width="2" height="2"></rect><rect x="47" y="44" width="2" height="2"></rect></g></svg>