<svg xmlns="http://www.w3.org/2000/svg" xmlns:xlink="http://www.w3.org/1999/xlink" version="1.1" x="0px" y="0px" viewBox="0 0 100 100" style="enable-background:new 0 0 100 100;" xml:space="preserve"><g><path d="M49.899929,17.2466774c2.3162575,0,4.2058372-2.0724411,4.2058372-4.632514s-1.8895798-4.5715599-4.2058372-4.5715599   c-2.3162613,0-4.2058372,2.0724411-4.2058372,4.632515S47.5836754,17.2466774,49.899929,17.2466774"></path></g><g><path d="M58.0677834,23.5249557v-3.2915249c0-2.4381638-1.950531-2.9867535-4.3886948-2.9867535   c0,0-1.5848083,1.2190838-3.7791557,1.2190838c-2.0724411,0-3.7791557-1.2190838-3.7791557-1.2190838   c-2.3772125,0-4.3886986,0.6095428-4.3886986,3.0477085v3.2305679c0,0,3.6572456,1.8286247,8.1678543,1.6457615   C55.2638931,24.987854,58.0677834,23.5249557,58.0677834,23.5249557z"></path></g><g><path d="M17.1265755,75.6600113c2.3162594,0,4.2058372-2.0724411,4.2058372-4.632515s-1.8895779-4.5715637-4.2058372-4.5715637   s-4.2058363,2.0724411-4.2058363,4.632515S14.8103209,75.6600113,17.1265755,75.6600113"></path></g><g><path d="M25.2944317,81.9382858V78.646759c0-2.4381638-1.950531-2.9867477-4.3886967-2.9867477   c0,0-1.5848064,1.2190781-3.7791538,1.2190781c-2.072443,0-3.7791557-1.2190781-3.7791557-1.2190781   c-2.3772125,0-4.3886986,0.6095352-4.3886986,3.0477066v3.2305679c0,0,3.6572456,1.8286209,8.1678543,1.6457596   C22.4905415,83.4011841,25.2944317,81.9382858,25.2944317,81.9382858z"></path></g><g><path d="M82.8768387,75.6600113c2.3162613,0,4.2058334-2.0724411,4.2058334-4.632515s-1.8895721-4.5715637-4.2058334-4.5715637   s-4.2058334,2.0724411-4.2058334,4.632515S80.560585,75.6600113,82.8768387,75.6600113"></path></g><g><path d="M91.044693,81.9382858V78.646759c0-2.4381638-1.950531-2.9867477-4.3886948-2.9867477   c0,0-1.5848083,1.2190781-3.7791519,1.2190781c-2.0724487,0-3.7791595-1.2190781-3.7791595-1.2190781   c-2.3772125,0-4.3886948,0.6095352-4.3886948,3.0477066v3.2305679c0,0,3.6572418,1.8286209,8.1678543,1.6457596   C88.2408066,83.4011841,91.044693,81.9382858,91.044693,81.9382858z"></path></g><path d="M87.8012466,64.2325287c0.5992737-2.6996727,0.9400177-5.4955177,0.9400177-8.3733101  c0-17.2213593-11.2751617-31.837204-26.825386-36.9087944c0.0634766-0.5014248,0.1069946-1.0088749,0.1069946-1.5272427  c0-6.6847353-5.4383621-12.1230965-12.1230965-12.1230965c-6.6843414,0-12.1226997,5.4383602-12.1226997,12.1230965  c0,0.5183678,0.0435181,1.0258179,0.1069908,1.5272427C22.3341866,24.0220146,11.059082,38.6378593,11.059082,55.8592186  c0,3.0809631,0.385046,6.0695992,1.0692863,8.9436913c-0.5922146,0.2699509-1.1715374,0.5768509-1.7236919,0.9450989  c-2.6946797,1.7948761-4.5290694,4.5326309-5.1649017,7.7074432c-0.6358323,3.1756058,0.0027661,6.4081116,1.798429,9.1031876  c1.7952676,2.695076,4.5326266,4.5286789,7.7078357,5.1649017c0.8014097,0.1604385,1.6059809,0.2394791,2.4054155,0.2394791  c2.3666859,0,4.6823959-0.6955032,6.6969833-2.0382996c0.2841301-0.1892395,0.5532417-0.3946304,0.8178596-0.6042709  c6.7927647,5.8320541,15.598732,9.3794632,25.2334824,9.3794632c9.839592,0,18.8155365-3.6988144,25.6642609-9.7535934  c2.0355835,1.5470505,4.5646896,2.4768906,7.3128662,2.4768906C89.5616379,87.4232101,95,81.984848,95,75.3001175  C95,70.3693542,92.036705,66.1247101,87.8012466,64.2325287z M87.9319458,55.8592186  c0,2.7719383-0.322998,5.4662704-0.8909607,8.0702095c-1.3009109-0.4780579-2.6994247-0.7524071-4.1640778-0.7524071  c-4.0039902,0-7.5501175,1.9594612-9.758934,4.9608955l-7.3876953-4.3552437  c1.1958389-2.3844719,1.8728714-5.0741615,1.8728714-7.9233551c0-9.3687439-7.2789764-17.0327644-16.4894028-17.6571884v-8.7177467  c5.3370972-0.5331364,9.6613693-4.5426044,10.6781464-9.7240047C76.952774,24.7642479,87.9319458,39.0432549,87.9319458,55.8592186z   M36.7526016,62.6047325v-1.1634789h13.1085472c3.3353004,0,6.0500832-2.7147865,6.0500832-6.0500793  c0-3.3353004-2.7147827-6.0500793-6.0500832-6.0500793c-2.7147789,0-4.9641914,1.783989-5.7398453,4.1884918l1.7064438-0.0775452  c0.0775452,0,0.2326851,0.0775452,0.3102798,0.1551399c0.0775452,0.0775452,0.0775452,0.2326851,0,0.3102303l-2.3269577,4.3436852  c-0.0775909,0.0775452-0.1551399,0.1550903-0.2327309,0.1550903c-0.077549,0-0.1550941-0.0775452-0.2326851-0.1550903  l-2.5596466-4.1885452c-0.077549-0.0775414-0.077549-0.2326851,0-0.3102798  c0.0775452-0.0775452,0.1551399-0.1550903,0.2326851-0.1550903l2.0167274-0.0775948  c0.1550903-0.5429649,0.387825-1.0858841,0.6205101-1.5513039c-0.1551399,0-0.2326851,0-0.387825,0  c-0.6205139,0-1.2410736-0.1551399-1.783989-0.465374c-1.9391365-1.0083389-2.6372414-3.3352966-1.6289024-5.1968803  c0.4654198-0.853199,1.2410698-1.5513039,2.2494125-1.8615875c0.6205139-0.1550903,1.3186188-0.2326851,1.9391327-0.0775414  l0.3102303-0.6205139c0.0775948-0.0775948,0.1551399-0.1551437,0.2327347-0.1551437  c0.0775452,0,0.1550941,0.077549,0.2326851,0.1551437l1.3961639,2.0166779c0,0.0775909,0.077549,0.2326851,0,0.3102798  c-0.0775452,0.0775452-0.1551399,0.1551399-0.2326851,0.1551399l-2.4820976,0.1550941  c-0.0775452,0-0.1551361-0.077549-0.2326851-0.1550941c-0.0775948-0.0775948-0.0775948-0.2327347,0-0.3102798l0.2326851-0.5429649  c-0.387825-0.077549-0.6981087,0-1.0859337,0.0775909c-0.6980591,0.2326851-1.318573,0.6980591-1.628849,1.318573  c-0.6981049,1.3962097-0.1551399,3.0250626,1.163475,3.7231674c0.853199,0.465374,1.8615875,0.465374,2.7147865-0.0775909  c1.3186188-1.3961678,3.1026115-2.2493668,5.1968803-2.2493668c3.9558105,0,7.1360168,3.1801567,7.1360168,7.1359673  c0,2.5596886-1.3186226,4.8090553-3.3353424,6.0501289h4.4212265V59.502121c0-0.0775452,0.0775948-0.1551399,0.1551399-0.2326851  c0.0775948-0.0775948,0.2326889-0.0775948,0.3102798,0l4.2660904,2.4820976  c0.0775452,0.0775452,0.1550903,0.1550941,0.2326851,0.3102341c0,0.0775909-0.0775948,0.1551399-0.1551399,0.2326851  l-4.2660904,2.4045525c-0.0775452,0-0.0775452,0-0.1551361,0c-0.077549,0-0.077549,0-0.1550941,0  c-0.0775948,0-0.1551399-0.1551437-0.1551399-0.2326889v-1.8615837H36.7526016z M49.8997765,6.1093984  c6.2381897,0,11.3137817,5.0751977,11.3137817,11.3137836c0,6.2381897-5.075592,11.3133869-11.3137817,11.3133869  s-11.3133888-5.0751972-11.3133888-11.3133869C38.5863876,11.1845961,43.6615868,6.1093984,49.8997765,6.1093984z   M11.8683939,55.8592186c0-16.8160629,10.9791212-31.0950699,26.1396599-36.0988922  c1.0167313,5.1814003,5.3409996,9.1908684,10.6777534,9.7240543v8.7177982  c-9.2102814,0.6245728-16.489109,8.2884941-16.489109,17.6571388c0,2.9033318,0.7034073,5.640789,1.942173,8.0586014  l-7.4525032,4.4804115c-1.7838078-2.2995071-4.2970543-3.8715973-7.1792927-4.4491425  c-2.2502098-0.4514351-4.5255623-0.2498474-6.6215067,0.5384216C12.2353115,61.7127075,11.8683939,58.8299255,11.8683939,55.8592186  z M23.3995209,85.2513428c-2.5144806,1.6755295-5.5316219,2.2706604-8.4946232,1.6786957  c-2.9630022-0.5935516-5.5177908-2.3054352-7.1933212-4.8203125s-2.2718458-5.5316238-1.678297-8.4946213  c0.5935488-2.9637985,2.3054352-5.5181885,4.8203115-7.193718c1.8802299-1.2534866,4.040637-1.902359,6.24965-1.902359  c0.7456913,0,1.4973087,0.0742874,2.2449741,0.2236633c2.9630013,0.5935516,5.5177898,2.3054352,7.1933212,4.8203125  c1.6759262,2.5148773,2.2718449,5.5316238,1.678297,8.4946213C27.6262836,81.0214233,25.9143982,83.5758133,23.3995209,85.2513428z   M49.8997765,93.8906021c-9.3898888,0-17.976141-3.4410095-24.6147404-9.1037827  c1.9042377-1.7285309,3.2138882-4.0010681,3.7283039-6.5695419c0.5338268-2.6661758,0.1581669-5.3684158-1.0350056-7.7630081  l7.4128399-4.4563599c3.2009926,4.5721436,8.5039101,7.5646362,14.5087509,7.5646362  c6.0595703,0,11.4057579-3.0460892,14.5970688-7.6888199l7.38414,4.3531647  c-0.7162018,1.5458221-1.127327,3.2605209-1.127327,5.0732269c0,3.6419525,1.6218414,6.9056854,4.1724243,9.1298141  C68.2332535,90.3050537,59.4852219,93.8906021,49.8997765,93.8906021z M82.8769073,86.6138992  c-6.2381897,0-11.3137894-5.075592-11.3137894-11.3137817s5.0755997-11.3137856,11.3137894-11.3137856  s11.3137817,5.0755959,11.3137817,11.3137856S89.115097,86.6138992,82.8769073,86.6138992z"></path></svg>