<svg xmlns="http://www.w3.org/2000/svg" viewBox="0 0 64 64" x="0px" y="0px"><title>racing-car-meter-speeding</title><circle cx="32" cy="32" r="2"></circle><path d="M36,44H28a3,3,0,0,0,0,6h8a3,3,0,0,0,0-6Zm-6,4H28a1,1,0,0,1,0-2h2a1,1,0,0,1,0,2Zm6,0H34a1,1,0,0,1,0-2h2a1,1,0,0,1,0,2Z"></path><path d="M32,8A24,24,0,1,0,56,32,24.028,24.028,0,0,0,32,8ZM54.475,27.013l-2.9.776-.517-1.932,2.9-.776Zm-2.056-5.647-3.465,2-1-1.732,3.465-2Zm-4.862-6.337,1.414,1.414L46.85,18.564,45.436,17.15Zm-4.923-3.448,1.732,1-2,3.465-1.732-1ZM36.987,9.525l1.932.518-.776,2.9-1.932-.517ZM31,9h2v4H31Zm-3.987.525.776,2.9-1.932.517-.776-2.9Zm-5.647,2.056,2,3.465-1.732,1-2-3.465Zm-4.923,3.448,2.121,2.121L17.15,18.564l-2.121-2.121Zm-3.862,4.605,3.465,2-1,1.732-3.465-2Zm-2.538,5.447,2.9.776-.517,1.932-2.9-.776ZM9,31h4v2H9Zm.525,5.987,2.9-.776.517,1.932-2.9.776Zm3.056,7.379-1-1.732,3.465-2,1,1.732ZM36,52H28a5,5,0,0,1,0-10h8a5,5,0,0,1,0,10ZM46.87,40.492A1,1,0,0,1,46,41a.983.983,0,0,1-.336-.059l-13.9-4.965a3.991,3.991,0,1,1,3.78-5.8.931.931,0,0,1,.093.05l11,9A1,1,0,0,1,46.87,40.492Zm.377-3.523a1,1,0,0,1-.72-1.218A15,15,0,1,0,19.006,39.5a1,1,0,0,1-1.731,1,17,17,0,1,1,31.19-4.252A1,1,0,0,1,47.247,36.969Zm4.172,7.4-3.465-2,1-1.732,3.465,2Zm2.538-5.447-2.9-.776.517-1.932,2.9.776ZM51,33V31h4v2Z"></path><path d="M34.725,34.912l6.17,2.2-5.036-4.119A3.976,3.976,0,0,1,34.725,34.912Z"></path><path d="M32,4A28,28,0,1,0,60,32,28.032,28.032,0,0,0,32,4Zm0,54A26,26,0,1,1,58,32,26.029,26.029,0,0,1,32,58Z"></path></svg>