<svg xmlns="http://www.w3.org/2000/svg" xmlns:xlink="http://www.w3.org/1999/xlink" version="1.1" x="0px" y="0px" viewBox="0 0 100 100" style="enable-background:new 0 0 100 100;" xml:space="preserve"><path d="M92.5,5h-85C6.1,5,5,6.1,5,7.5v20C5,28.9,6.1,30,7.5,30h85c1.4,0,2.5-1.1,2.5-2.5v-20C95,6.1,93.9,5,92.5,5z M90,25H10V10  h80V25z"></path><path d="M60,70H40c-1.4,0-2.5,1.1-2.5,2.5v20c0,1.4,1.1,2.5,2.5,2.5h20c1.4,0,2.5-1.1,2.5-2.5v-20C62.5,71.1,61.4,70,60,70z   M57.5,90h-15V75h15V90z"></path><path d="M27.5,70h-20C6.1,70,5,71.1,5,72.5v20C5,93.9,6.1,95,7.5,95h20c1.4,0,2.5-1.1,2.5-2.5v-20C30,71.1,28.9,70,27.5,70z M25,90  H10V75h15V90z"></path><path d="M92.5,70h-20c-1.4,0-2.5,1.1-2.5,2.5v20c0,1.4,1.1,2.5,2.5,2.5h20c1.4,0,2.5-1.1,2.5-2.5v-20C95,71.1,93.9,70,92.5,70z   M90,90H75V75h15V90z"></path><path d="M17.5,37.5c-1.4,0-2.5,1.1-2.5,2.5v14l-3.2-3.2c-1-1-2.6-1-3.5,0c-1,1-1,2.6,0,3.5l7.5,7.5c1,1,2.6,1,3.5,0l7.5-7.5  c1-1,1-2.6,0-3.5c-1-1-2.6-1-3.5,0L20,54V40C20,38.6,18.9,37.5,17.5,37.5z"></path><path d="M50,37.5c-1.4,0-2.5,1.1-2.5,2.5v14l-3.2-3.2c-1-1-2.6-1-3.5,0c-1,1-1,2.6,0,3.5l7.5,7.5c1,1,2.6,1,3.5,0l7.5-7.5  c1-1,1-2.6,0-3.5c-1-1-2.6-1-3.5,0L52.5,54V40C52.5,38.6,51.4,37.5,50,37.5z"></path><path d="M82.5,37.5c-1.4,0-2.5,1.1-2.5,2.5v14l-3.2-3.2c-1-1-2.6-1-3.5,0c-1,1-1,2.6,0,3.5l7.5,7.5c1,1,2.6,1,3.5,0l7.5-7.5  c1-1,1-2.6,0-3.5c-1-1-2.6-1-3.5,0L85,54V40C85,38.6,83.9,37.5,82.5,37.5z"></path></svg>