<svg height='100px' width='100px'  fill="#1A1A1A" xmlns:x="http://ns.adobe.com/Extensibility/1.0/" xmlns:i="http://ns.adobe.com/AdobeIllustrator/10.0/" xmlns:graph="http://ns.adobe.com/Graphs/1.0/" xmlns="http://www.w3.org/2000/svg" xmlns:xlink="http://www.w3.org/1999/xlink" xmlns:a="http://ns.adobe.com/AdobeSVGViewerExtensions/3.0/" version="1.0" x="0px" y="0px" viewBox="0 0 127.559 127.559" enable-background="new 0 0 127.559 127.559" xml:space="preserve"><g><path d="M98.425,116.35c-0.133,0-0.266-0.035-0.384-0.105c-0.228-0.136-0.366-0.381-0.366-0.645v-5.646H13.17   c-0.414,0-0.75-0.336-0.75-0.75v-4.539c0-0.414,0.336-0.75,0.75-0.75h20.361c-6.328-5.341-10.048-13.25-10.048-21.57v-0.928   c0-0.414,0.336-0.75,0.75-0.75s0.75,0.336,0.75,0.75v0.928c0,8.576,4.175,16.692,11.168,21.711c0.265,0.19,0.376,0.529,0.276,0.839   c-0.1,0.311-0.388,0.521-0.714,0.521H13.92v3.039h84.505c0.414,0,0.75,0.336,0.75,0.75v5.139l13.643-7.369l-13.643-7.449v5.141   c0,0.199-0.079,0.39-0.22,0.53s-0.331,0.22-0.53,0.22h-0.001l-13.072-0.01c-0.04,0-0.08-0.003-0.119-0.01   c-11.373-1.848-19.627-11.542-19.627-23.051v-0.928c0-0.414,0.336-0.75,0.75-0.75s0.75,0.336,0.75,0.75v0.928   c0,10.75,7.695,19.808,18.309,21.561l12.261,0.009V98.26c0-0.265,0.14-0.51,0.367-0.645c0.229-0.136,0.51-0.141,0.742-0.014   l15.964,8.717c0.241,0.132,0.392,0.385,0.391,0.66c-0.001,0.274-0.151,0.527-0.394,0.658l-15.964,8.623   C98.67,116.319,98.547,116.35,98.425,116.35z M73.005,105.414L73.005,105.414l-24.942-0.01c-0.04,0-0.081-0.003-0.12-0.01   c-11.373-1.848-19.628-11.542-19.628-23.051v-0.928c0-0.414,0.336-0.75,0.75-0.75s0.75,0.336,0.75,0.75v0.928   c0,10.75,7.696,19.808,18.31,21.561l22.697,0.009c-6.329-5.34-10.048-13.249-10.048-21.569v-0.928c0-0.414,0.336-0.75,0.75-0.75   s0.75,0.336,0.75,0.75v0.928c0,8.576,4.175,16.692,11.169,21.711c0.265,0.19,0.376,0.529,0.276,0.839   C73.619,105.204,73.33,105.414,73.005,105.414z M66.355,62.857c-0.414,0-0.75-0.336-0.75-0.75v-7.199c0-0.414,0.336-0.75,0.75-0.75   s0.75,0.336,0.75,0.75v7.199C67.105,62.521,66.77,62.857,66.355,62.857z M61.523,62.857c-0.414,0-0.75-0.336-0.75-0.75v-7.199   c0-0.414,0.336-0.75,0.75-0.75s0.75,0.336,0.75,0.75v7.199C62.273,62.521,61.938,62.857,61.523,62.857z M29.064,62.857   c-0.414,0-0.75-0.336-0.75-0.75v-7.199c0-0.414,0.336-0.75,0.75-0.75s0.75,0.336,0.75,0.75v7.199   C29.814,62.521,29.479,62.857,29.064,62.857z M24.233,62.857c-0.414,0-0.75-0.336-0.75-0.75v-7.199c0-0.414,0.336-0.75,0.75-0.75   s0.75,0.336,0.75,0.75v7.199C24.983,62.521,24.647,62.857,24.233,62.857z M66.355,36.348c-0.414,0-0.75-0.336-0.75-0.75v-9.15   c0-0.341,0.23-0.64,0.561-0.726c0.906-0.237,2.203-0.685,2.986-1.83c1.697-2.484,1.963-5.25,0.728-7.59   c-1.325-2.511-4.09-3.941-6.911-3.519c-3.646,0.546-6.172,3.957-5.627,7.604c0.368,2.469,2.064,4.51,4.427,5.327   c0.302,0.104,0.505,0.39,0.505,0.709v9.174c0,0.414-0.336,0.75-0.75,0.75s-0.75-0.336-0.75-0.75v-8.658   c-2.628-1.105-4.491-3.486-4.916-6.331c-0.666-4.464,2.425-8.641,6.89-9.31c3.456-0.507,6.839,1.232,8.459,4.303   c1.504,2.848,1.206,6.178-0.815,9.136c-0.944,1.382-2.397,1.996-3.285,2.276v8.584C67.105,36.012,66.77,36.348,66.355,36.348z    M29.064,36.348c-0.414,0-0.75-0.336-0.75-0.75v-9.156c0-0.341,0.23-0.639,0.56-0.726c0.902-0.236,2.191-0.683,2.977-1.834   c1.691-2.481,1.953-5.246,0.718-7.584c-1.325-2.509-4.094-3.936-6.908-3.515c-3.646,0.546-6.171,3.957-5.626,7.604   c0.369,2.472,2.072,4.516,4.443,5.333c0.303,0.104,0.506,0.389,0.506,0.709v9.168c0,0.414-0.336,0.75-0.75,0.75   s-0.75-0.336-0.75-0.75v-8.651c-2.637-1.105-4.507-3.489-4.934-6.337c-0.666-4.465,2.424-8.642,6.889-9.311   c3.449-0.51,6.835,1.232,8.456,4.298c1.504,2.846,1.211,6.174-0.805,9.131c-0.716,1.048-1.79,1.796-3.275,2.276v8.594   C29.814,36.012,29.479,36.348,29.064,36.348z M63.953,22.625c-1.584,0-2.954-1.182-3.188-2.749   c-0.127-0.853,0.085-1.703,0.597-2.394c0.517-0.693,1.268-1.146,2.116-1.272c1.829-0.266,3.414,0.991,3.669,2.715   c0.127,0.85-0.086,1.7-0.6,2.395c-0.514,0.693-1.266,1.146-2.118,1.272C64.269,22.614,64.109,22.625,63.953,22.625z M63.96,17.674   c-0.087,0-0.176,0.008-0.265,0.02c-0.448,0.067-0.852,0.311-1.129,0.684c-0.272,0.367-0.385,0.821-0.316,1.278   c0.137,0.923,1.015,1.587,1.963,1.452c0.452-0.067,0.854-0.31,1.13-0.681c0.274-0.371,0.389-0.826,0.32-1.28   C65.539,18.307,64.807,17.674,63.96,17.674z M26.646,22.625c-1.584,0-2.954-1.182-3.188-2.749   c-0.127-0.854,0.085-1.704,0.599-2.394c0.51-0.692,1.261-1.146,2.113-1.273c1.199-0.161,2.278,0.285,2.997,1.184   c0.625,0.78,0.848,1.757,0.627,2.751c-0.206,0.906-0.819,1.696-1.643,2.116C27.676,22.502,27.169,22.625,26.646,22.625z    M26.652,17.674c-0.088,0-0.177,0.008-0.266,0.02c-0.449,0.067-0.851,0.31-1.125,0.682c-0.274,0.37-0.388,0.823-0.319,1.28   c0.124,0.838,0.856,1.47,1.703,1.47c0.284,0,0.563-0.067,0.824-0.201c0.432-0.22,0.753-0.635,0.86-1.109   c0.121-0.546,0.007-1.06-0.333-1.484C27.662,17.913,27.172,17.674,26.652,17.674z"></path><path d="M36.771,55.658H16.525c-2.141,0-3.882-1.742-3.882-3.883V38.73c0-2.141,1.741-3.883,3.882-3.883h20.246   c2.141,0,3.882,1.742,3.882,3.883v13.045C40.653,53.916,38.912,55.658,36.771,55.658z M16.525,36.348   c-1.313,0-2.382,1.069-2.382,2.383v13.045c0,1.313,1.068,2.383,2.382,2.383h20.246c1.313,0,2.382-1.069,2.382-2.383V38.73   c0-1.313-1.068-2.383-2.382-2.383H16.525z"></path><path d="M36.771,82.166H16.525c-2.141,0-3.882-1.742-3.882-3.883V65.238c0-2.14,1.741-3.881,3.882-3.881h20.246   c2.141,0,3.882,1.741,3.882,3.881v13.045C40.653,80.424,38.912,82.166,36.771,82.166z M16.525,62.857   c-1.313,0-2.382,1.068-2.382,2.381v13.045c0,1.313,1.068,2.383,2.382,2.383h20.246c1.313,0,2.382-1.069,2.382-2.383V65.238   c0-1.313-1.068-2.381-2.382-2.381H16.525z"></path><path d="M74.08,55.658H53.834c-2.141,0-3.882-1.742-3.882-3.883V38.73c0-2.141,1.741-3.883,3.882-3.883H74.08   c2.14,0,3.88,1.742,3.88,3.883v13.045C77.96,53.916,76.22,55.658,74.08,55.658z M53.834,36.348c-1.313,0-2.382,1.069-2.382,2.383   v13.045c0,1.313,1.068,2.383,2.382,2.383H74.08c1.313,0,2.38-1.069,2.38-2.383V38.73c0-1.313-1.067-2.383-2.38-2.383H53.834z"></path><path d="M74.08,82.166H53.834c-2.141,0-3.882-1.742-3.882-3.883V65.238c0-2.14,1.741-3.881,3.882-3.881H74.08   c2.14,0,3.88,1.741,3.88,3.881v13.045C77.96,80.424,76.22,82.166,74.08,82.166z M53.834,62.857c-1.313,0-2.382,1.068-2.382,2.381   v13.045c0,1.313,1.068,2.383,2.382,2.383H74.08c1.313,0,2.38-1.069,2.38-2.383V65.238c0-1.313-1.067-2.381-2.38-2.381H53.834z"></path></g></svg>