<svg xmlns="http://www.w3.org/2000/svg" xmlns:xlink="http://www.w3.org/1999/xlink" version="1.1" x="0px" y="0px" viewBox="0 0 56 56" style="enable-background:new 0 0 56 56;" xml:space="preserve"><path d="M9.4533081,33.0556641c-0.8413696,2.1998291-1.3224487,4.576416-1.3224487,7.0683594c0,0.5527344,0.4472656,1,1,1  c0.0006714,0,0.0012817-0.0003662,0.0019531-0.0003662s0.0012817,0.0003662,0.0019531,0.0003662h6.5556641  c0.0006714,0,0.0012817-0.0003662,0.0019531-0.0003662s0.0012817,0.0003662,0.0019531,0.0003662c0.5527344,0,1-0.4472656,1-1  c0-6.2353516,5.0732422-11.3085938,11.3085938-11.3085938c6.2301025,0,11.2992554,5.0649414,11.3078003,11.2930908  c-0.000061,0.0054932-0.0031128,0.0100098-0.0031128,0.0155029c0,0.5527344,0.4472656,1,1,1h6.5644531  c0.0005493,0,0.0009155-0.0002441,0.0014648-0.0002441s0.0009155,0.0002441,0.0014648,0.0002441c0.5527344,0,1-0.4472656,1-1  c0-2.4688721-0.4733887-4.8242188-1.2999878-7.0070801c3.685791-0.8469238,6.4152222-4.1563721,6.4152222-8.0583496  c0-4.6582031-3.8330078-8.4609375-8.5527344-8.2851562c-0.125-4.6894531-3.9785156-8.4648438-8.6972656-8.4648438  c-1.1279297,0-2.2294922,0.2265625-3.2841797,0.6757812c-2.0527344-3.6669922-5.9462891-5.9853516-10.1865234-5.9853516  c-6.4345703,0-11.6699219,5.2392578-11.6699219,11.6796875c0,0.4833984,0.0302734,0.9619141,0.0917969,1.4433594  c-4.3154297,0.4785156-7.6816406,4.1464844-7.6816406,8.5869141C3.0097656,28.704834,5.7044678,32.086792,9.4533081,33.0556641z   M14.7449951,39.1240234h-4.5634766c0.2327271-4.1743164,1.8966675-7.9633789,4.5185547-10.8928223l3.2254028,3.2246094  C16.1221313,33.5495605,14.963623,36.2052002,14.7449951,39.1240234z M27.0078125,26.8658447  c-2.918396,0.2174072-5.5740356,1.3742676-7.6680298,3.1761475l-3.2254639-3.2247314  c2.9300537-2.6207275,6.7192383-4.2833252,10.8934937-4.5148926V26.8658447z M29.0078125,26.866333v-4.5634766  c4.1704102,0.2336426,7.9559326,1.895874,10.8837891,4.5145264l-3.2250366,3.2250977  C34.5748291,28.2423096,31.9226074,27.0856934,29.0078125,26.866333z M41.2608643,39.1240234  c-0.2185669-2.9187012-1.3768921-5.5742188-3.1800537-7.6677246l3.2250366-3.2250977  c2.6218262,2.9295654,4.2857666,6.7185059,4.5184937,10.8928223H41.2608643z M11.6328125,18.0703125  c0.0009766,0,0.0019531,0,0.0029297,0c0.3623047,0.0498047,0.7841797-0.0537109,1.0263672-0.3583984  c0.1894531-0.2382812,0.2607422-0.5507812,0.1923828-0.8476562c-0.171875-0.7441406-0.2548828-1.4589844-0.2548828-2.1855469  c0-5.3369141,4.3378906-9.6796875,9.6699219-9.6796875c3.8007812,0,7.265625,2.2490234,8.828125,5.7294922  c0.1152344,0.2568359,0.3330078,0.453125,0.6005859,0.5410156c0.2675781,0.0869141,0.5615234,0.0585938,0.8046875-0.0800781  c1.0302734-0.5849609,2.1191406-0.8808594,3.2373047-0.8808594c3.6943359,0,6.7001953,3.0058594,6.7001953,6.7001953  c0,0.2089844-0.03125,0.4072266-0.0595703,0.6025391l-0.0214844,0.1513672  c-0.0439453,0.3173828,0.0664062,0.6367188,0.2988281,0.8583984c0.2314453,0.2236328,0.5556641,0.3242188,0.8701172,0.2617188  c0.4248047-0.0771484,0.8076172-0.1142578,1.171875-0.1142578c3.46875,0,6.2900391,2.8212891,6.2900391,6.2900391  c0,3.0894775-2.2523804,5.6945801-5.2333984,6.1896973c-0.9559937-1.9040527-2.1922607-3.6435547-3.6812744-5.1386719  c-0.010376-0.0114746-0.0137329-0.0263672-0.0247803-0.0373535c-0.0114746-0.0114746-0.0269775-0.0148926-0.0388184-0.0257568  c-3.5927734-3.5754395-8.5401611-5.7904053-13.9960327-5.7938232c-0.0028687,0-0.005249-0.001709-0.0081177-0.001709  c-0.001709,0-0.0031738,0.0009766-0.0048828,0.0009766c-5.4611206,0-10.4133911,2.2163086-14.0090332,5.7945557  c-0.0118408,0.0108643-0.0273438,0.0142822-0.0388184,0.0257568c-0.0110474,0.0109863-0.0144043,0.0258789-0.0247803,0.0373535  c-1.4765015,1.4825439-2.7050171,3.2050781-3.6578979,5.0900879c-3.0424194-0.6276855-5.2626343-3.309082-5.2626343-6.4907227  C5.0097656,21.0488281,7.9873047,18.0703125,11.6328125,18.0703125z"></path><path d="M28.0029297,32.1064453c-0.5527344,0-1,0.4472656-1,1v10.0053711  c-2.2764893,0.4647217-3.9951172,2.4825439-3.9951172,4.894043c0,2.7539062,2.2412109,4.9951172,4.9951172,4.9951172  s4.9951172-2.2412109,4.9951172-4.9951172c0-2.411499-1.7186279-4.4293213-3.9951172-4.894043V33.1064453  C29.0029297,32.5537109,28.5556641,32.1064453,28.0029297,32.1064453z M30.9980469,48.0058594  c0,1.6513672-1.34375,2.9951172-2.9951172,2.9951172s-2.9951172-1.34375-2.9951172-2.9951172  c0-1.2990723,0.8364868-2.3966064,1.9951172-2.8105469v2.8105469c0,0.5527344,0.4472656,1,1,1s1-0.4472656,1-1v-2.8105469  C30.1615601,45.6092529,30.9980469,46.7067871,30.9980469,48.0058594z"></path></svg>