<svg xmlns="http://www.w3.org/2000/svg" xmlns:xlink="http://www.w3.org/1999/xlink" xml:space="preserve" style="shape-rendering:geometricPrecision;text-rendering:geometricPrecision;image-rendering:optimizeQuality;" viewBox="0 0 100 100" x="0px" y="0px" fill-rule="evenodd" clip-rule="evenodd"><defs><style type="text/css">
   
    .fil0 {fill:black}
   
  </style></defs><g><path class="fil0" d="M18.5824 2.29726l62.834 0c10.1741,0 13.584,4.47759 13.584,12.319l0 64.934c0,8.12369 -3.99216,13.3265 -13.584,13.3265l-4.07247 0c-0.485437,6.43588 -6.71344,6.43588 -7.19769,0l-40.2948 0c-0.484256,6.43588 -6.71226,6.43588 -7.19769,0l-4.07129 0c-9.59181,0 -13.584,-5.2028 -13.584,-13.3265l0 -64.934c0,-7.8414 3.40987,-12.319 13.584,-12.319zm-0.172442 16.682l2.25829 -2.2571 6.58824 6.58706 -2.25947 2.25947 -6.58706 -6.58942zm7.64297 50.9839l2.25829 2.25829 -6.58706 6.58824 -2.25947 -2.25829 6.58824 -6.58824zm25.2415 11.1509l-3.19491 0 0 -9.31661 3.19491 0 0 9.31661zm28.9266 -5.47563l-2.25829 2.25829 -6.58706 -6.58824 2.25829 -2.25829 6.58706 6.58824zm2.1012 -28.4447l0 3.19491 -9.31661 0 0 -3.19491 9.31661 0zm-4.1457 -29.4593l2.25829 2.25829 -6.58706 6.58706 -2.25947 -2.25829 6.58824 -6.58706zm-24.9415 1.46458l0 32.6306 -3.01892 0 -3.45357 0 -20.7545 0c-2.74136,0 -2.62915,-6.47249 -0.119292,-6.47249l20.8738 0 0 -26.0388c0,-2.74018 6.47249,-2.62915 6.47249,-0.119292zm-34.6526 -9.23039c-4.0961,0 -5.91264,0.36142 -5.91264,4.64767l0 64.934c0,4.54728 1.34411,5.65516 5.91264,5.65516l62.834 0c4.56736,0 5.91264,-1.1067 5.91264,-5.65516l0 -64.934c0,-4.28625 -1.81655,-4.64767 -5.91264,-4.64767l-62.834 0z"></path></g></svg>