<svg xmlns="http://www.w3.org/2000/svg" xmlns:xlink="http://www.w3.org/1999/xlink" version="1.1" x="0px" y="0px" viewBox="0 0 100 100" enable-background="new 0 0 100 100" xml:space="preserve"><circle cx="88.4" cy="40.7" r="5.1"></circle><path d="M88.8,47.5l-3.4-0.8c-0.3-0.1-0.6-0.1-0.9-0.1c0,0-0.1,0-0.1,0l-7,0l-2.1-5.8c-0.4-1.1-1.7-1.7-2.8-1.3  c-1.1,0.4-1.7,1.7-1.3,2.8l2.5,7.2c0.1,0.3,0.3,0.6,0.6,0.8c0.2,0.2,0.4,0.3,0.6,0.4c0,0,0,0,0,0c0.3,0.2,0.7,0.3,1,0.3l4.5,0  l-0.3,1L80,52.7l-2.4,1.7l-5.5-4c-1-0.7-2.4-0.5-3.1,0.5c-0.7,1-0.5,2.4,0.5,3.1l6.7,4.9c0.3,0.2,0.6,0.3,0.9,0.4  c0.2,0.1,0.5,0,0.7,0c0,0,0,0,0,0c0.2,0,0.4-0.1,0.5-0.1l-2.1,8.1l0,0l-3.5,13.3c-0.1,0.4-0.1,0.9,0,1.3l1.4,13.4  c0.3,1.3,1.5,2.2,2.8,2.2c0.2,0,0.4,0,0.6-0.1c1.5-0.3,2.5-1.9,2.1-3.4l-1.2-12.7l2.8-11.1l0.3-1h0.6v25.4c0,1.6,1.3,2.8,2.8,2.8  s2.8-1.3,2.8-2.8V68.8l4-16.7C92.4,50.2,90.7,48,88.8,47.5z"></path><circle cx="38.3" cy="40.7" r="5.1"></circle><path d="M43.9,46.7l-1.5,0l-8.3,0l-1.5,0c-3.6,0-5.8,2.9-5.8,6.5v9.7v5.8c0,3,4,3,4,0v-5.8v-9.2h1.3l0,9.2l0,31.6  c0,1.6,1.3,2.8,2.8,2.8c1.6,0,2.8-1.3,2.8-2.8l0-23.7H39l0,23.7c0,1.6,1.3,2.8,2.8,2.8c1.6,0,2.8-1.3,2.8-2.8l0-31.6l0-9.2h1.2v9.2  v5.8c0,3,3.9,3,3.9,0v-5.8v-9.6C49.8,50,47.8,46.7,43.9,46.7z"></path><path d="M50.1,34.7c0.1,0.2,0.1,0.4,0,0.6l-2.7,4.3l5.1-2.5c0.1-0.1,0.3-0.1,0.5,0c1.7,0.9,3.6,1.3,5.6,1.3c5.5,0,9.9-3.4,9.9-7.6  c0-2.2-1.3-4.4-3.5-5.8c0,0,0,0.1-0.1,0.1c0,0.1-0.1,0.3-0.2,0.4c-0.1,0.1-0.1,0.3-0.2,0.4c-0.1,0.1-0.1,0.3-0.2,0.4  c-0.1,0.1-0.2,0.3-0.2,0.4c-0.1,0.1-0.2,0.2-0.2,0.4c-0.1,0.1-0.2,0.3-0.3,0.4c-0.1,0.1-0.2,0.2-0.3,0.3c-0.1,0.1-0.2,0.3-0.3,0.4  c-0.1,0.1-0.2,0.2-0.3,0.3c-0.1,0.1-0.2,0.2-0.4,0.4c-0.1,0.1-0.2,0.2-0.3,0.3c-0.1,0.1-0.3,0.2-0.4,0.3c-0.1,0.1-0.2,0.2-0.4,0.3  c-0.1,0.1-0.3,0.2-0.4,0.3c-0.1,0.1-0.3,0.2-0.4,0.3c-0.2,0.1-0.3,0.2-0.5,0.3c-0.1,0.1-0.3,0.2-0.4,0.2c-0.2,0.1-0.3,0.2-0.5,0.2  c-0.1,0.1-0.3,0.1-0.4,0.2c-0.2,0.1-0.3,0.1-0.5,0.2c-0.1,0.1-0.3,0.1-0.4,0.2c-0.2,0.1-0.4,0.1-0.6,0.2c-0.2,0-0.3,0.1-0.5,0.1  c-0.2,0.1-0.4,0.1-0.6,0.1c-0.2,0-0.3,0.1-0.5,0.1c-0.2,0-0.4,0.1-0.6,0.1c-0.1,0-0.3,0.1-0.4,0.1c-0.2,0-0.5,0.1-0.7,0.1  c-0.1,0-0.2,0-0.4,0c-0.4,0-0.8,0-1.1,0c-0.5,0-1,0-1.5-0.1c-0.1,0-0.2,0-0.3,0c-0.5-0.1-1-0.1-1.4-0.2c0,0-0.1,0-0.1,0  C49.1,33.2,49.5,34,50.1,34.7z"></path><path d="M26.3,12.9c0-0.4,0-0.9,0.1-1.3c0-0.1,0.1-0.3,0.1-0.4c0.1-0.3,0.1-0.6,0.2-0.8c0.1-0.2,0.1-0.3,0.2-0.5  c0.1-0.3,0.2-0.5,0.3-0.7c0.1-0.2,0.2-0.3,0.3-0.5c0.1-0.1,0.1-0.3,0.2-0.4c-1.7-0.9-3.6-1.3-5.6-1.3c-5.5,0-9.9,3.4-9.9,7.6  c0,3.2,2.7,6,6.5,7.1c0,0,0,0,0-0.1c0.1-0.4,0.2-0.8,0.3-1.2c0-0.1,0-0.1,0.1-0.2c0.1-0.4,0.3-0.7,0.4-1.1c0-0.1,0.1-0.1,0.1-0.2  c0.2-0.4,0.4-0.7,0.6-1c0-0.1,0.1-0.1,0.1-0.1c0.2-0.3,0.5-0.7,0.8-1c0,0,0.1-0.1,0.1-0.1c0.3-0.3,0.6-0.6,1-0.9c0,0,0,0,0,0  c0.4-0.3,0.7-0.6,1.1-0.8c0,0,0.1,0,0.1-0.1c0.4-0.3,0.8-0.5,1.2-0.7c0.1,0,0.1-0.1,0.2-0.1c0.4-0.2,0.9-0.4,1.3-0.6  c0,0,0.1,0,0.1,0C26.3,13.2,26.3,13,26.3,12.9z"></path><path d="M53.1,12c0.2,0,0.3,0,0.5,0c0.2,0,0.5,0,0.7,0.1c0.2,0,0.3,0,0.5,0.1c0.3,0,0.5,0.1,0.7,0.1c0.1,0,0.3,0.1,0.4,0.1  c0.3,0.1,0.6,0.1,0.9,0.2c0.1,0,0.2,0,0.2,0.1c0.4,0.1,0.7,0.2,1.1,0.4c0.1,0,0.1,0.1,0.2,0.1c0.3,0.1,0.5,0.2,0.8,0.4  c0.1,0.1,0.2,0.1,0.3,0.2c0.2,0.1,0.4,0.2,0.6,0.3c0.1,0.1,0.2,0.2,0.4,0.2c0.2,0.1,0.4,0.2,0.5,0.3c0.1,0.1,0.2,0.2,0.4,0.3  c0.2,0.1,0.3,0.2,0.5,0.4c0.1,0.1,0.2,0.2,0.3,0.3c0.1,0.1,0.3,0.3,0.4,0.4c0.1,0.1,0.2,0.2,0.3,0.3c0.1,0.1,0.3,0.3,0.4,0.4  c0.1,0.1,0.2,0.2,0.3,0.3c0.1,0.2,0.2,0.3,0.3,0.5c0.1,0.1,0.2,0.2,0.2,0.4c0.1,0.2,0.2,0.3,0.3,0.5c0.1,0.1,0.1,0.2,0.2,0.4  c0.1,0.2,0.2,0.4,0.2,0.5c0,0.1,0.1,0.2,0.1,0.4c0.1,0.2,0.1,0.4,0.2,0.6c0,0.1,0.1,0.2,0.1,0.3c0,0,0,0,0,0.1  c1.5-1.4,2.2-3,2.2-4.8c0-4.2-4.4-7.6-9.9-7.6c-2,0-3.9,0.5-5.6,1.3c0,0,0,0.1,0,0.1c0.2,0.4,0.3,0.7,0.4,1.1c0,0,0,0,0,0  c0.1,0.4,0.2,0.7,0.2,1.1c0,0,0,0.1,0,0.1C52.8,11.9,53,12,53.1,12z"></path><path d="M28.2,12.8c0.2-0.1,0.5-0.1,0.8-0.2c0.2,0,0.3-0.1,0.5-0.1c0.3,0,0.6-0.1,0.8-0.1c0.1,0,0.3,0,0.4,0c0.4,0,0.8,0,1.3,0  c0.1,0,0.2,0,0.3,0l0.2,0c0.5,0,0.9,0,1.4,0.1c0.2,0,0.3,0,0.5,0.1c0.3,0,0.6,0.1,0.9,0.1c0.2,0,0.4,0.1,0.5,0.1  c0.3,0.1,0.5,0.1,0.8,0.2c0.2,0.1,0.4,0.1,0.6,0.2c0.2,0.1,0.5,0.2,0.7,0.2c0.2,0.1,0.4,0.2,0.5,0.2c0.2,0.1,0.4,0.2,0.7,0.3  c0.2,0.1,0.3,0.2,0.5,0.3c0.2,0.1,0.4,0.2,0.6,0.3c0.2,0.1,0.3,0.2,0.5,0.3c0.2,0.1,0.4,0.3,0.6,0.4c0.2,0.1,0.3,0.2,0.4,0.4  c0.1,0.1,0.2,0.2,0.3,0.3c0.2-0.2,0.4-0.3,0.5-0.5c0.2-0.2,0.3-0.3,0.5-0.5c0.3-0.2,0.6-0.4,0.9-0.6c0.2-0.1,0.4-0.3,0.6-0.4  c0.3-0.2,0.7-0.4,1.1-0.5c0.2-0.1,0.3-0.2,0.5-0.3c0.6-0.2,1.1-0.4,1.7-0.6c0.4-0.1,0.7-0.2,1.1-0.3c0.1,0,0.2,0,0.4-0.1  c0.2,0,0.5-0.1,0.7-0.1c0.1,0,0.3,0,0.4-0.1c0.2,0,0.4-0.1,0.7-0.1c0.1,0,0.3,0,0.4,0c0.1,0,0.2,0,0.3,0c0,0,0-0.1,0-0.1  c-0.1-0.4-0.1-0.7-0.2-1.1c0-0.1,0-0.1-0.1-0.2c-0.1-0.4-0.3-0.7-0.4-1.1c-1.8-3.6-6.3-6-11.4-6c-4.4,0-8.5,1.9-10.7,4.8  c-1,1.4-1.5,3-1.5,4.6c0,0,0,0.1,0,0.1c0.1,0,0.2-0.1,0.4-0.1C27.9,12.9,28,12.8,28.2,12.8z"></path><path d="M16.4,23.3c-5.5,0-9.9,3.4-9.9,7.6s4.4,7.6,9.9,7.6c2,0,4-0.5,5.6-1.3c0.1,0,0.2-0.1,0.2-0.1c0.1,0,0.2,0,0.2,0.1l5.1,2.5  l-2.7-4.3c-0.1-0.2-0.1-0.4,0-0.6c0.6-0.8,1-1.7,1.2-2.6c-0.1,0-0.2-0.1-0.2-0.1c-0.1,0-0.2-0.1-0.4-0.2c-0.1-0.1-0.3-0.1-0.4-0.2  c-0.1-0.1-0.2-0.1-0.3-0.2c-0.1-0.1-0.3-0.1-0.4-0.2c-0.1-0.1-0.2-0.1-0.3-0.2c-0.1-0.1-0.3-0.2-0.4-0.3c-0.1-0.1-0.2-0.1-0.3-0.2  c-0.1-0.1-0.3-0.2-0.4-0.3c-0.1-0.1-0.2-0.1-0.3-0.2c-0.1-0.1-0.3-0.2-0.4-0.3c-0.1-0.1-0.1-0.1-0.2-0.2c-0.2-0.1-0.3-0.3-0.4-0.4  c0,0-0.1-0.1-0.1-0.1c-0.2-0.2-0.4-0.4-0.5-0.6c0,0-0.1-0.1-0.1-0.1c-0.1-0.1-0.2-0.3-0.4-0.4c-0.1-0.1-0.1-0.2-0.2-0.2  c-0.1-0.1-0.2-0.3-0.3-0.4c-0.1-0.1-0.1-0.2-0.2-0.3c-0.1-0.1-0.1-0.2-0.2-0.4c0-0.1-0.1-0.2-0.1-0.3c-0.1-0.1-0.1-0.2-0.2-0.4  c0-0.1-0.1-0.2-0.1-0.3c0-0.1-0.1-0.2-0.1-0.4c0-0.1-0.1-0.2-0.1-0.3c0-0.1-0.1-0.3-0.1-0.4c0-0.1,0-0.2-0.1-0.3  c0-0.1,0-0.3-0.1-0.4c0-0.1,0-0.2,0-0.3c0-0.1,0-0.1,0-0.2C18,23.3,17.2,23.3,16.4,23.3z"></path><path d="M64.4,21.5C64.4,21.5,64.4,21.5,64.4,21.5c-0.3-2.5-1.8-4.7-4.1-6.2c-0.8-0.5-1.6-1-2.5-1.3c-0.7-0.3-1.4-0.5-2.1-0.6  c-1.1-0.2-2.2-0.4-3.4-0.4c0,0,0,0,0,0c0,0,0,0,0,0c-0.4,0-0.7,0-1.1,0c-0.6,0-1.1,0.1-1.6,0.2c-0.5,0.1-1.1,0.2-1.6,0.4  c-2.3,0.7-4.3,1.9-5.7,3.4c-1.4,1.6-2.2,3.4-2.2,5.3c0,0.1,0,0.2,0,0.2l0,0.2c0.1,2,1,3.8,2.6,5.3c0.5,0.5,0.9,0.8,1.4,1.2  c0.2,0.1,0.2,0.3,0.2,0.5l-1.2,5l3.8-3.7c0.1-0.1,0.3-0.2,0.5-0.1c0.4,0.1,0.7,0.2,1.1,0.3c1.2,0.3,2.5,0.5,3.8,0.5  c5.8,0,10.8-3.2,12-7.5c0.2-0.6,0.2-1.2,0.2-1.9C64.4,22,64.4,21.8,64.4,21.5z"></path><path d="M40.9,16.4c-0.1-0.1-0.3-0.2-0.4-0.3c-0.2-0.1-0.3-0.2-0.5-0.4c-0.1-0.1-0.3-0.2-0.4-0.3c-0.2-0.1-0.4-0.2-0.6-0.3  c-0.2-0.1-0.3-0.2-0.5-0.3c-0.2-0.1-0.4-0.2-0.6-0.3c-0.2-0.1-0.3-0.1-0.5-0.2c-0.2-0.1-0.4-0.2-0.7-0.2c-0.2-0.1-0.3-0.1-0.5-0.2  c-0.2-0.1-0.5-0.1-0.7-0.2c-0.2,0-0.3-0.1-0.5-0.1c-0.3-0.1-0.6-0.1-0.8-0.1c-0.1,0-0.3,0-0.4-0.1c-0.4,0-0.9-0.1-1.3-0.1l-0.2,0  c-0.1,0-0.2,0-0.3,0c-1.7,0-3.3,0.3-4.9,0.8c-4.3,1.4-7.1,4.5-7.3,8.1l0,0.2c0,0.1,0,0.2,0,0.3c0,0,0,0.1,0,0.1l0,0.1  c0.1,3.6,3,6.8,7.2,8.3c0.3,0.1,0.6,0.2,0.9,0.3c0.1,0,0.2,0.1,0.3,0.2l3.1,4.3L31,32.7c0-0.1,0-0.3,0.1-0.4  c0.1-0.1,0.2-0.2,0.4-0.2l0.2,0c0.1,0,0.2,0,0.2,0c1.7,0,3.4-0.3,5-0.8c0.3-0.1,0.5,0,0.6,0.3l0.8,2l0.5-2.9c0-0.1,0.1-0.3,0.2-0.3  c1-0.5,1.8-1.2,2.5-1.9c-0.1-0.1-0.1-0.1-0.1-0.2c-0.1-0.1-0.2-0.2-0.3-0.3c-0.1-0.1-0.2-0.2-0.3-0.4c-0.1-0.1-0.2-0.2-0.2-0.3  c-0.1-0.1-0.2-0.3-0.3-0.4c-0.1-0.1-0.1-0.2-0.2-0.3c-0.1-0.1-0.1-0.3-0.2-0.4c-0.1-0.1-0.1-0.2-0.2-0.3c-0.1-0.1-0.1-0.3-0.2-0.4  c0-0.1-0.1-0.2-0.1-0.3c-0.1-0.1-0.1-0.3-0.1-0.4c0-0.1-0.1-0.2-0.1-0.3c0-0.2-0.1-0.3-0.1-0.5c0-0.1,0-0.2-0.1-0.3  c0-0.3-0.1-0.5-0.1-0.8l0-0.1c0-0.1,0-0.2,0-0.3c0-0.3,0-0.5,0-0.8c0-0.1,0-0.2,0-0.3c0-0.2,0-0.3,0.1-0.5c0-0.1,0-0.2,0.1-0.3  c0-0.2,0.1-0.3,0.1-0.5c0-0.1,0.1-0.2,0.1-0.3c0-0.1,0.1-0.3,0.1-0.4c0-0.1,0.1-0.2,0.1-0.3c0.1-0.1,0.1-0.3,0.2-0.4  c0.1-0.1,0.1-0.2,0.2-0.3c0.1-0.1,0.1-0.3,0.2-0.4c0.1-0.1,0.1-0.2,0.2-0.3c0.1-0.1,0.2-0.3,0.3-0.4c0.1-0.1,0.1-0.2,0.2-0.3  c0-0.1,0.1-0.1,0.1-0.2C41.1,16.6,41,16.5,40.9,16.4z"></path></svg>