<svg height='100px' width='100px'  fill="#1A1A1A" xmlns:dc="http://purl.org/dc/elements/1.1/" xmlns:cc="http://creativecommons.org/ns#" xmlns:rdf="http://www.w3.org/1999/02/22-rdf-syntax-ns#" xmlns:svg="http://www.w3.org/2000/svg" xmlns="http://www.w3.org/2000/svg" xmlns:sodipodi="http://sodipodi.sourceforge.net/DTD/sodipodi-0.dtd" xmlns:inkscape="http://www.inkscape.org/namespaces/inkscape" viewBox="0 0 16.933333 16.933334" version="1.1" x="0px" y="0px"><g transform="translate(0,-280.06665)"><path style="" d="m 3.504978,289.46564 a 2.04963,2.04963 0 0 0 -0.96312,0.31282 l 0.52204,0.71864 a 0.13229546,0.13229546 0 0 1 -0.21412,0.1554 l -0.52176,-0.71836 a 2.04963,2.04963 0 0 0 -0.5953,0.819 l 0.8447,0.27454 a 0.13229432,0.13229432 0 0 1 -0.0818,0.25158 l -0.8447,-0.27454 a 2.04963,2.04963 0 0 0 0,1.0126 l 0.8447,-0.27454 a 0.13229168,0.13229168 0 0 1 0.0818,0.25156 l -0.8447,0.27456 a 2.04963,2.04963 0 0 0 0.5953,0.81926 l 0.52176,-0.71864 a 0.13234309,0.13234309 0 0 1 0.21412,0.1556 l -0.52204,0.71836 a 2.04963,2.04963 0 0 0 0.96312,0.31284 v -0.8879 a 0.13229432,0.13229432 0 0 1 0.2644401,0 v 0.8879 a 2.04963,2.04963 0 0 0 0.9628198,-0.31284 l -0.52202,-0.71836 a 0.13233992,0.13233992 0 0 1 0.2141,-0.1556 l 0.5220402,0.71864 a 2.04963,2.04963 0 0 0 0.5952998,-0.81926 l -0.8446998,-0.27456 a 0.13229168,0.13229168 0 0 1 0.0818,-0.25156 l 0.84444,0.27454 a 2.04963,2.04963 0 0 0 0,-1.0126 l -0.84444,0.27454 a 0.13229432,0.13229432 0 0 1 -0.0818,-0.25158 l 0.8446998,-0.27454 a 2.04963,2.04963 0 0 0 -0.5952998,-0.819 l -0.5220402,0.71836 a 0.13229726,0.13229726 0 0 1 -0.2141,-0.1554 l 0.52202,-0.71864 a 2.04963,2.04963 0 0 0 -0.9628198,-0.31282 v 0.88818 a 0.13229432,0.13229432 0 0 1 -0.2644401,0 z m 0.1172,1.51576 a 0.52916979,0.52916979 0 0 1 0.5439,0.52968 0.52916979,0.52916979 0 1 1 -1.05826,0 0.52916979,0.52916979 0 0 1 0.51436,-0.52968 z" fill="#1A1A1A" stroke="none"></path><path style="" d="m 3.563218,288.93186 a 2.578799,2.578799 0 0 0 -2.50484,2.57922 2.578813,2.578813 0 1 0 5.15762,0 2.578799,2.578799 0 0 0 -2.65278,-2.57922 z m 0.01,0.26196 a 2.3142132,2.3142132 0 0 1 2.3779599,2.31726 2.31425,2.31425 0 1 1 -4.6284999,0 2.3142132,2.3142132 0 0 1 2.25054,-2.31726 z" fill="#1A1A1A" stroke="none"></path><path style="" d="m 13.163938,289.46564 a 2.04963,2.04963 0 0 0 -0.96284,0.31282 l 0.52202,0.71864 a 0.13229546,0.13229546 0 0 1 -0.21412,0.1554 l -0.52202,-0.71836 a 2.04963,2.04963 0 0 0 -0.59504,0.819 l 0.84444,0.27454 a 0.13229432,0.13229432 0 0 1 -0.0818,0.25158 l -0.84444,-0.27454 a 2.04963,2.04963 0 0 0 0,1.0126 l 0.84444,-0.27454 a 0.13229168,0.13229168 0 0 1 0.0818,0.25156 l -0.84444,0.27456 a 2.04963,2.04963 0 0 0 0.59504,0.81926 l 0.52202,-0.71864 a 0.13234306,0.13234306 0 0 1 0.21412,0.1556 l -0.52202,0.71836 a 2.04963,2.04963 0 0 0 0.96284,0.31284 v -0.8879 a 0.13235022,0.13235022 0 0 1 0.2647,0 v 0.8879 a 2.04963,2.04963 0 0 0 0.96282,-0.31284 l -0.52202,-0.71836 a 0.13234306,0.13234306 0 0 1 0.21412,-0.1556 l 0.52202,0.71864 a 2.04963,2.04963 0 0 0 0.59504,-0.81926 l -0.8447,-0.27456 a 0.13229168,0.13229168 0 0 1 0.0818,-0.25156 l 0.8447,0.27454 a 2.04963,2.04963 0 0 0 0,-1.0126 l -0.8447,0.27454 a 0.13229202,0.13229202 0 0 1 -0.0818,-0.25158 l 0.8447,-0.27454 a 2.04963,2.04963 0 0 0 -0.59504,-0.819 l -0.52202,0.71836 a 0.13229168,0.13229168 0 0 1 -0.21412,-0.1554 l 0.52202,-0.71864 a 2.04963,2.04963 0 0 0 -0.96282,-0.31282 v 0.88818 a 0.13235022,0.13235022 0 0 1 -0.2647,0 z m 0.1168,1.5163 a 0.52917199,0.52917199 0 0 1 0.54472,0.52914 0.52917199,0.52917199 0 1 1 -1.05826,0 0.52917199,0.52917199 0 0 1 0.51354,-0.52914 z" fill="#1A1A1A" stroke="none"></path><path style="" d="m 13.222178,288.93186 a 2.578799,2.578799 0 0 0 -2.50484,2.57922 2.57881,2.57881 0 1 0 5.15762,0 2.578799,2.578799 0 0 0 -2.65278,-2.57922 z m 0.01,0.26196 a 2.3142132,2.3142132 0 0 1 2.37798,2.31726 2.31425,2.31425 0 1 1 -4.6285,0 2.3142132,2.3142132 0 0 1 2.25052,-2.31726 z" fill="#1A1A1A" stroke="none"></path><path style="" d="m 13.560798,291.51098 a 0.26458339,0.26458339 0 1 0 -0.52916,0 0.26458339,0.26458339 0 1 0 0.52916,0 z" fill="#1A1A1A" stroke="none"></path><path style="" d="m 3.901718,291.51098 a 0.26458339,0.26458339 0 1 0 -0.52916,0 0.26458339,0.26458339 0 1 0 0.52916,0 z" fill="#1A1A1A" stroke="none"></path><path style="" d="m 13.775578,284.17454 a 1.1972683,1.1972683 0 1 0 -2.39452,0 1.1972683,1.1972683 0 1 0 2.39452,0 z" fill="#1A1A1A" stroke="none"></path><path style="" d="m 7.8043579,291.1557 a 0.39687506,0.39687506 0 0 0 0.3649602,0.55282 h 0.27486 l 0.1533998,0.6302 a 0.1322917,0.1322917 0 0 1 -0.1285999,0.1636 h -1.91682 a 0.1322917,0.1322917 0 0 1 -0.1316001,-0.1466 l 0.57428,-5.26984 a 0.1322917,0.1322917 0 0 1 0.0782,-0.1068 l 3.6745201,-1.6193 a 0.1322917,0.1322917 0 0 1 0.1088,10e-4 l 3.4418,1.58914 a 0.1322917,0.1322917 0 0 1 0.0596,0.1856 l -0.82852,1.45396 a 0.1322917,0.1322917 0 0 1 -0.1942,0.0406 l -1.86862,-1.39608 -2.0247002,0.93014 -0.7133399,-0.75896 a 0.13229262,0.13229262 0 0 0 -0.1928,0.1812 l 1.8047001,1.92014 a 0.1322917,0.1322917 0 0 1 0.03,0.1294 l -0.5249997,1.71466 a 0.1322917,0.1322917 0 0 1 -0.1264002,0.0936 h -1.54954 a 0.1322917,0.1322917 0 0 1 -0.1215999,-0.1842 l 0.5279999,-1.23566 a 0.1322917,0.1322917 0 0 0 -0.0334,-0.1506 l -1.00784,-0.90156 a 0.13229754,0.13229754 0 0 0 -0.1764001,0.1972 l 0.93712,0.83826 z" fill="#1A1A1A" stroke="none"></path></g></svg>