<svg xmlns="http://www.w3.org/2000/svg" xmlns:xlink="http://www.w3.org/1999/xlink" version="1.1" x="0px" y="0px" viewBox="0 0 512 512" style="enable-background:new 0 0 512 512;" xml:space="preserve"><g><path d="M439.1,387.4c-21.8,0-40,16-43.4,36.9h-96.3c-3.4-20.9-21.5-36.9-43.4-36.9s-40,16-43.4,36.9h-96.3   c-3.4-20.9-21.5-36.9-43.4-36.9c-24.2,0-43.9,19.7-43.9,43.9s19.7,43.9,43.9,43.9c21.8,0,40-16,43.4-36.9h96.3   c3.4,20.9,21.5,36.9,43.4,36.9s40-16,43.4-36.9h96.3c3.4,20.9,21.5,36.9,43.4,36.9c24.2,0,43.9-19.7,43.9-43.9   S463.3,387.4,439.1,387.4z M72.9,461.3c-16.5,0-29.9-13.4-29.9-29.9s13.4-29.9,29.9-29.9s29.9,13.4,29.9,29.9   S89.5,461.3,72.9,461.3z M256,461.3c-16.5,0-29.9-13.4-29.9-29.9s13.4-29.9,29.9-29.9s29.9,13.4,29.9,29.9S272.5,461.3,256,461.3z    M439.1,461.3c-16.5,0-29.9-13.4-29.9-29.9s13.4-29.9,29.9-29.9s29.9,13.4,29.9,29.9S455.6,461.3,439.1,461.3z"></path><path d="M255,180.8h2c26.5,0,48.1-21.6,48.1-48.1V114c0-26.5-21.6-48.1-48.1-48.1h-2c-26.5,0-48.1,21.6-48.1,48.1v18.8   C207,159.3,228.5,180.8,255,180.8z M221,114c0-18.8,15.3-34.1,34.1-34.1h2c18.8,0,34.1,15.3,34.1,34.1v18.8   c0,18.8-15.3,34.1-34.1,34.1h-2c-18.8,0-34.1-15.3-34.1-34.1V114z"></path><path d="M408.3,135.3l-27.5-0.1c0,0,0,0,0,0c-2.3,0-4.5,1.1-5.8,3c-1.3,1.9-1.6,4.3-0.8,6.5l6.6,17.2c1,2.7,3.6,4.5,6.5,4.5h14.3   c2.9,0,5.5-1.8,6.5-4.5l6.6-17.1c0.8-2.1,0.5-4.6-0.8-6.5C412.7,136.5,410.6,135.3,408.3,135.3z M396.8,152.5h-4.7l-1.2-3.2l7.1,0   L396.8,152.5z"></path><path d="M392.8,129.9h1.5c21.6,0,39.2-17.6,39.2-39.2V75.9c0-21.6-17.6-39.2-39.2-39.2h-1.5c-21.6,0-39.2,17.6-39.2,39.2v14.7   C353.6,112.3,371.2,129.9,392.8,129.9z M367.6,75.9c0-13.9,11.3-25.2,25.2-25.2h1.5c13.9,0,25.2,11.3,25.2,25.2v14.7   c0,13.9-11.3,25.2-25.2,25.2h-1.5c-13.9,0-25.2-11.3-25.2-25.2V75.9z"></path><path d="M133.1,135.3l-27.5-0.1c0,0,0,0,0,0c-2.3,0-4.5,1.1-5.8,3.1c-1.3,1.9-1.6,4.4-0.7,6.5l6.6,16.5c1.1,2.7,3.6,4.4,6.5,4.4   h14.3c2.9,0,5.4-1.7,6.5-4.4l6.6-16.4c0.9-2.2,0.6-4.6-0.7-6.5C137.6,136.5,135.4,135.3,133.1,135.3z M121.8,151.7h-4.8l-1-2.4   l6.8,0L121.8,151.7z"></path><path d="M117.7,129.9h1.5c21.6,0,39.2-17.6,39.2-39.2V75.9c0-21.6-17.6-39.2-39.2-39.2h-1.5c-21.6,0-39.2,17.6-39.2,39.2v14.7   C78.4,112.3,96,129.9,117.7,129.9z M92.4,75.9c0-13.9,11.3-25.2,25.2-25.2h1.5c13.9,0,25.2,11.3,25.2,25.2v14.7   c0,13.9-11.3,25.2-25.2,25.2h-1.5c-13.9,0-25.2-11.3-25.2-25.2V75.9z"></path><path d="M41,265.3h61.6l-0.6,7.4c-0.2,2.5,1,5,3.1,6.4l10.9,7.2c1.2,0.8,2.5,1.2,3.8,1.2c1.4,0,2.7-0.4,3.9-1.2l10.6-7.2   c2.1-1.4,3.3-3.8,3.1-6.4l-0.6-7.4h13.5v71c0,3.9,3.1,7,7,7h79.4c-0.1,2.4,1.1,4.7,3.2,6l13.9,9.1c1.2,0.8,2.5,1.1,3.8,1.1   c1.4,0,2.7-0.4,3.9-1.2l13.6-9.1c2-1.3,3.1-3.6,3.1-6h76.3c3.9,0,7-3.1,7-7v-71h16.1l-0.6,7.4c-0.2,2.5,1,5,3.1,6.4l10.9,7.2   c1.2,0.8,2.5,1.2,3.9,1.2c1.4,0,2.7-0.4,3.9-1.2l10.6-7.2c2.1-1.4,3.3-3.8,3.1-6.4l-0.6-7.4h59c3.9,0,7-3.1,7-7v-83.8   c0-22.9-18.7-41.6-41.6-41.6h-10.9c-2.9,0-5.6,1.8-6.6,4.6L404.8,176l-0.2-2c-0.3-3.6-3.3-6.4-7-6.4h-5.6c-3.6,0-6.7,2.8-7,6.4   l-0.3,4.3l-16.6-41.1c-1.1-2.6-3.6-4.4-6.5-4.4h-10.9c-22.9,0-41.6,18.7-41.6,41.6v14h-13.3c-3.2,0-6,2.2-6.8,5.3l-15,61.4   l-0.9-20.4c-0.2-3.7-3.2-6.6-6.9-6.7l-16.8-0.1c-3.7,0-6.9,2.9-7,6.6l-1.3,25l-18.1-65.9c-0.8-3-3.6-5.1-6.8-5.1h-13.3v-14   c0-22.9-18.7-41.6-41.6-41.6h-10.9c-2.9,0-5.6,1.8-6.6,4.6L129.7,176l-0.2-2c-0.3-3.6-3.3-6.4-7-6.4h-5.6c-3.6,0-6.7,2.8-7,6.4   l-0.3,4.3L93,137.2c-1.1-2.6-3.6-4.4-6.5-4.4H75.6c-22.9,0-41.6,18.7-41.6,41.6v83.8C34,262.1,37.1,265.3,41,265.3z M119.8,272   l-3.5-2.3l3.4-42.7l3.4,42.7L119.8,272z M395,272l-3.5-2.3l3.4-42.7l3.4,42.7L395,272z M430.3,146.8h6c15.2,0,27.6,12.4,27.6,27.6   v76.8h-53.1l-3.4-41.8L430.3,146.8z M350.7,146.8h6.2l25.3,62.6l-3.4,41.8h-17.3v-11.8c0-23.8-16.4-43.9-38.5-49.5v-15.5   C323.1,159.2,335.5,146.8,350.7,146.8z M301.3,202.4h9.2c20.4,0,37.1,16.6,37.1,37.1v89.7h-70l-1.2-23.4l-0.1-1.2L301.3,202.4z    M259.4,242l3,64.5l1.7,33.3l-6.4,4.3l-6.7-4.4l4.9-97.8L259.4,242z M238.7,304.2l-1.3,25h-73.1v-89.7c0-20.4,16.6-37.1,37.1-37.1   h9.4L238.7,304.2z M155.2,146.8h6c15.2,0,27.6,12.4,27.6,27.6V190c-22.1,5.6-38.5,25.7-38.5,49.5v11.8h-14.7l-3.4-41.8L155.2,146.8   z M48,174.5c0-15.2,12.4-27.6,27.6-27.6h6.2l25.3,62.6l-3.4,41.8H48V174.5z"></path><path d="M275.2,191.6l-35-0.1c0,0,0,0,0,0c-2.4,0-4.7,1.3-5.9,3.3c-1.3,2.1-1.4,4.6-0.3,6.8l9.1,18.2c1.2,2.4,3.6,3.9,6.2,3.9   l16.8,0.1c0,0,0,0,0.1,0c2.6,0,5.1-1.5,6.3-3.9l9.1-18.2c1.1-2.2,1-4.7-0.3-6.8S277.6,191.6,275.2,191.6z M261.8,209.8l-8.2-0.1   l-2.1-4.2l12.4,0L261.8,209.8z"></path></g></svg>