<svg height='100px' width='100px'  fill="#1A1A1A" xmlns="http://www.w3.org/2000/svg" xmlns:xlink="http://www.w3.org/1999/xlink" version="1.1" x="0px" y="0px" viewBox="0 0 285.471 318.741" style="enable-background:new 0 0 285.471 318.741;" xml:space="preserve"><g><path d="M156.599,98.256c-1.076-0.16-2.813,1.303-1.039,1.568c7.727,1.154,14.535-4.152,13.846-12.306   c-0.643-7.632-6.717-10.534-13.219-8.72c0.455-4.285-0.24-9.066-4.262-11.465c-3.336-1.988-7.6-2.166-11.285-1.123   c-7.465,2.117-12.182,8.361-8.061,14.711c-5.398-0.693-11.186,1.258-11.699,7.707c-0.439,5.484,2.906,9.254,7.619,9.406   c-3.512,3.105-4.004,7.807,0.355,11.541c5.228,4.479,12.496,2.139,16.852-2.248c0.121-0.125,0.193-0.232,0.234-0.332   c4.365,3.947,10.281,6.274,15.994,6.928c0.35,0.039,1.674-2.092,1.449-2.318c-3.594-3.635-9.947-9.572-9.865-15.051   c-0.004,0.254-1.469,1.439-1.48,2.186c-0.064,4.162,3.436,8.502,6.732,11.969c-5.541-1.504-10.834-4.572-14.252-9.172   c0.029,0.039-1.785,1.869-1.451,2.318c0.672,0.902,1.422,1.738,2.221,2.521c-0.584-0.076-1.383,0.064-1.709,0.396   c-3.816,3.844-9.961,5.295-13.68,0.393c-2.811-3.705-1.766-7.766,2.484-9.758c1.377-0.643,0.57-1.725-0.697-1.322   c-4.861,1.539-8.584-2.334-8.193-7.207c0.521-6.531,5.832-7.631,11.291-5.525c0.508,0.195,2.824-0.457,2.049-1.24   c-2.389-2.418-4.635-6.057-2.734-9.461c1.52-2.721,4.377-4.475,7.387-5.127c8.654-1.882,13.15,4.637,11.896,12.688   c-0.139,0.9,1.408,0.674,1.85,0.486C169.116,74.793,171.112,100.428,156.599,98.256z"></path><path d="M138.583,97.611c-0.633,1.77,0.723,0.746,1.09-0.281c1.715-4.795,7.436-6.356,11.543-3.729   c0.48,0.305,1.791-2.078,1.193-2.463C146.636,87.451,140.597,91.978,138.583,97.611z"></path><path d="M192.034,243.592h-60.378v68.762h60.378V243.592z M135.815,248.522h52.061v14.17h-52.061V248.522z M135.815,266.799h52.061   v14.17h-52.061V266.799z M135.815,284.667h52.061v14.17h-52.061V284.667z"></path><rect x="156.712" y="288.362" width="10.268" height="3.082"></rect><rect x="156.712" y="270.497" width="10.268" height="3.08"></rect><rect x="156.712" y="252.217" width="10.268" height="3.082"></rect><path d="M77.683,233.484h30.431c3.815,0,7.553,1.548,10.254,4.245c0.021,0.021,0.038,0.044,0.059,0.064h80.974v74.561h12v-74.561   h10.834v-9H77.683V233.484z"></path><path d="M253.971,63c17.396,0,31.5-14.104,31.5-31.5S271.367,0,253.971,0s-31.5,14.103-31.5,31.5S236.574,63,253.971,63z    M253.971,3.998c15.163,0,27.5,12.338,27.5,27.502S269.134,59,253.971,59c-15.164,0-27.502-12.336-27.502-27.5   S238.807,3.998,253.971,3.998z"></path><path d="M255.14,35.665c0.255,0,0.512-0.049,0.757-0.149c0.748-0.308,1.239-1.041,1.239-1.851v-23.5h-3.996v2v16.623l-9.782-9.922   l-2.848,2.809l13.203,13.395C254.096,35.458,254.614,35.665,255.14,35.665z"></path><path d="M34.093,262.484c-2.344,0-4.552-0.572-6.513-1.564v53.82c0,2.209,1.791,4,4,4h53.696c2.209,0,4-1.791,4-4v-52.257H34.093z"></path><path d="M69.342,158.219c0.403-0.046,0.759-0.069,1.107-0.069h0.166c2.857,0,5.856,1.022,8.028,2.741   c1.348,1.038,2.475,2.345,3.388,3.871c1.661-3.138,2.606-6.714,2.606-10.513c0-12.426-10.074-22.5-22.5-22.5   c-12.424,0-22.498,10.074-22.498,22.5c0,1.319,0.12,2.609,0.338,3.865h27.976C68.409,158.114,68.864,158.149,69.342,158.219z"></path><path d="M16.388,194.748c-0.001-0.002-0.002-0.003-0.002-0.005c-0.209-0.546-0.305-1.085-0.348-1.664   c-0.012-0.156-0.04-0.3-0.041-0.465c-0.01-1.383,0.459-3.217,1.525-5.227c0.963-1.86,2.43-3.795,4.07-5.514v66.111h0.001   c0,6.905,5.596,12.5,12.5,12.5h61.52v43.501c0,6.902,5.596,12.5,12.5,12.5c6.904,0,12.5-5.598,12.5-12.5v-56.001   c0-3.291-1.332-6.511-3.66-8.839c-2.328-2.326-5.549-3.661-8.84-3.661H75.683v-22.009c3.381,3.371,7.393,4.811,10.932,5.701   c4.029,0.963,7.816,1.146,10.73,1.156c2.975-0.002,5.02-0.224,5.23-0.246c4.395-0.482,7.563-4.434,7.08-8.824   c-0.484-4.393-4.438-7.563-8.83-7.078c-0.18,0.018-1.586,0.148-3.48,0.148c-2.104,0.006-4.84-0.184-6.98-0.711   c-2.199-0.486-3.445-1.4-3.449-1.521c-1.41-1.719-2.481-4.402-3.084-7.889c-0.945-5.225-0.703-11.67-0.951-17.512   c-0.184-2.973-0.328-5.801-1.654-9.139c-0.687-1.645-1.824-3.561-3.822-5.102c-1.975-1.563-4.686-2.35-6.953-2.309   c-0.389,0-0.768,0.038-1.141,0.09c-0.439-0.078-0.891-0.125-1.355-0.125H29.321c-0.605,0-1.191,0.076-1.758,0.209   c-3.078,0.422-5.555,1.594-8.113,3.002c-4.551,2.641-9.029,6.504-12.738,11.373c-3.641,4.856-6.66,10.83-6.712,17.915   c-0.001,0.395,0.03,0.796,0.052,1.195c0.111,2.127,0.527,4.307,1.321,6.429c0.035,0.103,0.062,0.207,0.102,0.31v-0.002   c2.002,5.193,6.098,9.666,11.686,13.033c1.943,1.177,4.09,2.243,6.432,3.218V198.61C17.631,197.093,16.802,195.783,16.388,194.748z   "></path><path d="M110.149,179.834H97.176v22.498c0.03,0,0.061,0.001,0.091,0.001c1.982,0,3.336-0.139,3.351-0.139   c0.185-0.02,0.373-0.02,0.561-0.03v-18.33h10.252c0.059,0.09,0.109,0.183,0.172,0.271c1.559,2.207,4.03,3.386,6.542,3.386   c1.595,0,3.206-0.476,4.608-1.466c1.059-0.747,2.097-1.471,3.131-2.191h25.957v31.998h-40.842c-0.363,0.91-0.863,1.771-1.494,2.557   c-1.67,2.086-4.056,3.395-6.711,3.686c-0.228,0.025-2.368,0.256-5.446,0.26c-0.907-0.004-1.984-0.027-3.171-0.091v1.257h64.666   v-4.666h-3v-39h-24.138c2.043-1.385,4.044-2.727,5.979-4.002c13.862-9.13,24.979-15.49,33.11-19.759   c4.383-2.302,7.883-3.989,10.496-5.185l7.93,49.353l-0.351,24.551h24.731l0.181-12.628l6.915-1.111l2.208,13.739h3.331v4.001v9   v4.001h-0.6l9.382,58.388c1.083,6.743,7.429,11.328,14.168,10.245c6.741-1.083,11.331-7.425,10.247-14.169l-25.7-159.949   l29.277-11.87c3.2-1.298,5.202-4.487,4.977-7.935l-2.668-40.831c-0.288-4.41-4.095-7.751-8.503-7.463   c-4.409,0.288-7.75,4.095-7.462,8.505l2.29,35.068l-31.4,12.729c-1.496,5.383-4.801,10.114-9.323,13.373l2.3,5.329l-0.214,0.498   c-1.339,1.536-3.128,2.486-5.031,2.794c-1.903,0.304-3.897-0.037-5.649-1.075l-0.361-0.409l0.284-3.191   c-0.567,0.133-1.141,0.254-1.725,0.348c-1.294,0.208-2.611,0.314-3.913,0.314c-7.1,0-13.521-3.009-18.012-7.902   c-7.56,3.183-30.067,13.65-65.077,38.363c-1.092,0.771-1.927,1.766-2.497,2.878C110.39,177.07,110.091,178.451,110.149,179.834z    M208.452,149.468l0.002-0.001c0,0,0.003,0,0.005-0.001c1.346-0.216,2.65-0.683,3.853-1.369l11.801,38.943l-7.477,13.355   l-11.283-10.342l-0.994-40.678C205.717,149.651,207.105,149.686,208.452,149.468z"></path><ellipse transform="matrix(0.9873 -0.1586 0.1586 0.9873 -16.2277 32.6883)" cx="196.638" cy="117.99" rx="22.5" ry="22.5"></ellipse></g></svg>