<svg xmlns:dc="http://purl.org/dc/elements/1.1/" xmlns:cc="http://creativecommons.org/ns#" xmlns:rdf="http://www.w3.org/1999/02/22-rdf-syntax-ns#" xmlns:svg="http://www.w3.org/2000/svg" xmlns="http://www.w3.org/2000/svg" xmlns:sodipodi="http://sodipodi.sourceforge.net/DTD/sodipodi-0.dtd" xmlns:inkscape="http://www.inkscape.org/namespaces/inkscape" viewBox="0 0 100 100" version="1.1" x="0px" y="0px"><g transform="translate(0,-952.36216)"><path style="color:#000000;font-style:normal;font-variant:normal;font-weight:normal;font-stretch:normal;font-size:medium;line-height:normal;font-family:sans-serif;text-indent:0;text-align:start;text-decoration:none;text-decoration-line:none;text-decoration-style:solid;text-decoration-color:#000000;letter-spacing:normal;word-spacing:normal;text-transform:none;direction:ltr;block-progression:tb;writing-mode:lr-tb;baseline-shift:baseline;text-anchor:start;white-space:normal;clip-rule:nonzero;display:inline;overflow:visible;visibility:visible;opacity:1;isolation:auto;mix-blend-mode:normal;color-interpolation:sRGB;color-interpolation-filters:linearRGB;solid-color:#000000;solid-opacity:1;fill:#000000;fill-opacity:1;fill-rule:nonzero;stroke:none;stroke-width:5.25;stroke-linecap:butt;stroke-linejoin:round;stroke-miterlimit:4;stroke-dasharray:none;stroke-dashoffset:0;stroke-opacity:1;color-rendering:auto;image-rendering:auto;shape-rendering:auto;text-rendering:auto;enable-background:accumulate" d="m 46.42189,957.36219 c -4.044803,0 -7.334515,3.2897 -7.334515,7.33451 0.0011,4.07004 3.290798,7.33452 7.334515,7.33452 4.07005,0 7.36879,-3.26448 7.36879,-7.33452 0,-4.04481 -3.29874,-7.33451 -7.36879,-7.33451 z m 28.607611,0.13061 a 1.6452895,1.6452895 0 0 0 -1.632273,1.54018 l -1.998569,25.7715 -0.394145,5.08745 c -4.804693,-5.62404 -8.063148,-9.57713 -13.930011,-14.88972 a 2.8792568,2.8792568 0 0 0 -2.107817,-0.76893 l -1.413779,-0.011 c -0.01236,-2.2e-4 -0.024,0 -0.03641,0 l -0.796859,0 -0.561228,0 0,0 -3.980002,0 0.207783,10.36347 c -0.727229,0.3942 -1.386716,0.89879 -1.947159,1.49949 -0.562304,-0.6028 -1.215746,-1.11889 -1.947161,-1.51239 l 0.207782,-10.35057 -5.338087,0 c -5.019781,0 -9.044756,1.36194 -11.845757,3.69719 -2.800991,2.3353 -4.276246,5.65369 -4.198496,8.94546 0.120429,5.09864 3.908541,9.78559 10.082817,11.64647 l 0,6.8418 1.116029,0 -1.263833,18.1692 -0.186362,2.6926 -0.201357,2.879 3.080325,0 3.472328,0 4.185643,0 0.475545,-23.7408 4.395569,0 0.325596,0 0.475545,23.7408 2.908958,0 4.749013,0 3.080326,0 -0.201357,-2.879 -0.09639,-1.3881 -0.246341,-3.5259 -1.109603,-15.9478 1.120314,0 0,-14.13772 c 0,-2.21057 -0.966943,-4.19705 -2.491252,-5.57794 l 0,0 -0.20564,-2.96467 c 4.594797,4.57406 7.73714,8.62051 13.593704,15.29884 l -1.681541,21.69489 -1.998571,25.7715 a 1.6452895,1.6452895 0 1 0 3.27954,0.2549 l 2.000712,-25.7714 1.559442,-20.10561 a 2.8796361,2.8796361 0 0 0 1.923596,-4.77475 c -0.543172,-0.61499 -0.925778,-1.07219 -1.426632,-1.64718 l 0.646911,-8.33491 1.99857,-25.77154 a 1.6452895,1.6452895 0 0 0 -1.486609,-1.7865 1.6452895,1.6452895 0 0 0 -0.1628,-0.011 z m -38.765401,22.74259 -0.374866,5.40458 0,0 c -1.523006,1.38089 -2.489108,3.36637 -2.489108,5.57584 l 0,1.29169 c -3.027617,-1.34849 -4.278073,-3.70706 -4.327022,-5.77934 -0.03674,-1.55528 0.569999,-3.08477 2.129237,-4.38492 1.110217,-0.92555 2.767486,-1.72289 5.061759,-2.10993 z m 4.67404,3.4444 c -0.249365,0 -0.49575,0.012 -0.739021,0.036 0.243148,-0.024 0.489569,-0.036 0.739021,-0.036 z m 11.003916,0 c 0.24931,0 0.496001,0.012 0.739021,0.036 -0.243272,-0.024 -0.489659,-0.036 -0.739021,-0.036 z m -0.882542,0.056 c -0.09206,0.011 -0.181026,0.031 -0.272045,0.045 0.09088,-0.014 0.180104,-0.034 0.272045,-0.045 z m -9.219555,0 c 0.05201,0.011 0.102557,0.016 0.15423,0.024 -0.05156,-0.011 -0.102348,-0.018 -0.15423,-0.024 z m -1.925738,0.018 c -0.149278,0.021 -0.299151,0.042 -0.445554,0.07 0.146551,-0.03 0.296062,-0.05 0.445554,-0.07 z m 13.051755,0 c 0.149413,0.021 0.299075,0.042 0.445554,0.07 -0.146405,-0.03 -0.296277,-0.05 -0.445554,-0.07 z m -2.782576,0.1414 c -0.08058,0.02 -0.160364,0.042 -0.239915,0.065 0.07975,-0.023 0.159132,-0.045 0.239915,-0.065 z m -11.03819,0.011 c -0.120213,0.03 -0.23983,0.059 -0.357729,0.094 0.117711,-0.036 0.237681,-0.065 0.357729,-0.094 z m 14.589774,0 c 0.11999,0.03 0.240074,0.059 0.35773,0.094 -0.117898,-0.035 -0.237517,-0.065 -0.35773,-0.094 z m -10.991063,0 c 0.0365,0.011 0.07297,0.017 0.109247,0.027 -0.03639,-0.011 -0.07264,-0.019 -0.109247,-0.027 z m -4.404136,0.2442 c -0.06174,0.023 -0.125394,0.042 -0.186362,0.067 0.06096,-0.024 0.124639,-0.043 0.186362,-0.067 z m 16.200627,0 c 0.06173,0.023 0.125401,0.042 0.186361,0.067 -0.06097,-0.024 -0.124629,-0.044 -0.186361,-0.067 z m -5.267401,0.03 c -0.03808,0.014 -0.07574,0.03 -0.11353,0.045 0.03776,-0.015 0.07548,-0.031 0.11353,-0.045 z m -11.648685,0.2764 c -0.02923,0.014 -0.05881,0.029 -0.08783,0.043 0.02893,-0.015 0.05868,-0.029 0.08783,-0.043 z m 3.313814,1.09678 c 3.1376,0 5.659401,2.52398 5.659401,5.66154 l 0,12.26129 -11.320945,0 0,-4.50477 c 1.282864,0.2481 2.640976,0.3963 4.084966,0.3963 a 2.8792568,2.8792568 0 1 0 0,-5.75794 c -1.566477,0 -2.914693,-0.1733 -4.084966,-0.4648 l 0,-1.93008 c 0,-3.13756 2.523906,-5.66154 5.661544,-5.66154 z m 11.003916,0 c 3.137612,0 5.661543,2.52398 5.661543,5.66154 l 0,12.26129 -9.129586,0 0,-12.26129 c 0,-1.28898 -0.327796,-2.50367 -0.90182,-3.56666 1.036344,-1.26969 2.594735,-2.09488 4.369863,-2.09488 z m -4.913955,1.24239 c 0.01307,0.018 0.02564,0.036 0.03856,0.054 -0.01279,-0.018 -0.02561,-0.036 -0.03856,-0.054 z m -10.545508,44.49124 0,11.9035 a 4.1132239,4.1132239 0 1 0 8.225625,0 l 0,-11.9035 -8.225625,0 z m 11.687243,0 0,11.9035 a 4.1132239,4.1132239 0 1 0 8.225625,0 l 0,-11.9035 -8.225625,0 z"></path></g></svg>