<svg height='100px' width='100px'  fill="#1A1A1A" xmlns="http://www.w3.org/2000/svg" xmlns:xlink="http://www.w3.org/1999/xlink" version="1.1" x="0px" y="0px" viewBox="0 0 100 100" enable-background="new 0 0 100 100" xml:space="preserve"><g><path d="M69,28.75c0-0.193-0.04-0.377-0.106-0.547c-0.003-0.008-0.004-0.016-0.007-0.023c-0.076-0.185-0.188-0.352-0.327-0.491   l-4.999-4.999c-0.586-0.586-1.535-0.586-2.121,0c-0.586,0.585-0.586,1.536,0,2.121l2.439,2.439H27.5c-6.341,0-11.5,5.159-11.5,11.5   s5.159,11.5,11.5,11.5c9.735,0,17.72,7.563,18.43,17.12c-5.6,0.77-9.93,5.573-9.93,11.38c0,6.341,5.159,11.5,11.5,11.5   c6.341,0,11.5-5.159,11.5-11.5c0-5.855-4.403-10.694-10.071-11.401C48.201,56.146,38.882,47.25,27.5,47.25   c-4.687,0-8.5-3.813-8.5-8.5s3.813-8.5,8.5-8.5h36.379l-2.439,2.439c-0.586,0.585-0.586,1.536,0,2.121   c0.293,0.293,0.677,0.439,1.061,0.439s0.768-0.146,1.061-0.439l4.999-4.999c0.14-0.139,0.251-0.306,0.327-0.491   c0.003-0.008,0.004-0.016,0.007-0.023C68.96,29.127,69,28.943,69,28.75z M56,78.75c0,4.687-3.813,8.5-8.5,8.5   c-4.687,0-8.5-3.813-8.5-8.5s3.813-8.5,8.5-8.5C52.187,70.25,56,74.063,56,78.75z"></path><path d="M82.5,17.25c-6.341,0-11.5,5.159-11.5,11.5s5.159,11.5,11.5,11.5S94,35.091,94,28.75S88.841,17.25,82.5,17.25z M82.5,37.25   c-4.687,0-8.5-3.813-8.5-8.5s3.813-8.5,8.5-8.5s8.5,3.813,8.5,8.5S87.187,37.25,82.5,37.25z"></path><path d="M58.561,37.689c-0.586-0.586-1.535-0.586-2.121,0L52.5,41.629l-3.939-3.939c-0.586-0.586-1.535-0.586-2.121,0   c-0.586,0.585-0.586,1.536,0,2.121l3.939,3.939l-3.939,3.939c-0.586,0.585-0.586,1.536,0,2.121   c0.293,0.293,0.677,0.439,1.061,0.439s0.768-0.146,1.061-0.439l3.939-3.939l3.939,3.939c0.293,0.293,0.677,0.439,1.061,0.439   s0.768-0.146,1.061-0.439c0.586-0.585,0.586-1.536,0-2.121l-3.939-3.939l3.939-3.939C59.146,39.225,59.146,38.275,58.561,37.689z"></path><path d="M16.439,22.311c0.293,0.293,0.677,0.439,1.061,0.439s0.768-0.146,1.061-0.439l3.939-3.939l3.939,3.939   c0.293,0.293,0.677,0.439,1.061,0.439s0.768-0.146,1.061-0.439c0.586-0.585,0.586-1.536,0-2.121l-3.939-3.939l3.939-3.939   c0.586-0.585,0.586-1.536,0-2.121c-0.586-0.586-1.535-0.586-2.121,0L22.5,14.129l-3.939-3.939c-0.586-0.586-1.535-0.586-2.121,0   c-0.586,0.585-0.586,1.536,0,2.121l3.939,3.939l-3.939,3.939C15.854,20.775,15.854,21.725,16.439,22.311z"></path><path d="M18.561,52.689c-0.586-0.586-1.535-0.586-2.121,0L12.5,56.629l-3.939-3.939c-0.586-0.586-1.535-0.586-2.121,0   s-0.586,1.535,0,2.121l3.939,3.939l-3.939,3.939c-0.586,0.586-0.586,1.535,0,2.121C6.732,65.104,7.116,65.25,7.5,65.25   s0.768-0.146,1.061-0.439l3.939-3.939l3.939,3.939c0.293,0.293,0.677,0.439,1.061,0.439s0.768-0.146,1.061-0.439   c0.586-0.586,0.586-1.535,0-2.121l-3.939-3.939l3.939-3.939C19.146,54.225,19.146,53.275,18.561,52.689z"></path></g></svg>