<svg xmlns="http://www.w3.org/2000/svg" data-name="Layer 1" viewBox="0 0 100 100" x="0px" y="0px"><title>107all</title><path d="M97.78,77.32a2,2,0,0,0-.14-.51h0L81.1,38.66a2,2,0,0,0,.05-.22,2,2,0,0,0-1.69-2.27L58.52,33.12a8.06,8.06,0,0,0-6-7V14a2,2,0,0,0-4,0v12.1a8.08,8.08,0,0,0-5.45,4.76l-21.93-3.2a2,2,0,0,0-2.29,2.08l-16.47,38h0a2,2,0,0,0-.14.51s0,.09,0,.13,0,.09,0,.14a2,2,0,0,0,0,.33s0,0,0,.05a2,2,0,0,0,.17.49l.06.11a2,2,0,0,0,.32.43l2.5,2.5a22.2,22.2,0,0,0,31.36,0l2.5-2.5a2,2,0,0,0,.32-.43l.06-.1a2,2,0,0,0,.17-.49s0,0,0,0a2,2,0,0,0,0-.33s0-.09,0-.14,0-.09,0-.13a2,2,0,0,0-.14-.51h0L24.13,32.14l18.38,2.68A8,8,0,0,0,57.9,37.07l18.59,2.71-16.06,37h0a2,2,0,0,0-.14.51s0,.09,0,.13,0,.09,0,.14a2,2,0,0,0,0,.33s0,0,0,.05a2,2,0,0,0,.17.49l.06.11a2,2,0,0,0,.32.43l2.5,2.5a22.2,22.2,0,0,0,31.36,0l2.5-2.5a2,2,0,0,0,.32-.43l.06-.11a2,2,0,0,0,.17-.49s0,0,0-.05a2,2,0,0,0,0-.33s0-.09,0-.14S97.78,77.36,97.78,77.32Zm-63.1-10.8H7.24L21,34.89Zm30.64,9.08L79,44,92.76,75.59Z"></path></svg>