<svg xmlns="http://www.w3.org/2000/svg" xmlns:xlink="http://www.w3.org/1999/xlink" version="1.1" x="0px" y="0px" viewBox="0 0 100 100" enable-background="new 0 0 100 100" xml:space="preserve"><g><path fill="#000000" d="M73,16.9c3.7-1.6,5.8,0.7,5.8,0.7V6.9c0,0-1.3-2.4-6.2-0.2c-5,2.1-8-1-8-1V17C64.7,17,67.5,19.3,73,16.9z"></path><path fill="#000000" d="M92.4,69.4C88.1,56.6,57.2,51.8,49.9,49c-5.6-2.1-12.2-7.7,20-19.3c1.1-0.4,0.8-2-0.4-2h-6.5V6.1   c0-0.6-0.5-1.1-1.1-1.1C61.5,5,61,5.5,61,6.1v22.1c-0.5,0.2-1,0.3-1.2,0.4c-0.9,0.4-2.1,0.8-3.3,1.3c-1.3,0.5-2.2,0.9-2.8,1.2   c-0.2,0.1-0.3,0.1-0.5,0.1h-2.7c-0.1,0-0.1-0.1,0-0.2l5.7-2c1.2-0.5,2.5-0.9,3.4-1.3c0.1,0,0.3-0.1,0.4-0.1h-4.2   c-1.1,0-2.1,0.2-3.2,0.5C40.8,31.7,19.7,38,21.8,48.2c2.8,14,41.6,21,24.7,28.9C36.4,81.8,19.6,88.1,7.7,92c-1.7,0.5-1.3,3,0.5,3   h61.2c2,0,3.9-0.5,5.7-1.5C81.7,89.6,95.8,79.3,92.4,69.4z M40.1,52.4h-2.9c-0.1,0-0.2,0-0.3-0.1c-0.1-0.1-0.3-0.2-0.4-0.3   c-0.8-0.6-1.9-1.4-2.9-2.5c-0.5-0.5-0.9-1.1-1.2-1.7c-0.3-0.6-0.5-1.3-0.6-1.9c0,0-0.1-0.6,0-1.3c0-0.1,0.1-0.2,0.2-0.2h1.2   c0.1,0,0.1,0.1,0.1,0.2c0,0.6,0.1,1.1,0.1,1.1c0.1,0.4,0.2,0.7,0.5,1.3c0.2,0.5,0.6,0.9,1,1.4c0.8,0.9,1.7,1.6,2.5,2.2   c0.6,0.4,2,1.2,2.7,1.6C40.2,52.3,40.1,52.4,40.1,52.4z M38.5,39.2c-0.6,0.4-1,0.8-1.2,0.9c-0.1,0.1-0.2,0.1-0.2,0.1h-2.2   c-0.1,0-0.1-0.1,0-0.1c0.6-0.4,2.2-1.5,2.9-2c0.8-0.6,2-1.3,3.1-1.9c1.2-0.7,2.3-1.3,3.2-1.7c0.1-0.1,0.3-0.1,0.4-0.2   c0.1,0,0.2-0.1,0.3-0.1l2.4,0c0.1,0,0.1,0.1,0,0.1c-0.5,0.2-1.9,0.8-2.5,1.2c-0.9,0.5-2,1.1-3.1,1.8C40.3,37.9,39.2,38.6,38.5,39.2   z M49.9,58.9c-0.5-0.2-1.1-0.5-1.7-0.7c-1.2-0.5-2.4-1.1-3.3-1.5c-0.7-0.3-1.7-0.8-2.2-1c-0.1,0,0-0.1,0-0.1l3.9,0   c0.1,0,0.2,0,0.4,0.1c0.6,0.3,1.3,0.5,1.9,0.8c1.7,0.7,4.6,1.9,6.1,2.5c0.1,0,0.1,0.2,0,0.2h-4.1C50.6,59.1,50.2,59,49.9,58.9z    M63.3,85c-1.6,1.1-6.6,4.5-8,5.4c-0.2,0.2-0.5,0.2-0.8,0.2h-4.4c-0.2,0-0.3-0.2-0.1-0.3c1.8-1.1,7.4-4.7,8.6-5.5   c0.2-0.1,0.3-0.2,0.5-0.2h4C63.4,84.7,63.5,84.9,63.3,85z M64.5,65.3c-0.3-0.1-0.6-0.3-0.9-0.4c-1.7-0.8-4-1.8-5.3-2.4   c-0.1-0.1-0.1-0.3,0.1-0.3h4.3c0.2,0,0.4,0,0.6,0.1c0.4,0.2,0.8,0.4,1.3,0.5c0.6,0.3,1.2,0.5,1.8,0.8c0.6,0.3,1.1,0.5,1.6,0.8   c0.6,0.3,1.9,1.1,2.6,1.5c0.1,0.1,0.1,0.3-0.1,0.3h-3.3c-0.4,0-0.8-0.1-1.2-0.3c-0.2-0.1-0.4-0.2-0.6-0.3   C65.1,65.5,64.8,65.4,64.5,65.3z M74.2,72.6c0,0.6-0.2,1.3-0.5,2c-0.3,0.7-0.6,1.3-1,1.9c-0.8,1.2-1.8,2.2-2.5,2.9   c-0.3,0.3-0.6,0.6-0.8,0.8c-0.2,0.2-0.4,0.2-0.6,0.2h-3.1c-0.2,0-0.3-0.2-0.1-0.4c0.9-0.7,2.4-2.1,2.9-2.5c0.7-0.6,1.5-1.6,2.2-2.5   c0.9-1.2,1.1-2.9,1.1-3.6c0-0.1,0.1-0.2,0.2-0.2H74c0.1,0,0.2,0.1,0.2,0.2C74.2,71.7,74.2,72.1,74.2,72.6z"></path></g></svg>