<?xml version="1.0" encoding="utf-8"?>
<!-- Generator: Adobe Illustrator 24.1.2, SVG Export Plug-In . SVG Version: 6.00 Build 0)  -->
<svg version="1.1" id="Layer_1" xmlns="http://www.w3.org/2000/svg" xmlns:xlink="http://www.w3.org/1999/xlink" x="0px" y="0px"
	 viewBox="0 0 100 100" style="enable-background:new 0 0 100 100;" xml:space="preserve">
<style type="text/css">
	.st0{display:none;fill:#1A1A1A;}
	.st1{fill:#AA1F23;}
</style>
<path class="st0" d="M70.1,26c-1-1-2.1-1.9-3.3-2.7l-0.4,20.6c0,0.4-0.2,0.8-0.4,1c-0.3,0.2-0.6,0.4-1.1,0.4c-0.4,0-0.8-0.2-1-0.5
	c-0.3-0.3-0.5-0.6-0.5-1l0.5-22.5c-2.4-1.5-5.1-2.8-7.8-3.8L55.5,44c0,0.4-0.1,0.8-0.4,1c-0.3,0.2-0.7,0.4-1,0.4
	c-0.5,0-0.8-0.2-1-0.5c-0.3-0.3-0.4-0.7-0.4-1L53,16.5c-2.5-0.8-5.2-1.4-8-1.7L44.5,44c0,0.4-0.1,0.8-0.5,1c-0.3,0.2-0.6,0.4-1,0.4
	c-0.5,0-0.8-0.2-1.1-0.5s-0.4-0.7-0.4-1l0.6-29.5c-1.8-0.1-3.8-0.2-5.7-0.2c-0.7,0-1.5,0-2.2,0.1L33.5,44c0,0.4-0.2,0.8-0.5,1
	s-0.6,0.4-1,0.4c-0.5,0-0.8-0.2-1-0.5c-0.3-0.3-0.5-0.7-0.5-1l0.6-29.6c-2.8,0.2-5.5,0.6-8,1.2L22.5,44c0,0.4-0.1,0.8-0.5,1
	c-0.3,0.2-0.6,0.4-1,0.4c-0.5,0-0.8-0.2-1-0.5c-0.3-0.3-0.5-0.7-0.5-1L20,16.4c-4.7,1.4-9,3.4-13,6H6.9c2.5,3.9,3.7,8.5,3.7,13.7
	c0,6.4-1.9,11.9-5.8,16.5c-1.4,1.6-2.7,2.9-4.3,3.9c1.7,1.9,3.8,3.8,6.4,5.5c3.5,2.4,7.4,4.3,11.7,5.7v4.7h11.1v-4h30v4h11.1v-4H88
	c0.3-0.9,0.5-1.8,0.5-2.9c0-2.4-0.9-4.6-2.7-6.3c-1.7-1.7-3.8-2.6-6.3-2.6c-1.9,0-3.7,0.5-5.2,1.7v-4.8c2.2-3.4,3.3-7.1,3.3-11.2
	c0-5.7-2.2-10.9-6.7-15.4C70.7,26.6,70.4,26.3,70.1,26L70.1,26z M8.1,57.8c-0.5-0.5-0.7-1-0.7-1.6c0-0.7,0.2-1.2,0.7-1.6
	c0.5-0.5,1.1-0.7,1.8-0.7s1.3,0.2,1.8,0.7s0.8,1,0.8,1.6s-0.2,1.2-0.8,1.6c-0.5,0.5-1.1,0.7-1.8,0.7S8.6,58.2,8.1,57.8L8.1,57.8z"/>
<path class="st1" d="M21.4,10.3c-1.4,6.1-2.1,13.5-2.1,22.1c0,8.7,0.7,16,2.1,22.1c0.9,4.3,2,7.1,3.2,8.4c-1.1,2.4-1.8,5.1-2.1,7.9
	c-0.1,0.2-0.1,0.4-0.1,0.6c-0.1,1-0.1,2-0.1,3.1c0,6.3,1.6,11.6,4.9,16c1,1.3,1.9,2.3,2.9,3.2v4.9h25.4v-7.3h-5.3
	c0.2-0.3,0.4-0.5,0.6-0.8c2.1-2.8,3.5-6,4.2-9.6l2.3,5.3h2.5l1.4-3.3V62h10.6c2-2.2,2.9-4.9,2.9-7.9c0-3.4-1.2-6.2-3.7-8.5
	s-5.4-3.4-8.9-3.4c-2.3,0.1-4.5,0.6-6.4,1.8h-8v5.6h2.9c-0.7,1.6-1.1,3.2-1.1,5.1c0,0.1,0,0.3,0,0.3h-2.2c-0.1-0.1-0.2-0.2-0.4-0.3
	c-0.5-0.4-1-0.8-1.6-1.1c-2-1.1-4.1-1.7-6.5-1.7c-2.1,0-4,0.4-5.8,1.3c-0.1,0.1-0.1,0.1-0.2,0.1c-0.3,0.2-0.6,0.4-0.8,0.6
	c-0.3,0.3-0.7,0.5-1,0.8c0-0.1,0-0.3,0.1-0.4c1.3-6.1,2-13.4,2-22.1c0-8.6-0.7-16-2-22.1S28.1,1,26.2,1C24.3,1.2,22.7,4.2,21.4,10.3
	L21.4,10.3z M66.2,49.5c0,0.5-0.2,0.9-0.6,1.3c-0.4,0.4-0.9,0.6-1.5,0.6s-1.1-0.2-1.5-0.6C62.2,50.5,62,50,62,49.5s0.2-1,0.6-1.3
	c0.4-0.3,0.9-0.5,1.5-0.5s1.1,0.2,1.5,0.5C66,48.6,66.2,49,66.2,49.5L66.2,49.5z"/>
</svg>
