<svg xmlns="http://www.w3.org/2000/svg" xmlns:xlink="http://www.w3.org/1999/xlink" version="1.1" x="0px" y="0px" viewBox="0 0 32 32" enable-background="new 0 0 32 32" xml:space="preserve"><g display="none"><rect x="-250.495" y="-171" display="inline" fill="#000000" width="405.75" height="212.25"></rect></g><g display="none"><g display="inline"><path fill="#000000" d="M16,31C7.729,31,1,24.271,1,16S7.729,1,16,1s15,6.729,15,15S24.272,31,16,31z"></path><g><path fill="#000000" d="M16,2c7.72,0,14,6.28,14,14s-6.28,14-14,14C8.28,30,2,23.72,2,16S8.28,2,16,2 M16,0C7.163,0,0,7.163,0,16     s7.163,16,16,16c8.837,0,16-7.163,16-16S24.837,0,16,0L16,0z"></path></g></g><circle display="inline" cx="10.329" cy="12.623" r="2.785"></circle><circle display="inline" cx="21.601" cy="12.623" r="2.785"></circle><line display="inline" fill="none" stroke="#000000" stroke-width="2" stroke-miterlimit="10" x1="6.287" y1="9.839" x2="14.37" y2="9.839"></line><line display="inline" fill="none" stroke="#000000" stroke-width="2" stroke-miterlimit="10" x1="17.423" y1="11.716" x2="25.506" y2="9.549"></line><polyline display="inline" fill="none" stroke="#000000" stroke-width="2" stroke-miterlimit="10" points="16.131,18.328    16.131,22.995 19.046,22.995  "></polyline></g><g><g><g><path d="M16,2c7.72,0,14,6.28,14,14s-6.28,14-14,14S2,23.72,2,16S8.28,2,16,2 M16,0C7.163,0,0,7.163,0,16s7.163,16,16,16     c8.837,0,16-7.163,16-16S24.837,0,16,0L16,0z"></path></g></g><g><g><rect x="12.486" y="21.87" width="7.028" height="2"></rect></g></g><g><circle cx="10.329" cy="12.623" r="2.785"></circle></g><g><circle cx="21.601" cy="12.623" r="2.785"></circle></g><g><rect x="6.286" y="8.839" width="8.084" height="2"></rect></g><g><rect x="20.465" y="6.448" transform="matrix(0.2588 0.9659 -0.9659 0.2588 26.1793 -12.8528)" width="2" height="8.368"></rect></g></g><g display="none"><g display="inline"><g><path fill="#000000" d="M16,31C7.729,31,1,24.271,1,16S7.729,1,16,1s15,6.729,15,15S24.272,31,16,31z"></path><g><path fill="#000000" d="M16,2c7.72,0,14,6.28,14,14s-6.28,14-14,14S2,23.72,2,16S8.28,2,16,2 M16,0C7.163,0,0,7.163,0,16      s7.163,16,16,16c8.837,0,16-7.163,16-16S24.837,0,16,0L16,0z"></path></g></g><line fill="#000000" stroke="#1A1718" stroke-width="2" stroke-miterlimit="10" x1="12.486" y1="22.87" x2="19.514" y2="22.87"></line></g><g display="inline"><circle fill="#000000" cx="10.329" cy="12.623" r="2.785"></circle></g><g display="inline"><circle fill="#000000" cx="21.601" cy="12.623" r="2.785"></circle></g><line display="inline" fill="#000000" stroke="#1A1718" stroke-width="2" stroke-miterlimit="10" x1="6.287" y1="9.839" x2="14.37" y2="9.839"></line><line display="inline" fill="#000000" stroke="#1A1718" stroke-width="2" stroke-miterlimit="10" x1="17.423" y1="11.716" x2="25.506" y2="9.549"></line></g><g display="none"><path display="inline" d="M16,0C7.163,0,0,7.163,0,16s7.163,16,16,16s16-7.163,16-16S24.837,0,16,0z M10.329,14.408   c-1.538,0-2.785-1.247-2.785-2.785c0-0.683,0.255-1.3,0.663-1.784H6.286v-2h8.084v2h-1.92c0.408,0.484,0.663,1.102,0.663,1.784   C13.113,13.161,11.866,14.408,10.329,14.408z M19.514,23.87h-7.028v-2h7.028V23.87z M24.386,11.623   c0,1.538-1.247,2.785-2.785,2.785c-1.538,0-2.785-1.247-2.785-2.785c0-0.086,0.018-0.168,0.025-0.253l-1.16,0.311L17.164,9.75   l8.083-2.167l0.518,1.932l-1.892,0.507C24.194,10.475,24.386,11.026,24.386,11.623z"></path></g></svg>