<svg height='100px' width='100px'  fill="#1A1A1A" xmlns:rdf="http://www.w3.org/1999/02/22-rdf-syntax-ns#" xmlns="http://www.w3.org/2000/svg" xmlns:cc="http://creativecommons.org/ns#" xmlns:dc="http://purl.org/dc/elements/1.1/" version="1.1" x="0px" y="0px" viewBox="0 0 100 100"><path style="baseline-shift:baseline;block-progression:tb;color:#000000;direction:ltr;text-indent:0;enable-background:accumulate;text-transform:none;" fill="#1A1A1A" d="m50,20.926c-2.8713,0-5.7597,0.4436-7.875,1.3125l-32.375,13.313c-1.0577,0.4345-1.832,0.9211-2.2812,1.375-0.4496,0.4539-0.5625,0.82645-0.5625,1.1562,0,0.3296,0.1129,0.70235,0.5625,1.1562,0.4493,0.4539,1.2236,0.97185,2.2812,1.4062l32.375,13.282c4.2308,1.7382,11.488,1.7382,15.719,0l32.406-13.281c1.0577-0.4344,1.8005-0.95235,2.25-1.4062,0.4495-0.4539,0.59375-0.82665,0.59375-1.1562,0-0.3297-0.14425-0.70235-0.59375-1.1562-0.4495-0.4539-1.1923-0.9405-2.25-1.375l-32.406-13.313c-2.116-0.869-4.973-1.313-7.844-1.313zm-34.312,24.125-5.938,2.407c-1.0575,0.4344-1.8005,0.9205-2.25,1.375-0.4495,0.4544-0.59375,0.82515-0.59375,1.1562,0,0.3311,0.14425,0.70195,0.59375,1.1562,0.4495,0.4545,1.1925,0.97185,2.25,1.4062l6.1875,2.5625a0.90009,0.90009,0,0,1,0.09375,0.03125l26.093,10.719c4.231,1.7382,11.488,1.7382,15.719,0l26.125-10.719,6.281-2.594c1.0575-0.4344,1.8005-0.95155,2.25-1.4062,0.4495-0.4545,0.59375-0.82515,0.59375-1.1562,0-0.3311-0.14425-0.70195-0.59375-1.1562-0.4495-0.4545-1.1925-0.9408-2.25-1.375l-5.938-2.407-25.781,10.563c-4.8589,1.9962-12.235,1.9962-17.094,0l-25.75-10.562zm0,11.906l-5.938,2.407c-1.0575,0.4344-1.8005,0.9205-2.25,1.375s-0.59375,0.82515-0.59375,1.1562c0,0.3312,0.14425,0.70175,0.59375,1.1562,0.4495,0.4545,1.1925,0.97165,2.25,1.4062l32.375,13.312c4.231,1.7382,11.488,1.7382,15.719,0l32.406-13.311c1.0575-0.4345,1.8005-0.95175,2.25-1.4062,0.4495-0.4545,0.59375-0.82505,0.59375-1.1562,0-0.3311-0.14425-0.70175-0.59375-1.1562-0.4495-0.4545-1.1925-0.9406-2.25-1.375l-5.9375-2.4062-25.781,10.562c-4.8589,1.9963-12.235,1.9963-17.094,0l-25.75-10.562z"></path></svg>