<svg xmlns="http://www.w3.org/2000/svg" xmlns:xlink="http://www.w3.org/1999/xlink" version="1.1" x="0px" y="0px" viewBox="0 0 50 50" enable-background="new 0 0 50 50" xml:space="preserve"><g><circle cx="17" cy="4.5" r="0.8"></circle><path d="M8.4,17.2H24c0.6,0,1-0.4,1-1s-0.4-1-1-1H8.4c-0.6,0-1,0.4-1,1S7.9,17.2,8.4,17.2z"></path><path d="M8.4,22.8h10.7c0.6,0,1-0.4,1-1s-0.4-1-1-1H8.4c-0.6,0-1,0.4-1,1S7.9,22.8,8.4,22.8z"></path><path d="M8.4,28.3H24c0.6,0,1-0.4,1-1s-0.4-1-1-1H8.4c-0.6,0-1,0.4-1,1S7.9,28.3,8.4,28.3z"></path><path d="M15.8,32.8c0-0.6-0.4-1-1-1H8.4c-0.6,0-1,0.4-1,1s0.4,1,1,1h6.4C15.4,33.8,15.8,33.4,15.8,32.8z"></path><path d="M47.1,29.8H31.9V9.4c0-2.1-1.7-3.8-3.8-3.8h-3.2V4.3c0-0.6-0.4-1-1-1h-2.8c-0.7-1.6-2.3-2.8-4.1-2.8s-3.4,1.1-4.1,2.8H10   c-0.6,0-1,0.4-1,1v1.3H5.7c-2.1,0-3.8,1.7-3.8,3.8v35.2c0,2.1,1.7,3.8,3.8,3.8h14.7c6.3,3.2,13.9-0.6,14.9-7.4   c0.3-2.2,2.2-3.9,4.6-4.2l7.2-0.7c0.5-0.1,0.9-0.5,0.9-1v-4.2C48.1,30.3,47.6,29.8,47.1,29.8z M11,5.3c0.4,0,2,0,3,0   c0.4,0,0.7-0.3,0.8-0.6c0.2-1,0.7-2.1,2.3-2.1c1.6,0,2,1.1,2.3,2.1C19.3,5,19.7,5.3,20,5.3c1,0,2.9,0,2.9,0v4.9H11   C11,10,11,5.2,11,5.3z M5.7,46.4c-1,0-1.8-0.8-1.8-1.8V9.4c0-1,0.8-1.8,1.8-1.8H9v3.6c0,0.6,0.4,1,1,1h13.9c0.6,0,1-0.4,1-1V7.6   h3.2c1,0,1.8,0.8,1.8,1.8v20.5h-4.5c-5.5,0-10.1,4-10.5,9.1c-0.2,2.8,0.8,5.5,2.8,7.4H5.7z M46.1,34.2l-6.3,0.7   c-3.3,0.3-5.9,2.8-6.4,5.9c-0.9,5.6-7.2,8.5-12.3,5.8c-2.8-1.5-4.4-4.4-4.2-7.4c0.3-4.1,4-7.2,8.5-7.2h20.6V34.2z"></path><path d="M19.6,39.3c0,0.6,0.4,1,1,1s1-0.4,1-1c0-2.2,1.8-3.9,3.9-3.9c0.6,0,1-0.4,1-1s-0.4-1-1-1C22.3,33.4,19.6,36.1,19.6,39.3z"></path></g></svg>