<svg xmlns="http://www.w3.org/2000/svg" xmlns:xlink="http://www.w3.org/1999/xlink" version="1.1" x="0px" y="0px" viewBox="0 0 64 64" style="enable-background:new 0 0 64 64;" xml:space="preserve"><g><path d="M25.7001953,39.2900391C25.6601563,39.25,25.609375,39.2001953,25.5498047,39.1699219   C25.5,39.1298828,25.4394531,39.0996094,25.3798828,39.0800781c-0.0605469-0.0302734-0.1201172-0.0498047-0.1904297-0.0605469   c-0.3193359-0.0693359-0.6699219,0.0400391-0.8994141,0.2705078c-0.0898438,0.0996094-0.1601563,0.2001953-0.2099609,0.3300781   C24.0195313,39.7402344,24,39.8701172,24,40c0,0.2695313,0.0996094,0.5195313,0.2900391,0.7099609   C24.4794922,40.8994141,24.7294922,41,25,41c0.2695313,0,0.5195313-0.1005859,0.7001953-0.2900391   C25.8994141,40.5195313,26,40.2695313,26,40c0-0.1298828-0.0302734-0.2597656-0.0800781-0.3798828   C25.8701172,39.4902344,25.7998047,39.3896484,25.7001953,39.2900391z"></path><path d="M55,41c0.1298828,0,0.2597656-0.0302734,0.3798828-0.0800781s0.2294922-0.1201172,0.3300781-0.2099609   C55.7998047,40.609375,55.8701172,40.5,55.9199219,40.3798828S56,40.1298828,56,40s-0.0302734-0.2597656-0.0800781-0.3798828   s-0.1201172-0.2304688-0.2099609-0.3300781C55.6601563,39.25,55.609375,39.2001953,55.5595703,39.1699219   C55.5,39.1298828,55.4394531,39.0996094,55.3798828,39.0800781c-0.0605469-0.0302734-0.1201172-0.0498047-0.1796875-0.0605469   c-0.1308594-0.0292969-0.2607422-0.0292969-0.4003906,0c-0.0595703,0.0107422-0.1201172,0.0302734-0.1796875,0.0605469   C54.5595703,39.0996094,54.5,39.1298828,54.4394531,39.1699219c-0.0498047,0.0302734-0.0996094,0.0800781-0.1494141,0.1201172   c-0.0898438,0.0996094-0.1601563,0.2001953-0.2099609,0.3300781C54.0302734,39.7402344,54,39.8701172,54,40   c0,0.2695313,0.0996094,0.5195313,0.2900391,0.7099609C54.4794922,40.8994141,54.7294922,41,55,41z"></path><path d="M5,25h5.5859375l3,3L5.703125,35.8828125c-1.1679688,1.1669922-1.1679688,3.0673828,0,4.234375l2,2   C8.2724609,42.6865234,9.0273438,43,9.8300781,43h8.8701782c0.4996948,1.05896,1.2409668,1.9604492,2.1583862,2.6345215   c0.0108032,0.008606,0.0158081,0.0213623,0.0270996,0.029541c0.0068359,0.0049438,0.0149536,0.0062866,0.0218506,0.0110474   C22.0720825,46.5145264,23.4933472,47,25,47c1.5089111,0,2.9319458-0.4872437,4.0967407-1.3270874   c0.0055542-0.0038452,0.0120239-0.0048828,0.0175171-0.0088501c0.0089111-0.0065308,0.0128174-0.0166626,0.0214844-0.0234375   C30.0582886,44.965271,30.802002,44.0609131,31.3009644,43h17.399292c0.4996948,1.05896,1.2409668,1.9604492,2.1583862,2.6345215   c0.0108032,0.008606,0.0158081,0.0213623,0.0270996,0.029541c0.0068359,0.0049438,0.0149536,0.0062866,0.0218506,0.0110474   C52.0720825,46.5145264,53.4933472,47,55,47c1.5133667,0,2.9122925-0.4879761,4.0585938-1.3078003   c0.0179443-0.0113525,0.038269-0.0155029,0.0556641-0.0281372c0.0164185-0.0119629,0.0239868-0.0303345,0.0394897-0.0430908   C60.8763428,44.3445435,62,42.3034058,62,40c0-0.750061-0.1216431-1.4716187-0.3411255-2.1495972   c-0.0014648-0.0048218-0.000061-0.0096436-0.0016479-0.0144653c-0.0022583-0.007019-0.0079956-0.0115967-0.010437-0.0184937   C60.7268677,35.024292,58.0969238,33,55,33c-2.7280273,0-5.1679077,1.5909424-6.3009644,4H46v-4h4c0.5527344,0,1-0.4472656,1-1v-6   c0-0.5527344-0.4472656-1-1-1h-4.3818359l-1.7236328-3.4472656C43.7246094,21.2138672,43.3789063,21,43,21h-7   c-0.3779297,0-0.7236328,0.2128906-0.8935547,0.5507813l-0.7369385,1.467041   c-1.5910034-0.0861816-3.1930542,0.4872437-4.3864136,1.5512085L27.4140625,22l0.2929688-0.2929688   c0.390625-0.390625,0.390625-1.0234375,0-1.4140625s-1.0234375-0.390625-1.4140625,0l-2,2   c-0.390625,0.390625-0.390625,1.0234375,0,1.4140625C24.4882813,23.9023438,24.7441406,24,25,24   s0.5117188-0.0976563,0.7070313-0.2929688L26,23.4140625l2.7272949,2.7272949C28.2529907,27.0098267,28,27.9817505,28,29   c0,1.3203125,0.4160156,2.5673828,1.2011719,3.6015625C29.3065186,32.7415771,29.4230957,32.8707275,29.5394897,33h-3.1254272   L12.7070313,19.2929688C12.5195313,19.1054688,12.265625,19,12,19H5c-0.8115234,0-1.5664063,0.3164063-2.1074219,0.8730469   C2.3164063,20.4335938,2,21.1884766,2,22C2,23.6542969,3.3457031,25,5,25z M9.8300781,41   c-0.2685547,0-0.5214844-0.1054688-0.7128906-0.296875l-2-2c-0.3876953-0.3876953-0.3876953-1.0185547,0-1.40625L15,29.4140625   l5.3515625,5.3515625c-0.0959473,0.0845337-0.1817627,0.1777344-0.2724609,0.2668457   c-0.0593872,0.0583496-0.1211548,0.1143188-0.1782837,0.1746216c-0.1721191,0.1817017-0.3338013,0.3713989-0.484314,0.5692139   c-0.0153809,0.0202637-0.0333862,0.0385132-0.048584,0.0588989c-0.1638794,0.220459-0.3120117,0.4512329-0.4481201,0.6890259   c-0.038208,0.0667114-0.0698853,0.1367188-0.105835,0.2047119c-0.0917358,0.1734619-0.1783447,0.3491821-0.2550659,0.5302124   c-0.0379639,0.0895386-0.0714111,0.180542-0.1056519,0.2717285c-0.0631104,0.168457-0.1199341,0.3391113-0.1699829,0.5128174   c-0.027771,0.0964966-0.0550537,0.1925659-0.0787964,0.2905273c-0.0445557,0.1841431-0.0790405,0.3712158-0.1087036,0.5599976   c-0.0137939,0.0877686-0.0315552,0.1740723-0.0420532,0.2626953C18.020752,39.4345093,18,39.7151489,18,40   c0,0.3369141,0.0244141,0.6708984,0.0722656,1H9.8300781z M22.9363403,44.5427246l0.5216675-0.7185059   c0.3242188-0.4472656,0.2246094-1.0722656-0.2216797-1.3974609c-0.4492188-0.3261719-1.0722656-0.2255859-1.3974609,0.2216797   l-0.5187988,0.7145386c-0.4438477-0.4866943-0.8051147-1.0562134-1.0310059-1.7057495C20.0976563,41.1308594,20,40.5732422,20,40   c0-0.1896973,0.0152588-0.3762817,0.0357666-0.5615234l0.8499756,0.2763672   c0.1035156,0.0332031,0.2070313,0.0488281,0.3095703,0.0488281c0.421875,0,0.8134766-0.2685547,0.9511719-0.6904297   c0.1708984-0.5253906-0.1171875-1.0898438-0.6416016-1.2607422l-0.8580322-0.2789307   c0.4121704-0.7258911,1.008667-1.3480225,1.7564697-1.802124C22.9030151,35.4244385,23.4395142,35.2245483,24,35.1107178V36   c0,0.5527344,0.4472656,1,1,1s1-0.4472656,1-1v-0.8868408c1.4105225,0.2885742,2.6318359,1.1675415,3.340332,2.4245605   L28.4951172,37.8125c-0.5244141,0.1708984-0.8125,0.7353516-0.6416016,1.2607422   c0.1376953,0.421875,0.5292969,0.6904297,0.9511719,0.6904297c0.1025391,0,0.2060547-0.015625,0.3095703-0.0488281   l0.8378296-0.2723999C29.9731445,39.6273804,30,39.8111572,30,40c0,0.5732422-0.0976563,1.1308594-0.2939453,1.671875   c-0.2238159,0.6434326-0.5831299,1.2088013-1.0249634,1.692688l-0.5199585-0.7161255   c-0.3251953-0.4462891-0.9492188-0.546875-1.3974609-0.2216797c-0.4462891,0.3251953-0.5458984,0.9501953-0.2216797,1.3974609   l0.5219727,0.7189941C26.4279785,44.8319092,25.7299805,45,25,45C24.2702026,45,23.5723877,44.8319092,22.9363403,44.5427246z    M34,37h-2.6787109c-0.0245361-0.052124-0.0606079-0.0962524-0.0863647-0.147644   c-0.1135254-0.2268066-0.2444458-0.4400024-0.3806152-0.6506348c-0.0744019-0.1151123-0.1408081-0.2349854-0.2215576-0.3450317   c-0.1849365-0.2521362-0.3902588-0.4851685-0.605835-0.7086182C29.9819336,35.1014404,29.9466553,35.0452881,29.9003906,35H34V37z    M54,35.1130981V36c0,0.5527344,0.4472656,1,1,1s1-0.4472656,1-1v-0.8989258   c1.4318848,0.2918701,2.6243896,1.2091064,3.3272095,2.440918L58.4951172,37.8125   c-0.5244141,0.1708984-0.8125,0.7353516-0.6416016,1.2607422c0.1376953,0.421875,0.5292969,0.6904297,0.9511719,0.6904297   c0.1025391,0,0.2060547-0.015625,0.3095703-0.0488281l0.8296509-0.2697144C59.9646606,39.6296997,60,39.8099976,60,40   c0,1.2973633-0.5091553,2.4701538-1.3224487,3.3597412l-0.5164185-0.7113037   c-0.3251953-0.4462891-0.9492188-0.546875-1.3974609-0.2216797c-0.4462891,0.3251953-0.5458984,0.9501953-0.2216797,1.3974609   l0.5210571,0.7176514C56.432251,44.8297729,55.7374268,45,55,45c-0.7297974,0-1.4276123-0.1680908-2.0636597-0.4572754   l0.5216675-0.7185059c0.3242188-0.4472656,0.2246094-1.0722656-0.2216797-1.3974609   c-0.4492188-0.3261719-1.0722656-0.2255859-1.3974609,0.2216797l-0.5187988,0.7145386   c-0.4438477-0.4866943-0.8051147-1.0562134-1.0310059-1.7057495C50.0976563,41.1308594,50,40.5732422,50,40   c0-0.1884155,0.0270996-0.3724365,0.0482178-0.5574341l0.8375244,0.2722778   c0.1035156,0.0332031,0.2070313,0.0488281,0.3095703,0.0488281c0.421875,0,0.8134766-0.2685547,0.9511719-0.6904297   c0.1708984-0.5253906-0.1171875-1.0898438-0.6416016-1.2607422l-0.8475952-0.2755737   C51.3624878,36.2827148,52.5862427,35.4020996,54,35.1130981z M48,40c0,0.3369141,0.0244141,0.6708984,0.0722656,1H31.9277344   C31.9755859,40.6708984,32,40.3369141,32,40s-0.0244141-0.6708984-0.0722656-1H35h10h3.0722656   C48.0244141,39.3291016,48,39.6630859,48,40z M44,37h-8v-2.3417969c0.0528564-0.0186768,0.1019287-0.0455322,0.1541748-0.0656738   c0.0765991-0.02948,0.1501465-0.0634155,0.2253418-0.0960083c0.2414551-0.1046753,0.4746094-0.223999,0.699585-0.3588867   c0.0598145-0.0358887,0.1216431-0.0672607,0.1802368-0.1051636c0.2649536-0.1717529,0.5154419-0.3642578,0.7509155-0.5762939   c0.0557861-0.0501709,0.1060181-0.1054688,0.1599121-0.1577759C38.2717896,33.1997681,38.3778687,33.1060791,38.4726563,33H44V37z    M49,31h-4h-5.3378906c0.005127-0.0146484,0.0066528-0.0305176,0.0116577-0.045166   c0.0724487-0.2110596,0.1194458-0.4302979,0.1677246-0.649353c0.022644-0.1027222,0.0576782-0.201355,0.0749512-0.305542   C39.9705811,29.6727905,40,29.3391113,40,29s-0.02948-0.6727905-0.0835571-0.9998779   c-0.0170898-0.1030884-0.0516968-0.2006226-0.0740356-0.3021851c-0.0484009-0.22052-0.0958862-0.440979-0.1687622-0.6533203   C39.6687012,27.0301514,39.6671753,27.0144653,39.6621094,27H45h4V31z M36.6171875,23h5.7646484l1,2h-4.9101563   c-0.1196289-0.133606-0.24823-0.2573242-0.3783569-0.3790283c-0.0197754-0.0184326-0.0372925-0.0391846-0.057251-0.057373   c-0.2415161-0.2198486-0.5029297-0.413208-0.7751465-0.59021c-0.0513916-0.0333252-0.1017456-0.0669556-0.1541138-0.0987549   c-0.2368774-0.1438599-0.4798584-0.2773438-0.7347412-0.3873291L36.6171875,23z M30.796875,31.3955078   C30.2753906,30.7089844,30,29.8798828,30,29s0.2753906-1.7089844,0.7988281-2.3984375C31.5537109,25.5986328,32.75,25,34,25   c0.2568359,0,0.5126953,0.0244141,0.7597656,0.0712891c0.9736328,0.1884766,1.8398438,0.7324219,2.4433594,1.5332031   C37.7246094,27.2910156,38,28.1201172,38,29c0,0.6598511-0.1549683,1.2911377-0.4535522,1.8571777   c-0.098938,0.1873169-0.2133789,0.3673096-0.3433228,0.5383301c-0.0005493,0.0007324-0.0007324,0.0015869-0.0012817,0.0023193   c-0.0006104,0.0007935-0.0010376,0.00177-0.0016479,0.0025635c-0.5878906,0.7832031-1.4404297,1.3232422-2.4121094,1.5224609   C34.5527344,32.9736328,34.2871094,33,34,33C32.75,33,31.5537109,32.4013672,30.796875,31.3955078z M4.3066406,21.2871094   C4.4863281,21.1025391,4.7333984,21,5,21h6.5859375l12.1201172,12.1201172   c-0.1186523,0.0224609-0.2333984,0.0605469-0.350647,0.0890503c-0.1200562,0.0291138-0.2401733,0.055542-0.3584595,0.0910034   c-0.1780396,0.0534058-0.3508911,0.1199341-0.5241089,0.187561c-0.1113892,0.043457-0.2243652,0.0813599-0.3334351,0.1305542   c-0.0251465,0.0113525-0.0518799,0.0184937-0.0769119,0.0301514l-6.3554611-6.3554688l-4-4   C11.5195313,23.1054688,11.265625,23,11,23H5c-0.5517578,0-1-0.4482422-1-1   C4,21.7333984,4.1025391,21.4863281,4.3066406,21.2871094z"></path><path d="M4,15h8c0.3261719,0,0.6318359-0.1591797,0.8193359-0.4267578   c0.1865234-0.2666016,0.2324219-0.6083984,0.1201172-0.9150391l-4-11C8.7958984,2.2626953,8.4208984,2,8,2   S7.2041016,2.2626953,7.0605469,2.6582031l-4,11c-0.1123047,0.3066406-0.0664063,0.6484375,0.1201172,0.9150391   C3.3681641,14.8408203,3.6738281,15,4,15z M8,5.9257813L10.5722656,13H5.4277344L8,5.9257813z"></path><path d="M16,15h8c0.3261719,0,0.6318359-0.1591797,0.8193359-0.4267578   c0.1865234-0.2666016,0.2324219-0.6083984,0.1201172-0.9150391l-4-11C20.7958984,2.2626953,20.4208984,2,20,2   s-0.7958984,0.2626953-0.9394531,0.6582031l-4,11c-0.1123047,0.3066406-0.0664063,0.6484375,0.1201172,0.9150391   C15.3681641,14.8408203,15.6738281,15,16,15z M20,5.9257813L22.5722656,13h-5.1445313L20,5.9257813z"></path><path d="M40,15h8c0.3261719,0,0.6318359-0.1591797,0.8193359-0.4267578   c0.1865234-0.2666016,0.2324219-0.6083984,0.1201172-0.9150391l-4-11C44.7958984,2.2626953,44.4208984,2,44,2   s-0.7958984,0.2626953-0.9394531,0.6582031l-4,11c-0.1123047,0.3066406-0.0664063,0.6484375,0.1201172,0.9150391   C39.3681641,14.8408203,39.6738281,15,40,15z M44,5.9257813L46.5722656,13h-5.1445313L44,5.9257813z"></path><path d="M52,15h8c0.3261719,0,0.6318359-0.1591797,0.8193359-0.4267578   c0.1865234-0.2666016,0.2324219-0.6083984,0.1201172-0.9150391l-4-11C56.7958984,2.2626953,56.4208984,2,56,2   s-0.7958984,0.2626953-0.9394531,0.6582031l-4,11c-0.1123047,0.3066406-0.0664063,0.6484375,0.1201172,0.9150391   C51.3681641,14.8408203,51.6738281,15,52,15z M56,5.9257813L58.5722656,13h-5.1445313L56,5.9257813z"></path><path d="M28,15h8c0.3261719,0,0.6318359-0.1591797,0.8193359-0.4267578   c0.1865234-0.2666016,0.2324219-0.6083984,0.1201172-0.9150391l-4-11C32.7958984,2.2626953,32.4208984,2,32,2   s-0.7958984,0.2626953-0.9394531,0.6582031l-4,11c-0.1123047,0.3066406-0.0664063,0.6484375,0.1201172,0.9150391   C27.3681641,14.8408203,27.6738281,15,28,15z M32,5.9257813L34.5722656,13h-5.1445313L32,5.9257813z"></path><path d="M61,54h-1v-4c0-0.5527344-0.4472656-1-1-1h-7c-0.5527344,0-1,0.4472656-1,1v4h-2v-4c0-0.5527344-0.4472656-1-1-1h-8   c-0.5527344,0-1,0.4472656-1,1v4h-2v-4c0-0.5527344-0.4472656-1-1-1h-8c-0.5527344,0-1,0.4472656-1,1v4h-2v-4   c0-0.5527344-0.4472656-1-1-1h-8c-0.5527344,0-1,0.4472656-1,1v4h-2v-4c0-0.5527344-0.4472656-1-1-1H5   c-0.5527344,0-1,0.4472656-1,1v4H3c-0.5527344,0-1,0.4472656-1,1v6c0,0.5527344,0.4472656,1,1,1h58c0.5527344,0,1-0.4472656,1-1v-6   C62,54.4472656,61.5527344,54,61,54z M60,60H4v-4h1c0.5527344,0,1-0.4472656,1-1v-4h5v4c0,0.5527344,0.4472656,1,1,1h4   c0.5527344,0,1-0.4472656,1-1v-4h6v4c0,0.5527344,0.4472656,1,1,1h4c0.5527344,0,1-0.4472656,1-1v-4h6v4   c0,0.5527344,0.4472656,1,1,1h4c0.5527344,0,1-0.4472656,1-1v-4h6v4c0,0.5527344,0.4472656,1,1,1h4c0.5527344,0,1-0.4472656,1-1v-4   h5v4c0,0.5527344,0.4472656,1,1,1h1V60z"></path><path d="M35,29c0-0.1298828-0.0302734-0.2597656-0.0800781-0.3798828s-0.1201172-0.2304688-0.2099609-0.3300781   c-0.3798828-0.3701172-1.0400391-0.3701172-1.4199219,0C33.2001953,28.3896484,33.1298828,28.5,33.0800781,28.6201172   C33.0195313,28.7402344,33,28.8701172,33,29s0.0195313,0.2597656,0.0800781,0.3798828   C33.1298828,29.5,33.2001953,29.609375,33.2900391,29.7099609C33.4794922,29.8994141,33.7294922,30,34,30   c0.2695313,0,0.5195313-0.1005859,0.7099609-0.2900391C34.7998047,29.609375,34.8701172,29.5,34.9199219,29.3798828   S35,29.1298828,35,29z"></path></g></svg>