<svg xmlns:dc="http://purl.org/dc/elements/1.1/" xmlns:cc="http://creativecommons.org/ns#" xmlns:rdf="http://www.w3.org/1999/02/22-rdf-syntax-ns#" xmlns:svg="http://www.w3.org/2000/svg" xmlns="http://www.w3.org/2000/svg" xmlns:sodipodi="http://sodipodi.sourceforge.net/DTD/sodipodi-0.dtd" xmlns:inkscape="http://www.inkscape.org/namespaces/inkscape" version="1.1" viewBox="0 0 100 100" stroke-miterlimit="10" style="" x="0px" y="0px" fill="none" stroke="none"><clipPath><path d="M 0,0 H 415.74802 V 415.74802 H 0 Z" style="" clip-rule="nonzero"></path></clipPath><path style="color:#000000;font-style:normal;font-variant:normal;font-weight:normal;font-stretch:normal;font-size:medium;line-height:normal;font-family:sans-serif;font-variant-ligatures:normal;font-variant-position:normal;font-variant-caps:normal;font-variant-numeric:normal;font-variant-alternates:normal;font-feature-settings:normal;text-indent:0;text-align:start;text-decoration:none;text-decoration-line:none;text-decoration-style:solid;text-decoration-color:#000000;letter-spacing:normal;word-spacing:normal;text-transform:none;writing-mode:lr-tb;direction:ltr;text-orientation:mixed;dominant-baseline:auto;baseline-shift:baseline;text-anchor:start;white-space:normal;shape-padding:0;clip-rule:nonzero;display:inline;overflow:visible;visibility:visible;opacity:1;isolation:auto;mix-blend-mode:normal;color-interpolation:sRGB;color-interpolation-filters:linearRGB;solid-color:#000000;solid-opacity:1;vector-effect:none;fill:#000000;fill-opacity:1;fill-rule:evenodd;stroke:none;stroke-width:6.86565256;stroke-linecap:butt;stroke-linejoin:round;stroke-miterlimit:10;stroke-dasharray:none;stroke-dashoffset:0;stroke-opacity:1;color-rendering:auto;image-rendering:auto;shape-rendering:auto;text-rendering:auto;enable-background:accumulate" d="m 15.760536,4.6164822 c -5.148509,0 -9.2860604,4.1413013 -9.2860604,9.2961218 0,4.081269 2.5982113,7.518207 6.2337284,8.7765 0.006,0.0018 0.01107,0.0052 0.01673,0.0069 0.195019,0.06703 0.39262,0.126773 0.593372,0.18102 0.09203,0.02532 0.185056,0.04789 0.278249,0.07037 0.158037,0.0375 0.316592,0.07295 0.477711,0.102255 0.14556,0.02703 0.292854,0.04694 0.440835,0.06703 0.127272,0.0169 0.253283,0.03853 0.382168,0.05029 0.28404,0.02643 0.571754,0.04188 0.863235,0.04188 0.291464,0 0.579221,-0.01545 0.863236,-0.04188 0.128894,-0.01176 0.254896,-0.0333 0.382167,-0.05029 0.147973,-0.02008 0.295293,-0.03999 0.440845,-0.06703 0.161127,-0.02934 0.319655,-0.06479 0.477711,-0.102255 0.09318,-0.02248 0.186213,-0.04505 0.278248,-0.07037 0.201815,-0.05449 0.400689,-0.115213 0.59672,-0.182704 h 0.0018 c 3.642546,-1.254697 6.247143,-4.695555 6.247143,-8.781529 0,-2.466342 -0.978261,-4.8304263 -2.720447,-6.5740015 C 20.585704,5.5951763 18.223886,4.616632 15.7606,4.616632 Z m 68.621327,0 c -4.826742,0 -8.765712,3.6399542 -9.239133,8.3423718 -0.03159,0.313493 -0.04694,0.63158 -0.04694,0.95375 1.7e-5,4.081269 2.59822,7.518207 6.233737,8.7765 0.006,0.0018 0.01107,0.0052 0.01674,0.0069 0.195017,0.06703 0.39262,0.126773 0.593364,0.18102 0.09204,0.02532 0.185054,0.04789 0.278247,0.07037 0.158047,0.0375 0.316592,0.07295 0.477712,0.102255 0.145561,0.02703 0.292855,0.04694 0.440843,0.06703 0.127264,0.0169 0.253282,0.03853 0.382168,0.05029 0.284041,0.02643 0.571746,0.04188 0.863236,0.04188 0.291464,0 0.579213,-0.01545 0.863236,-0.04188 0.128885,-0.01176 0.254891,-0.0333 0.382163,-0.05029 0.147978,-0.02008 0.295288,-0.03999 0.440836,-0.06703 0.161135,-0.02934 0.319654,-0.06479 0.477711,-0.102255 0.0932,-0.02248 0.186216,-0.04505 0.278244,-0.07037 0.201831,-0.05449 0.400704,-0.115213 0.596722,-0.182704 h 0.0019 c 3.642538,-1.254697 6.247138,-4.695555 6.247138,-8.781529 0,-2.466342 -0.978258,-4.8304263 -2.720448,-6.5740015 C 89.207096,5.5951763 86.845281,4.616632 84.382003,4.616632 Z M 48.385799,10.256848 c -7.021264,0.122207 -13.956919,2.059294 -20.080695,5.668851 -0.08784,0.547501 -0.201335,1.085279 -0.357031,1.607464 1.037607,0.433128 1.994026,1.060383 2.804259,1.870624 0.625813,0.625803 1.145405,1.337789 1.55047,2.106966 10.640104,-6.038188 24.081644,-6.027675 34.971915,0.901786 0.256398,0.163135 0.503665,0.335644 0.754287,0.50453 0.542275,-2.349125 2.037391,-4.339504 4.053017,-5.546494 -0.370856,-0.253445 -0.739902,-0.508204 -1.121366,-0.75093 -6.540856,-4.161934 -13.87308,-6.237861 -21.170213,-6.362797 -0.468641,-0.0077 -0.936561,-0.0086 -1.404643,0 z M 74.38677,21.72865 c -0.0034,0.0018 -0.0069,0.0034 -0.01005,0.0052 -0.0026,8.57e-4 -0.0043,0.0026 -0.0069,0.0034 -0.212544,0.09444 -0.415414,0.204872 -0.611807,0.325183 -0.0593,0.0363 -0.11494,0.07715 -0.172645,0.115652 -0.136069,0.09092 -0.267281,0.187184 -0.3939,0.28998 -0.06359,0.05158 -0.124954,0.104795 -0.18606,0.15924 -0.115281,0.102821 -0.226102,0.209334 -0.331884,0.321826 -0.05571,0.05913 -0.111301,0.117635 -0.164271,0.179349 -0.106236,0.123968 -0.203849,0.255231 -0.298355,0.388879 -0.04128,0.05827 -0.0868,0.112674 -0.125718,0.172646 -0.121942,0.188204 -0.232531,0.38433 -0.330204,0.588343 -0.03261,0.06796 -0.05741,0.139922 -0.08717,0.209523 -0.06256,0.146624 -0.121489,0.294262 -0.170964,0.447537 -0.03021,0.09335 -0.05364,0.189346 -0.07879,0.28495 -0.02137,0.08145 -0.04942,0.160098 -0.06703,0.243053 0.0034,0.0026 0.0069,0.0052 0.01005,0.0087 -0.0763,0.360533 -0.129066,0.729854 -0.129066,1.114665 v 5.308479 l 26.301009,0.0018 v -5.310153 c 0,-1.408831 -0.559309,-2.758447 -1.555501,-3.754653 -0.464267,-0.464263 -1.007709,-0.829096 -1.595734,-1.091193 -2.330063,2.976775 -5.943951,4.901158 -10.000101,4.901158 -0.995794,0 -1.964718,-0.116167 -2.894774,-0.335232 -0.0034,-0.0052 -0.006,-0.01031 -0.01004,-0.01511 -0.259943,-0.06129 -0.512607,-0.139124 -0.766019,-0.216225 -0.122277,-0.03734 -0.246383,-0.06978 -0.367081,-0.110632 -0.251016,-0.08488 -0.497227,-0.181648 -0.740872,-0.281603 -0.131863,-0.05415 -0.262611,-0.110828 -0.392226,-0.169289 -0.248905,-0.112143 -0.495778,-0.226199 -0.735853,-0.353676 -0.08153,-0.04334 -0.15918,-0.0924 -0.239688,-0.137451 -0.485264,-0.271441 -0.950996,-0.57438 -1.394585,-0.905133 -0.07595,-0.05664 -0.154984,-0.109352 -0.229639,-0.167624 -0.221134,-0.172646 -0.432769,-0.356483 -0.641981,-0.543083 -0.09329,-0.08316 -0.185751,-0.167255 -0.276567,-0.253102 -0.19555,-0.184909 -0.387883,-0.37308 -0.571582,-0.5699 -0.08188,-0.08774 -0.158588,-0.179863 -0.238014,-0.269872 -0.169187,-0.191689 -0.338392,-0.38337 -0.496156,-0.584989 z M 5.7553923,21.73205 C 3.895917,22.554339 2.6108729,24.40701 2.6108729,26.586323 v 5.308479 l 26.2993361,0.0018 v -5.310186 c 0,-0.845162 -0.204313,-1.667985 -0.57996,-2.407003 -8.57e-4,-0.0026 -0.0034,-0.0043 -0.0052,-0.0069 -0.116562,-0.228437 -0.249661,-0.446782 -0.398937,-0.65707 -0.02403,-0.03399 -0.04892,-0.06703 -0.07372,-0.100563 -0.152064,-0.203887 -0.314077,-0.401214 -0.496163,-0.5833 -0.231569,-0.23157 -0.482578,-0.438501 -0.749256,-0.620191 l -0.0018,-0.0018 c -0.133056,-0.09056 -0.270471,-0.173426 -0.41066,-0.251429 l -0.0018,-0.0018 c -0.140891,-0.07835 -0.285448,-0.150718 -0.432449,-0.216225 -0.266353,0.340271 -0.552865,0.664063 -0.851504,0.975532 -0.07896,0.08213 -0.161935,0.159721 -0.243045,0.239697 -0.225416,0.222962 -0.459337,0.436158 -0.700648,0.641982 -0.101552,0.08628 -0.202503,0.173349 -0.306741,0.256457 -0.264533,0.211763 -0.540317,0.411252 -0.821329,0.601749 -0.131193,0.08849 -0.262671,0.176147 -0.397255,0.259805 -0.277208,0.173229 -0.560683,0.335894 -0.851504,0.48777 -0.188556,0.09791 -0.382708,0.1863 -0.576612,0.274892 -0.172027,0.07904 -0.345265,0.154838 -0.521292,0.226292 -0.230411,0.093 -0.462135,0.181829 -0.698965,0.261478 -0.128518,0.04342 -0.260251,0.07964 -0.390553,0.119017 -0.248863,0.07484 -0.497622,0.151448 -0.752605,0.211196 l 0.01005,0.0087 c -0.930949,0.219529 -1.901254,0.336915 -2.898129,0.336915 -4.059669,0 -7.6758429,-1.928365 -10.0051441,-4.909543 z M 79.143783,35.327616 c 4.825566,9.23275 5.303159,20.498916 0.477712,30.49147 -3.87215,8.018481 -10.515159,13.861538 -18.273766,16.875832 -0.14895,0.573557 -0.325569,1.136635 -0.549784,1.676181 0.833147,0.415895 1.604031,0.960375 2.274581,1.630926 0.7714,0.771408 1.376572,1.675529 1.808602,2.655078 8.883897,-3.740271 16.456145,-10.604532 20.922136,-19.852728 5.242825,-10.85688 5.239385,-23.017469 0.878314,-33.475084 z M 12.537233,43.033033 7.4617477,79.211802 17.585907,77.056227 c 1.534286,1.858816 3.236229,3.588557 5.095602,5.162654 3.101712,2.625767 6.64293,4.808993 10.53482,6.444923 0.824289,-1.857184 2.279542,-3.373506 4.086538,-4.286003 -0.225828,-0.542653 -0.403468,-1.109154 -0.553148,-1.686239 -3.590461,-1.393545 -6.823333,-3.335307 -9.631352,-5.712435 -0.598427,-0.506617 -1.172309,-1.037907 -1.7315,-1.582319 l 6.517006,-1.387883 -2.599765,-4.156938 z m 4.178727,19.636503 4.166997,6.666188 -5.259862,1.118012 z m 32.331927,7.544512 c -5.148509,0 -9.28606,4.141275 -9.28606,9.296118 0,3.791118 2.242253,7.027646 5.474421,8.478136 0.02257,0.01021 0.04437,0.0218 0.06703,0.03184 0.161317,0.0708 0.326771,0.132652 0.4928,0.194443 0.09632,0.03613 0.192153,0.0726 0.289979,0.105593 0.150735,0.05037 0.30347,0.09465 0.457596,0.13745 0.125264,0.03509 0.251429,0.06738 0.378821,0.09722 0.138875,0.03227 0.277809,0.06446 0.419045,0.09052 0.04771,0.0089 0.09447,0.02034 0.14248,0.0285 0.110897,0.0188 0.22466,0.02875 0.336914,0.04359 0.120046,0.01579 0.23889,0.03579 0.360378,0.04694 0.02428,0.0026 0.04771,0.006 0.07209,0.0087 0,0 0.0018,0 0.0018,0 0.261169,0.02206 0.525634,0.03356 0.792836,0.03356 0.267211,0 0.531676,-0.0115 0.792837,-0.03356 0,0 0.0018,0 0.0018,0 0.02429,-0.0018 0.0478,-0.006 0.07209,-0.0087 0.121489,-0.01115 0.240325,-0.03116 0.360379,-0.04694 0.112331,-0.01502 0.225958,-0.02455 0.336915,-0.04359 0.04755,-0.0077 0.09349,-0.01975 0.140797,-0.0285 0.144084,-0.02652 0.2858,-0.05913 0.42743,-0.09218 0.122165,-0.02875 0.243524,-0.0587 0.363733,-0.09218 0.158168,-0.04376 0.314731,-0.09073 0.469327,-0.14248 0.09203,-0.03108 0.182516,-0.06505 0.27322,-0.09889 0.172894,-0.06403 0.345119,-0.129015 0.512915,-0.202821 h 0.0018 c 3.265381,-1.436929 5.534763,-4.691763 5.534763,-8.506636 0,-2.466348 -0.978261,-4.830441 -2.720446,-6.574 C 53.873355,71.19259 51.511544,70.214055 49.04826,70.214055 Z M 39.042744,87.331167 c 0,0 -0.0018,0.0018 -0.0018,0.0018 -0.266824,0.118235 -0.518245,0.262173 -0.759315,0.420726 -0.05973,0.03939 -0.114665,0.08393 -0.172645,0.125712 -0.179494,0.128746 -0.349693,0.267673 -0.511234,0.417371 -0.05493,0.05106 -0.108221,0.102522 -0.160914,0.155885 -0.166312,0.16778 -0.31999,0.345771 -0.462633,0.534705 -0.02978,0.03965 -0.0618,0.07681 -0.09052,0.117334 -0.616758,0.8666 -0.98559,1.92397 -0.98559,3.079151 v 5.310153 h 26.301043 v -5.310185 c 0,-0.816403 -0.19296,-1.610528 -0.544756,-2.329903 -0.122509,-0.250501 -0.262808,-0.491374 -0.424073,-0.720756 -0.0175,-0.02523 -0.03734,-0.04875 -0.05536,-0.07371 -0.154717,-0.212148 -0.322814,-0.415999 -0.50956,-0.605105 -0.0077,-0.0077 -0.01244,-0.0175 -0.02008,-0.02515 0,0 -0.0018,0 -0.0018,0 -0.105379,-0.105388 -0.215393,-0.20494 -0.328531,-0.300038 -0.0115,-0.0097 -0.02197,-0.02059 -0.03356,-0.03021 -0.125085,-0.103302 -0.253892,-0.200872 -0.387206,-0.291653 0,0 -0.0018,0 -0.0018,0 -0.266598,-0.181764 -0.547996,-0.33854 -0.841304,-0.469383 0,0 -0.0018,0.0018 -0.0018,0.0018 0,0 -0.0018,-0.0018 -0.0018,-0.0018 -0.263178,0.336219 -0.546738,0.655705 -0.841446,0.963808 -0.06669,0.0696 -0.134627,0.138086 -0.20282,0.206167 -0.274635,0.274525 -0.559782,0.537402 -0.858206,0.786135 -0.03167,0.02634 -0.06195,0.05441 -0.09387,0.08042 -0.322874,0.26389 -0.66287,0.509173 -1.010735,0.740872 -0.09365,0.0623 -0.189596,0.121205 -0.284951,0.18103 -0.280135,0.176062 -0.567446,0.340253 -0.861562,0.494473 -0.09264,0.04849 -0.182609,0.101286 -0.276566,0.1475 -0.354018,0.174568 -0.718036,0.329526 -1.089518,0.471009 -0.135262,0.05132 -0.273245,0.09738 -0.41067,0.144154 -1.279113,0.437049 -2.645052,0.685563 -4.069778,0.685563 -1.427669,0 -2.795058,-0.250118 -4.076482,-0.688919 -0.132953,-0.04531 -0.266326,-0.08949 -0.397254,-0.139115 -0.37133,-0.141226 -0.737304,-0.295068 -1.091193,-0.469337 -0.102615,-0.05037 -0.200674,-0.107824 -0.30172,-0.160913 -0.288331,-0.151808 -0.569943,-0.313254 -0.844792,-0.486097 -0.09664,-0.06068 -0.193431,-0.121196 -0.288306,-0.184377 -0.344338,-0.229656 -0.680858,-0.471275 -1.000678,-0.732487 -0.04368,-0.03561 -0.08428,-0.07449 -0.127392,-0.110632 -0.287618,-0.241294 -0.562683,-0.497323 -0.828031,-0.762663 -0.06986,-0.06978 -0.139622,-0.139844 -0.20785,-0.211205 -0.29439,-0.308233 -0.578619,-0.625812 -0.841444,-0.962125 z"></path><path style="color:#000000;font-style:normal;font-variant:normal;font-weight:normal;font-stretch:normal;font-size:medium;line-height:normal;font-family:sans-serif;font-variant-ligatures:normal;font-variant-position:normal;font-variant-caps:normal;font-variant-numeric:normal;font-variant-alternates:normal;font-feature-settings:normal;text-indent:0;text-align:start;text-decoration:none;text-decoration-line:none;text-decoration-style:solid;text-decoration-color:#000000;letter-spacing:normal;word-spacing:normal;text-transform:none;writing-mode:lr-tb;direction:ltr;text-orientation:mixed;dominant-baseline:auto;baseline-shift:baseline;text-anchor:start;white-space:normal;shape-padding:0;clip-rule:nonzero;display:inline;overflow:visible;visibility:visible;opacity:1;isolation:auto;mix-blend-mode:normal;color-interpolation:sRGB;color-interpolation-filters:linearRGB;solid-color:#000000;solid-opacity:1;vector-effect:none;fill:#000000;fill-opacity:1;fill-rule:evenodd;stroke:none;stroke-width:4;stroke-linecap:butt;stroke-linejoin:round;stroke-miterlimit:10;stroke-dasharray:none;stroke-dashoffset:0;stroke-opacity:1;color-rendering:auto;image-rendering:auto;shape-rendering:auto;text-rendering:auto;enable-background:accumulate" d="m 35.528428,33.930693 c -3.385686,1e-6 -6.173828,2.788125 -6.173828,6.173829 v 10.43164 6.259766 c 0,3.385703 2.788142,6.173828 6.173828,6.173828 h 1.177734 l 3.853516,4.390625 a 2.0002,2.0002 0 0 0 2.9375,0.07422 l 4.345703,-4.464844 H 64.72374 c 3.385686,0 6.173828,-2.788148 6.173829,-6.173828 v -6.259766 -10.43164 c 0,-1.636453 -0.651465,-3.208061 -1.808594,-4.365235 -1.157168,-1.157168 -2.72877,-1.808594 -4.365235,-1.808594 H 46.997178 37.612412 Z m 0,4 h 2.083984 9.384766 17.726562 c 0.577156,0 1.129038,0.228647 1.53711,0.636719 0.40813,0.408146 0.636718,0.959942 0.636719,1.53711 v 10.43164 6.259766 c 0,1.22394 -0.949894,2.173828 -2.173829,2.173828 H 46.997178 a 2.0002,2.0002 0 0 0 -1.433594,0.605469 l -3.425781,3.519531 -3.023438,-3.445313 a 2.0002,2.0002 0 0 0 -1.501953,-0.679687 h -2.083984 c -1.223934,0 -2.173828,-0.949911 -2.173828,-2.173828 v -6.259766 -10.43164 c 0,-1.223917 0.949894,-2.173829 2.173828,-2.173829 z"></path></svg>