<svg height='100px' width='100px'  fill="#1A1A1A" xmlns="http://www.w3.org/2000/svg" xmlns:xlink="http://www.w3.org/1999/xlink" version="1.1" x="0px" y="0px" viewBox="0 0 66 66" enable-background="new 0 0 66 66" xml:space="preserve"><g><path d="M49.0395203,6.7949829c-6.460022-0.3199463-11.8300171,4.8500366-11.8300171,11.25   c0,3.1600342,1.3400269,6.2000122,3.6799927,8.3300171c1.3699951,1.2399902,2.3699951,2.8500366,2.9400024,4.6500244h9.3200073   c0.5999756-1.7900391,1.6699829-3.460022,3.1300049-4.8600464c2.2600098-2.1699829,3.5200195-5.2199707,3.4500122-8.3599854   C59.6095276,11.9249878,54.9195251,7.085022,49.0395203,6.7949829z M51.4531555,18.6528931l-2.1591797,5.2548828   c-0.1191406,0.2895508-0.3989258,0.4648438-0.6943359,0.4648438c-0.0947266,0-0.1914063-0.0180664-0.284668-0.0561523   c-0.3828125-0.1577148-0.565918-0.5957031-0.4086914-0.9790039l1.7338867-4.2197266h-3.3242188   c-0.2485352,0-0.480957-0.1230469-0.6206055-0.3286133s-0.1679688-0.4672852-0.0766602-0.6982422l2.2841797-5.7509766   c0.1533203-0.3852539,0.5888672-0.5727539,0.9741211-0.4204102c0.3847656,0.1533203,0.5732422,0.5893555,0.4204102,0.9741211   l-1.8764648,4.7241211h3.3383789c0.25,0,0.4838867,0.1245117,0.6230469,0.3325195   C51.5215149,18.1577759,51.5478821,18.4214478,51.4531555,18.6528931z"></path><path d="M48.5029602,6.1309204c0.4140625,0,0.75-0.3359375,0.75-0.75V2.8701782c0-0.4140625-0.3359375-0.75-0.75-0.75   s-0.75,0.3359375-0.75,0.75v2.5107422C47.7529602,5.7949829,48.0888977,6.1309204,48.5029602,6.1309204z"></path><path d="M41.4219055,7.531311c0.2070236,0.3593769,0.667099,0.4811239,1.0244141,0.2744141   c0.3588867-0.2070313,0.4814453-0.6655273,0.2744141-1.0244141l-1.2553711-2.1743164   c-0.2070313-0.3588867-0.6660156-0.4814453-1.0244141-0.2744141c-0.3588867,0.2070313-0.4814453,0.6655273-0.2744141,1.0244141   L41.4219055,7.531311z"></path><path d="M34.839386,11.303772l2.1748047,1.2558594c0.3575745,0.2068615,0.817524,0.0847273,1.0244141-0.2744141   c0.2070313-0.3588867,0.0844727-0.8173828-0.2744141-1.0244141l-2.1748047-1.2558594   c-0.3583984-0.2075195-0.8173866-0.0844727-1.0244141,0.2744141C34.3579407,10.6382446,34.4804993,11.0967407,34.839386,11.303772z   "></path><path d="M33.1997375,19.1177368h2.5107422c0.4140625,0,0.75-0.3359375,0.75-0.75s-0.3359375-0.75-0.75-0.75h-2.5107422   c-0.4140625,0-0.75,0.3359375-0.75,0.75S32.785675,19.1177368,33.1997375,19.1177368z"></path><path d="M64.0005188,17.4234009h-2.5107422c-0.4140625,0-0.75,0.3359375-0.75,0.75s0.3359375,0.75,0.75,0.75h2.5107422   c0.4140625,0,0.75-0.3359375,0.75-0.75S64.4145813,17.4234009,64.0005188,17.4234009z"></path><path d="M62.5381165,10.1113892c-0.2070313-0.359375-0.6660156-0.480957-1.0244141-0.2744141l-2.1743164,1.2553711   c-0.3588867,0.2070313-0.4814453,0.6655273-0.2744141,1.0244141c0.2070236,0.3593769,0.667099,0.4811239,1.0244141,0.2744141   l2.1743164-1.2553711C62.6225891,10.928772,62.7451477,10.4702759,62.5381165,10.1113892z"></path><path d="M54.5854797,7.7085571c0.3575745,0.206862,0.817524,0.0847278,1.0244141-0.2744141l1.2558594-2.1743164   c0.2070313-0.3583984,0.0844727-0.8173828-0.2744141-1.0244141c-0.3574219-0.2075195-0.8173828-0.0849609-1.0244141,0.2744141   l-1.2558594,2.1743164C54.1040344,7.0425415,54.226593,7.5015259,54.5854797,7.7085571z"></path><rect x="1.2494812" y="22.0025024" width="21" height="7.6914063"></rect><rect x="1.2494812" y="40.3858032" width="21" height="7.6879883"></rect><rect x="1.2494812" y="31.1939087" width="21" height="7.6918945"></rect><rect x="1.2494812" y="12.8106079" width="21" height="7.6918945"></rect><path d="M22.2494812,2.8649902c0-0.4099731-0.3299561-0.75-0.75-0.75h-19.5c-0.4099731,0-0.75,0.3400269-0.75,0.75v8.4456177h21   V2.8649902z"></path><path d="M54.6095276,33.2750244v3.6799927c0,2.9599609-2.3400269,5.3900146-5.2600098,5.539978V58.125   c0,3.1799927-2.5800171,5.7600098-5.75,5.7600098H16.759491c-3.1799927,0-5.7600098-2.5800171-5.7600098-5.7600098v-3.8099976   H8.009491c-0.4099731,0-0.75-0.3399658-0.75-0.75v-3.9899902h8.9800415v3.9899902c0,0.4100342-0.3400269,0.75-0.75,0.75h-2.9900513   V58.125c0,2.3500366,1.9100342,4.2600098,4.2600098,4.2600098h26.8400269c2.3399658,0,4.25-1.9099731,4.25-4.2600098V42.4949951   c-2.9200439-0.1499634-5.25-2.5800171-5.25-5.539978v-3.6799927c0-0.4200439,0.3299561-0.75,0.75-0.75h10.5100098   C54.2695007,32.5250244,54.6095276,32.8549805,54.6095276,33.2750244z"></path></g></svg>