<svg height='100px' width='100px'  fill="#1A1A1A" xmlns="http://www.w3.org/2000/svg" xmlns:xlink="http://www.w3.org/1999/xlink" version="1.1" x="0px" y="0px" viewBox="0 0 191.838 221.832" style="enable-background:new 0 0 191.838 221.832;" xml:space="preserve"><g><g><ellipse transform="matrix(0.2059 -0.9786 0.9786 0.2059 84.4642 149.084)" cx="134.092" cy="22.498" rx="22.493" ry="22.495"></ellipse><path d="M127.517,74.507c-2.741-4.679-1.167-10.796,3.532-13.599c1.55-0.923,3.318-1.412,5.114-1.412    c3.508,0,6.801,1.869,8.597,4.879c0.548,0.914,4.258,7.427,6.146,18.724c0.149-0.318,0.296-0.62,0.446-0.944    c6.402-14.099,0.596-25.971-7.068-30.289c-7.664-4.318-18.576,1.758-23.33,10.961c-5.782,9.14-13.086,21.65-22.158,31.923    c-9.6-14.004-33.354-41.754-81.147-63.309c-6.291-2.842-13.695-0.045-16.537,6.249c-2.841,6.288-0.043,13.694,6.249,16.536    C36.83,67.543,55.532,83.058,66.851,95.018c5.655,5.979,9.455,11.074,11.786,14.559c1.166,1.739,1.965,3.077,2.442,3.919    c0.238,0.422,0.397,0.718,0.481,0.881c0.019,0.035,0.035,0.064,0.046,0.087c0.02,0.043,0.025,0.051,0.025,0.051    c0.434,0.89,0.964,1.7,1.564,2.435c0.869,1.985,2.685,3.922,5.07,6.234c6.576,6.382,15.73,12.763,29.067,3.214    c4.76-3.989,8.794-7.683,12.354-11.353c1.529-6.286,2.311-12.427,2.316-18.379C132.006,83.11,127.976,75.346,127.517,74.507z"></path><path d="M126.593,149.32c1.149,0.575,2.37,0.848,3.572,0.848c2.935,0,5.76-1.621,7.161-4.424    c9.65-19.284,12.688-35.996,12.679-49.075c-0.004-19.212-6.441-30.397-6.963-31.27c-2.264-3.794-7.174-5.035-10.968-2.772    c-3.776,2.25-5.024,7.123-2.808,10.908l-0.001,0.001c0.148,0.27,4.742,8.532,4.739,23.133    c-0.011,10.634-2.397,24.711-10.989,41.918C121.039,142.538,122.641,147.345,126.593,149.32z"></path></g><path d="M141.735,141.096c-0.828,1.845-1.695,3.692-2.623,5.544c-1.703,3.409-5.132,5.528-8.948,5.528   c-1.561,0-3.066-0.357-4.467-1.06c-3.833-1.916-5.887-5.979-5.458-10.012h-10.401v80.736h82v-80.736H141.735z"></path></g></svg>