<svg height='100px' width='100px'  fill="#1A1A1A" xmlns="http://www.w3.org/2000/svg" xmlns:xlink="http://www.w3.org/1999/xlink" version="1.1" x="0px" y="0px" viewBox="0 0 100 100" enable-background="new 0 0 100 100" xml:space="preserve"><g><path d="M76.828,36.171c-0.448-0.87-1.344-1.416-2.322-1.416H54.731L69.33,9.884c0.474-0.808,0.479-1.807,0.014-2.62   c-0.465-0.813-1.33-1.314-2.267-1.314H37.615c-1.123,0-2.121,0.718-2.477,1.784L21.304,49.092   c-0.266,0.797-0.133,1.673,0.357,2.355c0.491,0.682,1.28,1.086,2.12,1.086h20.85L33.443,90.703   c-0.359,1.224,0.218,2.527,1.365,3.084c0.366,0.178,0.755,0.263,1.14,0.263c0.822,0,1.624-0.389,2.128-1.096l38.556-54.071   C77.201,38.087,77.276,37.041,76.828,36.171z"></path></g></svg>