<svg xmlns="http://www.w3.org/2000/svg" xmlns:xlink="http://www.w3.org/1999/xlink" version="1.1" x="0px" y="0px" viewBox="0 0 96 96" enable-background="new 0 0 96 96" xml:space="preserve"><g><path d="M78.182,1.5H35.354c-0.101,0-0.199,0.01-0.296,0.03c-0.067,0.014-0.131,0.037-0.194,0.059   c-0.028,0.01-0.059,0.015-0.086,0.027c-0.07,0.029-0.136,0.067-0.2,0.106c-0.019,0.011-0.039,0.019-0.058,0.031   c-0.082,0.055-0.158,0.118-0.228,0.187l-17.528,17.53c-0.072,0.072-0.138,0.15-0.194,0.235c-0.001,0.001-0.001,0.003-0.002,0.004   c-0.053,0.08-0.098,0.164-0.135,0.252c-0.007,0.015-0.009,0.032-0.015,0.047c-0.028,0.075-0.055,0.151-0.071,0.232   c-0.016,0.08-0.021,0.163-0.024,0.245c0,0.017-0.005,0.033-0.005,0.05v0v0V93c0,0.828,0.672,1.5,1.5,1.5h60.363   c0.828,0,1.5-0.672,1.5-1.5V3C79.682,2.172,79.01,1.5,78.182,1.5z M33.854,6.622v12.416H21.44L33.854,6.622z M76.682,91.5H19.318   V22.038h16.036c0.828,0,1.5-0.671,1.5-1.5V4.5h39.827V91.5z"></path><path d="M55.591,29.694h14.776c0.828,0,1.5-0.671,1.5-1.5V12.882c0-0.829-0.672-1.5-1.5-1.5H55.591c-0.828,0-1.5,0.671-1.5,1.5   v15.312C54.091,29.022,54.763,29.694,55.591,29.694z M57.091,14.382h11.776v12.312H57.091V14.382z"></path><path d="M67.256,38.623H28.795c-0.828,0-1.5,0.671-1.5,1.5s0.672,1.5,1.5,1.5h38.461c0.828,0,1.5-0.671,1.5-1.5   S68.084,38.623,67.256,38.623z"></path><path d="M67.256,51.708H28.795c-0.828,0-1.5,0.672-1.5,1.5s0.672,1.5,1.5,1.5h38.461c0.828,0,1.5-0.672,1.5-1.5   S68.084,51.708,67.256,51.708z"></path><path d="M67.256,64.794H28.795c-0.828,0-1.5,0.672-1.5,1.5s0.672,1.5,1.5,1.5h38.461c0.828,0,1.5-0.672,1.5-1.5   S68.084,64.794,67.256,64.794z"></path><path d="M40.46,74.14l-7.824,7.889l-2.672-3.321c-0.521-0.645-1.463-0.747-2.109-0.229c-0.646,0.52-0.748,1.464-0.229,2.109   l3.724,4.629c0.268,0.332,0.665,0.535,1.091,0.558c0.026,0.001,0.053,0.002,0.078,0.002c0.398,0,0.782-0.159,1.065-0.443   l9.007-9.08c0.583-0.589,0.579-1.538-0.009-2.122C41.993,73.548,41.045,73.553,40.46,74.14z"></path><path d="M66.536,79.044l-2.486,1.359l-1.748-2.872c-0.252-0.414-0.689-0.681-1.174-0.716c-0.479-0.039-0.955,0.166-1.264,0.541   l-2.353,2.849l-1.148-1.104c-0.304-0.292-0.714-0.441-1.138-0.416c-0.421,0.027-0.811,0.23-1.073,0.561l-1.78,2.226   c-0.518,0.646-0.413,1.591,0.234,2.107c0.647,0.52,1.592,0.413,2.107-0.234l0.754-0.941l1.13,1.086   c0.3,0.289,0.709,0.442,1.126,0.416c0.417-0.023,0.805-0.22,1.07-0.542l2.041-2.471l1.397,2.296c0.281,0.462,0.775,0.72,1.282,0.72   c0.244,0,0.491-0.06,0.719-0.185l3.742-2.048c0.728-0.397,0.994-1.309,0.596-2.035C68.173,78.912,67.262,78.649,66.536,79.044z"></path></g></svg>