<svg height='100px' width='100px'  fill="#1A1A1A" xmlns:dc="http://purl.org/dc/elements/1.1/" xmlns:cc="http://creativecommons.org/ns#" xmlns:rdf="http://www.w3.org/1999/02/22-rdf-syntax-ns#" xmlns:svg="http://www.w3.org/2000/svg" xmlns="http://www.w3.org/2000/svg" xmlns:sodipodi="http://sodipodi.sourceforge.net/DTD/sodipodi-0.dtd" xmlns:inkscape="http://www.inkscape.org/namespaces/inkscape" viewBox="0 0 16.933333 16.933333" version="1.1" x="0px" y="0px"><path style="color:#000000;font-style:normal;font-variant:normal;font-weight:normal;font-stretch:normal;font-size:medium;line-height:normal;font-family:sans-serif;font-variant-ligatures:normal;font-variant-position:normal;font-variant-caps:normal;font-variant-numeric:normal;font-variant-alternates:normal;font-feature-settings:normal;text-indent:0;text-align:start;text-decoration:none;text-decoration-line:none;text-decoration-style:solid;text-decoration-color:#000000;letter-spacing:normal;word-spacing:normal;text-transform:none;writing-mode:lr-tb;direction:ltr;text-orientation:mixed;dominant-baseline:auto;baseline-shift:baseline;text-anchor:start;white-space:normal;shape-padding:0;clip-rule:nonzero;display:inline;overflow:visible;visibility:visible;opacity:1;isolation:auto;mix-blend-mode:normal;color-interpolation:sRGB;color-interpolation-filters:linearRGB;solid-color:#000000;solid-opacity:1;vector-effect:none;fill:#1A1A1A;fill-opacity:1;fill-rule:nonzero;stroke:none;stroke-width:4.23333;stroke-linecap:round;stroke-linejoin:round;stroke-miterlimit:4;stroke-dasharray:none;stroke-dashoffset:0;stroke-opacity:1;paint-order:fill markers stroke;color-rendering:auto;image-rendering:auto;shape-rendering:auto;text-rendering:auto;enable-background:accumulate" d="M 5.8213789,3.1749998 C 2.9023895,3.175529 0.53074389,5.5462829 0.53074389,8.4640811 c 0.00265,0.919602 0.2496,1.8183279 0.70590041,2.6148299 l -0.69246221,2.077918 c -0.0689,0.206799 0.1280371,0.403252 0.3348619,0.334328 L 2.8613526,12.83073 c 0.87376,0.593011 1.9017456,0.919904 2.9600263,0.921412 1.377024,0 2.631651,-0.528188 3.580659,-1.40044 1.0548671,-0.975334 1.7156581,-2.3551829 1.7156581,-3.8902028 0,-0.7850796 -0.17659,-1.5279054 -0.484724,-2.1983144 C 9.7966509,4.4420841 7.9551899,3.1752009 5.8213789,3.1749998 Z m 6.6125161,2.6504847 c -0.445891,1.217e-4 -0.885613,0.078407 -1.302247,0.2247926 0.336603,0.7357189 0.526066,1.5517521 0.526066,2.4112221 0,1.6845888 -0.722281,3.2055938 -1.8732711,4.2721028 0.7193221,0.649949 1.6597651,1.023646 2.6499681,1.024731 0.810604,0 1.595252,-0.25908 2.257743,-0.720884 l 1.362191,0.453708 c 0.206878,0.069 0.403349,-0.127953 0.334346,-0.334857 l -0.486275,-1.457801 c 0.322501,-0.583777 0.499343,-1.237732 0.500745,-1.9063308 0,-2.1873529 -1.779733,-3.9661201 -3.968234,-3.9666836 h -5.29e-4 z M 5.8172429,6.1469109 c 0.149106,-0.00212 0.270301,0.1191022 0.268203,0.2682001 v 0.5291667 h 0.794266 c 0.148296,-0.0031 0.269751,0.1161838 0.269751,0.2645833 0,0.1483016 -0.121455,0.2645834 -0.269751,0.2645834 h -0.243396 c -0.0073,0.4263017 -0.100065,1.1126757 -0.50333,1.8086757 0.255749,0.352999 0.619525,0.700741 1.143085,1.0030409 0.128699,0.0721 0.174022,0.235066 0.100251,0.362767 -0.07377,0.128 -0.238091,0.171085 -0.364834,0.09509 -0.514401,-0.297 -0.902007,-0.643742 -1.19166,-1.0030409 C 5.5322895,10.098776 5.1468763,10.445018 4.6307536,10.743018 4.5040076,10.818518 4.3396881,10.775728 4.265917,10.647928 4.192143,10.520227 4.23695,10.357159 4.365654,10.285161 4.8837717,9.9860601 5.2498015,9.6395221 5.5077015,9.2883221 5.4089565,9.1199221 5.3287664,8.9521101 5.264306,8.7886111 5.192281,8.6135101 5.32193,8.4237751 5.5113183,8.4237751 c 0.1091883,0.0011 0.206883,0.06895 0.2454643,0.17105 0.02048,0.052 0.04302,0.104095 0.06718,0.157094 0.231539,-0.503799 0.280604,-0.971275 0.283705,-1.2784747 H 4.7630452 C 4.6147489,7.4766458 4.492776,7.3571626 4.492776,7.208861 c 0,-0.1483995 0.1219729,-0.2645833 0.2702692,-0.2645833 h 0.79375 V 6.415111 C 5.5546786,6.2692119 5.6712778,6.1469109 5.8172429,6.1469109 Z m 6.9670161,1.7911042 c 0.122251,0.0049 0.217332,0.07644 0.252182,0.179835 l 1.070219,3.1749889 c 0.04963,0.139304 -0.02466,0.292524 -0.164849,0.339514 -0.140173,0.0472 -0.292129,-0.03006 -0.336928,-0.171027 l -0.473358,-1.404575 h -0.691946 l -0.473356,1.404575 c -0.0448,0.1406 -0.196752,0.218043 -0.336931,0.171027 -0.140189,-0.04715 -0.214476,-0.20021 -0.164849,-0.339514 l 1.070221,-3.1749889 c 0.03458,-0.10283 0.128223,-0.169833 0.249595,-0.179835 z m 0.0011,1.092441 -0.16743,0.497129 h 0.33538 z"></path></svg>