<svg xmlns="http://www.w3.org/2000/svg" xmlns:xlink="http://www.w3.org/1999/xlink" version="1.1" x="0px" y="0px" viewBox="0 0 100 100" enable-background="new 0 0 100 100" xml:space="preserve"><g><path d="M50.09,75.563l-1.848,2.466c-0.477,0.635-4.647,6.34-4.647,11.156c0,3.582,2.914,6.496,6.495,6.496   c3.582,0,6.496-2.914,6.496-6.496c0-4.816-4.172-10.521-4.647-11.156L50.09,75.563z M50.09,93.372   c-2.312,0-4.186-1.874-4.186-4.187c0-4.186,4.186-9.771,4.186-9.771s4.187,5.585,4.187,9.771   C54.276,91.498,52.402,93.372,50.09,93.372z"></path><path d="M95,25.244h-4.497l-4.095-12.313L73.159,8.503h-9.016l-4.176,4.185h-7.156l-4.196-8.37h-9.337l-16.697,8.37h-8.909   L9.496,25.244H5v6.496h4.175v7.854L42.572,60.54v13.07h14.855V60.541l33.503-20.947v-7.855H95V25.244z M65.102,10.813h7.683   l11.797,3.942l3.487,10.488H73.45l-11.372-11.4L65.102,10.813z M52.931,14.998h7.037l10.221,10.246H49.506L52.931,14.998z    M39.825,6.628h7.364l3.662,7.304L47.07,25.244H27.861l-3.596-10.816L39.825,6.628z M15.338,14.998h6.683l3.407,10.246H11.931   L15.338,14.998z M88.62,38.314L55.118,59.261v12.04H44.882V59.262L11.484,38.315v-6.576H88.62V38.314z M92.69,29.429H7.31v-1.875   H92.69V29.429z"></path></g></svg>