<svg height='100px' width='100px'  fill="#1A1A1A" xmlns="http://www.w3.org/2000/svg" data-name="Layer 1" viewBox="0 0 100 100" x="0px" y="0px"><title>ui</title><path d="M75.12,94.12H24.87A7.88,7.88,0,0,1,17,86.26V19.42a7.89,7.89,0,0,1,7.87-7.88H36.52v2.32H24.87a5.57,5.57,0,0,0-5.56,5.56V86.26a5.57,5.57,0,0,0,5.56,5.55H75.12a5.57,5.57,0,0,0,5.57-5.55V19.42a5.57,5.57,0,0,0-5.57-5.56H63.48V11.54H75.12A7.9,7.9,0,0,1,83,19.42V86.26A7.88,7.88,0,0,1,75.12,94.12Z"></path><rect x="43.66" y="30.19" width="27.99" height="2.31"></rect><rect x="43.66" y="35.92" width="14" height="2.31"></rect><rect x="43.66" y="52.65" width="27.99" height="2.31"></rect><rect x="43.66" y="58.37" width="14" height="2.31"></rect><rect x="43.66" y="73.69" width="27.99" height="2.31"></rect><rect x="43.66" y="79.41" width="14" height="2.31"></rect><polygon points="32.05 32.15 33.99 34.92 32.74 34.97 38.81 28.11 34.03 35.93 33.56 36.71 32.77 35.98 30.3 33.66 32.05 32.15"></polygon><polygon points="38.3 39.77 27.19 39.77 27.19 28.65 32.74 28.65 32.74 30.97 29.5 30.97 29.5 37.46 35.99 37.46 35.99 34.21 38.3 34.21 38.3 39.77"></polygon><path d="M38.3,62.23H27.19V51.11H38.3Zm-8.8-2.32H36V53.42H29.5Z"></path><path d="M38.3,83.26H27.19V72.15H38.3ZM29.5,81H36V74.46H29.5Z"></path><path d="M57.79,19.55H42.21a6.84,6.84,0,1,1,0-13.67H57.79a6.84,6.84,0,1,1,0,13.67ZM42.21,8.19a4.52,4.52,0,1,0,0,9H57.79a4.52,4.52,0,1,0,0-9Z"></path></svg>