<svg height='100px' width='100px'  fill="#B30000" xmlns="http://www.w3.org/2000/svg" xmlns:xlink="http://www.w3.org/1999/xlink" xmlns:a="http://ns.adobe.com/AdobeSVGViewerExtensions/3.0/" version="1.1" x="0px" y="0px" viewBox="-0.649 -2.239 100 100" enable-background="new -0.649 -2.239 100 100" xml:space="preserve"><path display="none" d="M69.422,23.775c-1-0.95-2.099-1.85-3.299-2.699l-0.399,20.592c0,0.4-0.15,0.75-0.45,1.05  c-0.3,0.25-0.649,0.399-1.05,0.399c-0.449,0-0.799-0.15-1.049-0.45c-0.301-0.3-0.45-0.649-0.45-1.049l0.45-22.541  c-2.449-1.549-5.099-2.799-7.848-3.849l-0.5,26.54c0,0.4-0.149,0.75-0.449,1.049c-0.301,0.25-0.65,0.4-1.05,0.4  c-0.45,0-0.8-0.15-1.05-0.45c-0.3-0.3-0.449-0.65-0.449-1.05l0.549-27.489c-2.549-0.75-5.248-1.35-7.996-1.699l-0.55,29.238  c0,0.4-0.149,0.75-0.45,1.049c-0.3,0.25-0.649,0.4-1.049,0.4c-0.45,0-0.801-0.15-1.051-0.45c-0.299-0.3-0.449-0.65-0.449-1.05  l0.6-29.538c-1.85-0.15-3.799-0.25-5.748-0.25c-0.749,0-1.499,0-2.249,0.05l-0.6,29.788c0,0.4-0.15,0.75-0.45,1.049  c-0.3,0.25-0.65,0.4-1.05,0.4c-0.45,0-0.8-0.15-1.049-0.45c-0.3-0.3-0.45-0.65-0.45-1.05l0.6-29.588  c-2.799,0.25-5.498,0.649-8.047,1.199l-0.55,28.439c0,0.4-0.15,0.75-0.45,1.049c-0.3,0.25-0.65,0.4-1.05,0.4  c-0.45,0-0.8-0.15-1.05-0.45c-0.3-0.3-0.45-0.65-0.45-1.05l0.55-27.589c-4.748,1.35-9.046,3.399-12.995,6.048l-0.05,0.05  c2.499,3.948,3.748,8.546,3.748,13.694c0,6.448-1.949,11.945-5.797,16.493c-1.35,1.6-2.749,2.899-4.298,3.949  c1.749,1.949,3.849,3.799,6.397,5.547c3.548,2.449,7.447,4.349,11.695,5.698v4.698h11.096v-4.049h29.988v4.049h11.096v-4.049h17.192  c0.301-0.899,0.451-1.85,0.451-2.898c0-2.449-0.9-4.598-2.65-6.348c-1.748-1.749-3.848-2.599-6.297-2.599  c-1.949,0-3.699,0.55-5.248,1.699v-4.849c2.199-3.448,3.299-7.146,3.299-11.195c0-5.748-2.25-10.896-6.697-15.394  C70.022,24.375,69.722,24.075,69.422,23.775L69.422,23.775z M7.497,55.513c-0.5-0.45-0.75-1-0.75-1.649  c0-0.65,0.25-1.199,0.75-1.649c0.5-0.45,1.1-0.7,1.799-0.7s1.299,0.25,1.799,0.7c0.5,0.45,0.75,0.999,0.75,1.649  c0,0.649-0.25,1.199-0.75,1.649c-0.5,0.45-1.1,0.7-1.799,0.7S7.997,55.963,7.497,55.513L7.497,55.513z"></path><path d="M14.079,11.704C8.566,17.558,5.172,24.43,3.903,32.146c1.269-2.118,2.884-4.153,5.002-5.937  c5.346-4.495,11.708-6.786,19.172-6.786c7.548,0,13.909,2.291,19.169,6.786c3.82,3.308,6.279,7.041,7.378,11.283  c-2.628,1.525-5.002,3.646-7.292,6.275c-0.765,0.935-1.441,1.867-2.039,2.8h-3.646c0-0.254,0-0.593,0-0.848  c0-1.953-0.337-3.819-0.931-5.516h2.291v-8.227h-8.824c-2.797-1.866-5.937-2.798-9.5-2.798c-4.664,0-8.651,1.612-11.959,4.833  c-3.308,3.226-5.005,7.127-5.005,11.708c0,3.814,1.187,7.209,3.563,10.093h14.506v28.245l2.121,4.581h3.136l3.818-8.565v7.802h4.919  l1.698-3.899l0.337-0.851c0.086,0.255,0.256,0.594,0.341,0.851l2.46,0.675v11.285H55.39c-5.055-8.907-0.175-16.546,2.035-18.323  c2.621-2.104,5.512-3.394,8.99-3.394c3.477,0,6.533,1.104,8.993,3.394c2.12,1.949,7.491,9.946,2.173,18.474l10.751-0.036  l0.625-6.619c4.655-7.441,6.469-12.838,6.469-19.793c0-9.586-2.799-17.813-8.313-24.768c-2.967-3.731-6.192-6.446-9.838-8.143  c-0.681-9.67-4.243-17.983-10.772-25.023C59.292,3.901,50.554,0,40.292,0C30.026,0,21.292,3.901,14.079,11.704L14.079,11.704z   M21.206,36.728c0.68,0,1.273,0.255,1.697,0.765c0.507,0.593,0.762,1.187,0.762,1.949s-0.255,1.359-0.762,1.866  c-0.424,0.593-1.018,0.849-1.697,0.849c-0.679,0-1.272-0.255-1.78-0.849c-0.424-0.507-0.679-1.104-0.679-1.866  s0.255-1.356,0.679-1.949C19.933,36.982,20.526,36.728,21.206,36.728L21.206,36.728z"></path></svg>