<svg height='100px' width='100px'  fill="#1A1A1A" xmlns="http://www.w3.org/2000/svg" xmlns:xlink="http://www.w3.org/1999/xlink" version="1.1" x="0px" y="0px" viewBox="0 0 100 100" style="enable-background:new 0 0 100 100;" xml:space="preserve"><style type="text/css">
	.st0{fill:#1A1A1A;stroke:#1A1A1A;stroke-miterlimit:10;}
</style><path d="M89,43.5c0-5.3-1-10.4-3.1-15.3c-2-4.7-4.8-8.9-8.4-12.5c-0.6-0.6-1.1-1.1-1.7-1.6v6.2H69c6.7,5.5,10.9,13.9,10.9,23.2  c0,5.9-1.7,11.4-4.7,16.1v7.7H81c2-2.6,3.6-5.4,4.9-8.5C88,53.9,89,48.8,89,43.5z"></path><path d="M11.3,43.4c0,5.3,1,10.4,3.1,15.3c2,4.7,4.8,8.9,8.4,12.5c0.6,0.6,1.1,1.1,1.7,1.6c0,0,0-14.1,0-14.2  c-2.6-4.5-4.1-9.7-4.1-15.2c0-5.9,1.7-11.4,4.7-16.1v-7.7h-5.8c-2,2.6-3.6,5.4-4.9,8.5C12.3,33,11.3,38.1,11.3,43.4z"></path><path d="M50.2,4.7c-5.3,0-10.4,1-15.3,3.1c-4.7,2-8.9,4.8-12.5,8.4c-0.6,0.6-1.1,1.1-1.6,1.7H27v6.8c5.5-6.7,13.9-10.9,23.2-10.9  c5.9,0,11.4,1.7,16.1,4.7H74v-5.8c-2.6-2-5.4-3.6-8.5-4.9C60.7,5.7,55.5,4.7,50.2,4.7z"></path><path d="M29,54.9L50,67l21.1-12.2l-21-12.1L29,54.9z M73.1,58.2l-21,12.1v24.4l21-12.1V58.2z M27.1,58.3v24.2l21,12.1V70.5  L27.1,58.3z"></path></svg>