<svg xmlns="http://www.w3.org/2000/svg" xmlns:xlink="http://www.w3.org/1999/xlink" version="1.1" x="0px" y="0px" viewBox="0 0 100 100" enable-background="new 0 0 100 100" xml:space="preserve"><g><path d="M80.532,2.768c2.438,0,6.428,1.022,8.648,3.455l-2.99,5.75c-1.311-1.691-3.355-2.775-5.66-2.775   c-2.275,0-4.299,1.06-5.607,2.719l-3.051-5.566C74.44,3.778,77.993,2.768,80.532,2.768"></path><path d="M86.012,16.799c0,3.033-2.459,5.492-5.496,5.492c-3.034,0-5.487-2.458-5.487-5.492c0-3.036,2.453-5.495,5.487-5.495   C83.553,11.305,86.012,13.764,86.012,16.799"></path></g><path d="M98.732,46.24l-5.069-16.73c-0.654-1.962-3.377-5.525-7.698-5.525h-10.45c-4.357,0-6.893,3.536-7.462,5.525l-1.941,5.038  l-6.608-4.977c-3.251-2.424-6.393,1.726-3.151,4.17l9.359,7.079l0.005-0.005c1.248,0.979,3.345,0.704,4.044-1.457l2.619-6.772h2.076  l-8.204,26.449h7.651l0.002,20.505c0,3.818,5.721,3.818,5.721,0l-0.003-20.503h2.624v20.531c0,3.773,5.098,3.79,5.098,0V59.035  h7.326l-7.686-26.446h2.357l4.536,15.3C95.015,51.547,99.791,49.994,98.732,46.24z"></path><polygon points="58.979,25.39 58.979,16.231 57.638,16.231 57.638,8.32 56.551,8.32 56.551,16.231 55.179,16.231 55.179,25.39   53.314,25.39 53.314,27.458 60.844,27.458 60.844,25.39 "></polygon><path d="M6.045,84.448c-3.764-1.898-5.266-6.494-3.371-10.245c1.888-3.752,6.483-5.259,10.251-3.353  c3.755,1.909,5.253,6.494,3.36,10.245C14.384,84.845,9.792,86.355,6.045,84.448z"></path><path d="M4.853,87.789h7.271h7.277l0.109-12.421c0.112-4.656,0.794-8.063,2.958-10.901c1.953-2.572,3.915-5.684,12.266-8.293  c12.452-3.898,22.326,2.551,23.51,3.29c3.821,2.403,4.982,7.447,2.588,11.279c-0.412,0.651-0.919,1.194-1.459,1.684  c-0.065,0.088-0.087,0.192-0.163,0.268L46.083,87.032h16.036c2.407,0,4.361,1.95,4.361,4.355c0,2.418-1.954,4.368-4.361,4.368H36.17  c-1.73,0-3.296-1.023-3.994-2.609c-0.491-1.107-0.457-2.334-0.01-3.419c0.047-0.885,0.233-1.77,0.734-2.568l9.749-15.732  c-1.21-0.042-2.484,0.073-3.751,0.49c-3.696,1.181-6.333,3.643-6.338,3.643c0,0-0.448,0.436-0.666,0.662l-4.266,16.275  c-0.034,0.138-0.118,0.235-0.16,0.36c-0.076,0.202-0.159,0.396-0.263,0.573c-0.152,0.291-0.328,0.545-0.538,0.78  c-0.131,0.149-0.248,0.297-0.398,0.427c-0.26,0.233-0.549,0.405-0.851,0.563c-0.156,0.086-0.289,0.182-0.454,0.245  c-0.488,0.19-1.005,0.31-1.555,0.31H12.125H4.853c-2.406,0-4.359-1.47-4.359-3.877S2.447,87.789,4.853,87.789z"></path></svg>