<svg height='100px' width='100px'  fill="#1A1A1A" xmlns="http://www.w3.org/2000/svg" xmlns:xlink="http://www.w3.org/1999/xlink" version="1.1" x="0px" y="0px" viewBox="0 0 160 160" style="enable-background:new 0 0 160 160;" xml:space="preserve"><path d="M127.29,26.37c0,0.82-0.32,1.58-0.89,2.15c-0.57,0.58-1.34,0.89-2.15,0.89s-1.57-0.31-2.15-0.89  c-0.57-0.57-0.88-1.33-0.88-2.15c0-0.81,0.31-1.57,0.88-2.14c1.15-1.15,3.15-1.15,4.3,0C126.97,24.8,127.29,25.56,127.29,26.37z"></path><line x1="94.044" y1="67.041" x2="94.044" y2="67.041"></line><path d="M134.49,36.62c-0.59,0.59-1.37,0.89-2.14,0.89c-0.78,0-1.56-0.3-2.15-0.89c-1.18-1.19-1.18-3.11,0-4.3  c1.18-1.18,3.11-1.18,4.29,0C135.68,33.51,135.68,35.43,134.49,36.62z"></path><path d="M118.3,20.43c-0.59,0.59-1.37,0.88-2.14,0.88c-0.78,0-1.56-0.29-2.15-0.88c-1.18-1.19-1.18-3.11,0-4.3  c1.18-1.18,3.11-1.18,4.29,0C119.49,17.32,119.49,19.24,118.3,20.43z"></path><path d="M109.7,61.42c-0.58,0.57-1.34,0.89-2.15,0.89s-1.57-0.32-2.15-0.89c-1.18-1.19-1.18-3.11,0-4.3c1.15-1.14,3.15-1.14,4.3,0  C110.88,58.31,110.88,60.23,109.7,61.42z"></path><path d="M94.4,43.08c0,0.81-0.32,1.57-0.89,2.15c-0.58,0.57-1.34,0.89-2.15,0.89s-1.57-0.32-2.15-0.89c-1.18-1.19-1.18-3.11,0-4.3  c1.15-1.15,3.15-1.15,4.3,0C94.08,41.5,94.4,42.27,94.4,43.08z"></path><path d="M101.6,53.32c-0.57,0.58-1.33,0.89-2.14,0.89c-0.82,0-1.58-0.31-2.15-0.89c-0.58-0.57-0.89-1.33-0.89-2.15  c0-0.81,0.31-1.57,0.89-2.14c1.14-1.15,3.15-1.15,4.29,0C102.79,50.21,102.79,52.14,101.6,53.32z"></path><path d="M137.83,49.84l2.29-2.28c7.33-7.34,7.33-19.26,0-26.59l-10.46-10.46C126.11,6.96,121.39,5,116.37,5  c-5.03,0-9.75,1.96-13.3,5.51l-2.28,2.28L99,11c-1.31-1.31-3.64-1.31-4.95,0l-9.97,9.97c-1.36,1.37-1.36,3.58,0,4.95l1.79,1.79  l-2.28,2.28c-2.93,2.93-4.67,6.59-5.26,10.39l-63.12,74.44c-1.17,1.39-1.09,3.45,0.2,4.74l5.37,5.37  c-2.94,3.04-4.56,7.03-4.56,11.27c0,4.34,1.69,8.43,4.76,11.49l6.28,6.28c0.68,0.69,1.58,1.03,2.47,1.03c0.9,0,1.79-0.34,2.48-1.03  c1.36-1.36,1.36-3.58,0-4.95l-6.28-6.27c-1.75-1.75-2.71-4.08-2.71-6.55c0-2.37,0.89-4.6,2.51-6.32l5.35,5.35  c0.68,0.68,1.58,1.02,2.48,1.02c0.8,0,1.6-0.27,2.26-0.83l74.41-63.11c3.93-0.61,7.55-2.41,10.41-5.27l2.28-2.28l1.79,1.79  c0.65,0.65,1.54,1.02,2.47,1.02s1.82-0.37,2.48-1.02l9.96-9.97c1.37-1.37,1.37-3.58,0-4.95L137.83,49.84z M33.75,128l-11.11-11.11  l14.41-17l13.7,13.69L33.75,128z M54.57,110.34L40.3,96.06l4.53-5.34l15.08,15.09L54.57,110.34z M63.74,102.56L48.07,86.9  l31.27-36.88c0.92,2.39,2.32,4.64,4.25,6.56l10.45,10.46c1.9,1.9,4.14,3.32,6.57,4.25L63.74,102.56z M115.69,62.09  c-2.23,2.23-5.2,3.46-8.35,3.46c-3.15,0-6.12-1.23-8.35-3.46L88.54,51.63c-4.6-4.6-4.6-12.09,0-16.69l2.28-2.28l27.15,27.15  L115.69,62.09z M127.18,59.12L91.51,23.45l5.02-5.02L132.2,54.1L127.18,59.12z M132.88,44.89l-27.14-27.15l2.28-2.28  c2.23-2.23,5.19-3.46,8.35-3.46c3.15,0,6.11,1.23,8.34,3.46l10.46,10.46c4.6,4.6,4.6,12.08,0,16.69L132.88,44.89z"></path><path d="M73.099,65.095l-4.137,4.137c0,0-0.001,0.001-0.001,0.001s-0.001,0.001-0.001,0.001l-4.139,4.138  c-3.358,3.36-3.358,8.827,0,12.187c0.001,0,0.001,0,0.001,0c1.627,1.628,3.791,2.524,6.094,2.524c2.302,0,4.466-0.896,6.094-2.524  l8.277-8.278c3.359-3.359,3.359-8.826,0-12.187C81.927,61.735,76.458,61.734,73.099,65.095z M68.358,82.024  C68.357,82.024,68.357,82.024,68.358,82.024c-1.411-1.41-1.411-3.705-0.001-5.116l2.371-2.371l5.116,5.117l-2.371,2.371  C72.106,83.392,69.722,83.39,68.358,82.024z M81.751,73.746l-2.372,2.372l-5.116-5.117l2.371-2.371  c0.705-0.706,1.632-1.058,2.559-1.058s1.854,0.353,2.559,1.058C83.161,70.041,83.161,72.335,81.751,73.746z"></path></svg>