<svg height='100px' width='100px'  fill="#1A1A1A" xmlns="http://www.w3.org/2000/svg" xmlns:xlink="http://www.w3.org/1999/xlink" version="1.1" x="0px" y="0px" viewBox="0 0 50 50" enable-background="new 0 0 50 50" xml:space="preserve"><g><path d="M1.7,4.8h15.7c0.3-0.6,0.8-1.1,1.3-1.3h-17C1.3,3.4,1,3.7,1,4.1C1,4.5,1.3,4.8,1.7,4.8z"></path><path d="M22.5,4.8h25.9c0.4,0,0.7-0.3,0.7-0.7c0-0.4-0.3-0.7-0.7-0.7H21.1C21.7,3.7,22.2,4.2,22.5,4.8z"></path><path d="M15.5,9.4L16,8.1H9.4c0.3,0.4,0.5,0.9,0.7,1.3H15.5z"></path><polygon points="19.4,9.4 20.2,9.4 19.9,8.4  "></polygon><path d="M26.1,9.4c0.5-0.3,1.1-0.5,1.7-0.5h2.5l0-0.1c0.1-0.3,0.2-0.5,0.4-0.7h-7.1l0.5,1.3H26.1z"></path><path d="M48.3,8.1H35.2c0.2,0.2,0.3,0.5,0.4,0.8l0.2,0.4c0.5-0.6,1.3-0.9,2.1-0.9h3.4c0.8,0,1.7,0.4,2.2,1h0.4c0.5-0.6,1.3-1,2.2-1   h1.7c0.5,0,1,0.2,1.3,0.5C49.1,8.4,48.7,8.1,48.3,8.1z"></path><path d="M21.9,14.1l-0.5-1.3h-3.9c-0.4,0.3-0.9,0.4-1.5,0.4h-4.3c-0.4,0-0.9-0.2-1.2-0.4H10c-0.2,0.5-0.4,0.9-0.7,1.3H21.9z"></path><path d="M33.1,12.7h-4.9l-0.8,1.3h7.1C34,13.8,33.4,13.3,33.1,12.7z"></path><path d="M41.5,12.9l-0.2-0.2h-3.1c-0.3,0.6-0.8,1.1-1.4,1.3h6.5C42.6,14,41.9,13.6,41.5,12.9z"></path><path d="M48.3,12.7h-2.2c-0.4,0.7-1.2,1.2-2,1.3h4.3c0.4,0,0.7-0.3,0.7-0.7C49,13,48.7,12.7,48.3,12.7z"></path><path d="M49,18c0-0.4-0.3-0.7-0.7-0.7H1.7C1.3,17.4,1,17.7,1,18c0,0.4,0.3,0.7,0.7,0.7h46.7C48.7,18.7,49,18.4,49,18z"></path><path d="M17.7,22H8.6c0.4,0.4,0.8,0.8,1.1,1.3h6.4C16.7,22.8,17,22.3,17.7,22z"></path><path d="M21.2,23.3h7.2l0.1-0.1c1.1-1.5,3.3-1.5,4.4,0.1h7.1c0.1-0.1,0.7-1.3,2.4-1.3H19.8C20.4,22.3,20.9,22.7,21.2,23.3z"></path><path d="M48.3,22h-5.9c1.4,0,2.1,1,2.5,1.3h3.4c0.4,0,0.7-0.3,0.7-0.7C49,22.3,48.7,22,48.3,22z"></path><path d="M19.4,28l-0.6-1.3H18c-2.1,1.4-7.1,1.1-7.8,0.1c-0.1,0.4-0.2,0.8-0.4,1.2H19.4z"></path><path d="M25.5,27.6L25.3,28h5.5l-0.4-1.1C29.1,28,27.8,27.4,25.5,27.6z"></path><path d="M47.7,27.6c-1.8-0.3-2.2,0.7-4.6-0.9h-0.8c-1.3,1.4-2.9,0.7-6,0.9L36,28h12.3c0.4,0,0.7-0.3,0.7-0.7c0-0.1,0-0.2-0.1-0.3   C48.6,27.4,48.2,27.6,47.7,27.6z"></path><path d="M49,32c0-0.4-0.3-0.7-0.7-0.7H1.7C1.3,31.3,1,31.6,1,32c0,0.4,0.3,0.7,0.7,0.7h46.7C48.7,32.6,49,32.3,49,32z"></path><path d="M1,36.6c0,0.2,0.1,0.4,0.3,0.6c0.4-0.5,1-0.9,1.6-1.2H1.7C1.3,35.9,1,36.2,1,36.6z"></path><path d="M24.6,35.9H7.4c0.7,0.3,1.2,0.8,1.7,1.3h14.3C23.7,36.7,24.1,36.2,24.6,35.9z"></path><path d="M28.5,37.3h3.3c1-1.1,2.8-1.1,3.9,0h4.5l0.4-1.3H27.2C27.9,36.3,28.1,36.8,28.5,37.3z"></path><path d="M48.3,35.9h-2.2l0.5,1.3h1.6c0.4,0,0.7-0.3,0.7-0.7S48.7,35.9,48.3,35.9z"></path><polygon points="22.2,40.6 20.8,40.6 21.7,41.9  "></polygon><path d="M26.1,40.6l-0.5,1.3h1.8c-0.1-0.1-0.1-0.2-1-1.3H26.1z"></path><path d="M33.9,41.9l-0.2-0.4c-0.1,0.1-0.2,0.3-0.3,0.4H33.9z"></path><path d="M44.2,40.6h-1.5c-1,1.3-2.6,1-2.9,1l-0.3,0.3c8.1-0.2,9.4,0.5,9.4-0.6c-0.3,0.1-0.5,0.2-0.8,0.2   C46.9,41.4,45.3,42,44.2,40.6z"></path><path d="M19.5,45.2H7.3c-0.7,0.3-1.4,0.5-2.2,0.5c-0.8,0-1.5-0.2-2.2-0.5H1.7c-0.4,0-0.7,0.3-0.7,0.7c0,0.4,0.3,0.7,0.7,0.7h19.4   C20.1,46.2,19.7,45.5,19.5,45.2z"></path><path d="M48.3,45.2h-24c-0.3,0.6-0.8,1.1-1.5,1.3h25.5c0.4,0,0.7-0.3,0.7-0.7C49,45.5,48.7,45.2,48.3,45.2z"></path><path d="M18.2,5.3l-2.1,5.1c0,0.1-0.1,0.1-0.1,0.1h-4.3c-0.5,0-0.8,0.4-0.8,0.8c0,0.5,0.4,0.8,0.8,0.8H16c0.7,0,1.4-0.4,1.7-1.1   l2.1-5.1c0.1-0.2,0.2-0.1,0.3,0l2.8,8c0.5,1.5,2.5,1.7,3.3,0.3l1.5-2.6c0,0,0.1-0.1,0.1-0.1h3.1c0.8,0,1.4-0.5,1.7-1.2l0.2-0.6   c0-0.1,0.2-0.1,0.3,0l0.9,2.3c0.6,1.5,2.9,1.6,3.4-0.1c0.3-0.8,0.3-1,0.4-1h3.4c0.1,0,0.1,0,1,1.3c0.8,1.1,2.5,0.9,3.1-0.3l0.5-1   c0.1-0.1,0.1,0,1.9-0.1c0.5,0,0.8-0.4,0.8-0.8s-0.4-0.8-0.8-0.8H46c-0.7,0-1.3,0.4-1.6,1l-0.5,1c0,0.1-0.2,0.1-0.2,0l-0.9-1.2   c-0.3-0.5-0.9-0.7-1.5-0.7h-3.4c-0.8,0-1.5,0.5-1.7,1.2l-0.3,0.9c0,0.1-0.2,0.1-0.3,0l-0.9-2.3c-0.6-1.6-2.8-1.6-3.4,0L31,9.8   c0,0.1-0.1,0.1-0.1,0.1h-3.1c-0.7,0-1.3,0.4-1.6,0.9l-1.5,2.6c-0.1,0.1-0.2,0.1-0.3,0l-2.8-8C21.1,3.8,18.9,3.8,18.2,5.3z"></path><path d="M41.6,25.8l0.8-1.1l1.5,1.4c0.3,0.3,0.7,0.5,1.2,0.5h2.6c0.5,0,0.8-0.4,0.8-0.8c0-0.5-0.4-0.8-0.8-0.8l-2.6,0l-1.5-1.4   c-0.8-0.7-2-0.6-2.6,0.3l-0.8,1.1h-4.6c-0.7,0-1.2,0.4-1.5,0.9l-0.8,1.4l-1-2.9c-0.5-1.3-2.2-1.6-3-0.5l-0.8,1h-3.7   c-0.7,0-1.3,0.4-1.6,1l-1,2l-2-4.2c-0.5-1.1-1.9-1.3-2.8-0.5L16,24.9h-4.3c-0.5,0-0.8,0.4-0.8,0.8c0,0.5,0.4,0.8,0.8,0.8H16   c0.5,0,0.9-0.2,1.2-0.5l1.6-1.5l2,4.2c0.6,1.3,2.5,1.3,3.1-0.1l0.9-2.1h3.7c1.2,0,1.5-1,2.2-1.7l1,2.9c0.5,1.4,2.5,1.6,3.2,0.2   l0.7-1.4h4.6C40.8,26.5,41.3,26.3,41.6,25.8z"></path><path d="M23.5,44.7l2.4-6.3l2.2,2.8c0.3,0.4,0.8,0.6,1.3,0.6h2.1c0.6,0,1.2-0.4,1.5-1l0.8-1.7l1.4,2.9c0.5,1,1.9,1.2,2.7,0.4   l1.6-1.8h1.3c0.7,0,1.3-0.5,1.6-1.1l1.1-3.4l1.4,3.4c0.3,0.6,0.8,1,1.5,1h1.9c0.5,0,0.8-0.4,0.8-0.8c0-0.5-0.4-0.8-0.8-0.8l-1.9,0   l-1.5-3.6c-0.6-1.4-2.6-1.4-3.1,0.1l-1.1,3.5h-1.3c-0.5,0-0.9,0.2-1.2,0.5l-1.6,1.8l-1.4-2.9c-0.6-1.2-2.4-1.2-3,0l-0.8,1.7l-2,0   l-2.2-2.9c-0.8-1-2.4-0.8-2.8,0.4L21.9,44l-2.4-3.4c-0.3-0.4-0.8-0.7-1.3-0.7h-6.5c-0.5,0-0.8,0.4-0.8,0.8c0,0.5,0.4,0.8,0.8,0.8   l6.4,0l2.5,3.5C21.4,46.1,23,45.9,23.5,44.7z"></path><circle cx="5.2" cy="11" r="4.2"></circle><path d="M10.1,26.6c0,0,0,0.1,0.1,0.1c0-0.1,0-0.1,0-0.1H10.1z"></path><circle cx="5.2" cy="25.8" r="4.2"></circle><circle cx="5.2" cy="40.6" r="4.2"></circle></g></svg>