<svg xmlns="http://www.w3.org/2000/svg" viewBox="0 0 24 24" x="0px" y="0px"><title>Run running fast sport </title><g data-name="01"><path d="M14.87,9,12.62,7.22a1,1,0,0,0-1.33.07l-2,2a1,1,0,0,0,1.42,1.42l1.36-1.37L13.4,10.4l-3.15,3.93-4,4a1,1,0,0,0,0,1.42,1,1,0,0,0,1.42,0L11.41,16H13l-1.8,2.4a1,1,0,0,0,.2,1.4,1,1,0,0,0,.6.2,1,1,0,0,0,.8-.4l3-4A1,1,0,0,0,15,14H13.08L15,11.65l1.42,1.13A1,1,0,0,0,17,13a1,1,0,0,0,.71-.29l2-2a1,1,0,0,0-1.42-1.42l-1.36,1.37L16,9.91a1,1,0,0,0-.36-.69A1,1,0,0,0,14.87,9Z"></path><circle cx="16.75" cy="7.25" r="1.25"></circle><path d="M9.5,6h-3a.5.5,0,0,0,0,1h3a.5.5,0,0,0,0-1Z"></path><path d="M6,12.5a.5.5,0,0,0-.5-.5h-3a.5.5,0,0,0,0,1h3A.5.5,0,0,0,6,12.5Z"></path><path d="M4,9.5a.5.5,0,0,0,.5.5h3a.5.5,0,0,0,0-1h-3A.5.5,0,0,0,4,9.5Z"></path></g></svg>