<svg xmlns:dc="http://purl.org/dc/elements/1.1/" xmlns:cc="http://creativecommons.org/ns#" xmlns:rdf="http://www.w3.org/1999/02/22-rdf-syntax-ns#" xmlns:svg="http://www.w3.org/2000/svg" xmlns="http://www.w3.org/2000/svg" xmlns:sodipodi="http://sodipodi.sourceforge.net/DTD/sodipodi-0.dtd" xmlns:inkscape="http://www.inkscape.org/namespaces/inkscape" version="1.1" x="0px" y="0px" viewBox="0 0 98.367966 85.750504"><g transform="translate(27.600705,-120.36784)"><path style="" d="M 70.767259,120.36784 C 45.051873,141.26143 21.058105,162.73493 0.0493046,176.90317 l 1.7487392,2.01321 -29.0041308,25.19376 c -0.478184,0.41534 -0.528799,1.13542 -0.113434,1.61359 0.415343,0.47818 1.135406,0.52881 1.613586,0.11345 l 29.0041124,-25.19377 1.9973368,2.2994 C 27.794024,160.24473 46.195302,142.53436 70.767259,120.36784 z" fill="#080505" fill-opacity="1" stroke="none"></path><path style="" d="m 36.441045,164.71528 c -0.410972,0.003 -0.825104,0.02 -1.241063,0.0524 -9.465375,0.73892 -16.477802,9.01657 -15.669974,18.4855 0.80783,9.46893 9.130497,16.5476 18.595872,15.80868 9.465377,-0.73892 16.485324,-9.01657 15.677496,-18.4855 -0.218612,-2.56245 -0.98768,-4.94947 -2.18126,-7.0541 -0.967997,0.62593 -2.126983,1.03027 -3.387223,1.12865 -3.78616,0.29557 -7.093592,-2.28956 -7.391212,-5.77812 -0.104076,-1.21992 0.174459,-2.3895 0.742129,-3.40594 -1.634202,-0.50024 -3.363893,-0.76383 -5.144765,-0.75161 z m -0.463832,9.99311 c 4.066751,0 7.363635,3.28351 7.363635,7.33377 0,4.05026 -3.296884,7.33377 -7.363635,7.33377 -4.06675,0 -7.363634,-3.28351 -7.363634,-7.33377 0,-4.05026 3.296884,-7.33377 7.363634,-7.33377 z" fill="#000000" fill-opacity="1" stroke="none"></path><path style="" d="m -584.22866,-218.29309 a 112.74589,112.74589 0 1 1 -225.49178,0 112.74589,112.74589 0 1 1 225.49178,0 z" transform="matrix(0.06031262,0,0,0.06031262,77.999973,195.24773)" fill="#000000" fill-opacity="1" stroke="none"></path></g></svg>