<svg height='100px' width='100px'  fill="#1A1A1A" xmlns="http://www.w3.org/2000/svg" xmlns:xlink="http://www.w3.org/1999/xlink" version="1.1" x="0px" y="0px" viewBox="0 0 100 100" style="enable-background:new 0 0 100 100;" xml:space="preserve"><path d="M32,93.7c-0.2-0.7-0.4-1.4-0.6-2.2c-1.5-7.4,5.9-13.2,4.9-18.3c4.1,1.8,4,5,4.3,8.1c0.7-3.7,2.8-15.8,9.7-19.9  c-1.4,5.7,1.1,14.2,4.7,17c-1.2-3.7-1.2-6.2,1.8-8.5c0,5.9,10.2,10.1,6.5,24c-0.1,0.3-0.2,0.5-0.2,0.7c9.5-3.5,16.6-11.1,19.1-24.6  c3-16-11.9-28.8-10-39.8C63.8,34.2,64,41.1,63.5,48c-1.4-8.1-5.7-34.4-19.8-43.3c2.9,12.5-2.3,31-9.7,37c2.4-8,2.5-13.6-3.6-18.5  c0,12.9-20.9,21.9-13.2,52.3C19,82.6,24.1,89.6,32,93.7z"></path></svg>