<svg xmlns="http://www.w3.org/2000/svg" xmlns:xlink="http://www.w3.org/1999/xlink" version="1.1" x="0px" y="0px" viewBox="0 0 100 100" style="enable-background:new 0 0 100 100;" xml:space="preserve"><g><path d="M88.3,37.6c0,0,2.9,20.2-14.9,26.2c14-8.3,11.5-31.6,11.5-31.6s-6,22.6-22.7,30.3c-16.7,7.7-26.3,9-32.6,18.6H36   c0,0,5.4-4.5,11.8-7.4c-6,4.2-8.6,7.4-8.6,7.4H87C104.2,59.7,88.3,37.6,88.3,37.6z"></path><path d="M10,81.2h14.7c0,0,6.5-11.2,22.4-14.7C19.2,69.8,10,81.2,10,81.2z"></path><path d="M44.1,63.8c7.1-1.8,14.6-6.3,16.9-12.5c6.5-17.4-5.4-31.3-23.4-32.4C23,18,14.2,25.5,11.8,30.3c-1.6,3.1-1.4,7.1-0.8,8.9   c0.6,1.8,2.1,0.6,2.5,0c0,0,0.3-6.3,2.7-4.6c2,1.4,0.7,3.6-0.7,4.2c0.1,2.8,2.3,3.7,2.3,3.7s6.7-3.6,9-4.8c2.2-1.2,2.4-3.9,2.4-3.9   s11.8-2,15.5,0.8c6.6,4.9,5.6,11.7-1,14.1c-6,2.2-15.7,3.8-20.2,5.5c-5.6,2.1-9.7,4.3-13.4,8.1C3,69.7,5.4,81.2,5.4,81.2   s6.4-5.6,10.1-7.4C19.3,72,22.2,69.5,44.1,63.8z"></path><path d="M16.8,44.3c-2.4-4.6-5.9-1.8-5.9-1.8L9.8,54.2C12.4,52.1,16.8,44.3,16.8,44.3z"></path></g></svg>