<svg height='100px' width='100px'  fill="#1A1A1A" xmlns="http://www.w3.org/2000/svg" xmlns:xlink="http://www.w3.org/1999/xlink" version="1.1" x="0px" y="0px" viewBox="0 0 105.746 237.184" style="enable-background:new 0 0 105.746 237.184;" xml:space="preserve"><g><path d="M59.4,44.699C70.086,42.951,78.24,33.682,78.24,22.5C78.24,10.074,68.168,0,55.74,0c-12.426,0-22.5,10.074-22.5,22.5   c0,11.182,8.156,20.451,18.841,22.199C53.272,44.895,54.494,45,55.74,45C56.987,45,58.208,44.895,59.4,44.699z"></path><path d="M28.695,170.766v54.055c0,6.83,5.537,12.363,12.363,12.363c6.828,0,12.365-5.533,12.365-12.363v-76.065l4.635-4.126v80.191   c0,6.83,5.537,12.363,12.363,12.363c6.828,0,12.365-5.533,12.365-12.363v-98v-18.939V74.863c0.592,1.215,1.19,2.609,1.779,4.234   c2.818,7.814,5.189,20.633,5.18,40.639c0,5.514-0.176,11.572-0.563,18.225c-0.258,4.412,3.109,8.197,7.521,8.451   c0.158,0.01,0.316,0.014,0.473,0.014c4.207,0,7.732-3.283,7.979-7.535c0.402-6.934,0.59-13.297,0.59-19.154   c-0.039-30.182-4.861-46.885-11.434-56.93c-3.285-4.986-7.127-8.184-10.68-9.955c-3.406-1.719-6.4-2.109-8.205-2.135   c-0.123-0.006-0.244-0.018-0.369-0.018H36.424c-0.124,0-0.245,0.013-0.367,0.018c-1.726,0.022-4.53,0.377-7.756,1.909   c-1.768,0.825-3.6,2.007-5.408,3.575c-3.396,2.943-6.71,7.271-9.368,13.315c-3.686,8.306-6.426,19.872-7.405,36.525   c-0.116,1.976-0.213,4.01-0.278,6.134H5.84c-0.07,2.418-0.109,4.934-0.107,7.553c0,5.853,0.186,12.227,0.594,19.168   c0.248,4.248,3.775,7.529,7.979,7.529c0.158,0,0.316-0.006,0.477-0.016c4.412-0.258,7.777-4.045,7.517-8.453   c-0.392-6.652-0.568-12.713-0.566-18.229c-0.002-2.446,0.035-4.784,0.101-7.02c0.001-0.018,0.003-0.033,0.004-0.051   c0.058-2.041,0.147-3.986,0.257-5.855c0.155-2.621,0.357-5.078,0.601-7.377c1.275-12.024,3.656-19.789,6-24.598v33.053v13.979   l-4.878,4.342c0.047,1.981,0.11,3.997,0.198,6.059l1.271-1.132l4.611,5.18l-5.18,4.609l-0.585-0.657   c-0.327,1.77-1.119,3.428-2.347,4.808c-1.68,1.889-3.963,3.042-6.464,3.292l0.458,0.515l-5.18,4.609l-4.609-5.18l2.211-1.967   c-1.238-0.958-2.249-2.198-2.929-3.631L0,147.402l22.695,25.499l1.592,1.788L28.695,170.766z M38.203,156.066l-4.609-5.18   l5.178-4.609l4.611,5.178L38.203,156.066z M53.424,138.459v-3.91h4.635v9.117L53.424,138.459z M51.939,58.883h3.801h3.799l1.9,7.5   l-0.289,0.456c-1.565,1.306-3.484,1.96-5.412,1.962c-1.928-0.002-3.843-0.655-5.407-1.958l-0.292-0.46L51.939,58.883z    M51.712,71.062c1.297,0.486,2.662,0.74,4.026,0.739h0.002c0,0,0.004,0,0.006,0c1.363,0,2.726-0.254,4.021-0.74l5.474,40.322   l-9.5,12l-9.5-12L51.712,71.062z M27.793,128.898l6.684-5.949l18.094,20.328l-6.682,5.947L27.793,128.898z M32.029,138.703   l4.611,5.18l-5.18,4.609l-4.609-5.18L32.029,138.703z M24.973,144.986l4.609,5.178l-5.18,4.611l-4.609-5.18L24.973,144.986z    M12.734,155.879l5.18-4.609l4.609,5.178l-5.18,4.611L12.734,155.879z M19.449,163.479l12.264-10.918l4.611,5.178l-12.266,10.918   L19.449,163.479z"></path></g></svg>