<svg height='100px' width='100px'  fill="#1A1A1A" xmlns="http://www.w3.org/2000/svg" xmlns:xlink="http://www.w3.org/1999/xlink" version="1.1" x="0px" y="0px" viewBox="0 0 100 100" enable-background="new 0 0 100 100" xml:space="preserve"><path d="M97.1,46.9L81.4,17c0-0.1-0.1-0.1-0.1-0.2c-0.8-1.4-2.5-2-4-1.6l-23.9,6.4v-4.5c0-1.9-1.6-3.5-3.5-3.5  c-1.9,0-3.5,1.6-3.5,3.5v6.4l-26.6,7.1c-0.2,0-0.4,0.1-0.5,0.2c-0.1,0-0.1,0.1-0.2,0.1c-0.7,0.4-1.3,0.9-1.6,1.6L2.9,63.1  c-0.1,0.1-0.1,0.3-0.2,0.5c-0.5,0.9-0.6,2-0.3,3l2.3,6.3c0.5,1.4,1.9,2.4,3.4,2.4h24.9c1.6,0,3-1.1,3.5-2.6l1.8-6.3  c0.1-0.4,0.1-0.9,0.1-1.3c0.1-0.6,0-1.3-0.3-1.8L25.6,36.4l20.8-5.6v49.4H29c-1.9,0-3.5,1.6-3.5,3.5s1.6,3.5,3.5,3.5h41.8  c1.9,0,3.5-1.6,3.5-3.5s-1.6-3.5-3.5-3.5H53.4V28.9l18.7-5L61.8,46.7c0,0-0.1,0.1-0.1,0.1c-0.7,1-0.8,2.2-0.4,3.3l2.3,6.3  c0.5,1.4,1.9,2.4,3.4,2.4h24.9c1.6,0,3-1.1,3.5-2.6l1.8-6.3c0,0,0-0.1,0-0.1C97.6,48.8,97.5,47.8,97.1,46.9z M29.5,61.2H11.6l9-18.9  L29.5,61.2z M78.6,26.6L88.2,45h-18L78.6,26.6z"></path></svg>