<svg height='100px' width='100px'  fill="#1A1A1A" xmlns="http://www.w3.org/2000/svg" xmlns:xlink="http://www.w3.org/1999/xlink" version="1.1" x="0px" y="0px" viewBox="0 0 100 100" style="enable-background:new 0 0 100 100;" xml:space="preserve"><path d="M95,31v10c0,1.1-0.9,2-2,2H59c-1.1,0-2-0.9-2-2V7c0-1.1,0.9-2,2-2h10c1.1,0,2,0.9,2,2v22h22C94.1,29,95,29.9,95,31z M41,5  H31c-1.1,0-2,0.9-2,2v22H7c-1.1,0-2,0.9-2,2v10c0,1.1,0.9,2,2,2h34c1.1,0,2-0.9,2-2V7C43,5.9,42.1,5,41,5z M41,57H7  c-1.1,0-2,0.9-2,2v10c0,1.1,0.9,2,2,2h22v22c0,1.1,0.9,2,2,2h10c1.1,0,2-0.9,2-2V59C43,57.9,42.1,57,41,57z M93,57H59  c-1.1,0-2,0.9-2,2v34c0,1.1,0.9,2,2,2h10c1.1,0,2-0.9,2-2V71h22c1.1,0,2-0.9,2-2V59C95,57.9,94.1,57,93,57z"></path></svg>