<svg xmlns="http://www.w3.org/2000/svg" data-name="Layer 1" viewBox="0 0 100 100" x="0px" y="0px"><title>jigsaw_six_missnig_piece_filled</title><path d="M16.5,47.11a6.3,6.3,0,0,0,.56-2.67c.06-1.16.12-2.25,1.17-2.79h0a3.28,3.28,0,0,1,2.72.07,3,3,0,0,1,1.81,1.78,2.54,2.54,0,0,1-.54,2.1l-.44.69.82.05c1.2.08,4-.43,8.48-1.55l.45-.11-.1-.46c-1-4.65-.92-6.61.22-7.48,1-.75,2.21-.46,3.32-.21s1.7.35,2,0a2.5,2.5,0,0,0,0-2.19,2.86,2.86,0,0,0-1.69-1.93c-.57-.11-1,.37-1.55.93s-1.1,1.09-1.76,1c-1.72-.26-2.15-4-2.71-10.18-.12-1.26-.23-2.55-.37-3.78l-.06-.53L1,25.57l5.11,24.7.41,0,1.3,0C11.14,50.13,15,50,16.5,47.11Z"></path><path d="M37.15,79.32l-.43.08.41-.12h0a6.53,6.53,0,0,0-.26-.75l-.12-.26a4.88,4.88,0,0,0-.35-.6l-.12-.16a3.76,3.76,0,0,0-.58-.61,6.31,6.31,0,0,0-2.5-1.09c-1.12-.3-2.17-.57-2.49-1.71a3.27,3.27,0,0,1,.62-2.65A3,3,0,0,1,33.44,70a2.62,2.62,0,0,1,2,1l.65.63.25-.72c.32-.93.2-3.48,0-7.26v-.13c0-.78-.09-1.61-.14-2.49,0-.59-.06-1.16-.08-1.7l-.15-4.28-.51.1c-7.89.31-9.69-.18-10-1.05-.2-.52.14-.93.6-1.42s.76-.79.72-1.28a2.25,2.25,0,0,0-1-1.46,2.44,2.44,0,0,0-1.92-.5c-.66.18-.84.89-1.1,1.88a7.09,7.09,0,0,1-1.26,2.84c-2.43,2.94-6.8,2.15-10,1.57l-1-.17-.57-.1V80.09H36.73l.62,0-.15-.6Z"></path><path d="M67.84,70.06l.12-.13.08-.09.15-.12-.29-.39h0l.37.32.26-.15.21-.08.05,0a2.24,2.24,0,0,1,.53-.12,5.34,5.34,0,0,1,2.49.68c1.11.5,1.63.67,2,.37a2.5,2.5,0,0,0,.4-2.16A2.86,2.86,0,0,0,72.94,66c-.54-.22-1.1.18-1.71.6s-1.3.85-1.93.61a1.06,1.06,0,0,1-.25-.13L69,67a.69.69,0,0,1-.13-.12l-.08-.1a.86.86,0,0,1-.11-.16l-.06-.11a1.5,1.5,0,0,1-.1-.22l0-.13L68.38,66l-.06-.25c0-.07,0-.14,0-.22l0-.28c0-.08,0-.17,0-.26l-.06-1.31.57-7L68,56.57c-5.42-.61-8.52-.83-9.4-.2l-.3.22.13.35a4.53,4.53,0,0,0,.48.79,2.69,2.69,0,0,1,.69,2.51,3.72,3.72,0,0,1-2.9,1.81,5.45,5.45,0,0,1-.77.06h-.12a4.17,4.17,0,0,1-.61,0l-.08.48h0l0-.5a3.6,3.6,0,0,1-.55-.15,2.24,2.24,0,0,1-.42-.22l-.27.41h0l.19-.46a1.65,1.65,0,0,1-.31-.28c-.63-.77-.27-1.72.26-2.9.41-.89.82-1.82.47-2.55-.53-1.09-2.87-1.57-13.69-1l-3,.15-.93,0,.14,4.24c0,.53.05,1.08.08,1.65,0,.93.1,1.81.15,2.62.32,5.54.46,8.08-.94,8.62-.53.21-.94-.14-1.42-.6s-.78-.76-1.28-.72a2.24,2.24,0,0,0-1.47,1,2.45,2.45,0,0,0-.5,1.92c.18.66.89.84,1.88,1.11a7.1,7.1,0,0,1,2.83,1.25,4.68,4.68,0,0,1,.58.59l.37-.31h0l-.28.41a5.08,5.08,0,0,1,.46.68l.08.14a6.36,6.36,0,0,1,.36.82l.46-.16h0l-.41.29a9.34,9.34,0,0,1,.28,1l.08.39H66.86l-.06-3.24,0-2.51.23-2.22c0-.1,0-.2.06-.3l.35-1.15.07-.14.1-.2.1-.15Zm.8-1.1Z"></path><path d="M36.77,54.23l1,0L40.7,54l7.36-.24h1l.73,0,.94,0,.59,0,.74.08.47.07.08-.48h0l0,.5.34.07.1-.47h0v.5l.44.12.34.12.31.14.24.14.21.15.17.16.14.16.13.2.1.18c.53,1.1,0,2.26-.46,3.29a4,4,0,0,0-.51,1.62.65.65,0,0,0,.14.36,1.94,1.94,0,0,0,1.46.46,4.58,4.58,0,0,0,.69-.05,2.86,2.86,0,0,0,2.23-1.28c.21-.53-.18-1.1-.6-1.7s-.85-1.3-.61-1.93c.6-1.63,4.38-1.29,10.51-.59l.74.08.39-4c0-.27,0-.54.05-.81l.07-2.31,0-1c0-.13,0-.25,0-.36l0-.25c0-.11,0-.22-.05-.34l0-.2c0-.11-.05-.2-.09-.33L69,46a1.81,1.81,0,0,0-.14-.27l-.08-.13a1,1,0,0,0-.38-.31c-.43-.18-1,.12-1.82.62s-1.92,1.17-2.9.61-1.35-1.71-1.35-3.29c0-1.24.4-2.91,1.5-3.54s2,0,2.91.42a2.62,2.62,0,0,0,1.27.45l.19,0,.12-.15c.65-.79,0-3.8-1.6-9.43l-.46-1.66H39.14l0,.44c-.12,1.28-.27,2.63-.42,4-.63,5.55-.83,8.52-.19,9.4l.22.3.35-.14a4.6,4.6,0,0,0,.79-.48,2.69,2.69,0,0,1,2.51-.69c1.07.42,1.64,1.83,1.81,2.91a3.18,3.18,0,0,1-.71,3c-.77.63-1.72.27-2.89-.25-.9-.41-1.82-.83-2.55-.47s-1.25,1.31-1.24,6.42Z"></path><path d="M67.17,29.35l.39,1.43c1.65,5.94,2.58,9.63,1,10.54h0c-.7.41-1.52,0-2.26-.39s-1.49-.76-2.07-.43-1.06,1.73-1.06,2.78a3,3,0,0,0,.9,2.53c.53.31,1.25-.13,2-.6s1.73-1,2.61-.68a1.4,1.4,0,0,1,.31.18l.08.07a1.27,1.27,0,0,1,.2.19l.08.1.11.15.11.21.09.17.09.26.07.21.07.27c0,.09,0,.18.06.27l0,.28c0,.11,0,.22,0,.34s0,.21,0,.32,0,.25,0,.38l0,1.16-.52,6.78.48.05,1.51.15.76.07.77.06c.86.06,1.65.1,2.4.11h.8l.5,0h.2l.41,0,.2,0,.35-.06.19,0,.33-.09.13,0a1.76,1.76,0,0,0,.28-.14l.12-.07a1,1,0,0,0,.31-.38c.18-.43-.13-1-.63-1.82s-1.17-1.92-.61-2.9,1.7-1.35,3.28-1.35c1.24,0,2.91.4,3.54,1.5s0,2-.42,2.9l-.16.32-.15.34-.08.2-.08.58.23.15c.61.41,2.12.38,7.5-1.07l1.58-.43,1.66-.46,3.89-1v-23ZM78.52,55.54Z"></path><path d="M98,53.49v.38l-.09-.36h0l-.9.23-3,.83c-5.94,1.65-9.63,2.58-10.54,1-.41-.69,0-1.52.39-2.26s.76-1.49.43-2.08-1.7-1.06-2.8-1.06a3,3,0,0,0-2.52.91c-.3.53.13,1.25.6,2s1.05,1.74.68,2.61A1.57,1.57,0,0,1,80,56l-.08.09a1.7,1.7,0,0,1-.18.19l-.12.09-.29.18-.09.05-.37.15.16.46h0l-.26-.42a5.36,5.36,0,0,1-.55.14L78,57l-.44.07-.29,0-.54,0H75.67l-1.23,0h-.3l-1.38-.09-.28,0L71,56.9l-1-.1-.48.06L69.43,58,69,63.9l0,.9.48,0-.47.15v.16c0,.07,0,.13,0,.27l0,.13c0,.08,0,.14.06.24l0,.12a1.33,1.33,0,0,0,.17.32l.22.3.35-.14a4.6,4.6,0,0,0,.79-.48,2.7,2.7,0,0,1,2.51-.69,3.73,3.73,0,0,1,1.81,2.91,3.18,3.18,0,0,1-.71,3c-.77.63-1.72.27-2.89-.25-.89-.41-1.82-.82-2.55-.47a1.19,1.19,0,0,0-.32.25,1.43,1.43,0,0,0-.15.19l-.05.09a2,2,0,0,0-.11.2l-.05.12-.08.21,0,.16c0,.07,0,.14-.06.22l-.36,4.72.07,3.63H99V53.87l-.11-.59ZM69.48,63.9h0ZM68.83,71h0Z"></path></svg>