<svg height='100px' width='100px'  fill="#1A1A1A" xmlns:x="http://ns.adobe.com/Extensibility/1.0/" xmlns:i="http://ns.adobe.com/AdobeIllustrator/10.0/" xmlns:graph="http://ns.adobe.com/Graphs/1.0/" xmlns="http://www.w3.org/2000/svg" xmlns:xlink="http://www.w3.org/1999/xlink" version="1.1" x="0px" y="0px" viewBox="0 0 100 100" style="enable-background:new 0 0 100 100;" xml:space="preserve"><g><g i:extraneous="self"><g><g><path d="M56.2,3C30.2-0.8,7.7,19.4,7.7,44.8c0,22.4,17.2,40.7,39.4,42.1v5.7c0,1.8,1,3.4,2.5,4.3c0.7,0.4,1.5,0.5,2.3,0.5      c0.9,0,1.8-0.2,2.7-0.8l17.5-11.4c1.4-0.9,2.2-2.4,2.2-4c0-1.7-0.8-3.1-2.2-4L54.6,65.9c-1.5-1-3.4-1.1-4.9-0.2      c-1.5,0.9-2.5,2.5-2.5,4.3v5.5c-18-1.6-31.4-18.8-27-37.8c2.6-11.3,11.8-20.3,23.1-22.7c19.9-4.3,37.5,10.9,37.5,30      c0,5-1.2,9.8-3.5,14.2c-1.3,2.5-0.7,5.5,1.5,7.2c2.8,2.2,7,1.4,8.7-1.7c3.3-6.2,4.9-13.1,4.8-20.4C91.9,23.7,76.4,5.9,56.2,3z"></path></g><g><path d="M50,20.5c-3.2,0-5.8,2.6-5.8,5.8v18.5c0,2.2,1.2,4.2,3.2,5.2l12.7,6.3c0.8,0.4,1.7,0.6,2.6,0.6c2.2,0,4.2-1.2,5.2-3.2      c1.4-2.9,0.2-6.3-2.6-7.7l-9.5-4.7V26.3C55.8,23.1,53.2,20.5,50,20.5z"></path></g></g></g></g></svg>