<svg xmlns="http://www.w3.org/2000/svg" xmlns:xlink="http://www.w3.org/1999/xlink" viewBox="0 0 100 100" version="1.1" x="0px" y="0px"><title>Agile</title><desc>Created with Sketch.</desc><g stroke="none" stroke-width="1" fill="none" fill-rule="evenodd"><g fill="#000000"><path d="M52,17.0947241 C68.7811193,18.3712863 82,32.3919256 82,49.5 C82,67.2822906 67.718697,81.7290043 50,81.9962319 L50,82 L12,82 L12,72 L49,72 L49,71.9945542 C49.1662287,71.9981785 49.3329016,72 49.5,72 C61.9264069,72 72,61.9264069 72,49.5 C72,37.9186159 63.2498761,28.3809327 52,27.1373219 L52,33 L42,23 L52,13 L52,17.0947241 Z M24.279626,70 C19.7283769,64.407583 17,57.2724148 17,49.5 C17,33.2028042 28.9954955,19.7073065 44.6388909,17.3611024 L39,23 L43.7432002,27.7432002 C34.1057424,30.2864804 27,39.0634227 27,49.5 C27,58.6149527 32.4200351,66.4639883 40.2129985,70 L24.279626,70 Z M83,87 L83,67 L93,77 L83,87 Z" fill-rule="nonzero"></path><path d="M75.6541765,72 L85,72 L85,82 L62,82 L62,81.6658157 C67.3171339,79.5980403 71.9947445,76.2498833 75.6541765,72 Z"></path></g></g></svg>