<svg xmlns="http://www.w3.org/2000/svg" xmlns:xlink="http://www.w3.org/1999/xlink" version="1.1" x="0px" y="0px" viewBox="0 0 128 128" style="enable-background:new 0 0 128 128;" xml:space="preserve"><g><rect x="20.3" y="11.9" width="59.2" height="25.9"></rect><rect x="20.3" y="69.7" width="59.2" height="25.9"></rect><path d="M20.3,67.5h59.2v-6.4c2.8,1.5,5.1,3.2,6.1,4.4c5.1,6.3,5.1,14.5,5.2,22.6c0,2.6-0.1,4.7-0.2,6.1l12.2-0.2   c0.4-3.2,0.6-8.2-0.8-14.1c-0.9-4.1-3.1-13.6-11.7-20.4c-1.9-1.5-5.4-3.9-10.8-5.5V39.9H20.3V67.5z M44,51.7l5.9-8.5l5.9,8.4   c1.6,2.2,1.8,5.1,0.5,7.5c-1.2,2.4-3.7,3.9-6.4,3.9c-2.7,0-5.2-1.5-6.4-3.9C42.3,56.8,42.5,53.9,44,51.7z"></path><rect x="24.2" y="5.1" width="15.1" height="5.4"></rect><path d="M49.9,61.6c4.7,0,7.5-5.3,4.8-9.2l-4.8-6.8l-4.7,6.8C42.5,56.3,45.2,61.6,49.9,61.6z M49.6,56.8c0.2-0.1,0.7-0.2,0.9-0.6   c0.3-0.6,0.1-1.6-0.9-2.3c-0.5-0.4-0.6-1-0.2-1.5c0.4-0.5,1-0.6,1.5-0.2c1.7,1.3,2.3,3.4,1.5,4.9c-0.6,1.1-1.6,1.5-2.2,1.7   c-0.1,0-0.2,0-0.3,0c-0.5,0-0.9-0.3-1-0.8C48.7,57.6,49.1,57,49.6,56.8z"></path><path d="M115.7,100.7c0.5-1,2.3-4.9,0.7-8.9c-1.4-3.7-4.8-5.4-7.1-6.5c-2.1-1-4-1.5-5.4-1.8c0.5,3.5,0.5,8.3,0.1,11.9l-14.6-0.1   c0.2-2,0.2-5.2,0.2-7.2c0-1.7,0-3.5-0.1-5.2c-3,0.1-5.8,0.2-8.1,0.4v14.2h-63V85.7C9.8,87.8,3.9,92.6,3.9,96.7   c0,4.9,8.9,11.3,22.2,10.9c-0.9,3.8-0.1,6.3,0.8,8c4.9,8.3,24.8,9.9,49.5,3.3c10.2,2.7,23.9,4.3,36.7-0.8   c4.1-1.6,10.7-4.2,10.9-8.6C124.2,104.5,116.2,100.9,115.7,100.7z M50.1,116.2c-2.3,0-5-0.4-7.7-1.5c-2.9-1.2-5.6-3.1-7.8-5.5   l1.9-1.6c1.9,2.1,4.2,3.8,6.8,4.9c4.8,1.9,9.2,1.3,11.5,0.7l0.6,2.4C54.1,115.8,52.3,116.2,50.1,116.2z M69.5,106.5   c-1.1,0-2.2-0.1-3.4-0.3c-5.4-0.9-9.1-3.9-10.8-5.6l1.8-1.8c1.5,1.5,4.7,4.1,9.5,4.9c4,0.7,7.4-0.2,9.5-1l0.9,2.3   C75.1,105.7,72.5,106.5,69.5,106.5z M83.5,96.8c-0.4-2.8,1.1-5.2,2.4-6.7l1.9,1.6c-1,1.1-2.1,2.9-1.8,4.8c0.5,3.7,6.3,5.7,10,6   c3.7,0.2,9.8-1.1,11.2-5.4c0.8-2.4-0.1-4.8-0.7-6.1l2.2-1.1c1.4,2.7,1.6,5.6,0.8,8c-1.9,5.7-8.8,7.1-12.9,7.1c-0.3,0-0.6,0-0.9,0   C91.5,104.6,84.3,102.2,83.5,96.8z M113.5,111.4c-1.7,4.2-8.4,4.7-13,4.7c-0.8,0-1.6,0-2.2,0c-3.5-0.1-6.9-0.6-10.2-1.6l0.7-2.4   c3.1,0.9,6.3,1.4,9.6,1.5c3.1,0.1,11.5,0.2,12.9-3.1c0.5-1.1,0.1-2.7-1-4.6l2.2-1.2C114.3,107.9,114.1,110.1,113.5,111.4z"></path></g></svg>