<svg height='100px' width='100px'  fill="#7400B3" xmlns="http://www.w3.org/2000/svg" xmlns:xlink="http://www.w3.org/1999/xlink" version="1.1" x="0px" y="0px" viewBox="-247 370.9 100 100" style="enable-background:new -247 370.9 100 100;" xml:space="preserve"><g><path d="M-212.7,419.3l7.4-12.7l-7.4-12.7h-14.7l-7.4,12.7l7.4,12.7H-212.7z M-226.5,395.3h13l6.5,11.3l-6.5,11.3h-13l-6.5-11.3   L-226.5,395.3z"></path><polygon points="-214.3,416.4 -208.6,406.5 -214.3,396.7 -225.7,396.7 -231.4,406.5 -225.7,416.4  "></polygon><path d="M-212.7,420.3h-14.7l-7.4,12.7l7.4,12.7h14.7l7.4-12.7L-212.7,420.3z M-213.5,444.4h-13l-6.5-11.3l6.5-11.3h13l6.5,11.3   L-213.5,444.4z"></path><polygon points="-214.3,423.2 -225.7,423.2 -231.4,433.1 -225.7,442.9 -214.3,442.9 -208.6,433.1  "></polygon><path d="M-204.4,407l-7.4,12.7l7.4,12.7h14.7l7.4-12.7l-7.4-12.7H-204.4z M-190.5,431h-13l-6.5-11.3l6.5-11.3h13l6.5,11.3   L-190.5,431z"></path><polygon points="-202.7,409.9 -208.4,419.7 -202.7,429.6 -191.3,429.6 -185.7,419.7 -191.3,409.9  "></polygon><path d="M-204.4,433.6l-7.4,12.7l7.4,12.7h14.7l7.4-12.7l-7.4-12.7H-204.4z M-190.5,457.6h-13l-6.5-11.3l6.5-11.3h13l6.5,11.3   L-190.5,457.6z"></path><polygon points="-202.7,436.4 -208.4,446.3 -202.7,456.2 -191.3,456.2 -185.7,446.3 -191.3,436.4  "></polygon><path d="M-181.3,420.3l-7.4,12.7l7.4,12.7h14.7l7.4-12.7l-7.4-12.7H-181.3z M-167.5,444.4h-13l-6.5-11.3l6.5-11.3h13l6.5,11.3   L-167.5,444.4z"></path><polygon points="-179.7,423.2 -185.4,433.1 -179.7,442.9 -168.3,442.9 -162.6,433.1 -168.3,423.2  "></polygon><path d="M-181.3,419.1h14.7l7.4-12.7l-7.4-12.7h-14.7l-7.4,12.7L-181.3,419.1z M-180.5,395.1h13l6.5,11.3l-6.5,11.3h-13l-6.5-11.3   L-180.5,395.1z"></path><polygon points="-179.7,416.2 -168.3,416.2 -162.6,406.4 -168.3,396.5 -179.7,396.5 -185.4,406.4  "></polygon><path d="M-189.7,405.6l7.4-12.7l-7.4-12.7h-14.7l-7.4,12.7l7.4,12.7H-189.7z M-203.5,381.6h13l6.5,11.3l-6.5,11.3h-13l-6.5-11.3   L-203.5,381.6z"></path><polygon points="-191.3,402.8 -185.7,392.9 -191.3,383 -202.7,383 -208.4,392.9 -202.7,402.8  "></polygon></g></svg>