<svg height='100px' width='100px'  fill="#666666" xmlns:dc="http://purl.org/dc/elements/1.1/" xmlns:cc="http://creativecommons.org/ns#" xmlns:rdf="http://www.w3.org/1999/02/22-rdf-syntax-ns#" xmlns:svg="http://www.w3.org/2000/svg" xmlns="http://www.w3.org/2000/svg" xmlns:sodipodi="http://sodipodi.sourceforge.net/DTD/sodipodi-0.dtd" xmlns:inkscape="http://www.inkscape.org/namespaces/inkscape" viewBox="0 0 12.7 12.7" version="1.1" x="0px" y="0px"><g transform="translate(0,-284.29998)"><path style="" d="m 3.2082311,287.42617 a 0.01675142,0.01675142 0 0 0 -0.010552,0 2.2311522,2.2311522 0 0 0 -0.8113479,1.90844 v 0 a 0.09546775,0.09546775 0 1 1 -0.1903591,0.0148 2.4210013,2.4210013 0 0 1 0,-0.40678 2.1878086,2.1878086 0 0 0 -1.24377134,1.00551 2.5270501,2.5270501 0 0 0 -0.42092168,1.16315 0.18426534,0.18426534 0 0 0 0,0.0559 0.76193731,0.76193731 0 0 0 0.63681682,0.59925 2.2595529,2.2595529 0 0 0 1.2454596,-0.37238 0.66041124,0.66041124 0 0 1 0.8310803,0.15374 1.4629728,1.4629728 0 0 1 0.5240153,-0.80322 0.09505635,0.09505635 0 0 1 0.1161782,0.15047 1.2731238,1.2731238 0 0 0 -0.4804353,0.82074 0.93249432,0.93249432 0 0 1 -1.0175352,0.79066 1.3836427,1.3836427 0 0 0 -0.5747707,0.0623 0.77676554,0.77676554 0 0 0 -0.02427,1.37198 0.26212149,0.26212149 0 0 0 0.389371,-0.2389 0.8420899,0.8420899 0 0 1 0,-0.019 0.37411449,0.37411449 0 0 1 0.4372774,-0.37354 2.4963608,2.4963608 0 0 1 0.7655519,0.26506 1.013124,1.013124 0 0 0 0.8567218,-0.11945 2.1538494,2.1538494 0 0 1 1.0376896,-1.84523 0.09492457,0.09492457 0 0 1 0.098134,0.16197 1.9640003,1.9640003 0 0 0 -0.2671781,3.16488 0.37411449,0.37411449 0 0 1 -0.2442802,0.65708 h -0.791299 a 0.95602351,0.95602351 0 0 0 -0.9307972,0.7378 0.10050838,0.10050838 0 0 0 0.098134,0.12324 H 6.979959 a 0.46345529,0.46345529 0 0 0 0.4629189,-0.47494 0.68188125,0.68188125 0 0 0 -0.043264,-0.22202 0.37411449,0.37411449 0 0 1 0.2578924,-0.49341 2.7838417,2.7838417 0 0 0 1.9183645,-3.66389 2.9634843,2.9634843 0 0 0 -4.1218457,-2.00827 1.2116843,1.2116843 0 0 1 -0.4869776,0.11069 2.2000188,2.2000188 0 0 1 -1.395932,-0.47115 1.8864943,1.8864943 0 0 1 -0.1695716,0.29388 0.09492458,0.09492458 0 0 1 -0.1549042,-0.109 1.6966452,1.6966452 0 0 0 -0.029546,-1.98812 0.01675142,0.01675142 0 0 0 -0.013718,-0.0106 z m -1.3305093,2.69584 a 0.16879067,0.16879067 0 0 1 0.1717876,0.1702 0.16879067,0.16879067 0 1 1 -0.3375604,0 0.16879067,0.16879067 0 0 1 0.1657728,-0.1702 z" fill="#666666" stroke="none"></path><path style="" d="m 6.0807129,289.19617 a 3.1533334,3.1533334 0 0 1 3.6823523,2.35332 2.9736909,2.9736909 0 0 1 -1.9198418,3.86511 3.209404,3.209404 0 0 0 3.0168336,-0.5505 3.5788174,3.5788174 0 0 0 1.294105,-3.11317 3.8034231,3.8034231 0 0 0 -2.2928571,-3.35862 10.244762,10.244762 0 0 1 -2.2116062,-1.24398 1.732164,1.732164 0 0 1 -0.4595423,-2.27756 0.01675142,0.01675142 0 0 0 -0.014773,-0.0253 1.9222601,1.9222601 0 0 0 -1.8777391,2.18026 4.4203798,4.4203798 0 0 0 0.7830684,2.17046 z" fill="#666666" stroke="none"></path><path style="" d="m 2.5246686,287.92887 a 2.4210013,2.4210013 0 0 0 -0.2984122,0.81177 2.3776578,2.3776578 0 0 0 -0.5784639,0.24523 1.9982775,1.9982775 0 0 1 0.1373878,-1.726 0.01675142,0.01675142 0 0 1 0.021104,-0.0106 1.5146777,1.5146777 0 0 1 0.7188063,0.67586 z" fill="#666666" stroke="none"></path></g></svg>