<svg xmlns="http://www.w3.org/2000/svg" xmlns:xlink="http://www.w3.org/1999/xlink" version="1.1" x="0px" y="0px" viewBox="0 0 1000 1000" enable-background="new 0 0 1000 1000" xml:space="preserve"><path fill="#000000" d="M663.9,448.7h79.6L647.1,327l186.4-153.4l-90.9-91.1L595,261.1l-95-120l-94.7,119.7L258.1,81.9L167,172.8  l186.1,153.9l-96.6,122h79.6l-4.2,72.5L166.5,657.3l90.9,91.1l66.1-79.9l-14.5,249.6h110.8l8.1-139.3c2.2-37.4,33.1-66.5,70.5-66.5  h3.4c37.4,0,68.3,29.2,70.5,66.5l8.1,139.3h110.8l-14.4-248.3l65.2,79.2l91.1-90.9L668.1,521.8L663.9,448.7z M497.8,454.8  c-24.8,0-44.9-20.1-44.9-44.9c0-24.8,20.1-44.9,44.9-44.9c24.8,0,44.9,20.1,44.9,44.9C542.7,434.7,522.6,454.8,497.8,454.8z"></path></svg>