<svg xmlns="http://www.w3.org/2000/svg" xmlns:xlink="http://www.w3.org/1999/xlink" version="1.1" x="0px" y="0px" viewBox="0 0 66 66" enable-background="new 0 0 66 66" xml:space="preserve"><g><g><path d="M37.4,6.4V2c0-0.6,0.5-1,1-1c0.6,0,1,0.4,1,1v4.4c0,0.6-0.4,1-1,1C37.8,7.4,37.4,6.9,37.4,6.4z"></path></g><g><g><path d="M27.9,49.1c-2.6,0-4.7,2.1-4.7,4.7c0,2.6,2.1,4.7,4.7,4.7c2.6,0,4.7-2.1,4.7-4.7C32.6,51.2,30.5,49.1,27.9,49.1z"></path></g><g><path d="M33.7,43.4V14.1c0-3.2-2.6-5.8-5.8-5.8c-3.2,0-5.8,2.6-5.8,5.8v29.3c-3.6,2.1-5.8,5.9-5.8,10.1c0,6.1,5,11.3,11.1,11.5     c0.2,0,0.3,0,0.5,0c3,0,5.9-1.1,8-3.2c2.3-2.2,3.5-5.2,3.5-8.4C39.5,49.3,37.3,45.5,33.7,43.4z M27.9,60.6c-3.7,0-6.7-3-6.7-6.7     c0-3.4,2.5-6.2,5.7-6.7V21.8c0-0.6,0.4-1,1-1c0.6,0,1,0.4,1,1v25.3c3.2,0.5,5.7,3.3,5.7,6.7C34.6,57.5,31.6,60.6,27.9,60.6z"></path></g><g><path d="M30.3,7.3c0.2,0.5,0.8,0.7,1.3,0.5c0.5-0.2,0.7-0.8,0.5-1.3l-0.8-1.7c-0.2-0.5-0.8-0.7-1.3-0.5c-0.5,0.2-0.7,0.8-0.5,1.3     C29.5,5.6,30.3,7.2,30.3,7.3z"></path></g><g><path d="M20.7,38.9c0-0.6-0.4-1-1-1H7c-0.6,0-1,0.4-1,1c0,0.6,0.4,1,1,1h12.6C20.2,39.9,20.7,39.5,20.7,38.9z"></path></g><g><path d="M19.7,33H8.9c-0.6,0-1,0.4-1,1c0,0.6,0.4,1,1,1h10.7c0.6,0,1-0.4,1-1C20.7,33.5,20.2,33,19.7,33z"></path></g><g><path d="M7,30.2h12.6c0.6,0,1-0.4,1-1s-0.4-1-1-1H7c-0.6,0-1,0.4-1,1S6.5,30.2,7,30.2z"></path></g><g><path d="M19.7,23.3H8.9c-0.6,0-1,0.4-1,1c0,0.6,0.4,1,1,1h10.7c0.6,0,1-0.4,1-1C20.7,23.7,20.2,23.3,19.7,23.3z"></path></g><g><path d="M7,20.4h12.6c0.6,0,1-0.4,1-1c0-0.6-0.4-1-1-1H7c-0.6,0-1,0.4-1,1C6,20,6.5,20.4,7,20.4z"></path></g><g><path d="M8.9,15.5h10.7c0.6,0,1-0.4,1-1s-0.4-1-1-1H8.9c-0.6,0-1,0.4-1,1S8.4,15.5,8.9,15.5z"></path></g><g><path d="M46.4,38.1c-0.2-0.5-0.8-0.7-1.3-0.5s-0.7,0.8-0.5,1.3l0.8,1.7c0.3,0.6,0.9,0.7,1.3,0.5c0.5-0.2,0.7-0.8,0.5-1.3     L46.4,38.1z"></path></g><g><path d="M38.4,8.9c-1.4,0-2.8,0.2-4.1,0.7c0.9,1.3,1.4,2.8,1.4,4.5V35c0.9,0.2,1.8,0.3,2.7,0.3c7.3,0,13.2-5.9,13.2-13.2     C51.6,14.8,45.6,8.9,38.4,8.9z"></path></g><g><path d="M59,21.6h-4.4c-0.5,0-1,0.5-1,1c0,0.6,0.5,1,1,1H59c0.5,0,1-0.4,1-1C60,22,59.5,21.6,59,21.6z"></path></g><g><path d="M56.7,28.6l-1.7-0.6c-0.5-0.2-1.1,0.1-1.3,0.6c-0.2,0.5,0.1,1.1,0.6,1.3l1.7,0.6c0.4,0.2,1.1,0,1.3-0.6     C57.4,29.3,57.2,28.8,56.7,28.6z"></path></g><g><path d="M50.6,33.3c-0.4-0.4-1-0.4-1.4,0c-0.4,0.4-0.4,1,0,1.4l3.1,3.1c0.4,0.4,1,0.4,1.4,0c0.4-0.4,0.4-1,0-1.4L50.6,33.3z"></path></g><g><path d="M50.6,11.8l3.1-3.1c0.4-0.4,0.4-1,0-1.4c-0.4-0.4-1-0.4-1.4,0l-3.1,3.1c-0.4,0.4-0.4,1,0,1.4     C49.5,12.2,50.2,12.2,50.6,11.8z"></path></g><g><path d="M53.3,16c0.3,0.5,0.9,0.7,1.3,0.5l1.7-0.8c0.5-0.2,0.7-0.8,0.5-1.3c-0.2-0.5-0.8-0.7-1.3-0.5l-1.7,0.8     C53.3,14.9,53,15.5,53.3,16z"></path></g><g><path d="M39.4,43.2v-4.4c0-0.6-0.4-1-1-1c-0.5,0-1,0.4-1,1v4.4c0,0.5,0.5,1,1,1C38.9,44.2,39.4,43.7,39.4,43.2z"></path></g></g><g><path d="M43.6,6.2l0.7-1.7c0.2-0.5,0.8-0.8,1.3-0.6c0.5,0.2,0.8,0.8,0.6,1.3l-0.7,1.7c-0.2,0.5-0.7,0.8-1.3,0.6    C43.6,7.3,43.4,6.7,43.6,6.2z"></path></g></g></svg>