<svg xmlns="http://www.w3.org/2000/svg" xmlns:xlink="http://www.w3.org/1999/xlink" version="1.1" x="0px" y="0px" viewBox="0 0 100 100" style="enable-background:new 0 0 100 100;" xml:space="preserve"><style type="text/css">
	.st0{fill:none;stroke:#000000;stroke-width:2;stroke-linecap:round;stroke-linejoin:round;stroke-miterlimit:10;}
	.st1{fill:none;stroke:#000000;stroke-width:2;stroke-miterlimit:10;}
	.st2{fill:none;stroke:#000000;stroke-width:2;stroke-linecap:round;stroke-miterlimit:10;}
	.st3{fill:none;stroke:#000000;stroke-linecap:round;stroke-linejoin:round;stroke-miterlimit:10;}
</style><path d="M56.707,43.543h-6.073v6.073c0,0.553-0.447,1-1,1s-1-0.447-1-1v-6.073h-6.073c-0.553,0-1-0.447-1-1s0.447-1,1-1h6.073V35.47  c0-0.553,0.447-1,1-1s1,0.447,1,1v6.073h6.073c0.553,0,1,0.447,1,1S57.26,43.543,56.707,43.543z"></path><path d="M72.072,28.227c1.935-1.018,3.259-3.046,3.259-5.379v-6.201c0-3.352-2.727-6.078-6.078-6.078H30.729  c-3.352,0-6.078,2.727-6.078,6.078v6.201c0,2.333,1.324,4.36,3.258,5.379c-2.473,1.436-5.724,4.216-5.724,8.924v44.634  c-0.002,0.132-0.027,3.631,2.413,6.109c1.537,1.562,3.67,2.353,6.341,2.353h38.103c2.671,0,4.804-0.791,6.341-2.353  c2.44-2.479,2.415-5.978,2.413-6.125V37.15C77.795,32.443,74.544,29.663,72.072,28.227z M69.252,26.925h-0.211H30.785h-0.057  c-2.249,0-4.078-1.829-4.078-4.077v-6.201c0-2.249,1.829-4.078,4.078-4.078h38.523c2.249,0,4.078,1.829,4.078,4.078v6.201  C73.33,25.096,71.501,26.925,69.252,26.925z M75.795,37.15v44.634c0,0.04,0.004,2.848-1.851,4.719  c-1.146,1.156-2.796,1.743-4.903,1.743H30.938c-2.107,0-3.757-0.587-4.903-1.743c-1.854-1.871-1.851-4.679-1.851-4.706V37.15  c0-5.518,5.944-7.876,6.92-8.226h37.772C69.893,29.28,75.795,31.589,75.795,37.15z"></path><path d="M68.095,23.958v-8.024c0-0.553,0.447-1,1-1s1,0.447,1,1v8.024c0,0.553-0.447,1-1,1S68.095,24.511,68.095,23.958z"></path><path d="M64.856,24.958c-0.553,0-1-0.447-1-1v-8.024c0-0.553,0.447-1,1-1s1,0.447,1,1v8.024  C65.856,24.511,65.409,24.958,64.856,24.958z"></path><path d="M60.619,24.958c-0.553,0-1-0.447-1-1v-8.024c0-0.553,0.447-1,1-1s1,0.447,1,1v8.024  C61.619,24.511,61.172,24.958,60.619,24.958z"></path><path d="M56.382,24.958c-0.553,0-1-0.447-1-1v-8.024c0-0.553,0.447-1,1-1s1,0.447,1,1v8.024  C57.382,24.511,56.935,24.958,56.382,24.958z"></path><path d="M52.144,24.958c-0.553,0-1-0.447-1-1v-8.024c0-0.553,0.447-1,1-1s1,0.447,1,1v8.024  C53.144,24.511,52.696,24.958,52.144,24.958z"></path><path d="M47.906,24.958c-0.553,0-1-0.447-1-1v-8.024c0-0.553,0.447-1,1-1s1,0.447,1,1v8.024  C48.906,24.511,48.459,24.958,47.906,24.958z"></path><path d="M43.668,24.958c-0.553,0-1-0.447-1-1v-8.024c0-0.553,0.447-1,1-1s1,0.447,1,1v8.024  C44.668,24.511,44.221,24.958,43.668,24.958z"></path><path d="M39.431,24.958c-0.553,0-1-0.447-1-1v-8.024c0-0.553,0.447-1,1-1s1,0.447,1,1v8.024  C40.431,24.511,39.983,24.958,39.431,24.958z"></path><path d="M35.193,24.958c-0.553,0-1-0.447-1-1v-8.024c0-0.553,0.447-1,1-1s1,0.447,1,1v8.024  C36.193,24.511,35.746,24.958,35.193,24.958z"></path><path d="M30.955,24.958c-0.553,0-1-0.447-1-1v-8.024c0-0.553,0.447-1,1-1s1,0.447,1,1v8.024  C31.955,24.511,31.508,24.958,30.955,24.958z"></path><path d="M68.041,62.969c0.187-1.428-0.824-2.74-2.252-2.926l-20.934-2.728c-0.689-0.095-1.374,0.095-1.929,0.521  c-0.554,0.426-0.908,1.041-0.997,1.73l-0.243,1.861c-0.187,1.429,0.824,2.741,2.252,2.927l7.72,1.006l-17.766,4.121  c-0.678,0.157-1.255,0.571-1.624,1.164c-0.37,0.593-0.486,1.292-0.33,1.97l0.424,1.829c0.281,1.206,1.358,2.022,2.545,2.022  c0.194,0,0.392-0.022,0.59-0.068l4.345-1.008c-0.014,0.109-0.033,0.216-0.033,0.329v1.878c0,0.211,0.032,0.414,0.08,0.61H37.52  c-1.439,0-2.611,1.172-2.611,2.611v1.878c0,1.439,1.172,2.611,2.611,2.611h21.11c1.439,0,2.611-1.172,2.611-2.611v-1.878  c0-0.211-0.032-0.414-0.08-0.611h2.37c1.439,0,2.611-1.171,2.611-2.61V75.72c0-1.439-1.172-2.611-2.611-2.611H49.68l6.382-1.48  c1.402-0.325,2.279-1.731,1.954-3.134l-0.424-1.829c-0.046-0.198-0.119-0.383-0.205-0.558l7.485,0.975  c0.114,0.016,0.228,0.022,0.341,0.022c1.289,0,2.414-0.959,2.586-2.272L68.041,62.969z M37.52,80.208h4.9h16.21  c0.331,0,0.611,0.28,0.611,0.611v1.878c0,0.331-0.28,0.611-0.611,0.611H37.52c-0.331,0-0.611-0.28-0.611-0.611v-1.878  C36.908,80.488,37.188,80.208,37.52,80.208z M42.42,78.208c-0.331,0-0.611-0.279-0.611-0.61V75.72c0-0.331,0.28-0.611,0.611-0.611  h21.111c0.331,0,0.611,0.28,0.611,0.611v1.878c0,0.331-0.28,0.61-0.611,0.61H58.63H42.42z M34.344,71.431l20.565-4.771  c0.046-0.011,0.091-0.017,0.137-0.017c0.113,0,0.225,0.032,0.324,0.095c0.14,0.087,0.236,0.221,0.272,0.378l0.424,1.829  c0.075,0.323-0.134,0.659-0.456,0.733l-20.566,4.772c-0.321,0.071-0.658-0.136-0.733-0.459l-0.423-1.828  c-0.037-0.158-0.009-0.321,0.078-0.461S34.187,71.467,34.344,71.431z M66.059,62.711l-0.242,1.862  c-0.044,0.327-0.366,0.569-0.686,0.526l-20.935-2.728c-0.328-0.043-0.569-0.356-0.527-0.686l0.243-1.861  c0.021-0.161,0.104-0.304,0.234-0.404c0.109-0.084,0.238-0.128,0.372-0.128c0.025,0,0.052,0.002,0.078,0.005l20.935,2.728  c0.16,0.021,0.304,0.104,0.403,0.234C66.035,62.391,66.079,62.551,66.059,62.711z"></path></svg>