<svg height='100px' width='100px'  fill="#1A1A1A" xmlns="http://www.w3.org/2000/svg" viewBox="0 0 64 64" x="0px" y="0px"><title>parquet</title><g><path d="M56.75,38.36,35.54,17.15,46.85,5.84,59,18V36.11ZM38.36,17.15,56.75,35.54l.25-.25V18.81L46.85,8.66Z"></path><path d="M56.75,58.16,35.54,37,46.85,25.64,59,37.79V55.91ZM38.36,37,56.75,55.34l.25-.25V38.61L46.85,28.46Z"></path><path d="M17.15,38.36,5,26.21V8.09L7.25,5.84,28.46,27.05ZM7,25.39,17.15,35.54l8.49-8.49L7.25,8.66,7,8.91Z"></path><path d="M17.15,58.16,5,46V27.89l2.25-2.25L28.46,46.85ZM7,45.19,17.15,55.34l8.49-8.49L7.25,28.46,7,28.71Z"></path><path d="M27.05,48.26,15.74,37,37,15.74,48.26,27.05ZM18.56,37l8.49,8.49L45.44,27.05,37,18.56Z"></path><path d="M36.11,59H18l-2.25-2.25L37,35.54,48.26,46.85Zm-17.3-2H35.29L45.44,46.85,37,38.36,18.56,56.75Z"></path><path d="M27.05,28.46,15.74,17.15,27.89,5H46l2.25,2.25ZM18.56,17.15l8.49,8.49L45.44,7.25,45.19,7H28.71Z"></path><path d="M59,59H5V5H59ZM7,57H57V7H7Z"></path><circle cx="22" cy="17" r="1"></circle><circle cx="27" cy="22" r="1"></circle><circle cx="37" cy="22" r="1"></circle><circle cx="42" cy="27" r="1"></circle><circle cx="22" cy="37" r="1"></circle><circle cx="27" cy="42" r="1"></circle><circle cx="37" cy="42" r="1"></circle><circle cx="42" cy="47" r="1"></circle><circle cx="22" cy="7" r="1"></circle><circle cx="17" cy="12" r="1"></circle><circle cx="22" cy="27" r="1"></circle><circle cx="17" cy="32" r="1"></circle><circle cx="22" cy="47" r="1"></circle><circle cx="17" cy="52" r="1"></circle><circle cx="47" cy="32" r="1"></circle><circle cx="42" cy="37" r="1"></circle><circle cx="47" cy="52" r="1"></circle><circle cx="42" cy="57" r="1"></circle><circle cx="47" cy="12" r="1"></circle><circle cx="42" cy="17" r="1"></circle></g></svg>