<svg height='100px' width='100px'  fill="#1A1A1A" xmlns:x="http://ns.adobe.com/Extensibility/1.0/" xmlns:i="http://ns.adobe.com/AdobeIllustrator/10.0/" xmlns:graph="http://ns.adobe.com/Graphs/1.0/" xmlns="http://www.w3.org/2000/svg" xmlns:xlink="http://www.w3.org/1999/xlink" version="1.1" x="0px" y="0px" viewBox="0 0 100 100" style="enable-background:new 0 0 100 100;" xml:space="preserve"><g><g i:extraneous="self"><g><circle cx="51.3" cy="39.6" r="4.9"></circle><path d="M95.4,80.1h-7V17.8c0-1.2-1-2.1-2.1-2.1H13.8c-1.2,0-2.1,1-2.1,2.1v62.3h-7c-1.2,0-2.1,1-2.1,2.1c0,1.2,1,2.1,2.1,2.1     h90.8c1.2,0,2.1-1,2.1-2.1C97.5,81,96.5,80.1,95.4,80.1z M59.6,80.1c-1.7-4-3.6-8.8-3.8-10l0.2-7.4l0-0.1c0-0.1,0-0.3,0-0.4     l0.2-8.9c0,0,0,0.1,0,0.1c0.1,0.3,0.2,0.7,0.4,0.9c0.7,1.6,2.5,2.4,5.6,2.4c1.2,0,2.5-0.1,4-0.3c1.2-0.2,1.9-1.2,1.8-2.4     c-0.2-1.2-1.3-2-2.4-1.8c-2,0.3-4.4,0.3-5.3,0.1c0-0.1-0.1-0.2-0.1-0.4c-0.8-2.1-2.3-6.1-6-6.1h-2.9h-2.9c-3.3,0-5,2.1-6.2,3.5     c-0.4-1.2-0.9-3.1-1.3-5l1.4-0.5c0.4,0.3,0.8,0.5,1.3,0.5c1.1,0,2-0.9,2-2c0-1.1-0.9-2-2-2c-1,0-1.9,0.8-2,1.8l-1.5,0.5     c-0.5-0.4-1.1-0.7-1.8-0.5c-0.9,0.2-1.6,0.9-1.7,1.9l-1.5,0.6c-0.5,0.2-0.7,0.7-0.6,1.2c0.1,0.4,0.5,0.6,0.9,0.6     c0.1,0,0.2,0,0.3-0.1l1.1-0.4c1.7,8.2,3.4,8.4,4.4,8.6c0.1,0,0.3,0,0.4,0c1.7,0,2.9-1.4,3.7-2.4c0.3-0.4,0.6-0.8,0.9-1l0.2,11.1     c0,0.1,0,0.1,0,0.2c-0.3,1.1-1.5,5.4-2,7.2c-0.5,1.9-0.5,7.6-0.4,10.7H28.6c-0.2-14.5-2.7-21-4.1-23.6     c2.4-4.1,9.8-18.1,10.4-36.6h30.4c0.5,18.5,7.9,32.5,10.4,36.6c-1.5,2.6-3.9,9.1-4.1,23.6H59.6z M54.2,80.1h-5.1     c-0.1-4-0.1-8.4,0.2-9.3c0.4-1.4,1.2-4.3,1.7-6.1l-0.2,5.3C50.8,70.5,50.8,71.9,54.2,80.1z M79.2,58.7h4.9v21.4h-8.4     C75.9,66.1,78.2,60.4,79.2,58.7z M84.1,54.4h-4.8c-2.1-3.6-9.3-17-9.8-34.5h14.7V54.4z M30.6,19.9c-0.6,17.5-7.7,30.9-9.8,34.5     h-4.8V19.9H30.6z M15.9,58.7h4.9c1,1.8,3.3,7.5,3.5,21.4h-8.4V58.7z"></path></g></g></g></svg>