<svg xmlns:rdf="http://www.w3.org/1999/02/22-rdf-syntax-ns#" xmlns="http://www.w3.org/2000/svg" xmlns:cc="http://creativecommons.org/ns#" xmlns:dc="http://purl.org/dc/elements/1.1/" version="1.1" x="0px" y="0px" viewBox="0 0 100 100"><g transform="translate(0,-952.36218)"><path style="baseline-shift:baseline;block-progression:tb;color:#000000;direction:ltr;text-indent:0;enable-background:accumulate;text-transform:none;" fill="#000" d="m67.078,962.6c-1.5709,0-2.8125,1.22-2.8125,2.7812v3.5312h5.5938v-3.5312c0-1.571-1.2104-2.7812-2.7812-2.7812zm-35.969,0.125c-1.5709,0-2.8438,1.22-2.8438,2.7812v3.4062h5.625v-3.4062c0-1.571-1.2104-2.7812-2.7812-2.7812zm-16.281,8c-0.18951,0-0.37832,0.0129-0.5625,0.0312s-0.35327,0.058-0.53125,0.0937c-0.15713,0.0336-0.31723,0.0473-0.46875,0.0937-0.02141,0.006-0.04121,0.0253-0.0625,0.0312-0.14969,0.0481-0.29401,0.0962-0.4375,0.15625-0.02135,0.009-0.04129,0.0222-0.0625,0.0312-0.14168,0.0615-0.27134,0.1148-0.40625,0.1875-0.02099,0.0109-0.04168,0.0201-0.0625,0.0312-0.13504,0.075-0.27876,0.1644-0.40625,0.25-0.01858,0.0121-0.04408,0.0189-0.0625,0.0312-0.12536,0.0866-0.22648,0.18485-0.34375,0.28125-0.14741,0.11817-0.27227,0.24219-0.40625,0.375-0.99042,0.98886-1.5938,2.3304-1.5938,3.8438v9.25h81.156v-9.25c0-1.1201-0.33211-2.1654-0.90625-3.0312-0.0079-0.0117-0.02325-0.0195-0.03125-0.0312-0.19608-0.29088-0.40864-0.53403-0.65625-0.78125-0.10403-0.10386-0.2315-0.2172-0.34375-0.3125-0.01109-0.009-0.02008-0.0222-0.03125-0.0312-0.01074-0.009-0.02044-0.0222-0.03125-0.0312-0.12423-0.0998-0.24202-0.19245-0.375-0.28125-0.01242-0.008-0.01876-0.0232-0.03125-0.0312-0.08289-0.0544-0.16399-0.10635-0.25-0.15625-0.06982-0.0418-0.14688-0.0863-0.21875-0.125-0.29237-0.15211-0.61642-0.2768-0.9375-0.375-0.51452-0.1574-1.0565-0.25-1.625-0.25h-70.312zm-5.4375,16.469,0,11.156,18.969,0,0-11.156-18.969,0zm20.75,0,0,11.156,18.969,0,0-11.156-18.969,0zm20.75,0,0,11.156,18.969,0,0-11.156-18.969,0zm20.75,0,0,11.156,18.969,0,0-11.156-18.969,0zm-62.25,12.937,0,11.031,18.969,0,0-11.031-18.969,0zm20.75,0,0,11.031,18.969,0,0-11.031-18.969,0zm20.75,0,0,11.031,18.969,0,0-11.031-18.969,0zm20.75,0,0,11.031,18.969,0,0-11.031-18.969,0zm-62.25,12.844,0,11.031,6.0938,0c1.9943-5.2982,6.9629-9.1313,12.875-9.4687v-1.5625h-18.969zm20.75,0,0,1.5625c5.8729,0.3722,10.78,4.2005,12.781,9.4687h6.1875v-11.031h-18.969zm20.75,0,0,11.031,18.969,0,0-11.031-18.969,0zm20.75,0,0,11.031,18.969,0,0-11.031-18.969,0zm-42.438,3.3437c-7.1371,0-12.875,5.7377-12.875,12.875s5.7379,12.938,12.875,12.938,12.938-5.8002,12.938-12.938c0-7.1373-5.8004-12.875-12.938-12.875zm-0.15625,4.4375a0.90009,0.90009,0,0,1,0.09375,0,0.90009,0.90009,0,0,1,1.0312,0.9063v6.6562h6.6562a0.90625,0.90625,0,0,1,0,1.8125h-6.6562v6.6563a0.90625,0.90625,0,0,1,-1.8125,0v-6.6563h-6.6562a0.90746,0.90746,0,0,1,-0.09375,-1.8125,0.90009,0.90009,0,0,1,0.09375,0h6.6562v-6.6562a0.90009,0.90009,0,0,1,0.6875,-0.9063zm-19.656,5.0313,0,5.7812c0,3.0322,2.4053,5.4375,5.4375,5.4375h1.9688c-1.4209-2.2688-2.25-4.9402-2.25-7.8125,0-1.1722,0.14778-2.3132,0.40625-3.4062h-5.5625zm34.094,0c0.26071,1.093,0.4375,2.234,0.4375,3.4062,0,2.8723-0.85021,5.5437-2.2812,7.8125h7.4688v-11.219h-5.625zm7.4062,0,0,11.219,18.969,0,0-11.219-18.969,0zm20.75,0,0,11.219,13.5,0c3.0322,0,5.4688-2.4053,5.4688-5.4375v-5.7812h-18.969z"></path></g></svg>