<svg height='100px' width='100px'  fill="#1A1A1A" xmlns="http://www.w3.org/2000/svg" xmlns:xlink="http://www.w3.org/1999/xlink" xml:space="preserve" version="1.1" style="shape-rendering:geometricPrecision;text-rendering:geometricPrecision;image-rendering:optimizeQuality;" viewBox="0 0 846.66 846.66" x="0px" y="0px" fill-rule="evenodd" clip-rule="evenodd"><defs><style type="text/css">
   
    .fil0 {fill:#1A1A1A}
   
  </style></defs><g><path class="fil0" d="M404.19 105.55c-175.49,0 -317.78,142.29 -317.78,317.78 0,175.49 142.29,317.78 317.78,317.78 60.78,0 119.03,-16.73 170.32,-49.39 7.53,-5.29 17.37,-7.09 26.78,-3.99l158.96 52.52 -77.12 -134.59c-5,-8.81 -5.46,-19.93 -0.24,-29.45 25.79,-46.94 39.08,-99.34 39.08,-152.88 0,-175.49 -142.3,-317.78 -317.78,-317.78zm-48.03 385.36l40.22 -150.11c9.83,-36.77 65.73,-21.82 55.9,14.95l-40.21 150.11c-9.83,36.76 -65.73,21.82 -55.91,-14.95zm170.91 0.39c-26.79,26.95 -67.78,-13.78 -40.99,-40.75l27.21 -27.22 -27.21 -27.23c-26.79,-26.96 14.2,-67.69 40.99,-40.75l47.57 47.6c11.21,11.28 11.2,29.5 0,40.76l-47.57 47.59zm-245.67 -136.06c26.94,-26.95 67.92,14.03 40.98,40.98l-27.11 27.11 27.11 27.11c26.94,26.94 -14.04,67.93 -40.98,40.98l-47.6 -47.61c-11.31,-11.3 -11.31,-29.66 0,-40.98l47.6 -47.59z"></path></g></svg>