<svg height='100px' width='100px'  fill="#1A1A1A" xmlns="http://www.w3.org/2000/svg" xmlns:xlink="http://www.w3.org/1999/xlink" xmlns:a="http://ns.adobe.com/AdobeSVGViewerExtensions/3.0/" version="1.1" x="0px" y="0px" viewBox="36.866 -5.968 100 100" enable-background="new 36.866 -5.968 100 100" xml:space="preserve"><path display="none" d="M106.938,20.046c-1-0.95-2.099-1.85-3.299-2.699l-0.399,20.592c0,0.4-0.15,0.75-0.45,1.05  c-0.3,0.25-0.649,0.399-1.05,0.399c-0.449,0-0.799-0.15-1.049-0.45c-0.301-0.3-0.45-0.649-0.45-1.049l0.45-22.541  c-2.449-1.549-5.099-2.799-7.848-3.849l-0.5,26.54c0,0.4-0.149,0.75-0.449,1.049c-0.301,0.25-0.65,0.4-1.05,0.4  c-0.45,0-0.8-0.15-1.05-0.45c-0.3-0.3-0.449-0.65-0.449-1.05L89.894,10.5c-2.549-0.75-5.248-1.35-7.996-1.699l-0.55,29.238  c0,0.4-0.149,0.75-0.45,1.049c-0.3,0.25-0.649,0.4-1.049,0.4c-0.45,0-0.801-0.15-1.051-0.45c-0.299-0.3-0.449-0.65-0.449-1.05  l0.6-29.538c-1.85-0.15-3.799-0.25-5.748-0.25c-0.749,0-1.499,0-2.249,0.05l-0.6,29.788c0,0.4-0.15,0.75-0.45,1.049  c-0.3,0.25-0.65,0.4-1.05,0.4c-0.45,0-0.8-0.15-1.049-0.45c-0.3-0.3-0.45-0.65-0.45-1.05l0.6-29.588  c-2.799,0.25-5.498,0.649-8.047,1.199l-0.55,28.439c0,0.4-0.15,0.75-0.45,1.049c-0.3,0.25-0.65,0.4-1.05,0.4  c-0.45,0-0.8-0.15-1.05-0.45c-0.3-0.3-0.45-0.65-0.45-1.05l0.55-27.589c-4.748,1.35-9.046,3.399-12.995,6.048l-0.05,0.05  c2.499,3.948,3.748,8.546,3.748,13.694c0,6.448-1.949,11.945-5.797,16.493c-1.35,1.6-2.749,2.899-4.298,3.949  c1.749,1.949,3.849,3.799,6.397,5.547c3.548,2.449,7.447,4.349,11.695,5.698v4.698h11.096v-4.049h29.988v4.049h11.096v-4.049h17.192  c0.301-0.899,0.451-1.85,0.451-2.898c0-2.449-0.9-4.598-2.65-6.348c-1.748-1.749-3.848-2.599-6.297-2.599  c-1.949,0-3.699,0.55-5.248,1.699v-4.849c2.199-3.448,3.299-7.146,3.299-11.195c0-5.748-2.25-10.896-6.697-15.394  C107.537,20.646,107.237,20.346,106.938,20.046L106.938,20.046z M45.012,51.784c-0.5-0.45-0.75-1-0.75-1.649  c0-0.65,0.25-1.199,0.75-1.649c0.5-0.45,1.1-0.7,1.799-0.7s1.299,0.25,1.799,0.7c0.5,0.45,0.75,0.999,0.75,1.649  c0,0.649-0.25,1.199-0.75,1.649c-0.5,0.45-1.1,0.7-1.799,0.7S45.512,52.234,45.012,51.784L45.012,51.784z"></path><path display="none" d="M5.996,23.467C2.748,26.917,0.748,30.965,0,35.512c0.748-1.248,1.699-2.447,2.947-3.498  c3.15-2.648,6.898-3.998,11.297-3.998c4.447,0,8.195,1.35,11.295,3.998c2.25,1.949,3.699,4.148,4.348,6.648  c-1.549,0.898-2.947,2.148-4.297,3.697c-0.451,0.551-0.85,1.1-1.201,1.65H22.24c0-0.15,0-0.35,0-0.5c0-1.15-0.199-2.25-0.549-3.25  h1.35v-4.848h-5.199c-1.648-1.1-3.498-1.648-5.598-1.648c-2.748,0-5.098,0.949-7.047,2.848c-1.949,1.9-2.949,4.199-2.949,6.898  c0,2.248,0.699,4.248,2.1,5.947h8.547V66.1l1.25,2.699h1.848l2.25-5.047v4.598h2.898l1-2.299l0.199-0.5  c0.051,0.15,0.15,0.35,0.201,0.5l1.449,0.398v6.648h6.348c-1-1.6-1.4-3.449-1.15-5.598c0.051-0.6,0.15-1.199,0.301-1.799  c0.049-0.201,0.1-0.4,0.148-0.6c0.35-1.051,1-1.949,1.9-2.799c1.449-1.35,3.248-2,5.297-2s3.85,0.65,5.299,2  c1.25,1.148,1.949,2.447,2.148,3.947c0.051,0.15,0.051,0.35,0.051,0.5c-0.051,0.1-0.051,0.199-0.1,0.35  c-0.75,2.398-1.75,4.398-3,5.998h10.096V68.5c1.75-3.15,2.6-6.799,2.6-10.896c0-5.648-1.648-10.496-4.898-14.594  c-1.748-2.199-3.648-3.799-5.797-4.799c-0.4-5.697-2.5-10.596-6.348-14.744c-4.248-4.598-9.396-6.896-15.443-6.896  C15.393,16.571,10.246,18.87,5.996,23.467L5.996,23.467z M10.195,38.211c0.4,0,0.75,0.15,1,0.451  c0.299,0.35,0.449,0.699,0.449,1.148s-0.15,0.801-0.449,1.1c-0.25,0.35-0.6,0.5-1,0.5s-0.75-0.15-1.049-0.5  c-0.25-0.299-0.4-0.65-0.4-1.1s0.15-0.799,0.4-1.148C9.445,38.362,9.795,38.211,10.195,38.211L10.195,38.211z"></path><path display="none" d="M93.228,34.967c-1.5-0.949-3.199-1.4-5.049-1.449c-2.748-0.051-5.098,0.799-7.047,2.648  s-2.898,4.098-2.898,6.748c0,2.398,0.75,4.498,2.299,6.246h8.347v16.494l1.1,2.6h1.949l1.85-4.199  c0.55,2.85,1.699,5.348,3.349,7.598c0.15,0.199,0.3,0.4,0.449,0.6h-4.197v5.797h20.041v-3.848c0.8-0.699,1.55-1.549,2.299-2.549  c2.55-3.449,3.85-7.646,3.85-12.596c0-1.049-0.051-1.998-0.15-2.949c2.749,2.549,5.998,3.799,9.646,3.799  c4.398,0,8.146-1.799,11.245-5.398c3.099-3.547,4.647-7.896,4.647-12.943c0-2.699-0.449-5.199-1.299-7.447h15.395  c-1.15-3.648-3.1-6.947-5.948-9.846c-4.748-4.898-10.446-7.348-17.144-7.348c-6.646,0-12.345,2.449-17.093,7.348  c-4.748,4.848-7.097,10.744-7.097,17.691c0,0.25,0,0.5,0.049,0.75l0.051,0.051l-0.051,0.1c-0.199-0.15-0.399-0.35-0.648-0.5  c-0.051-0.049-0.101-0.049-0.15-0.1c-1.449-0.699-2.949-1.049-4.598-1.049c-1.85,0-3.549,0.449-5.099,1.348  c-0.45,0.25-0.85,0.5-1.249,0.852c-0.15,0.049-0.25,0.148-0.301,0.199h-1.699c0-0.051,0-0.15,0-0.25c0-1.449-0.3-2.75-0.85-3.998  h2.299v-4.398H93.228L93.228,34.967z M87.079,38.266c0.301,0.299,0.451,0.648,0.451,1.049s-0.15,0.75-0.451,1  c-0.249,0.299-0.6,0.449-0.999,0.449s-0.749-0.15-1.05-0.449c-0.25-0.25-0.399-0.6-0.399-1s0.149-0.75,0.399-1.049  c0.301-0.25,0.65-0.4,1.05-0.4S86.83,38.016,87.079,38.266L87.079,38.266z"></path><path d="M69.775,0c-8.558,0-15.828,2.65-21.875,8.018c-6.045,5.368-9.035,11.822-9.035,19.361c0,7.542,2.989,13.927,9.035,19.295  c2.787,2.512,5.912,4.481,9.307,5.84v-0.065c0.749-1.834,1.834-3.533,3.263-5.029c0.067-0.136,0.271-0.203,0.476-0.203  c0.202,0,0.34,0.067,0.475,0.203c0.135,0.069,0.204,0.271,0.204,0.476c0,0.204-0.069,0.34-0.138,0.476  c-1.29,1.428-2.31,2.923-2.989,4.62h-0.066c-0.815,1.969-1.224,4.143-1.224,6.522c0,4.754,1.699,8.831,5.095,12.161  c1.155,1.155,2.379,2.105,3.669,2.851c0.205,0.069,0.273,0.204,0.34,0.41c0.069,0.135,0,0.271-0.066,0.475  c-0.138,0.204-0.273,0.271-0.409,0.34c-0.066,0-0.136,0-0.205,0v8.423h7.338v-4.414c0-0.069,0-0.205,0.068-0.273  c0.067-0.136,0.136-0.202,0.271-0.271c0.951-0.681,1.834-1.427,2.582-2.175c1.154-1.222,2.243-2.581,3.127-4.075  c0.065-0.135,0.201-0.204,0.405-0.273c0.136-0.065,0.271-0.065,0.476,0.069c0.205,0.069,0.273,0.204,0.34,0.408  c0.069,0.136,0,0.271-0.067,0.476c-0.883,1.495-1.903,2.852-3.059,4.075c1.835,0.544,3.874,0.814,6.114,0.814  c1.834,0,3.465-0.204,5.028-0.544v3.467c7.949,0.611,13.112,2.445,15.624,5.502c0.069,0.135,0.205,0.272,0.272,0.408h3.191  L101.707,75c-0.068-0.065-0.068-0.201-0.068-0.271v-5.908c0-0.205,0.068-0.341,0.206-0.477c0.135-0.135,0.271-0.204,0.474-0.204  c0.205,0,0.341,0.069,0.476,0.204C102.93,68.48,103,68.616,103,68.821v4.754l11.002-9.033v-1.77h18.411  c0.205-0.406,0.341-0.814,0.546-1.221c0.609-1.63,0.95-3.398,0.95-5.368c0-3.734-1.226-6.997-3.669-9.714  c-1.021-1.154-2.105-2.039-3.331-2.649c-1.629-0.885-3.394-1.36-5.363-1.36c-0.408,0-0.814,0-1.155,0.069l-2.379-4.483l-3.466,5.23  h-3.058l-4.754-3.736v5.706c-1.765-0.477-3.669-0.681-5.774-0.681c-4.483,0-8.289,1.089-11.483,3.194  c-0.201,0.204-0.475,0.339-0.679,0.475c-0.475-0.545-0.881-0.951-1.221-1.29c-3.534-3.464-7.813-5.23-12.841-5.23  c-3.191,0-6.114,0.746-8.764,2.171c-2.92-2.58-4.346-5.569-4.346-8.898c0-4.009,2.037-7.405,6.181-10.327  c4.145-2.785,9.103-4.211,15.015-4.211c5.841,0,10.801,1.426,14.945,4.211c1.153,0.817,2.107,1.632,2.923,2.514  c-0.07-7.474-3.058-13.858-9.104-19.157C85.538,2.65,78.269,0,69.775,0L69.775,0z M126.503,54.145c0,0.545-0.203,1.019-0.611,1.428  c-0.406,0.406-0.882,0.61-1.426,0.61s-1.021-0.204-1.427-0.61c-0.408-0.409-0.613-0.883-0.613-1.428  c0-0.542,0.205-1.017,0.613-1.426c0.406-0.409,0.883-0.611,1.427-0.611s1.02,0.202,1.426,0.611  C126.3,53.128,126.503,53.603,126.503,54.145L126.503,54.145z"></path><path d="M103.609,74.525c8.085,1.563,12.977,3.738,14.674,6.659c0.067,0.068,0.067,0.204,0.138,0.271h4.005l-7.608-16.234  L103.609,74.525L103.609,74.525z"></path></svg>