<svg height='100px' width='100px'  fill="#1A1A1A" xmlns="http://www.w3.org/2000/svg" xmlns:xlink="http://www.w3.org/1999/xlink" xmlns:a="http://ns.adobe.com/AdobeSVGViewerExtensions/3.0/" version="1.1" x="0px" y="0px" viewBox="-0.649 -1.181 100 100" enable-background="new -0.649 -1.181 100 100" xml:space="preserve"><path display="none" d="M69.422,24.834c-1-0.95-2.099-1.85-3.299-2.699l-0.399,20.592c0,0.4-0.15,0.75-0.45,1.05  c-0.3,0.25-0.649,0.399-1.05,0.399c-0.449,0-0.799-0.15-1.049-0.45c-0.301-0.3-0.45-0.649-0.45-1.049l0.45-22.541  c-2.449-1.549-5.099-2.799-7.848-3.849l-0.5,26.54c0,0.4-0.149,0.75-0.449,1.049c-0.301,0.25-0.65,0.4-1.05,0.4  c-0.45,0-0.8-0.15-1.05-0.45c-0.3-0.3-0.449-0.65-0.449-1.05l0.549-27.489c-2.549-0.75-5.248-1.35-7.996-1.699l-0.55,29.238  c0,0.4-0.149,0.75-0.45,1.049c-0.3,0.25-0.649,0.4-1.049,0.4c-0.45,0-0.801-0.15-1.051-0.45c-0.299-0.3-0.449-0.65-0.449-1.05  l0.6-29.538c-1.85-0.15-3.799-0.25-5.748-0.25c-0.749,0-1.499,0-2.249,0.05l-0.6,29.788c0,0.4-0.15,0.75-0.45,1.049  c-0.3,0.25-0.65,0.4-1.05,0.4c-0.45,0-0.8-0.15-1.049-0.45c-0.3-0.3-0.45-0.65-0.45-1.05l0.6-29.588  c-2.799,0.25-5.498,0.649-8.047,1.199l-0.55,28.439c0,0.4-0.15,0.75-0.45,1.049c-0.3,0.25-0.65,0.4-1.05,0.4  c-0.45,0-0.8-0.15-1.05-0.45c-0.3-0.3-0.45-0.65-0.45-1.05l0.55-27.589c-4.748,1.35-9.046,3.399-12.995,6.048l-0.05,0.05  c2.499,3.948,3.748,8.546,3.748,13.694c0,6.448-1.949,11.945-5.797,16.493c-1.35,1.6-2.749,2.899-4.298,3.949  c1.749,1.949,3.849,3.799,6.397,5.547c3.548,2.449,7.447,4.349,11.695,5.698v4.698h11.096v-4.049h29.988v4.049h11.096v-4.049h17.192  c0.301-0.899,0.451-1.85,0.451-2.898c0-2.449-0.9-4.598-2.65-6.348c-1.748-1.749-3.848-2.599-6.297-2.599  c-1.949,0-3.699,0.55-5.248,1.699v-4.849c2.199-3.448,3.299-7.146,3.299-11.195c0-5.748-2.25-10.896-6.697-15.394  C70.022,25.434,69.722,25.134,69.422,24.834L69.422,24.834z M7.497,56.571c-0.5-0.45-0.75-1-0.75-1.649  c0-0.65,0.25-1.199,0.75-1.649c0.5-0.45,1.1-0.7,1.799-0.7s1.299,0.25,1.799,0.7c0.5,0.45,0.75,0.999,0.75,1.649  c0,0.649-0.25,1.199-0.75,1.649c-0.5,0.45-1.1,0.7-1.799,0.7S7.997,57.021,7.497,56.571L7.497,56.571z"></path><path d="M71.857,9.116C70.527,3.038,68.946,0,67.045,0c-1.961,0-3.608,3.038-4.938,9.116c-1.331,6.14-2.025,13.485-2.025,22.094  c0,8.673,0.694,16.016,2.025,22.093c0.063,0.126,0.063,0.253,0.063,0.379c-0.314-0.316-0.695-0.569-1.013-0.821  c-0.252-0.19-0.507-0.445-0.823-0.634c-0.062-0.063-0.126-0.063-0.188-0.126c-1.838-0.888-3.735-1.331-5.825-1.331  c-2.341,0-4.495,0.569-6.457,1.71c-0.569,0.316-1.076,0.633-1.583,1.076c-0.188,0.064-0.317,0.19-0.378,0.252H43.75  c0-0.062,0-0.188,0-0.314c0-1.838-0.381-3.482-1.076-5.066h2.912v-5.571H37.61c-1.9-1.202-4.052-1.771-6.395-1.835  c-3.481-0.062-6.457,1.014-8.926,3.357c-2.469,2.34-3.671,5.19-3.671,8.544c0,3.04,0.95,5.697,2.912,7.914h10.571v20.891  l1.393,3.291h2.469l2.343-5.316c0.698,3.606,2.152,6.773,4.243,9.62c0.188,0.255,0.378,0.508,0.569,0.76h-5.319v7.345h25.386V92.55  c1.012-0.886,1.962-1.962,2.912-3.229c3.228-4.366,4.876-9.685,4.876-15.951c0-1.076-0.064-2.151-0.129-3.102  c0-0.19,0-0.443-0.062-0.634c-0.255-2.85-0.95-5.507-2.091-7.913c1.202-1.329,2.217-4.114,3.166-8.419  c1.394-6.078,2.088-13.42,2.088-22.093C73.945,22.601,73.25,15.256,71.857,9.116L71.857,9.116z M26.975,48.365  c0-0.507,0.188-0.95,0.569-1.331c0.443-0.316,0.95-0.504,1.519-0.504s1.076,0.188,1.457,0.504c0.443,0.381,0.633,0.824,0.633,1.331  c0,0.505-0.19,0.95-0.633,1.267c-0.381,0.379-0.888,0.569-1.457,0.569s-1.076-0.19-1.519-0.569  C27.163,49.315,26.975,48.87,26.975,48.365L26.975,48.365z"></path></svg>