<svg xmlns="http://www.w3.org/2000/svg" xmlns:xlink="http://www.w3.org/1999/xlink" version="1.1" x="0px" y="0px" viewBox="0 0 90 90" enable-background="new 0 0 90 90" xml:space="preserve"><path fill="#000000" d="M49.949,83.513c0-0.923,1.374-0.734,1.374,0.029c0,6.381-8.724,6.785-8.724,0.312  c0-0.774-0.133-39.295-0.133-39.295c-2.288-2.227-9.265-2.571-10.921,1.248c-0.829-2.631-8.702-4.449-10.805,0  c-5.755-3.517-12.531,0-12.531,0s9.206-16.335,34.278-16.761l-0.021-6.125c-2.288-2.226-9.265-2.572-10.921,1.247  c-0.829-2.632-8.702-4.449-10.805,0c-5.755-3.517-12.531,0-12.531,0S17.417,7.828,42.494,7.406c0.328-0.006,0.661-5.989,0.994-5.989  c0.27,0,0.541,5.982,0.809,5.986c23.619,0.369,37.88,16.763,37.88,16.763s-10.246-4.268-13.81,0c-1.425-3.457-11.477-3.638-13.297,0  c-1.596-3.143-8.288-3.443-11.078-1.192l-0.002,4.137c0.101,1.068,0.204,1.929,0.306,1.93c23.619,0.37,37.88,16.764,37.88,16.764  s-10.246-4.269-13.81,0c-1.425-3.457-11.477-3.638-13.297,0c-1.596-3.143-8.288-3.442-11.078-1.192L43.98,84.221  C43.98,88.094,49.949,88.179,49.949,83.513z"></path></svg>