<svg xmlns="http://www.w3.org/2000/svg" xmlns:xlink="http://www.w3.org/1999/xlink" version="1.1" x="0px" y="0px" viewBox="-346 256 100 100" enable-background="new -346 256 100 100" xml:space="preserve"><g><path d="M-301.228,264.336c-3.212,0-5.822,2.607-5.822,5.822c0,3.216,2.609,5.812,5.822,5.812s5.813-2.596,5.813-5.812   C-295.415,266.943-298.016,264.336-301.228,264.336z"></path><path d="M-325.239,300.639c0.62,0,1.239-0.226,1.723-0.688l13.812-13.123c0.404-0.261,0.687-0.259,0.938-0.048   c0.461,0.391,0.319,1.052,0.319,1.052v17.409h0.001c0,2.51,2.035,4.544,4.545,4.544h13.101l13.106,13.455   c0.667,0.686,1.552,1.03,2.44,1.03c0.856,0,1.714-0.323,2.379-0.968c1.347-1.314,1.375-3.471,0.061-4.819l-14.386-14.77   c-0.642-0.656-1.522-1.03-2.441-1.03h-3.99l-0.006-14.852l0.059-7.039l18.943-4.846c1.338-0.342,2.144-1.705,1.802-3.04   c-0.342-1.34-1.723-2.144-3.04-1.804l-31.296,8.008c-1.208,0.391-2.449,0.746-3.763,1.989l-16.027,15.229   c-1,0.95-1.041,2.532-0.089,3.533C-326.558,300.379-325.899,300.639-325.239,300.639z"></path></g><g><path d="M-246.898,350.183c-7.331-0.959-32.748-4.549-58.477-11.238c0.458-0.256,0.868-0.607,1.172-1.079l9.845-15.146   c0.359-0.553,0.692-1.198,0.692-1.857v-8.804h-6.958v7.792l-9.296,14.303c-0.724,1.112-0.697,2.482-0.073,3.556   c-13.488-3.728-28.488-8.871-34.558-10.997c-0.481-0.171-1.009,0.085-1.176,0.565c-0.169,0.48,0.085,1.009,0.565,1.177   c6.463,2.265,23.019,7.938,37.158,11.71c26.559,7.082,53.301,10.861,60.866,11.852c0.041,0.005,0.082,0.007,0.12,0.007   c0.457,0,0.854-0.338,0.915-0.803C-246.037,350.712-246.393,350.25-246.898,350.183z"></path></g></svg>