<svg height='100px' width='100px'  fill="#1A1A1A" xmlns="http://www.w3.org/2000/svg" viewBox="0 0 100 100" x="0px" y="0px"><title>Artboard 21</title><g data-name="Layer 2"><path d="M94.35,59.94,84.5,50.08V37.62a4.066,4.066,0,0,0-1.18-2.86l-6.55-6.55a2.26114,2.26114,0,0,0-2.9-.25l-.88.61-.67-.67a4.08563,4.08563,0,0,0-2.85-1.18h-.02a4.02876,4.02876,0,0,0-4.02,4.03,4.25665,4.25665,0,0,0,.08.8,4.04654,4.04654,0,0,0-4.35.9,3.93638,3.93638,0,0,0-1.18,2.85,4.03819,4.03819,0,0,0,.48,1.91,4.071,4.071,0,0,0-3.4397,1.20563c.0047-.05.0097-.12561.0097-.16559a4.00746,4.00746,0,0,0-4.01-4,4.05957,4.05957,0,0,0-3,1.34l-.19-.19a4.03,4.03,0,0,0-6.88,2.85,1.15511,1.15511,0,0,1,.01.15,3.99122,3.99122,0,0,0-3.45-1.17,3.94739,3.94739,0,0,0,.51-1.93,4.02893,4.02893,0,0,0-5.53-3.74,4.25665,4.25665,0,0,0,.08-.8,4.0376,4.0376,0,0,0-6.89-2.86l-.67.68-.88-.62a2.27126,2.27126,0,0,0-2.9.25l-6.55,6.55a4.041,4.041,0,0,0-1.18,2.86V50.08L5.65,59.94a.48329.48329,0,0,0,0,.7L18.14,73.13a.50748.50748,0,0,0,.36.15.50225.50225,0,0,0,.35-.15L28.84,63.15a9.37162,9.37162,0,0,1,3.02-.73c1.99-.31,3.24-.54,3.8-1.1L50,46.98,64.34,61.32c.56.56,1.81.79,3.8,1.1a9.37162,9.37162,0,0,1,3.02.73L81.15,73.13a.50225.50225,0,0,0,.35.15.50748.50748,0,0,0,.36-.15L94.35,60.64A.48333.48333,0,0,0,94.35,59.94ZM53.02271,35.22162a3.033,3.033,0,1,1-3.033,3.033A3.033,3.033,0,0,1,53.02271,35.22162Zm2.8952,6.26221-.21234-.21271.13763-.1377c.01025-.01.02264-.01685.03278-.027.01068-.01068.01746-.02356.028-.0343A4.03215,4.03215,0,0,0,55.91791,41.48383Zm-15.8432-3.309a3.03214,3.03214,0,0,1,2.15,5.17224l-4.10138,4.10138a3.03352,3.03352,0,0,1-4.28253-4.29755L37.92969,39.062A3.02434,3.02434,0,0,1,40.07471,38.1748Zm-6.23486-5.02A3.03467,3.03467,0,0,1,39.02,35.30225a2.99315,2.99315,0,0,1-.88916,2.14307L33.5874,41.98877a3.03491,3.03491,0,0,1-5.18018-2.14551,2.99626,2.99626,0,0,1,.1662-.92828,7.59986,7.59986,0,0,0,3.16486.11774A7.521,7.521,0,0,0,36.61572,35.915a.49991.49991,0,0,0-.12354-.69482L33.7179,33.27673Zm-5.45166-4.54346a3.10412,3.10412,0,0,1,4.29053,0A3.00209,3.00209,0,0,1,32.863,32.6778l-5.02271-3.51855Zm6.564,32.00586c-.36621.36621-2.03223.62354-3.24854.812-1.88574.2915-3.06787.50537-3.5752,1.0127l-9.63135,9.63135L6.707,60.28955l9.644-9.644a.49964.49964,0,0,0,.14648-.35352V37.61523a3.076,3.076,0,0,1,.88818-2.146l6.54736-6.54736a1.26681,1.26681,0,0,1,1.62109-.14307l9.94043,6.96387a6.53888,6.53888,0,0,1-7.54932,1.91455,6.14373,6.14373,0,0,1-1.29687-.70166l-.64209-.4502a.49949.49949,0,0,0-.64062.05566L24.09326,37.8335a.49982.49982,0,0,0,.00049.70752L26.959,41.3999a6.57662,6.57662,0,0,1,0,9.29053.49995.49995,0,0,0,.707.707,7.57733,7.57733,0,0,0,1.69037-8.11481,3.95274,3.95274,0,0,0,2.88861.509,4.01755,4.01755,0,0,0,6.1731,4.70044c.06921-.024,6.58942-6.51379,6.58942-6.51379l4.28729,4.29ZM27.47382,40.5011l-1.68964-1.686a3.644,3.644,0,0,0,1.81433-.12286,4.00177,4.00177,0,0,0-.19128,1.154A4.13418,4.13418,0,0,0,27.47382,40.5011Zm-1.88647-2.74762.18854-.18854.29639.20752c.04919.03491.10358.06189.15369.09558A3.03328,3.03328,0,0,1,25.58734,37.75348Zm18.5069,3.30383c.01233.01263.02069.02783.0332.04034l.17328.1734-.21954.21954c.00665-.09515.02771-.18726.02771-.28357C44.10889,41.15619,44.09607,41.10785,44.09424,41.05731ZM81.50293,72.07324l-9.63135-9.63135c-.50732-.50732-1.68945-.72119-3.5752-1.0127-1.21631-.188-2.88232-.4458-3.24854-.812L44.83447,40.39063a3.0066,3.0066,0,0,1-.88818-2.13916,3.03394,3.03394,0,0,1,5.17969-2.146l.32056.32056a4.00447,4.00447,0,0,0,5.40527,5.40515l3.58179,3.58923a.50029.50029,0,1,0,.70947-.70557l-1.37848-1.38092a3.03654,3.03654,0,0,1,.01324-4.27435,3.10747,3.10747,0,0,1,4.29053,0,.49995.49995,0,0,0,.707-.707l-.90869-.90967a3.03617,3.03617,0,0,1-.88916-2.14746,2.99315,2.99315,0,0,1,.88916-2.14307,3.03841,3.03841,0,0,1,4.291,0l.4541.4541a.49995.49995,0,0,0,.707-.707,3.03449,3.03449,0,0,1,2.12646-5.17969h.0166a3.03617,3.03617,0,0,1,2.14746.88916l8.96387,8.96387a.49995.49995,0,0,0,.707-.707l-7.57391-7.57391.73456-.514a1.26307,1.26307,0,0,1,1.626.144l6.54736,6.54736a3.054,3.054,0,0,1,.88818,2.146V50.28564a.50049.50049,0,0,0,.14648.35352l9.644,9.65039Z"></path></g></svg>