<svg xmlns="http://www.w3.org/2000/svg" data-name="Layer 1" viewBox="0 0 100 100" x="0px" y="0px"><title>Artboard 31</title><path d="M23,80.3H33.39a2,2,0,0,1,2,2V85.5a2,2,0,0,1-2,2H23a2,2,0,0,1-2-2V82.31A2,2,0,0,1,23,80.3Z"></path><path d="M8.61,74.9H91a2,2,0,0,0,2-2V69.71a2,2,0,0,0-2-2H76.3L89,45.74A3.59,3.59,0,0,0,87.58,41,16.14,16.14,0,0,1,80,33.37c-2.14-4.06.7-13-3.91-15.68L69.85,14.1a3.61,3.61,0,0,0-4.93,1.31L55.92,31l-6.23-3.6a3.58,3.58,0,0,0-4.91,1.3l-5.41,9.37-11.61-6.7a1,1,0,0,0-1.36.37l-2.6,4.5a1,1,0,0,0,.36,1.36l11.61,6.7-3.6,6.24-11.61-6.7a1,1,0,0,0-1.36.37l-2.6,4.5A1,1,0,0,0,17,50.07l11.61,6.7L25,63,13.36,56.3a1,1,0,0,0-1.36.37l-2.6,4.5a1,1,0,0,0,.36,1.36L18.7,67.7H8.61a2,2,0,0,0-2,2v3.19A2,2,0,0,0,8.61,74.9ZM80.93,45.28,68,67.7H59.67L75.61,40.09A17,17,0,0,0,80.93,45.28ZM69.3,22.09l2.08,1.2A33.93,33.93,0,0,0,72,32l-1.8,3.13a3.6,3.6,0,0,0-3.6,6.24L63,47.55a3.6,3.6,0,0,0-3.6,6.24l-8,13.92H43ZM49.15,35.4l3.17,1.83L34.72,67.7H30.57Z"></path><path d="M51.81,80.3H76.6a2,2,0,0,1,2,2v3.19a2,2,0,0,1-2,2H51.8a2,2,0,0,1-2-2V82.31A2,2,0,0,1,51.81,80.3Z"></path></svg>