<svg xmlns="http://www.w3.org/2000/svg" data-name="Layer 1" viewBox="0 0 100 100" x="0px" y="0px"><title>Artboard 6</title><path d="M24.11,67.5c19.51,10,9.69,22.21,3.61,27.65A1.63,1.63,0,0,0,28.8,98H80.68a3.65,3.65,0,0,0,2.89-1.43C99.69,75.64,68.66,65.66,68.66,65.66L34.32,54.59c-7.17-3-2.62-7.93,3.18-11.92l1.29-.91a3.13,3.13,0,0,0,1.05-4,3,3,0,0,0-4-1.27L21.27,44S-1.85,54.17,24.11,67.5Z"></path><path d="M60,53.67a4.48,4.48,0,0,0,6.29,0C72,48.13,83.15,35.43,83.15,22a20,20,0,0,0-20-20q-.64,0-1.29,0A20.13,20.13,0,0,0,43.21,22.21C43.34,35.59,54.45,48.18,60,53.67ZM55.19,22a8,8,0,1,1,8,8A8,8,0,0,1,55.19,22Z"></path></svg>