<svg xmlns="http://www.w3.org/2000/svg" xmlns:xlink="http://www.w3.org/1999/xlink" xml:space="preserve" version="1.1" style="shape-rendering:geometricPrecision;text-rendering:geometricPrecision;image-rendering:optimizeQuality;" viewBox="0 0 297 332" x="0px" y="0px" fill-rule="evenodd" clip-rule="evenodd"><defs><style type="text/css">
   
    .fil0 {fill:black}
   
  </style></defs><g><path class="fil0" d="M278 183c-32,-22 -39,-54 -52,-88 -11,-29 -33,-52 -62,-64 -18,-9 -38,-12 -58,-10l0 0c-3,-8 -9,-15 -17,-18 -16,-7 -35,0 -42,16 -4,8 -4,17 -1,25l0 0c-41,32 -57,87 -38,135 13,34 29,62 20,99 -11,19 1,45 25,37l231 -89c22,-8 13,-36 -6,-43zm-115 100l-76 29c5,7 11,14 19,17 5,2 10,3 16,3 4,0 9,0 14,-2l3 -2c10,-3 18,-11 22,-20 4,-8 4,-17 2,-25zm-129 -122c-1,-5 -2,-11 -2,-16 0,-7 10,-7 10,0 0,5 0,10 1,15 1,6 -8,8 -9,1zm45 -90c-6,4 -12,10 -17,16 -8,10 -14,21 -17,34 -2,6 -11,4 -10,-3 4,-13 10,-26 19,-37 6,-7 12,-13 20,-18 5,-4 10,4 5,8z"></path></g></svg>