<svg height='100px' width='100px'  fill="#1A1A1A" xmlns="http://www.w3.org/2000/svg" xmlns:xlink="http://www.w3.org/1999/xlink" version="1.1" x="0px" y="0px" viewBox="0 0 153.517 237.183" style="enable-background:new 0 0 153.517 237.183;" xml:space="preserve"><g><circle cx="103.328" cy="22.5" r="22.5"></circle><path d="M146.6,146.204c3.351-0.793,5.933-3.697,6.144-7.311c2.472-42.247-2.813-69.811-15.706-81.925   c-5.589-5.252-11.05-6.171-13.876-6.244c-0.172-0.011-0.342-0.026-0.516-0.026H85.086c-4.178-1.059-23.94-6.782-42.919-24.14   V10.462H27.712c-2.709-3.117-7.4-3.682-10.78-1.186c-0.479,0.354-0.904,0.754-1.28,1.186H0v58.833h42.167V47.254   C55.957,57.326,68.87,62.453,76.283,64.816v43.064v18.94v98c0,6.83,5.537,12.363,12.363,12.363c6.828,0,12.365-5.533,12.365-12.363   v-90.272h4.635v90.272c0,6.83,5.537,12.363,12.363,12.363c6.828,0,12.365-5.533,12.365-12.363v-98v-18.94V74.793   c4.47,9.298,8.452,28.029,6.397,63.166c-0.213,3.643,2.05,6.853,5.329,8.008v5.078h-6.917v40.333h18.333v-40.333H146.6V146.204z    M2.5,66.795V12.962h37.167v53.833H2.5z M99.527,58.882h3.801h3.799l1.9,7.5l-0.289,0.456c-1.566,1.306-3.484,1.96-5.413,1.962   c-1.928-0.002-3.843-0.655-5.408-1.958l-0.291-0.46L99.527,58.882z M103.328,123.382l-9.5-12L99.3,71.06   c1.297,0.486,2.662,0.74,4.027,0.739h0.002c0,0,0.004,0,0.006,0c1.363,0,2.725-0.254,4.021-0.74l5.473,40.322L103.328,123.382z"></path><rect x="10.5" y="18.878" width="21.167" height="1.667"></rect><rect x="10.5" y="23.378" width="21.167" height="1.667"></rect><rect x="6.833" y="36.378" width="28.5" height="1.667"></rect><rect x="6.833" y="40.712" width="28.5" height="1.667"></rect><circle cx="30.517" cy="57.712" r="4.5"></circle></g></svg>