<svg xmlns="http://www.w3.org/2000/svg" xmlns:xlink="http://www.w3.org/1999/xlink" viewBox="0 0 75 75" version="1.1" x="0px" y="0px"><g><path style="" d="M 59.789062 44.851562 L 27.59375 12.65625 C 27.320312 12.382812 26.957031 12.234375 26.570312 12.234375 L 4.171875 12.234375 C 3.371094 12.234375 2.71875 12.882812 2.71875 13.683594 L 2.71875 36.082031 C 2.71875 36.46875 2.871094 36.832031 3.144531 37.105469 L 35.339844 69.300781 C 35.613281 69.574219 35.976562 69.726562 36.363281 69.726562 C 36.75 69.726562 37.117188 69.574219 37.390625 69.300781 L 59.789062 46.898438 C 60.0625 46.625 60.210938 46.261719 60.210938 45.875 C 60.214844 45.492188 60.0625 45.125 59.789062 44.851562 Z M 9.773438 22.21875 C 7.972656 22.21875 6.511719 20.757812 6.511719 18.957031 C 6.511719 17.15625 7.972656 15.695312 9.773438 15.695312 C 11.578125 15.695312 13.039062 17.15625 13.039062 18.957031 C 13.039062 20.757812 11.578125 22.21875 9.773438 22.21875 Z M 9.773438 22.21875 " stroke="none" fill-rule="nonzero" fill="rgb(0%,0%,0%)" fill-opacity="1"></path><path style="" d="M 73.632812 41.132812 L 41.4375 8.941406 C 41.300781 8.804688 41.117188 8.730469 40.925781 8.730469 L 18.523438 8.730469 C 18.125 8.730469 17.800781 9.054688 17.800781 9.453125 L 17.800781 11.507812 L 26.570312 11.507812 C 27.152344 11.507812 27.695312 11.734375 28.109375 12.144531 L 60.300781 44.339844 C 60.714844 44.75 60.9375 45.296875 60.9375 45.875 C 60.9375 46.457031 60.710938 47.003906 60.300781 47.414062 L 46.679688 61.035156 L 50.207031 64.5625 C 50.34375 64.695312 50.527344 64.773438 50.71875 64.773438 C 50.910156 64.773438 51.09375 64.695312 51.230469 64.5625 L 73.628906 42.160156 C 73.765625 42.023438 73.84375 41.839844 73.84375 41.648438 C 73.84375 41.453125 73.765625 41.273438 73.632812 41.132812 Z M 73.632812 41.132812 " stroke="none" fill-rule="nonzero" fill="rgb(0%,0%,0%)" fill-opacity="1"></path></g></svg>