<svg xmlns="http://www.w3.org/2000/svg" data-name="Layer 1" viewBox="0 0 100 100" x="0px" y="0px"><title>3Artboard 7</title><path d="M59,50a9,9,0,1,1-9-9A9,9,0,0,1,59,50Zm39,0A48,48,0,1,1,50,2,48,48,0,0,1,98,50ZM71,53V47a3,3,0,0,1,3-3H85.49A36.08,36.08,0,0,0,56,14.51V26a3,3,0,0,1-3,3H47a3,3,0,0,1-3-3V14.51A36.08,36.08,0,0,0,14.51,44H26a3,3,0,0,1,3,3v6a3,3,0,0,1-3,3H14.51A36.08,36.08,0,0,0,44,85.49V74a3,3,0,0,1,3-3h6a3,3,0,0,1,3,3V85.49A36.08,36.08,0,0,0,85.49,56H74A3,3,0,0,1,71,53Z"></path></svg>