<svg height='100px' width='100px'  fill="#1A1A1A" xmlns="http://www.w3.org/2000/svg" data-name="Your Icon" viewBox="0 0 100 100" x="0px" y="0px"><defs><style>.cls-1,.cls-2{fill:none;stroke:#1A1A1A;stroke-linecap:round;stroke-linejoin:round;stroke-width:2px;}.cls-1{fill-rule:evenodd;}</style></defs><title>Noun_Project_MASTERFILE_10px_grid</title><path class="cls-1" d="M84.152,82.448H28.889a4.62,4.62,0,0,1-4.619-4.62V69.152a4.619,4.619,0,0,1,4.619-4.619H84.152"></path><path class="cls-1" d="M84.152,82.448H28.889a4.62,4.62,0,0,1-4.619-4.62V69.152a4.619,4.619,0,0,1,4.619-4.619H84.152"></path><line class="cls-2" x1="28.889" y1="68.333" x2="82.003" y2="68.333"></line><line class="cls-2" x1="82.003" y1="68.333" x2="28.889" y2="68.333"></line><line class="cls-2" x1="28.889" y1="71.771" x2="82.003" y2="71.771"></line><line class="cls-2" x1="28.889" y1="71.771" x2="82.003" y2="71.771"></line><line class="cls-2" x1="28.889" y1="75.209" x2="82.003" y2="75.209"></line><line class="cls-2" x1="28.889" y1="75.209" x2="82.003" y2="75.209"></line><line class="cls-2" x1="28.889" y1="78.648" x2="82.003" y2="78.648"></line><path class="cls-1" d="M73.556,58.957H18.293a4.619,4.619,0,0,1-4.619-4.619V45.662a4.619,4.619,0,0,1,4.619-4.619H73.556"></path><path class="cls-1" d="M73.556,58.957H18.293a4.619,4.619,0,0,1-4.619-4.619V45.662a4.619,4.619,0,0,1,4.619-4.619H73.556"></path><line class="cls-2" x1="18.293" y1="44.842" x2="71.407" y2="44.842"></line><line class="cls-2" x1="71.407" y1="44.842" x2="18.293" y2="44.842"></line><line class="cls-2" x1="18.293" y1="48.281" x2="71.407" y2="48.281"></line><line class="cls-2" x1="18.293" y1="48.281" x2="71.407" y2="48.281"></line><line class="cls-2" x1="18.293" y1="51.719" x2="71.407" y2="51.719"></line><line class="cls-2" x1="18.293" y1="51.719" x2="71.407" y2="51.719"></line><line class="cls-2" x1="18.293" y1="55.158" x2="71.407" y2="55.158"></line><path class="cls-1" d="M86.326,35.467H31.064a4.619,4.619,0,0,1-4.62-4.619V22.172a4.62,4.62,0,0,1,4.62-4.62H86.326"></path><path class="cls-1" d="M86.326,35.467H31.064a4.619,4.619,0,0,1-4.62-4.619V22.172a4.62,4.62,0,0,1,4.62-4.62H86.326"></path><line class="cls-2" x1="31.064" y1="21.352" x2="84.177" y2="21.352"></line><line class="cls-2" x1="84.177" y1="21.352" x2="31.064" y2="21.352"></line><line class="cls-2" x1="31.064" y1="24.791" x2="84.177" y2="24.791"></line><line class="cls-2" x1="31.064" y1="24.791" x2="84.177" y2="24.791"></line><line class="cls-2" x1="31.064" y1="28.229" x2="84.177" y2="28.229"></line><line class="cls-2" x1="31.064" y1="28.229" x2="84.177" y2="28.229"></line><line class="cls-2" x1="31.064" y1="31.667" x2="84.177" y2="31.667"></line></svg>