<svg xmlns="http://www.w3.org/2000/svg" data-name="Layer 1" viewBox="0 0 100 100" x="0px" y="0px"><title>Artboard 21</title><path d="M56.65,2.21l-1,7.42,8.87,4.16a5.78,5.78,0,0,1,3.12,3.7l.83,3,13.25,11a4.65,4.65,0,0,1,.92,6.14L80.06,42.1a4.65,4.65,0,0,1-6.44,1.34l-5.68-3.72s-6.21,3-11.07,0c0,0-5.46,4.67,2.28,11S69.83,60.81,70.79,68.9h-47C17.37,53.32,16,20.19,45.49,10.53,46.85,6.77,49.64,2.13,55.2,1A1.22,1.22,0,0,1,56.65,2.21ZM18.37,99a1.75,1.75,0,0,1-1.75-1.75V85.68l.68-.33A11,11,0,0,0,23.44,77a1.9,1.9,0,0,1,1.89-1.58H69.93A1.9,1.9,0,0,1,71.82,77,11,11,0,0,0,78,85.35l.68.33V97.25A1.75,1.75,0,0,1,76.89,99Zm15.2-10.56A1.59,1.59,0,0,0,35.16,90H60.1a1.59,1.59,0,0,0,1.59-1.59V86A1.59,1.59,0,0,0,60.1,84.4H35.16A1.59,1.59,0,0,0,33.57,86Z"></path></svg>