<svg xmlns="http://www.w3.org/2000/svg" xmlns:xlink="http://www.w3.org/1999/xlink" version="1.1" x="0px" y="0px" viewBox="0 0 48 48" style="enable-background:new 0 0 48 48;" xml:space="preserve"><g><rect x="13" y="29" width="5" height="5"></rect><rect x="13" y="21" width="5" height="5"></rect><rect x="13" y="13" width="5" height="5"></rect><path d="M24,0C10.745,0,0,10.745,0,24s10.745,24,24,24s24-10.745,24-24S37.255,0,24,0z M21.5,14h12c0.275,0,0.5,0.225,0.5,0.5   S33.775,15,33.5,15h-12c-0.275,0-0.5-0.225-0.5-0.5S21.225,14,21.5,14z M19,34.5c0,0.275-0.225,0.5-0.5,0.5h-6   c-0.275,0-0.5-0.225-0.5-0.5v-6c0-0.275,0.225-0.5,0.5-0.5h6c0.275,0,0.5,0.225,0.5,0.5V34.5z M19,26.5c0,0.275-0.225,0.5-0.5,0.5   h-6c-0.275,0-0.5-0.225-0.5-0.5v-6c0-0.275,0.225-0.5,0.5-0.5h6c0.275,0,0.5,0.225,0.5,0.5V26.5z M19,18.5   c0,0.275-0.225,0.5-0.5,0.5h-6c-0.275,0-0.5-0.225-0.5-0.5v-6c0-0.275,0.225-0.5,0.5-0.5h6c0.275,0,0.5,0.225,0.5,0.5V18.5z    M35.5,34h-14c-0.275,0-0.5-0.225-0.5-0.5s0.225-0.5,0.5-0.5h14c0.275,0,0.5,0.225,0.5,0.5S35.775,34,35.5,34z M21,30.5   c0-0.275,0.225-0.5,0.5-0.5h12c0.275,0,0.5,0.225,0.5,0.5S33.775,31,33.5,31h-12C21.225,31,21,30.775,21,30.5z M35.5,26h-14   c-0.275,0-0.5-0.225-0.5-0.5s0.225-0.5,0.5-0.5h14c0.275,0,0.5,0.225,0.5,0.5S35.775,26,35.5,26z M21,22.5   c0-0.275,0.225-0.5,0.5-0.5h12c0.275,0,0.5,0.225,0.5,0.5S33.775,23,33.5,23h-12C21.225,23,21,22.775,21,22.5z M35.5,18h-14   c-0.275,0-0.5-0.225-0.5-0.5s0.225-0.5,0.5-0.5h14c0.275,0,0.5,0.225,0.5,0.5S35.775,18,35.5,18z"></path></g></svg>