<?xml version="1.0" encoding="utf-8"?>
<!-- Generator: Adobe Illustrator 23.0.1, SVG Export Plug-In . SVG Version: 6.00 Build 0)  -->
<svg version="1.1" id="Layer_1" xmlns="http://www.w3.org/2000/svg" xmlns:xlink="http://www.w3.org/1999/xlink" x="0px" y="0px"
	 width="100px" height="100px" viewBox="0 0 100 100" style="enable-background:new 0 0 100 100;" xml:space="preserve">
<path d="M83.9,16.4c2.1,0.1,3.9-0.5,5.5-1.8c1.6-1.3,2.5-3.1,2.6-5.2c0.2-2.1-0.4-3.9-1.8-5.5c-1.4-1.6-3.1-2.5-5.2-2.7
	c-2.2-0.1-4,0.5-5.6,1.9c-1.6,1.4-2.5,3.1-2.7,5.2c-0.2,2.1,0.4,3.9,1.8,5.5C80,15.3,81.7,16.2,83.9,16.4z"/>
<circle cx="51" cy="76.8" r="1.5"/>
<circle cx="46.4" cy="79.4" r="1.5"/>
<circle cx="39.4" cy="76.8" r="1.5"/>
<circle cx="75.9" cy="78.4" r="1.5"/>
<circle cx="78.5" cy="84.1" r="1.5"/>
<circle cx="83.4" cy="81" r="1.5"/>
<circle cx="92.5" cy="78.4" r="1.5"/>
<circle cx="85.9" cy="86.8" r="1.5"/>
<circle cx="91.3" cy="85.3" r="1.5"/>
<path d="M88.9,90.8c0.9,0,1.5,0.7,1.5,1.5c0,0.8-0.7,1.5-1.5,1.5s-1.5-0.7-1.5-1.5C87.4,91.5,88.1,90.8,88.9,90.8z"/>
<path d="M38.9,81c0.8,0,1.5,0.7,1.5,1.5c0,0.8-0.7,1.5-1.5,1.5c-0.9,0-1.5-0.7-1.5-1.5C37.3,81.6,38,81,38.9,81z"/>
<circle cx="49.5" cy="86.8" r="1.5"/>
<circle cx="33.1" cy="88.3" r="1.5"/>
<path d="M38.4,90.4c0.8,0,1.5,0.7,1.5,1.5c0,0.8-0.7,1.5-1.5,1.5c-0.8,0-1.5-0.7-1.5-1.5C36.9,91.1,37.6,90.4,38.4,90.4z"/>
<polygon points="14.8,86.1 22.5,86.1 22.5,89.2 14.8,89.2 "/>
<polygon points="9.3,92.6 22.5,92.6 22.5,95.7 9.3,95.7 "/>
<path d="M93.8,21.3c0.3,1.4-0.5,2.2-1.3,2.4l0,0c-0.8,0.2-1.9-0.2-2.2-1.6c-0.3-1.4,1-3.9,1-3.9l0,0C91.3,18.1,93.5,19.9,93.8,21.3z
	"/>
<path d="M98.4,14.9c1.2,0.8,1.2,1.9,0.8,2.6l0,0c-0.4,0.7-1.5,1.3-2.7,0.5s-2.1-3.5-2.1-3.5l0,0C94.4,14.5,97.2,14.2,98.4,14.9z"/>
<path d="M25.6,69.3v29.6h32.6V69.3h-3.2l5.2-5.7c0.3-0.5,0.6-1.2,1-2.1l3.3-10.9l10.2,11.2l1.4,7.5h-9.2v29.6h32.6V69.3H86.9
	l-2-10.4c-0.1-0.7-0.3-1.2-0.6-1.6l-11-13.9L76.7,28l2.9,5.8c0.2,0.4,0.8,1.1,1.3,1.5l10.9,7.5c0.6,0.3,1.1,0.5,2.1,0.5
	c1.3,0.2,3.3-1,3.5-2.7c0.1-1.4-0.6-2.9-1.6-3.6l-10.5-7.2l-7.8-15.3c-1.5-2.4-3.5-3.6-6-3.8c-2.1-0.1-3.8,0.4-5.3,1.6L50.8,23.9
	c-0.5,0.4-0.8,0.9-1,1.6l-3.4,15c0,0.1,0,0.5,0,0.7c-0.2,2.4,0.9,3.9,3.1,4.1c2.1,0.1,3.3-1.3,3.7-3.4l2.9-13l5.3-3.4L51.2,59.3
	L40.9,69.3H25.6z M70.3,72.6h26.1v23.1H70.3C70.3,95.7,70.3,72.6,70.3,72.6z M28.9,72.6H55v23.1H28.9V72.6z"/>
</svg>
