<svg height='100px' width='100px'  fill="#666666" xmlns="http://www.w3.org/2000/svg" xmlns:xlink="http://www.w3.org/1999/xlink" version="1.1" x="0px" y="0px" viewBox="0 0 100 100" style="enable-background:new 0 0 100 100;" xml:space="preserve"><style type="text/css">
	.st0{display:none;}
	.st1{display:inline;}
</style><g><path d="M86.2807922,72.9677963c-0.4737015-0.2431946-0.7652054-0.1659927-1.2935028-0.0263977   c-0.6592026,0.1743011-1.5630035,0.4125977-2.7182922-0.1786957c-1.1567078-0.5947037-1.4897079-1.4668045-1.7329102-2.1044998   c-0.1942978-0.5102997-0.3022003-0.7910004-0.7753983-1.0337067c-0.0830002-0.0429993-0.1551971-0.0643997-0.2294006-0.0888977   c-0.0571976,0.0234985-0.1060028,0.0586014-0.1641006,0.080101l-5.647995,2.0742035   c-0.6430054,3.4926987,0.5893936,6.851593,3.3408966,8.2636948c3.5410004,1.8163986,8.2406998-0.2798004,10.4974976-4.6791992   c0.0259018-0.0487976,0.0415039-0.0996017,0.0659027-0.1483994c-0.2826996-0.3901978-0.4389038-0.7881012-0.5663986-1.1225967   C86.8622894,73.4932022,86.7543869,73.2114029,86.2807922,72.9677963z M88.5751877,65.9638977l-1.3471909-0.6913986   c0.039093-0.0567017,0.0800934-0.1113968,0.1122894-0.1738968l0.6109009-1.190403   c0.3896027-0.7588005,0.0908127-1.6884995-0.6684952-2.078598l-1.4653015-0.75   c-0.7583008-0.3901024-1.6894989-0.0908012-2.0781021,0.6679993L83.1283875,62.9375   c-0.032196,0.0625-0.0526962,0.1278992-0.0751953,0.1924019l-0.9951019-0.5103035   c0.097702,0.1879997,0.2080002,0.3687019,0.282196,0.5703011c0.6646042,1.8085976,0.1968002,3.7456017-1.0165939,5.0825996   c0.6450958,0.5384979,0.8940964,1.1762009,1.0834961,1.6717987c0.1952972,0.5118027,0.3028107,0.7929993,0.7759018,1.0357056   c0.472702,0.2435989,0.7650986,0.1660004,1.2919998,0.0253983c0.660202-0.1739044,1.5619965-0.4115982,2.719696,0.1800995   c1.1573029,0.5942993,1.490303,1.4673004,1.7334061,2.1040955c0.0458984,0.1201019,0.0863953,0.2260056,0.1283951,0.3227005   c0.1362991-0.0917969,0.276413-0.1772003,0.4019012-0.2855988c0.0483017-0.0401001,0.0874023-0.0917969,0.1333008-0.1347961   c0.1557999-0.1480026,0.3119965-0.2944031,0.4468002-0.4653015c0.1791992-0.2250977,0.339798-0.4698029,0.4759979-0.7353973   C91.6430893,69.7910004,90.7748871,67.0923004,88.5751877,65.9638977z M80.4603882,63.8799019   c-0.572197-1.5567017-2.2953873-2.3555031-3.8553848-1.7832031l-8.2266159,3.0224037   C66.9188919,64.9115982,67.116188,62.8027,67.116188,62.8027c-0.0009995-1.6645012,0.2246017-2.5834999,0.4942017-3.0882988   c0.3958969-0.7408028,1.2093964-0.4477997,1.375-0.3863029c4.8544006,1.8334999,11.8720016,0.1128006,11.8720016,0.1128006   s3.2240982-0.8358994,2.0269012-5.1005974c0,0-3.9385071-8.6738014-5.0752029-13.9277   c-0.0679016-0.3091011,0.1694031-0.7821999,0.3432007-1.1753006c0.0249023-0.0576019,0.0997086-0.466301,0.1099014-0.6445007   c0.0302963-0.5074005,0.0233994-1.153801-0.102005-1.8111c-0.103096-0.8955002-0.4174957-1.7196999-1.3764954-2.3876991   c0,0-0.0059052,0.0038986-0.0068054,0.0048981c-0.1625977-0.1161995-0.337883-0.222599-0.5351944-0.3110008   c0,0-2.1816025,1.1821022-2.6001053,4.1323013c-0.3519974-0.0625-0.7514954-0.1006012-1.0473938-0.0360985   c0.1391983-0.9444008,0.4248047-4.1734009-1.9481888-5.2373009c0,0-2.4404144,1.3270988-2.6489182,4.6713982   c-2.8569946,0.1836014-6.5922966,1.4428024-9.7714958,5.8999023c0,0-6.8237,0.5200005-14.2695007,3.5062981   c-9.1324005,4.5166016-15.0126991,10.1245003-17.4946995,16.7285004c-0.1566982,0.4185028-0.285099,0.8311005-0.410099,1.2416992   c-0.5219994,1.9468002-0.8267002,4.0669022-0.8628006,6.3784027c0.1186008,4.6708984,1.7665997,7.9165955,1.7915096,7.9644012   c0.2557907,0.4897003,0.0678902,1.0951996-0.4209099,1.3510971c-0.1493988,0.078598-0.3085995,0.1156998-0.4657993,0.1156998   c-0.3593998,0-0.7066002-0.1938019-0.8852901-0.5331955c-0.1684093-0.3193054-4.0918102-7.9346008-0.6357098-17.1831055   c1.3304996-3.5600967,3.5643997-6.8358994,6.6587105-9.8217964c2.2684879-2.5181007,5.18009-5.0674019,8.9168873-7.5810013   c0.6656036-0.4477997,7.6607018-4.5245018,11.1939011-8.3964996c2.4580002-2.9561005,4.0474014-5.9541016,4.9429016-8.8526001   c0.6537971-1.7324009,1.0150986-3.5776005,1.0150986-5.4970016C57.2997894,13.0317001,47.8856888,5,36.272892,5   c-11.6127014,0-21.0268021,8.0317001-21.0268021,17.9389992c0,5.5385017,2.9560003,10.4756012,7.5810003,13.7646027   c4.2509995,0.508297,12.4981003,0.6181984,15.0766983-5.604002c0.4429016-1.8931007-0.0907898-3.6488991-0.6068993-5.3486004   c-0.8031998-2.6430988-1.7138901-5.6386986,2.3256989-7.8993988c0.4818993-0.2709999,1.0932007-0.0981998,1.3623009,0.3851986   c0.2705002,0.4820004,0.0981102,1.0923004-0.3848,1.3618011c-2.5259018,1.4140987-2.2509995,2.7290001-1.3871994,5.5699005   c0.5732002,1.8871994,1.2231102,4.0252991,0.6191101,6.4798985L39.78759,31.7842007   c-2.3871994,5.8944988-8.5365906,7.1664982-13.3993988,7.1664982c-1.4917011,0-2.8594017-0.1200981-3.9633999-0.2631989   c-0.8955002,0.5889015-1.8491001,1.1801987-2.8896008,1.7738991C3.3095911,49.7144012,9.213891,67.4228973,14.8754902,75.4048004   c-0.0004902,0-0.3056993,18.918396,17.9765987,19.453598C34.3383904,94.902298,42.4530907,95,42.5204887,95h15.8540001   c2.2118988,0,4.0049019-1.7935028,4.0049019-4.0048981c0-2.2118988-1.7930031-4.0054016-4.0049019-4.0054016h-9.1322975   c1.1976967-1.7534027,3.0498085-4.7826996,4.2445984-8.1977005c1.3232994-5.6781998,0.8339996-10.1138-1.4603996-13.1791992   c-0.0214996-0.0282974-0.0453911-0.0527039-0.0669022-0.0811005c-1.438488-1.5760994-3.4643974-2.8623009-6.0400963-3.860302   C44.75,61.357399,43.9228897,61.3008003,43.9022903,61.2998009c-0.5517006-0.0293007-0.9760017-0.5009995-0.9458008-1.0531998   c0.0298004-0.5527992,0.5044022-0.9653015,1.053299-0.9468002c0.2465019,0.0136986,6.0755997,0.3783989,9.6201019,5.1133003   c2.4790001,3.3115005,3.1553001,7.8740005,2.0634995,13.546402c3.1610985-1.5225067,5.9642982-3.4068069,7.3251991-6.5777054   c0.2420998,0.2710037,0.6166992,0.5918045,1.1875038,0.8359985c0.953598,0.4077072,3.4115982-0.3471985,5.8709946-1.3227997   l8.5997009-3.1595993C80.2338867,67.1635971,81.0321884,65.4375,80.4603882,63.8799019z"></path></g></svg>