<svg xmlns="http://www.w3.org/2000/svg" xmlns:xlink="http://www.w3.org/1999/xlink" version="1.1" x="0px" y="0px" viewBox="0 0 100 100" enable-background="new 0 0 100 100" xml:space="preserve"><polygon points="40.428,20.944 41.5,24.242 44.968,24.242 42.162,26.281 43.234,29.579 40.428,27.541 37.622,29.579 38.694,26.281   35.888,24.242 39.356,24.242 "></polygon><polygon points="31.859,12.875 32.669,15.369 35.292,15.369 33.17,16.911 33.981,19.405 31.859,17.864 29.737,19.405 30.547,16.911   28.425,15.369 31.048,15.369 "></polygon><polygon points="43.666,5.096 44.999,9.199 49.312,9.199 45.823,11.734 47.156,15.837 43.666,13.301 40.176,15.837 41.509,11.734   38.019,9.199 42.333,9.199 "></polygon><ellipse cx="53.157" cy="42.848" rx="3.988" ry="4.019"></ellipse><polygon points="46.048,94.923 49.689,94.923 53.331,71.857 58.806,95.064 61.865,95.064 59.566,58.314 69.281,70.809   71.217,68.895 57.918,48.281 48.648,48.265 42.233,31.838 39.805,31.663 47.434,60.497 "></polygon></svg>