<?xml version="1.0" encoding="utf-8"?>
<!-- Generator: Adobe Illustrator 24.1.2, SVG Export Plug-In . SVG Version: 6.00 Build 0)  -->
<svg version="1.1" id="Layer_1" xmlns="http://www.w3.org/2000/svg" xmlns:xlink="http://www.w3.org/1999/xlink" x="0px" y="0px"
	 viewBox="0 0 100 100" style="enable-background:new 0 0 100 100;" xml:space="preserve">
<style type="text/css">
	.st0{display:none;fill:#B30000;}
	.st1{fill:#B30000;}
</style>
<path class="st0" d="M70.1,26c-1-1-2.1-1.8-3.3-2.7l-0.4,20.6c0,0.4-0.1,0.8-0.4,1c-0.3,0.2-0.6,0.4-1.1,0.4c-0.4,0-0.8-0.2-1-0.5
	c-0.3-0.3-0.4-0.6-0.4-1l0.4-22.5c-2.4-1.5-5.1-2.8-7.8-3.8L55.5,44c0,0.4-0.1,0.8-0.4,1c-0.3,0.2-0.7,0.4-1.1,0.4
	c-0.4,0-0.8-0.2-1.1-0.5c-0.3-0.3-0.4-0.7-0.4-1L53,16.5c-2.5-0.8-5.2-1.4-8-1.7L44.5,44c0,0.4-0.1,0.8-0.4,1
	c-0.3,0.2-0.6,0.4-1,0.4c-0.4,0-0.8-0.2-1.1-0.5c-0.3-0.3-0.4-0.7-0.4-1l0.6-29.5c-1.8-0.1-3.8-0.2-5.7-0.2c-0.7,0-1.5,0-2.2,0.1
	L33.5,44c0,0.4-0.2,0.8-0.4,1c-0.3,0.2-0.7,0.4-1.1,0.4c-0.4,0-0.8-0.2-1-0.5c-0.3-0.3-0.4-0.7-0.4-1l0.6-29.6
	c-2.8,0.2-5.5,0.6-8,1.2L22.5,44c0,0.4-0.2,0.8-0.5,1c-0.3,0.2-0.7,0.4-1,0.4c-0.5,0-0.8-0.2-1-0.5c-0.3-0.3-0.5-0.7-0.5-1L20,16.4
	c-4.7,1.3-9,3.4-13,6l0,0c2.5,3.9,3.7,8.5,3.7,13.7c0,6.4-1.9,11.9-5.8,16.5c-1.3,1.6-2.7,2.9-4.3,3.9c1.7,1.9,3.8,3.8,6.4,5.5
	c3.5,2.4,7.4,4.3,11.7,5.7v4.7h11.1v-4h30v4h11.1v-4h17.2c0.3-0.9,0.5-1.8,0.5-2.9c0-2.4-0.9-4.6-2.7-6.3c-1.7-1.7-3.8-2.6-6.3-2.6
	c-1.9,0-3.7,0.5-5.2,1.7v-4.8c2.2-3.4,3.3-7.1,3.3-11.2c0-5.7-2.2-10.9-6.7-15.4C70.7,26.6,70.4,26.3,70.1,26L70.1,26z M8.1,57.8
	c-0.5-0.5-0.8-1-0.8-1.6c0-0.7,0.2-1.2,0.8-1.6c0.5-0.5,1.1-0.7,1.8-0.7s1.3,0.2,1.8,0.7s0.8,1,0.8,1.6c0,0.6-0.2,1.2-0.8,1.6
	c-0.5,0.5-1.1,0.7-1.8,0.7S8.6,58.2,8.1,57.8L8.1,57.8z"/>
<path class="st0" d="M-30.9,29.4c-3.2,3.5-5.2,7.5-6,12c0.7-1.2,1.7-2.4,2.9-3.5c3.2-2.6,6.9-4,11.3-4c4.4,0,8.2,1.4,11.3,4
	c2.2,1.9,3.7,4.1,4.3,6.6c-1.5,0.9-2.9,2.1-4.3,3.7c-0.5,0.6-0.9,1.1-1.2,1.7h-2.1c0-0.2,0-0.3,0-0.5c0-1.2-0.2-2.2-0.5-3.2h1.4
	v-4.8H-19c-1.6-1.1-3.5-1.6-5.6-1.6c-2.7,0-5.1,0.9-7,2.8c-1.9,1.9-2.9,4.2-2.9,6.9c0,2.2,0.7,4.2,2.1,5.9h8.5v16.6l1.2,2.7h1.8
	l2.2-5v4.6h2.9l1-2.3l0.2-0.5c0.1,0.2,0.1,0.3,0.2,0.5l1.4,0.4v6.6h6.3c-1-1.6-1.4-3.4-1.1-5.6c0.1-0.6,0.1-1.2,0.3-1.8
	c0-0.2,0.1-0.4,0.1-0.6c0.4-1.1,1-1.9,1.9-2.8c1.4-1.3,3.2-2,5.3-2s3.8,0.7,5.3,2c1.2,1.1,1.9,2.4,2.1,3.9c0.1,0.2,0.1,0.3,0.1,0.5
	c-0.1,0.1-0.1,0.2-0.1,0.3c-0.8,2.4-1.8,4.4-3,6h10.1v-4.6c1.8-3.2,2.6-6.8,2.6-10.9c0-5.6-1.6-10.5-4.9-14.6
	c-1.7-2.2-3.6-3.8-5.8-4.8C6,38.5,3.9,33.6,0,29.4c-4.2-4.6-9.4-6.9-15.4-6.9C-21.5,22.5-26.6,24.8-30.9,29.4L-30.9,29.4z
	 M-26.7,44.2c0.4,0,0.8,0.2,1,0.5c0.3,0.3,0.4,0.7,0.4,1.1s-0.2,0.8-0.4,1.1c-0.2,0.3-0.6,0.5-1,0.5s-0.8-0.2-1-0.5
	c-0.2-0.3-0.4-0.7-0.4-1.1s0.1-0.8,0.4-1.1C-27.4,44.3-27.1,44.2-26.7,44.2L-26.7,44.2z"/>
<path class="st0" d="M56.4,40.9c-1.5-0.9-3.2-1.4-5-1.4c-2.7-0.1-5.1,0.8-7,2.6s-2.9,4.1-2.9,6.7c0,2.4,0.8,4.5,2.3,6.2H52v16.5
	l1.1,2.6h1.9l1.8-4.2c0.6,2.8,1.7,5.3,3.3,7.6c0.2,0.2,0.3,0.4,0.4,0.6h-4.2V84h20v-3.8c0.8-0.7,1.6-1.5,2.3-2.5
	c2.6-3.4,3.8-7.6,3.8-12.6c0-1-0.1-2-0.1-2.9c2.7,2.5,6,3.8,9.6,3.8c4.4,0,8.1-1.8,11.2-5.4c3.1-3.5,4.6-7.9,4.6-12.9
	c0-2.7-0.4-5.2-1.3-7.4h15.4c-1.1-3.6-3.1-6.9-5.9-9.8c-4.7-4.9-10.4-7.3-17.1-7.3c-6.6,0-12.3,2.4-17.1,7.3
	c-4.7,4.8-7.1,10.7-7.1,17.7c0,0.2,0,0.5,0,0.8l0.1,0.1L75,48.8c-0.2-0.2-0.4-0.3-0.6-0.5c-0.1,0-0.1,0-0.2-0.1
	c-1.4-0.7-2.9-1-4.6-1c-1.9,0-3.5,0.4-5.1,1.3c-0.4,0.2-0.9,0.5-1.2,0.9c-0.2,0-0.2,0.1-0.3,0.2h-1.7c0-0.1,0-0.2,0-0.2
	c0-1.4-0.3-2.8-0.8-4h2.3v-4.4L56.4,40.9L56.4,40.9z M50.2,44.2c0.3,0.3,0.5,0.6,0.5,1s-0.2,0.8-0.5,1c-0.2,0.3-0.6,0.4-1,0.4
	s-0.7-0.2-1.1-0.4c-0.2-0.2-0.4-0.6-0.4-1s0.1-0.8,0.4-1c0.3-0.2,0.7-0.4,1.1-0.4S50,44,50.2,44.2L50.2,44.2z"/>
<path class="st1" d="M66.1,6c-8.5,0-15.8,2.7-21.8,8c-6,5.3-9,11.7-9.1,19.2c0.8-0.9,1.8-1.7,2.9-2.5c4.1-2.8,9.1-4.2,14.9-4.2
	c5.9,0,10.9,1.4,15,4.2c4.1,2.9,6.2,6.3,6.2,10.3c0,3.3-1.4,6.3-4.3,8.9c-2.7-1.4-5.6-2.2-8.8-2.2c-5,0-9.3,1.8-12.8,5.2
	c-0.3,0.3-0.7,0.7-1.2,1.3c-0.2-0.1-0.5-0.3-0.7-0.5c-3.2-2.1-7-3.2-11.5-3.2c-2.1,0-4,0.2-5.8,0.7v-5.7l-4.8,3.7h-3.1L17.9,44
	l-2.4,4.5c-0.3-0.1-0.7-0.1-1.2-0.1c-2,0-3.7,0.5-5.4,1.4c-1.2,0.6-2.3,1.5-3.3,2.6c-2.4,2.7-3.7,6-3.7,9.7c0,2,0.3,3.7,0.9,5.4
	c0.2,0.4,0.3,0.8,0.5,1.2h18.4v1.8l11,9v-4.8c0-0.2,0.1-0.3,0.2-0.5c0.1-0.1,0.3-0.2,0.5-0.2c0.2,0,0.3,0.1,0.5,0.2
	c0.1,0.1,0.2,0.3,0.2,0.5v5.9c0,0.1,0,0.2-0.1,0.3l-5.6,12.4h3.2c0.1-0.1,0.2-0.3,0.3-0.4c2.5-3.1,7.7-4.9,15.6-5.5V84
	c1.6,0.3,3.2,0.5,5,0.5c2.2,0,4.3-0.3,6.1-0.8c-1.2-1.2-2.2-2.6-3.1-4.1c-0.1-0.2-0.1-0.3-0.1-0.5c0.1-0.2,0.1-0.3,0.3-0.4
	c0.2-0.1,0.3-0.1,0.5-0.1c0.2,0.1,0.3,0.1,0.4,0.3c0.9,1.5,2,2.9,3.1,4.1c0.7,0.7,1.6,1.5,2.6,2.2c0.1,0.1,0.2,0.1,0.3,0.3
	c0.1,0.1,0.1,0.2,0.1,0.3v4.4h7.3v-8.4c-0.1,0-0.1,0-0.2,0c-0.1-0.1-0.3-0.1-0.4-0.3c-0.1-0.2-0.1-0.3-0.1-0.5
	c0.1-0.2,0.1-0.3,0.3-0.4c1.3-0.7,2.5-1.7,3.7-2.9c3.4-3.3,5.1-7.4,5.1-12.2c0-2.4-0.4-4.6-1.2-6.5h-0.1c-0.7-1.7-1.7-3.2-3-4.6
	c-0.1-0.1-0.1-0.3-0.1-0.5c0-0.2,0.1-0.4,0.2-0.5c0.1-0.1,0.3-0.2,0.5-0.2c0.2,0,0.4,0.1,0.5,0.2c1.4,1.5,2.5,3.2,3.3,5v0.1
	c3.4-1.4,6.5-3.3,9.3-5.8c6-5.4,9-11.8,9-19.3c0-7.5-3-14-9-19.4C82,8.6,74.7,6,66.1,6L66.1,6z M9.4,60.1c0-0.5,0.2-1,0.6-1.4
	c0.4-0.4,0.9-0.6,1.4-0.6s1,0.2,1.4,0.6c0.4,0.4,0.6,0.9,0.6,1.4c0,0.5-0.2,1-0.6,1.4c-0.4,0.4-0.9,0.6-1.4,0.6s-1-0.2-1.4-0.6
	C9.6,61.1,9.4,60.7,9.4,60.1L9.4,60.1z"/>
<path class="st1" d="M32.3,80.5l-11.2-9.3l-7.6,16.2h4c0.1-0.1,0.1-0.2,0.1-0.3C19.3,84.2,24.2,82.1,32.3,80.5L32.3,80.5z"/>
</svg>
