<svg width="20" height="20" viewBox="0 0 20 20" fill="none" xmlns="http://www.w3.org/2000/svg">
<path fill-rule="evenodd" clip-rule="evenodd" d="M10 5C10.5523 5 11 5.44772 11 6V9L14 9C14.5523 9 15 9.44772 15 10C15 10.5523 14.5523 11 14 11H11V14C11 14.5523 10.5523 15 10 15C9.44771 15 9 14.5523 9 14V11H6C5.44772 11 5 10.5523 5 10C5 9.44771 5.44772 9 6 9L9 9V6C9 5.44772 9.44771 5 10 5Z" fill="#111827"/>
</svg>


https://pfizer.sharepoint.com/:x:/s/BM3.3JourneyOrchestration/EYmHq7eYFuJFoQc6QchdXuUBhlh2O97yZX5SLoj4HinJrA?e=e1ypjZ


271009759
271009759


lack of quantitative underpinning, looseness of definition, questionable relationship of the factors, and all around failure of rigor - Bill Bain


eventually the old culture prevails

Peters and Waterman
the crucial problems of strategy were most often those of execution and continuous adaptation, getting it done, staying flexible

in real life, strategy is actually very straight forward: you pick a general direction and implement like hell - Jack Welsh


unsplash profile foto
auto=format&fit=facearea&facepad=2.25&h=144&w=144&q=80




<svg width="24" height="24" fill="none" xmlns="http://www.w3.org/2000/svg"><path d="M4 6h16M4 10h16M4 14h16M4 18h16" stroke="#111827" stroke-width="2" stroke-linecap="round" stroke-linejoin="round"/></svg>


<svg width="24" height="24" fill="none" xmlns="http://www.w3.org/2000/svg"><path d="M9 17V7m0 10a2 2 0 01-2 2H5a2 2 0 01-2-2V7a2 2 0 012-2h2a2 2 0 012 2m0 10a2 2 0 002 2h2a2 2 0 002-2M9 7a2 2 0 012-2h2a2 2 0 012 2m0 10V7m0 10a2 2 0 002 2h2a2 2 0 002-2V7a2 2 0 00-2-2h-2a2 2 0 00-2 2" stroke="#111827" stroke-width="2" stroke-linecap="round" stroke-linejoin="round"/></svg>