<svg height='100px' width='100px'  fill="#FFFFFF" xmlns="http://www.w3.org/2000/svg" xmlns:xlink="http://www.w3.org/1999/xlink" version="1.1" x="0px" y="0px" viewBox="0 0 100 100" enable-background="new 0 0 100 100" xml:space="preserve"><path d="M71.252,47.388L42.337,30.007c-1.2-0.722-2.09-0.918-3.072-0.362c-0.983,0.557-1.273,1.42-1.273,2.82v35.07  c0,1.4,0.29,2.264,1.273,2.82c0.982,0.556,1.872,0.359,3.072-0.362l28.915-17.381c1.2-0.722,1.8-1.43,1.8-2.612  S72.452,48.109,71.252,47.388z"></path><path d="M50,5.001C25.147,5.001,5,25.147,5,50s20.147,44.999,45,44.999c24.853,0,45-20.146,45-44.999S74.854,5.001,50,5.001z   M50,87.394c-20.62,0-37.395-16.774-37.395-37.394S29.381,12.606,50,12.606S87.395,29.381,87.395,50S70.62,87.394,50,87.394z"></path></svg>